<svg width="88" height="26" viewBox="0 0 88 26" fill="none" xmlns="http://www.w3.org/2000/svg">
<path d="M87.2899 22.434C87.2899 23.7854 86.1725 24.8801 84.7903 24.8801H2.99111C1.60963 24.8801 0.488281 23.7854 0.488281 22.434V2.92796C0.488281 1.57723 1.60963 0.47876 2.99111 0.47876H84.7897C86.1725 0.47876 87.2893 1.57723 87.2893 2.92796L87.2899 22.434Z" fill="white"/>
<path d="M84.5259 0.508151C86.0312 0.508151 87.256 1.70236 87.256 3.16997V22.1886C87.256 23.6562 86.0312 24.8504 84.5259 24.8504H3.251C1.74579 24.8504 0.520972 23.6562 0.520972 22.1886V3.16997C0.520972 1.70236 1.74579 0.508151 3.251 0.508151H84.5259ZM84.5259 0.000194489H3.251C1.46376 0.000194489 0 1.42739 0 3.16997V22.1886C0 23.9312 1.46376 25.3584 3.251 25.3584H84.5259C86.3132 25.3584 87.7769 23.9312 87.7769 22.1886V3.16997C87.7769 1.42739 86.3132 0.000194489 84.5259 0.000194489Z" fill="#A6A6A6"/>
<path d="M19.5883 12.543C19.5695 10.4998 21.3042 9.50573 21.3835 9.45945C20.4011 8.06285 18.8783 7.87203 18.3432 7.85681C17.0643 7.72558 15.8237 8.60298 15.1722 8.60298C14.5077 8.60298 13.5044 7.86949 12.4231 7.89104C11.0317 7.91197 9.73 8.69744 9.01608 9.91717C7.54273 12.4042 8.64157 16.0589 10.0532 18.0692C10.7593 19.0537 11.5844 20.153 12.6644 20.1143C13.7209 20.0719 14.1156 19.4576 15.3906 19.4576C16.654 19.4576 17.0246 20.1143 18.126 20.0896C19.26 20.0719 19.9739 19.1006 20.6553 18.1072C21.4713 16.9788 21.799 15.8675 21.812 15.8104C21.7854 15.8015 19.6098 14.992 19.5883 12.543Z" fill="black"/>
<path d="M17.5077 6.53438C18.076 5.84147 18.4648 4.89878 18.3568 3.94214C17.5343 3.97764 16.5057 4.49685 15.9134 5.17455C15.3893 5.77173 14.9212 6.75056 15.0421 7.67106C15.9661 7.73826 16.9147 7.21652 17.5077 6.53438Z" fill="black"/>
<path d="M31.8907 6.34529C31.8907 7.09145 31.6611 7.65314 31.2027 8.03034C30.7782 8.37838 30.1748 8.55272 29.3932 8.55272C29.0057 8.55272 28.6741 8.53624 28.3965 8.50327V4.42631C28.7586 4.36925 29.1488 4.34009 29.5701 4.34009C30.3146 4.34009 30.8757 4.49794 31.2541 4.81365C31.678 5.17057 31.8907 5.6809 31.8907 6.34529ZM31.1722 6.36367C31.1722 5.87997 31.0408 5.5091 30.7782 5.25045C30.5155 4.99243 30.1319 4.8631 29.6267 4.8631C29.4121 4.8631 29.2294 4.87705 29.0779 4.90621V8.00562C29.1618 8.0183 29.3152 8.024 29.5382 8.024C30.0597 8.024 30.4622 7.88263 30.7457 7.59989C31.0291 7.31714 31.1722 6.90507 31.1722 6.36367Z" fill="black"/>
<path d="M35.7012 6.99692C35.7012 7.45654 35.5666 7.83311 35.2974 8.12853C35.0152 8.43219 34.6414 8.58371 34.1745 8.58371C33.7246 8.58371 33.3663 8.43853 33.0991 8.14691C32.8325 7.85593 32.6992 7.48887 32.6992 7.04637C32.6992 6.58358 32.8364 6.20384 33.1121 5.90905C33.3878 5.61426 33.7584 5.46655 34.2252 5.46655C34.6752 5.46655 35.0367 5.61173 35.3104 5.90271C35.5705 6.18546 35.7012 6.55062 35.7012 6.99692ZM34.9944 7.01847C34.9944 6.7427 34.9333 6.50624 34.8117 6.30908C34.6687 6.07071 34.4652 5.95153 34.2005 5.95153C33.9268 5.95153 33.7187 6.07071 33.5757 6.30908C33.4535 6.50624 33.393 6.74651 33.393 7.03052C33.393 7.30629 33.4541 7.54276 33.5757 7.73992C33.7233 7.97828 33.9287 8.09747 34.194 8.09747C34.4541 8.09747 34.6583 7.97638 34.8052 7.73358C34.9314 7.53261 34.9944 7.29425 34.9944 7.01847Z" fill="black"/>
<path d="M40.808 5.5271L39.849 8.51556H39.2248L38.8275 7.21786C38.7268 6.89391 38.6448 6.57186 38.5811 6.25234H38.5688C38.5096 6.58073 38.4277 6.90215 38.3223 7.21786L37.9004 8.51556H37.269L36.3672 5.5271H37.0675L37.414 6.94779C37.4979 7.28379 37.5668 7.60394 37.6221 7.90697H37.6344C37.6851 7.65719 37.769 7.33894 37.8874 6.95413L38.3223 5.52773H38.8776L39.2944 6.9237C39.3952 7.26414 39.4771 7.59189 39.5402 7.9076H39.559C39.6052 7.60013 39.6748 7.27238 39.7671 6.9237L40.139 5.52773H40.808V5.5271Z" fill="black"/>
<path d="M44.3409 8.51583H43.6595V6.80415C43.6595 6.2767 43.454 6.01297 43.0418 6.01297C42.8396 6.01297 42.6764 6.08524 42.5496 6.23042C42.4241 6.37559 42.3604 6.54676 42.3604 6.74265V8.51519H41.679V6.3813C41.679 6.11884 41.6706 5.8342 41.6543 5.52609H42.2531L42.285 5.99332H42.3038C42.3832 5.84814 42.5015 5.72833 42.6569 5.6326C42.8416 5.52102 43.0483 5.4646 43.2746 5.4646C43.5607 5.4646 43.7986 5.55462 43.9879 5.7353C44.2232 5.95655 44.3409 6.28684 44.3409 6.72554V8.51583Z" fill="black"/>
<path d="M46.2198 8.51596H45.5391V4.15625H46.2198V8.51596Z" fill="black"/>
<path d="M50.2324 6.99692C50.2324 7.45654 50.0978 7.83311 49.8287 8.12853C49.5465 8.43219 49.172 8.58371 48.7058 8.58371C48.2552 8.58371 47.8969 8.43853 47.6303 8.14691C47.3638 7.85593 47.2305 7.48887 47.2305 7.04637C47.2305 6.58358 47.3677 6.20384 47.6433 5.90905C47.919 5.61426 48.2896 5.46655 48.7558 5.46655C49.2064 5.46655 49.5673 5.61173 49.8417 5.90271C50.1017 6.18546 50.2324 6.55062 50.2324 6.99692ZM49.525 7.01847C49.525 6.7427 49.4639 6.50624 49.3423 6.30908C49.1999 6.07071 48.9958 5.95153 48.7318 5.95153C48.4574 5.95153 48.2493 6.07071 48.1069 6.30908C47.9847 6.50624 47.9242 6.74651 47.9242 7.03052C47.9242 7.30629 47.9854 7.54276 48.1069 7.73992C48.2545 7.97828 48.46 8.09747 48.7253 8.09747C48.9854 8.09747 49.1889 7.97638 49.3358 7.73358C49.4626 7.53261 49.525 7.29425 49.525 7.01847Z" fill="black"/>
<path d="M53.5299 8.51588H52.9181L52.8674 8.17164H52.8485C52.6392 8.44614 52.3407 8.58371 51.9532 8.58371C51.6639 8.58371 51.4298 8.49305 51.2536 8.31301C51.0936 8.14945 51.0137 7.94595 51.0137 7.70441C51.0137 7.33926 51.1697 7.06095 51.4838 6.86823C51.7972 6.6755 52.238 6.58105 52.8056 6.58548V6.5297C52.8056 6.13601 52.5937 5.93948 52.1691 5.93948C51.8667 5.93948 51.6002 6.01366 51.37 6.16073L51.2315 5.72457C51.5163 5.55277 51.868 5.46655 52.2829 5.46655C53.0839 5.46655 53.4857 5.87862 53.4857 6.70276V7.80331C53.4857 8.1019 53.5007 8.33964 53.5299 8.51588ZM52.8225 7.48887V7.02798C52.0709 7.01531 51.6951 7.21627 51.6951 7.63024C51.6951 7.78619 51.738 7.90284 51.8258 7.98082C51.9135 8.05879 52.0254 8.09747 52.1587 8.09747C52.3082 8.09747 52.448 8.05119 52.5754 7.95926C52.7035 7.86671 52.7822 7.74942 52.8115 7.60552C52.8186 7.57318 52.8225 7.53388 52.8225 7.48887Z" fill="black"/>
<path d="M57.4025 8.51596H56.7978L56.7659 8.03606H56.7471C56.5539 8.40121 56.2249 8.58379 55.7627 8.58379C55.3933 8.58379 55.0858 8.44242 54.842 8.15968C54.5981 7.87693 54.4766 7.50987 54.4766 7.05913C54.4766 6.57542 54.6086 6.18364 54.8738 5.88441C55.1307 5.60547 55.4454 5.466 55.8199 5.466C56.2314 5.466 56.5195 5.60103 56.6833 5.87173H56.6963V4.15625H57.3784V7.71084C57.3784 8.00182 57.3862 8.26998 57.4025 8.51596ZM56.6963 7.25566V6.75737C56.6963 6.67115 56.6898 6.60142 56.6775 6.54816C56.6391 6.38841 56.5565 6.25401 56.4311 6.1456C56.3043 6.03719 56.1515 5.98267 55.9753 5.98267C55.721 5.98267 55.5221 6.08094 55.3758 6.2781C55.2308 6.47526 55.1573 6.72694 55.1573 7.03441C55.1573 7.32983 55.2269 7.56946 55.3667 7.75395C55.5143 7.95047 55.7132 8.04873 55.9623 8.04873C56.1859 8.04873 56.3647 7.96695 56.5006 7.80276C56.632 7.65124 56.6963 7.46867 56.6963 7.25566Z" fill="black"/>
<path d="M63.2285 6.99692C63.2285 7.45654 63.0939 7.83311 62.8248 8.12853C62.5426 8.43219 62.1694 8.58371 61.7019 8.58371C61.2526 8.58371 60.8943 8.43853 60.6264 8.14691C60.3599 7.85593 60.2266 7.48887 60.2266 7.04637C60.2266 6.58358 60.3638 6.20384 60.6394 5.90905C60.9151 5.61426 61.2857 5.46655 61.7532 5.46655C62.2025 5.46655 62.5647 5.61173 62.8378 5.90271C63.0978 6.18546 63.2285 6.55062 63.2285 6.99692ZM62.5224 7.01847C62.5224 6.7427 62.4613 6.50624 62.3397 6.30908C62.196 6.07071 61.9932 5.95153 61.7279 5.95153C61.4548 5.95153 61.2467 6.07071 61.103 6.30908C60.9808 6.50624 60.9203 6.74651 60.9203 7.03052C60.9203 7.30629 60.9814 7.54276 61.103 7.73992C61.2506 7.97828 61.4561 8.09747 61.7214 8.09747C61.9815 8.09747 62.1863 7.97638 62.3332 7.73358C62.4587 7.53261 62.5224 7.29425 62.5224 7.01847Z" fill="black"/>
<path d="M66.893 8.51558H66.2122V6.8039C66.2122 6.27645 66.0068 6.01273 65.5939 6.01273C65.3917 6.01273 65.2285 6.085 65.1024 6.23017C64.9762 6.37535 64.9131 6.54652 64.9131 6.74241V8.51495H64.2311V6.38105C64.2311 6.1186 64.2233 5.83395 64.207 5.52585H64.8052L64.8371 5.99307H64.8559C64.9359 5.8479 65.0542 5.72808 65.209 5.63235C65.3943 5.52078 65.6004 5.46436 65.8273 5.46436C66.1128 5.46436 66.3507 5.55438 66.5399 5.73505C66.776 5.9563 66.893 6.2866 66.893 6.72529V8.51558Z" fill="black"/>
<path d="M71.48 6.02512H70.7297V7.47688C70.7297 7.84584 70.863 8.03032 71.1269 8.03032C71.2492 8.03032 71.3506 8.02018 71.4306 7.99926L71.4481 8.50325C71.3135 8.5527 71.1367 8.57742 70.9189 8.57742C70.6497 8.57742 70.4403 8.49755 70.2888 8.33779C70.1367 8.17803 70.0613 7.90924 70.0613 7.53203V6.02512H69.6133V5.52747H70.0613V4.97973L70.729 4.7832V5.52683H71.4793V6.02512H71.48Z" fill="black"/>
<path d="M75.0858 8.51596H74.4037V6.81696C74.4037 6.28127 74.1982 6.0131 73.7867 6.0131C73.4707 6.0131 73.2548 6.16842 73.1365 6.47906C73.1163 6.54436 73.1046 6.62424 73.1046 6.71806V8.51533H72.4238V4.15625H73.1046V5.95732H73.1176C73.3322 5.62956 73.6397 5.466 74.0383 5.466C74.3205 5.466 74.5539 5.55602 74.7392 5.7367C74.97 5.96175 75.0858 6.29648 75.0858 6.73898V8.51596Z" fill="black"/>
<path d="M78.807 6.88012C78.807 6.9993 78.7979 7.09947 78.7817 7.18125H76.7381C76.7472 7.47667 76.8447 7.70172 77.0339 7.85768C77.2069 7.99715 77.4299 8.06688 77.703 8.06688C78.0053 8.06688 78.281 8.01997 78.5294 7.92551L78.636 8.38703C78.3454 8.51002 78.0034 8.57151 77.6074 8.57151C77.1328 8.57151 76.7589 8.43521 76.4884 8.16261C76.2166 7.89001 76.082 7.52422 76.082 7.06523C76.082 6.61449 76.2075 6.23919 76.4604 5.93996C76.7244 5.62045 77.0814 5.46069 77.532 5.46069C77.9728 5.46069 78.3077 5.62045 78.5339 5.93996C78.7166 6.19355 78.807 6.50735 78.807 6.88012ZM78.1568 6.70832C78.162 6.51116 78.1172 6.34126 78.0248 6.19798C77.9065 6.0135 77.7264 5.92094 77.4826 5.92094C77.2602 5.92094 77.0788 6.01097 76.9403 6.19164C76.8272 6.33555 76.7602 6.50735 76.7381 6.70832H78.1568Z" fill="black"/>
<path d="M34.8792 19.9726H33.4026L32.5938 17.4944H29.7823L29.0118 19.9726H27.5742L30.3597 11.5359H32.0801L34.8792 19.9726ZM32.3499 16.4547L31.6185 14.2518C31.5411 14.0267 31.3961 13.4967 31.1822 12.6624H31.1562C31.071 13.0212 30.9338 13.5512 30.7452 14.2518L30.0268 16.4547H32.3499Z" fill="black"/>
<path d="M42.0437 16.8557C42.0437 17.8903 41.7569 18.7081 41.1834 19.3085C40.6698 19.8429 40.0319 20.1098 39.2705 20.1098C38.4487 20.1098 37.8583 19.822 37.4988 19.2464H37.4727V22.451H36.0865V15.8915C36.0865 15.241 36.069 14.5735 36.0352 13.8888H37.2543L37.3317 14.8531H37.3577C37.82 14.1265 38.5215 13.7639 39.463 13.7639C40.199 13.7639 40.8135 14.0473 41.305 14.6147C41.7979 15.1827 42.0437 15.9295 42.0437 16.8557ZM40.6314 16.9052C40.6314 16.313 40.4949 15.8249 40.2205 15.4407C39.9207 15.0401 39.5183 14.8397 39.0137 14.8397C38.6717 14.8397 38.3609 14.9513 38.0833 15.1713C37.805 15.3932 37.6229 15.6829 37.5378 16.0417C37.4949 16.2091 37.4734 16.346 37.4734 16.4538V17.4681C37.4734 17.9106 37.6125 18.284 37.8908 18.5889C38.1691 18.8939 38.5306 19.046 38.9754 19.046C39.4975 19.046 39.9038 18.8495 40.1945 18.4577C40.4858 18.0653 40.6314 17.548 40.6314 16.9052Z" fill="black"/>
<path d="M49.2188 16.8557C49.2188 17.8903 48.932 18.7081 48.3579 19.3085C47.8449 19.8429 47.2071 20.1098 46.4457 20.1098C45.6238 20.1098 45.0334 19.822 44.6745 19.2464H44.6485V22.451H43.2623V15.8915C43.2623 15.241 43.2447 14.5735 43.2109 13.8888H44.4301L44.5074 14.8531H44.5334C44.9951 14.1265 45.6967 13.7639 46.6388 13.7639C47.3742 13.7639 47.9886 14.0473 48.4815 14.6147C48.9724 15.1827 49.2188 15.9295 49.2188 16.8557ZM47.8065 16.9052C47.8065 16.313 47.6694 15.8249 47.395 15.4407C47.0952 15.0401 46.6941 14.8397 46.1889 14.8397C45.8462 14.8397 45.5361 14.9513 45.2578 15.1713C44.9795 15.3932 44.7981 15.6829 44.7129 16.0417C44.6706 16.2091 44.6485 16.346 44.6485 16.4538V17.4681C44.6485 17.9106 44.7877 18.284 45.0647 18.5889C45.3429 18.8932 45.7045 19.046 46.1505 19.046C46.6726 19.046 47.079 18.8495 47.3696 18.4577C47.6609 18.0653 47.8065 17.548 47.8065 16.9052Z" fill="black"/>
<path d="M57.243 17.6065C57.243 18.3241 56.9875 18.908 56.4745 19.3587C55.9108 19.8513 55.126 20.0973 54.1175 20.0973C53.1865 20.0973 52.44 19.9223 51.875 19.5717L52.1962 18.4452C52.8048 18.804 53.4725 18.9841 54.2001 18.9841C54.7222 18.9841 55.1286 18.8687 55.4205 18.6392C55.7112 18.4097 55.8562 18.1016 55.8562 17.7174C55.8562 17.3751 55.7365 17.0866 55.4966 16.8527C55.258 16.6188 54.8594 16.4013 54.3028 16.2004C52.7879 15.6495 52.0311 14.8424 52.0311 13.7812C52.0311 13.0877 52.2963 12.519 52.8275 12.0765C53.3568 11.6334 54.0629 11.4121 54.9459 11.4121C55.7333 11.4121 56.3874 11.5459 56.9095 11.8128L56.5629 12.9146C56.0753 12.6559 55.5239 12.5266 54.9069 12.5266C54.4192 12.5266 54.0382 12.6439 53.7651 12.8772C53.5343 13.0858 53.4186 13.34 53.4186 13.6411C53.4186 13.9746 53.5506 14.2503 53.8158 14.4671C54.0467 14.6675 54.466 14.8843 55.0746 15.1182C55.8191 15.4105 56.3659 15.7522 56.7177 16.144C57.0681 16.5345 57.243 17.0232 57.243 17.6065Z" fill="black"/>
<path d="M61.8271 14.9034H60.2991V17.857C60.2991 18.6082 60.5683 18.9835 61.108 18.9835C61.3557 18.9835 61.5612 18.9626 61.7237 18.9208L61.7621 19.9472C61.489 20.0467 61.1294 20.0968 60.6841 20.0968C60.1366 20.0968 59.7088 19.9338 59.3999 19.6086C59.0924 19.2828 58.9376 18.7363 58.9376 17.9686V14.9021H58.0273V13.8878H58.9376V12.774L60.2991 12.3733V13.8878H61.8271V14.9034Z" fill="black"/>
<path d="M68.7206 16.8805C68.7206 17.8156 68.4462 18.5833 67.8987 19.1837C67.3246 19.8018 66.5626 20.1099 65.6126 20.1099C64.6972 20.1099 63.9683 19.8138 63.4247 19.2217C62.8812 18.6296 62.6094 17.8822 62.6094 16.9813C62.6094 16.0386 62.889 15.2665 63.4501 14.6661C64.0099 14.0651 64.7654 13.7646 65.7154 13.7646C66.6309 13.7646 67.3675 14.0607 67.9235 14.6535C68.4553 15.2285 68.7206 15.9708 68.7206 16.8805ZM67.2824 16.9243C67.2824 16.3632 67.1595 15.8821 66.9104 15.4808C66.6198 14.9952 66.2043 14.753 65.666 14.753C65.1087 14.753 64.6855 14.9958 64.3948 15.4808C64.1458 15.8827 64.0229 16.3715 64.0229 16.9496C64.0229 17.5107 64.1458 17.9919 64.3948 18.3925C64.6946 18.8781 65.1133 19.1203 65.6536 19.1203C66.1829 19.1203 66.5983 18.8731 66.8981 18.3798C67.1536 17.9709 67.2824 17.4847 67.2824 16.9243Z" fill="black"/>
<path d="M73.2268 15.0775C73.0896 15.0527 72.9433 15.0401 72.7899 15.0401C72.3022 15.0401 71.9251 15.2195 71.6598 15.5789C71.429 15.8959 71.3133 16.2966 71.3133 16.7803V19.9722H69.9277L69.9407 15.8046C69.9407 15.1035 69.9231 14.4651 69.8887 13.8894H71.0961L71.1468 15.0534H71.1852C71.3315 14.6534 71.5623 14.3313 71.8783 14.0898C72.1871 13.8723 72.5207 13.7639 72.8803 13.7639C73.0083 13.7639 73.1241 13.7728 73.2268 13.7886V15.0775Z" fill="black"/>
<path d="M79.4258 16.6426C79.4258 16.8848 79.4095 17.0889 79.375 17.2557H75.2164C75.2326 17.8567 75.4335 18.3163 75.8198 18.6333C76.1702 18.9166 76.6234 19.0586 77.18 19.0586C77.7957 19.0586 78.3575 18.9629 78.8627 18.7708L79.0798 19.7091C78.4895 19.9601 77.7925 20.085 76.9882 20.085C76.0207 20.085 75.2612 19.8073 74.7086 19.2526C74.1572 18.6979 73.8809 17.953 73.8809 17.0186C73.8809 16.1012 74.1377 15.3373 74.652 14.7281C75.1904 14.0777 75.9179 13.7524 76.8334 13.7524C77.7326 13.7524 78.4134 14.0777 78.8757 14.7281C79.2417 15.2448 79.4258 15.8838 79.4258 16.6426ZM78.1039 16.2921C78.113 15.8914 78.0226 15.5453 77.8347 15.253C77.5948 14.8771 77.2261 14.6894 76.73 14.6894C76.2768 14.6894 75.9082 14.8726 75.6266 15.2403C75.3958 15.5326 75.2586 15.8832 75.2164 16.2914H78.1039V16.2921Z" fill="black"/>
</svg>
