<svg width="126" height="37" viewBox="0 0 126 37" fill="none" xmlns="http://www.w3.org/2000/svg">
<path d="M125.3 32.602C125.3 34.5418 123.696 36.1131 121.712 36.1131H4.2929C2.30985 36.1131 0.700195 34.5418 0.700195 32.602V4.60233C0.700195 2.66345 2.30985 1.08667 4.2929 1.08667H121.711C123.696 1.08667 125.299 2.66345 125.299 4.60233L125.3 32.602Z" fill="black"/>
<path d="M121.333 1.12894C123.494 1.12894 125.252 2.84316 125.252 4.94981V32.2498C125.252 34.3565 123.494 36.0707 121.333 36.0707H4.66667C2.506 36.0707 0.747833 34.3565 0.747833 32.2498V4.94981C0.747833 2.84316 2.506 1.12894 4.66667 1.12894H121.333ZM121.333 0.399807H4.66667C2.10117 0.399807 0 2.44844 0 4.94981V32.2498C0 34.7512 2.10117 36.7998 4.66667 36.7998H121.333C123.899 36.7998 126 34.7512 126 32.2498V4.94981C126 2.44844 123.899 0.399807 121.333 0.399807Z" fill="#A6A6A6"/>
<path d="M28.1193 18.4033C28.0923 15.4704 30.5824 14.0435 30.6963 13.9771C29.286 11.9724 27.1001 11.6985 26.332 11.6766C24.4961 11.4883 22.7153 12.7477 21.7801 12.7477C20.8263 12.7477 19.3861 11.6948 17.834 11.7258C15.8367 11.7558 13.9681 12.8833 12.9433 14.6341C10.8284 18.2041 12.4057 23.4502 14.432 26.3358C15.4456 27.749 16.63 29.327 18.1803 29.2715C19.6969 29.2105 20.2635 28.3287 22.0937 28.3287C23.9072 28.3287 24.4392 29.2715 26.0203 29.236C27.648 29.2105 28.6728 27.8164 29.6509 26.3904C30.8223 24.7706 31.2927 23.1754 31.3113 23.0935C31.2731 23.0807 28.1501 21.9187 28.1193 18.4033Z" fill="white"/>
<path d="M25.1327 9.77836C25.9484 8.78373 26.5065 7.43056 26.3516 6.05737C25.1709 6.10833 23.6944 6.85362 22.8441 7.82641C22.0919 8.68363 21.4199 10.0887 21.5935 11.41C22.9197 11.5065 24.2815 10.7575 25.1327 9.77836Z" fill="white"/>
<path d="M45.7799 9.50797C45.7799 10.579 45.4504 11.3853 44.7924 11.9267C44.183 12.4263 43.3168 12.6766 42.195 12.6766C41.6387 12.6766 41.1627 12.6529 40.7642 12.6056V6.7534C41.284 6.6715 41.844 6.62964 42.4488 6.62964C43.5175 6.62964 44.323 6.85623 44.8662 7.30941C45.4747 7.82174 45.7799 8.55429 45.7799 9.50797ZM44.7486 9.53436C44.7486 8.84003 44.56 8.30768 44.183 7.9364C43.8059 7.56603 43.2552 7.38039 42.53 7.38039C42.222 7.38039 41.9598 7.40041 41.7423 7.44227V11.8913C41.8627 11.9095 42.083 11.9176 42.4031 11.9176C43.1516 11.9176 43.7294 11.7147 44.1363 11.3089C44.5432 10.903 44.7486 10.3115 44.7486 9.53436Z" fill="white"/>
<path d="M51.2482 10.4433C51.2482 11.1031 51.055 11.6436 50.6686 12.0677C50.2635 12.5036 49.7268 12.7211 49.0567 12.7211C48.4108 12.7211 47.8966 12.5127 47.513 12.0941C47.1303 11.6764 46.939 11.1495 46.939 10.5143C46.939 9.85 47.1359 9.30491 47.5316 8.88176C47.9274 8.45861 48.4594 8.24658 49.1295 8.24658C49.7754 8.24658 50.2943 8.45497 50.6872 8.87266C51.0606 9.27852 51.2482 9.80268 51.2482 10.4433ZM50.2336 10.4743C50.2336 10.0784 50.1459 9.73898 49.9714 9.45597C49.766 9.11381 49.4739 8.94273 49.094 8.94273C48.7011 8.94273 48.4024 9.11381 48.1971 9.45597C48.0216 9.73898 47.9348 10.0839 47.9348 10.4916C47.9348 10.8874 48.0226 11.2268 48.1971 11.5098C48.409 11.852 48.7039 12.0231 49.0847 12.0231C49.458 12.0231 49.7511 11.8493 49.962 11.5007C50.1431 11.2123 50.2336 10.8701 50.2336 10.4743Z" fill="white"/>
<path d="M58.5807 8.33423L57.2041 12.624H56.3081L55.7378 10.7612C55.5931 10.2962 55.4755 9.83391 55.3841 9.37527H55.3663C55.2814 9.84665 55.1638 10.308 55.0126 10.7612L54.4069 12.624H53.5006L52.2061 8.33423H53.2113L53.7087 10.3735C53.8291 10.8558 53.9281 11.3154 54.0074 11.7504H54.0251C54.0979 11.3918 54.2183 10.935 54.3882 10.3826L55.0126 8.33514H55.8097L56.4079 10.339C56.5526 10.8276 56.6702 11.2981 56.7607 11.7513H56.7878C56.8541 11.3099 56.9539 10.8395 57.0865 10.339L57.6203 8.33514H58.5807V8.33423Z" fill="white"/>
<path d="M63.6514 12.6237H62.6733V10.1667C62.6733 9.40961 62.3784 9.03105 61.7866 9.03105C61.4964 9.03105 61.2621 9.13479 61.0801 9.34318C60.9 9.55157 60.8085 9.79727 60.8085 10.0785V12.6228H59.8304V9.55976C59.8304 9.18302 59.8183 8.77443 59.7949 8.33217H60.6545L60.7003 9.00284H60.7273C60.8412 8.79445 61.0111 8.62246 61.2341 8.48505C61.4992 8.32489 61.796 8.2439 62.1208 8.2439C62.5314 8.2439 62.873 8.37312 63.1446 8.63247C63.4825 8.95006 63.6514 9.42417 63.6514 10.0539V12.6237Z" fill="white"/>
<path d="M66.3488 12.6238H65.3716V6.36572H66.3488V12.6238Z" fill="white"/>
<path d="M72.1075 10.4433C72.1075 11.1031 71.9143 11.6436 71.5279 12.0677C71.1229 12.5036 70.5853 12.7211 69.9161 12.7211C69.2693 12.7211 68.755 12.5127 68.3723 12.0941C67.9897 11.6764 67.7983 11.1495 67.7983 10.5143C67.7983 9.85 67.9953 9.30491 68.391 8.88176C68.7867 8.45861 69.3187 8.24658 69.9879 8.24658C70.6347 8.24658 71.1527 8.45497 71.5466 8.87266C71.9199 9.27852 72.1075 9.80268 72.1075 10.4433ZM71.0921 10.4743C71.0921 10.0784 71.0043 9.73898 70.8298 9.45597C70.6254 9.11381 70.3323 8.94273 69.9534 8.94273C69.5595 8.94273 69.2609 9.11381 69.0565 9.45597C68.881 9.73898 68.7942 10.0839 68.7942 10.4916C68.7942 10.8874 68.8819 11.2268 69.0565 11.5098C69.2683 11.852 69.5633 12.0231 69.9441 12.0231C70.3174 12.0231 70.6095 11.8493 70.8205 11.5007C71.0025 11.2123 71.0921 10.8701 71.0921 10.4743Z" fill="white"/>
<path d="M76.8415 12.6237H75.9632L75.8904 12.1296H75.8634C75.5628 12.5236 75.1344 12.7211 74.5782 12.7211C74.1628 12.7211 73.8268 12.5909 73.5739 12.3325C73.3443 12.0977 73.2295 11.8056 73.2295 11.4589C73.2295 10.9347 73.4535 10.5352 73.9043 10.2586C74.3542 9.98195 74.987 9.84636 75.8018 9.85273V9.77265C75.8018 9.20754 75.4975 8.92544 74.888 8.92544C74.454 8.92544 74.0714 9.03191 73.741 9.24303L73.5422 8.61695C73.951 8.37034 74.4559 8.24658 75.0514 8.24658C76.2012 8.24658 76.778 8.83808 76.778 10.0211V11.6008C76.778 12.0295 76.7995 12.3707 76.8415 12.6237ZM75.826 11.1495V10.4879C74.7471 10.4697 74.2076 10.7582 74.2076 11.3524C74.2076 11.5763 74.2692 11.7437 74.3952 11.8556C74.5212 11.9676 74.6818 12.0231 74.8731 12.0231C75.0878 12.0231 75.2884 11.9567 75.4714 11.8247C75.6552 11.6918 75.7682 11.5235 75.8102 11.3169C75.8204 11.2705 75.826 11.2141 75.826 11.1495Z" fill="white"/>
<path d="M82.3992 12.6238H81.5312L81.4855 11.9349H81.4584C81.1812 12.4591 80.7089 12.7212 80.0453 12.7212C79.5152 12.7212 79.0737 12.5182 78.7237 12.1124C78.3737 11.7065 78.1992 11.1796 78.1992 10.5326C78.1992 9.83828 78.3887 9.2759 78.7695 8.84638C79.1382 8.44598 79.5899 8.24578 80.1275 8.24578C80.7183 8.24578 81.1317 8.43961 81.3669 8.82818H81.3856V6.36572H82.3647V11.4681C82.3647 11.8858 82.3759 12.2707 82.3992 12.6238ZM81.3856 10.8147V10.0995C81.3856 9.97569 81.3763 9.87559 81.3585 9.79915C81.3035 9.56983 81.1849 9.37691 81.0048 9.2213C80.8228 9.06569 80.6035 8.98743 80.3505 8.98743C79.9856 8.98743 79.7 9.12848 79.49 9.41149C79.2819 9.6945 79.1764 10.0558 79.1764 10.4971C79.1764 10.9212 79.2763 11.2652 79.4769 11.53C79.6888 11.8121 79.9744 11.9531 80.3319 11.9531C80.6529 11.9531 80.9096 11.8357 81.1047 11.6C81.2932 11.3826 81.3856 11.1205 81.3856 10.8147Z" fill="white"/>
<path d="M90.7648 10.4433C90.7648 11.1031 90.5716 11.6436 90.1852 12.0677C89.7801 12.5036 89.2444 12.7211 88.5733 12.7211C87.9284 12.7211 87.4141 12.5127 87.0296 12.0941C86.6469 11.6764 86.4556 11.1495 86.4556 10.5143C86.4556 9.85 86.6525 9.30491 87.0482 8.88176C87.444 8.45861 87.976 8.24658 88.647 8.24658C89.292 8.24658 89.8118 8.45497 90.2038 8.87266C90.5772 9.27852 90.7648 9.80268 90.7648 10.4433ZM89.7512 10.4743C89.7512 10.0784 89.6634 9.73898 89.4889 9.45597C89.2826 9.11381 88.9914 8.94273 88.6106 8.94273C88.2186 8.94273 87.92 9.11381 87.7137 9.45597C87.5382 9.73898 87.4514 10.0839 87.4514 10.4916C87.4514 10.8874 87.5392 11.2268 87.7137 11.5098C87.9256 11.852 88.2205 12.0231 88.6013 12.0231C88.9746 12.0231 89.2686 11.8493 89.4796 11.5007C89.6597 11.2123 89.7512 10.8701 89.7512 10.4743Z" fill="white"/>
<path d="M96.0241 12.6237H95.0469V10.1667C95.0469 9.40961 94.7519 9.03105 94.1593 9.03105C93.869 9.03105 93.6347 9.13479 93.4537 9.34318C93.2726 9.55157 93.1821 9.79727 93.1821 10.0785V12.6228H92.203V9.55976C92.203 9.18302 92.1918 8.77443 92.1685 8.33217H93.0271L93.0729 9.00284H93.0999C93.2147 8.79445 93.3846 8.62246 93.6067 8.48505C93.8727 8.32489 94.1686 8.2439 94.4943 8.2439C94.9041 8.2439 95.2456 8.37312 95.5172 8.63247C95.856 8.95006 96.0241 9.42417 96.0241 10.0539V12.6237Z" fill="white"/>
<path d="M102.607 9.04831H101.53V11.1322C101.53 11.6618 101.721 11.9266 102.1 11.9266C102.276 11.9266 102.421 11.9121 102.536 11.8821L102.561 12.6055C102.368 12.6765 102.114 12.712 101.801 12.712C101.415 12.712 101.114 12.5973 100.897 12.368C100.679 12.1387 100.57 11.7528 100.57 11.2114V9.04831H99.9272V8.33396H100.57V7.54772L101.529 7.26562V8.33306H102.606V9.04831H102.607Z" fill="white"/>
<path d="M107.785 12.6238H106.806V10.185C106.806 9.41604 106.511 9.03111 105.92 9.03111C105.467 9.03111 105.157 9.25406 104.987 9.69996C104.958 9.79369 104.941 9.90835 104.941 10.043V12.6229H103.964V6.36572H104.941V8.95103H104.96C105.268 8.48056 105.709 8.24578 106.281 8.24578C106.686 8.24578 107.021 8.375 107.287 8.63435C107.619 8.9574 107.785 9.43788 107.785 10.0731V12.6238Z" fill="white"/>
<path d="M113.126 10.276C113.126 10.4471 113.113 10.5909 113.09 10.7083H110.157C110.17 11.1323 110.31 11.4554 110.581 11.6792C110.83 11.8794 111.15 11.9795 111.542 11.9795C111.976 11.9795 112.371 11.9122 112.728 11.7766L112.881 12.4391C112.464 12.6156 111.973 12.7039 111.404 12.7039C110.723 12.7039 110.186 12.5082 109.798 12.1169C109.408 11.7256 109.215 11.2006 109.215 10.5417C109.215 9.89473 109.395 9.356 109.758 8.92648C110.137 8.46784 110.649 8.23853 111.296 8.23853C111.929 8.23853 112.41 8.46784 112.734 8.92648C112.997 9.29048 113.126 9.74093 113.126 10.276ZM112.193 10.0294C112.201 9.74639 112.136 9.50252 112.004 9.29686C111.834 9.03205 111.575 8.89919 111.225 8.89919C110.906 8.89919 110.646 9.02841 110.447 9.28776C110.284 9.49433 110.188 9.74093 110.157 10.0294H112.193Z" fill="white"/>
<path d="M50.0685 29.0685H47.9489L46.7879 25.5113H42.7521L41.6461 29.0685H39.5825L43.5809 16.9583H46.0505L50.0685 29.0685ZM46.4379 24.0189L45.3879 20.8567C45.2768 20.5336 45.0687 19.7729 44.7616 18.5753H44.7243C44.602 19.0904 44.4051 19.8511 44.1344 20.8567L43.1031 24.0189H46.4379Z" fill="white"/>
<path d="M60.351 24.5951C60.351 26.0802 59.9394 27.2541 59.1162 28.1158C58.3789 28.883 57.4633 29.2661 56.3703 29.2661C55.1906 29.2661 54.3431 28.8529 53.827 28.0267H53.7897V32.6267H51.7998V23.2109C51.7998 22.2773 51.7746 21.3191 51.7261 20.3363H53.4761L53.5871 21.7204H53.6245C54.2881 20.6775 55.2951 20.157 56.6466 20.157C57.7031 20.157 58.5851 20.5638 59.2907 21.3782C59.9982 22.1936 60.351 23.2655 60.351 24.5951ZM58.3238 24.666C58.3238 23.8161 58.1278 23.1154 57.7339 22.5639C57.3037 21.9888 56.7259 21.7013 56.0017 21.7013C55.5107 21.7013 55.0646 21.8614 54.6661 22.1772C54.2666 22.4957 54.0053 22.9116 53.883 23.4266C53.8214 23.6669 53.7906 23.8634 53.7906 24.0181V25.4741C53.7906 26.1093 53.9903 26.6453 54.3898 27.083C54.7893 27.5207 55.3082 27.7391 55.9466 27.7391C56.6961 27.7391 57.2794 27.457 57.6966 26.8946C58.1147 26.3313 58.3238 25.5888 58.3238 24.666Z" fill="white"/>
<path d="M70.6523 24.5951C70.6523 26.0802 70.2407 27.2541 69.4166 28.1158C68.6802 28.883 67.7646 29.2661 66.6717 29.2661C65.4919 29.2661 64.6445 28.8529 64.1293 28.0267H64.0919V32.6267H62.1021V23.2109C62.1021 22.2773 62.0769 21.3191 62.0283 20.3363H63.7783L63.8894 21.7204H63.9267C64.5894 20.6775 65.5965 20.157 66.9489 20.157C68.0045 20.157 68.8865 20.5638 69.5939 21.3782C70.2986 22.1936 70.6523 23.2655 70.6523 24.5951ZM68.6251 24.666C68.6251 23.8161 68.4282 23.1154 68.0343 22.5639C67.6041 21.9888 67.0282 21.7013 66.303 21.7013C65.8111 21.7013 65.3659 21.8614 64.9665 22.1772C64.567 22.4957 64.3066 22.9116 64.1843 23.4266C64.1237 23.6669 64.0919 23.8634 64.0919 24.0181V25.4741C64.0919 26.1093 64.2917 26.6453 64.6893 27.083C65.0887 27.5198 65.6077 27.7391 66.2479 27.7391C66.9974 27.7391 67.5807 27.457 67.9979 26.8946C68.4161 26.3313 68.6251 25.5888 68.6251 24.666Z" fill="white"/>
<path d="M82.1695 25.6724C82.1695 26.7025 81.8027 27.5406 81.0663 28.1876C80.2571 28.8947 79.1305 29.2478 77.6829 29.2478C76.3464 29.2478 75.2749 28.9966 74.4639 28.4934L74.9249 26.8763C75.7985 27.3914 76.7571 27.6498 77.8015 27.6498C78.5509 27.6498 79.1343 27.4842 79.5533 27.1548C79.9705 26.8253 80.1787 26.3831 80.1787 25.8316C80.1787 25.3402 80.0069 24.9262 79.6625 24.5904C79.32 24.2546 78.7479 23.9425 77.9489 23.654C75.7743 22.8632 74.6879 21.7048 74.6879 20.1814C74.6879 19.1859 75.0687 18.3696 75.8312 17.7344C76.5909 17.0984 77.6045 16.7808 78.872 16.7808C80.0023 16.7808 80.9412 16.9728 81.6907 17.3559L81.1932 18.9375C80.4932 18.5662 79.7017 18.3805 78.816 18.3805C78.116 18.3805 77.5691 18.5489 77.1771 18.8838C76.8457 19.1832 76.6796 19.5481 76.6796 19.9803C76.6796 20.459 76.8691 20.8548 77.2499 21.1661C77.5812 21.4536 78.1832 21.7648 79.0568 22.1006C80.1255 22.5201 80.9104 23.0106 81.4153 23.573C81.9184 24.1336 82.1695 24.8352 82.1695 25.6724Z" fill="white"/>
<path d="M88.7488 21.7922H86.5555V26.0319C86.5555 27.1103 86.9419 27.649 87.7166 27.649C88.0722 27.649 88.3671 27.6189 88.6004 27.5589L88.6555 29.0322C88.2635 29.175 87.7474 29.2469 87.108 29.2469C86.3222 29.2469 85.708 29.0131 85.2647 28.5462C84.8232 28.0785 84.6011 27.2941 84.6011 26.1921V21.7904H83.2944V20.3344H84.6011V18.7355L86.5555 18.1604V20.3344H88.7488V21.7922Z" fill="white"/>
<path d="M98.645 24.6304C98.645 25.9726 98.2511 27.0746 97.4652 27.9364C96.6411 28.8236 95.5472 29.2659 94.1836 29.2659C92.8695 29.2659 91.8232 28.8409 91.043 27.991C90.2627 27.1411 89.8726 26.0682 89.8726 24.7751C89.8726 23.4219 90.2739 22.3135 91.0794 21.4517C91.883 20.5891 92.9675 20.1577 94.3311 20.1577C95.6452 20.1577 96.7027 20.5827 97.5007 21.4335C98.2642 22.2589 98.645 23.3245 98.645 24.6304ZM96.5804 24.6932C96.5804 23.8878 96.404 23.1971 96.0466 22.6211C95.6294 21.924 95.033 21.5764 94.2602 21.5764C93.4603 21.5764 92.8527 21.9249 92.4355 22.6211C92.078 23.198 91.9016 23.8996 91.9016 24.7296C91.9016 25.5349 92.078 26.2256 92.4355 26.8007C92.8658 27.4978 93.4668 27.8454 94.2424 27.8454C95.0022 27.8454 95.5986 27.4905 96.0288 26.7825C96.3956 26.1956 96.5804 25.4976 96.5804 24.6932Z" fill="white"/>
<path d="M105.113 22.0425C104.916 22.007 104.706 21.9888 104.486 21.9888C103.786 21.9888 103.245 22.2463 102.864 22.7623C102.532 23.2173 102.366 23.7924 102.366 24.4868V29.0686H100.377L100.396 23.0863C100.396 22.0798 100.371 21.1634 100.321 20.3372H102.054L102.127 22.0079H102.182C102.392 21.4337 102.724 20.9714 103.177 20.6247C103.621 20.3126 104.099 20.157 104.616 20.157C104.799 20.157 104.966 20.1697 105.113 20.1925V22.0425Z" fill="white"/>
<path d="M114.012 24.2893C114.012 24.6369 113.989 24.93 113.939 25.1693H107.97C107.993 26.032 108.282 26.6917 108.836 27.1467C109.339 27.5535 109.99 27.7573 110.788 27.7573C111.672 27.7573 112.479 27.6199 113.204 27.3442L113.516 28.691C112.668 29.0513 111.668 29.2306 110.513 29.2306C109.124 29.2306 108.034 28.832 107.241 28.0358C106.449 27.2395 106.053 26.1703 106.053 24.8289C106.053 23.5122 106.421 22.4156 107.16 21.5411C107.932 20.6075 108.977 20.1406 110.291 20.1406C111.582 20.1406 112.559 20.6075 113.223 21.5411C113.748 22.2828 114.012 23.2 114.012 24.2893ZM112.115 23.7861C112.128 23.211 111.998 22.7141 111.728 22.2946C111.384 21.755 110.855 21.4856 110.143 21.4856C109.492 21.4856 108.963 21.7486 108.559 22.2764C108.227 22.6959 108.03 23.1991 107.97 23.7852H112.115V23.7861Z" fill="white"/>
</svg>
