<svg width="252" height="175" viewBox="0 0 252 175" fill="none" xmlns="http://www.w3.org/2000/svg">
<g filter="url(#filter0_dddddd_10_1812)">
<rect x="14.0649" y="40.9861" width="223.87" height="92.6698" rx="14.0651" fill="white"/>
<path d="M36.9423 58.0267V68.2559H35.0892V59.8298H35.0293L32.6368 61.3582V59.66L35.1791 58.0267H36.9423ZM40.494 66.3579V64.8844L44.8344 58.0267H46.0631V60.1245H45.3139L42.392 64.7546V64.8345H48.4505V66.3579H40.494ZM45.3738 68.2559V65.9083L45.3938 65.249V58.0267H47.1419V68.2559H45.3738ZM51.0807 67.0272C50.7777 67.0272 50.518 66.9206 50.3015 66.7075C50.0851 66.4911 49.9785 66.2313 49.9819 65.9283C49.9785 65.6286 50.0851 65.3722 50.3015 65.1591C50.518 64.946 50.7777 64.8395 51.0807 64.8395C51.3737 64.8395 51.6285 64.946 51.8449 65.1591C52.0647 65.3722 52.1762 65.6286 52.1796 65.9283C52.1762 66.1314 52.1229 66.3162 52.0197 66.4827C51.9198 66.6492 51.7866 66.7824 51.6201 66.8823C51.457 66.9789 51.2772 67.0272 51.0807 67.0272ZM51.0807 61.9575C50.7777 61.9575 50.518 61.851 50.3015 61.6379C50.0851 61.4214 49.9785 61.1617 49.9819 60.8587C49.9785 60.559 50.0851 60.3026 50.3015 60.0895C50.518 59.8731 50.7777 59.7648 51.0807 59.7648C51.3737 59.7648 51.6285 59.8731 51.8449 60.0895C52.0647 60.3026 52.1762 60.559 52.1796 60.8587C52.1762 61.0585 52.1229 61.2416 52.0197 61.4081C51.9198 61.5746 51.7866 61.7078 51.6201 61.8077C51.457 61.9076 51.2772 61.9575 51.0807 61.9575ZM57.6917 68.4507C56.8692 68.4507 56.1633 68.2425 55.5739 67.8263C54.9879 67.4068 54.5367 66.8024 54.2203 66.0132C53.9073 65.2207 53.7508 64.2667 53.7508 63.1513C53.7542 62.0358 53.9123 61.0868 54.2253 60.3043C54.5417 59.5184 54.9929 58.9191 55.5789 58.5062C56.1683 58.0933 56.8725 57.8868 57.6917 57.8868C58.5108 57.8868 59.2151 58.0933 59.8044 58.5062C60.3938 58.9191 60.845 59.5184 61.158 60.3043C61.4743 61.0901 61.6325 62.0391 61.6325 63.1513C61.6325 64.2701 61.4743 65.2257 61.158 66.0182C60.845 66.8074 60.3938 67.4101 59.8044 67.8263C59.2184 68.2425 58.5141 68.4507 57.6917 68.4507ZM57.6917 66.8873C58.331 66.8873 58.8355 66.5726 59.2051 65.9433C59.578 65.3106 59.7645 64.38 59.7645 63.1513C59.7645 62.3388 59.6796 61.6562 59.5097 61.1034C59.3399 60.5507 59.1002 60.1345 58.7905 59.8547C58.4808 59.5717 58.1146 59.4302 57.6917 59.4302C57.0557 59.4302 56.5529 59.7465 56.1833 60.3792C55.8137 61.0085 55.6272 61.9326 55.6239 63.1513C55.6205 63.9671 55.7021 64.653 55.8686 65.2091C56.0384 65.7652 56.2782 66.1847 56.5878 66.4678C56.8975 66.7475 57.2655 66.8873 57.6917 66.8873ZM66.9723 68.3957C66.3063 68.3957 65.7103 68.2708 65.1842 68.0211C64.6581 67.768 64.2402 67.4217 63.9305 66.9822C63.6242 66.5427 63.461 66.0399 63.441 65.4738H65.2391C65.2724 65.8934 65.4539 66.2363 65.7836 66.5027C66.1132 66.7658 66.5095 66.8973 66.9723 66.8973C67.3353 66.8973 67.6582 66.8141 67.9413 66.6476C68.2243 66.4811 68.4474 66.2496 68.6106 65.9533C68.7737 65.6569 68.8536 65.319 68.8503 64.9394C68.8536 64.5531 68.7721 64.2101 68.6056 63.9105C68.4391 63.6108 68.211 63.376 67.9213 63.2062C67.6316 63.0331 67.2986 62.9465 66.9224 62.9465C66.616 62.9431 66.3147 62.9998 66.0183 63.1163C65.722 63.2328 65.4872 63.386 65.3141 63.5758L63.6408 63.3011L64.1753 58.0267H70.109V59.575H65.7086L65.4139 62.2872H65.4739C65.6637 62.0641 65.9317 61.8793 66.278 61.7328C66.6243 61.5829 67.0039 61.508 67.4168 61.508C68.0362 61.508 68.5889 61.6545 69.0751 61.9475C69.5612 62.2372 69.9442 62.6368 70.2239 63.1463C70.5036 63.6557 70.6434 64.2384 70.6434 64.8944C70.6434 65.5704 70.4869 66.1731 70.1739 66.7025C69.8642 67.2286 69.433 67.6432 68.8803 67.9462C68.3309 68.2459 67.6949 68.3957 66.9723 68.3957Z" fill="#1F1F1F"/>
<path d="M31.18 82.9768V82.3774L33.431 79.9134C33.6952 79.6248 33.9127 79.374 34.0836 79.1608C34.2546 78.9455 34.3811 78.7435 34.4632 78.5548C34.5476 78.3639 34.5898 78.1641 34.5898 77.9555C34.5898 77.7157 34.532 77.5081 34.4166 77.3328C34.3034 77.1574 34.148 77.022 33.9504 76.9265C33.7529 76.8311 33.5309 76.7834 33.2845 76.7834C33.0225 76.7834 32.7939 76.8377 32.5985 76.9465C32.4054 77.0531 32.2556 77.2029 32.149 77.396C32.0447 77.5892 31.9925 77.8156 31.9925 78.0753H31.2067C31.2067 77.6757 31.2988 77.325 31.4831 77.0231C31.6673 76.7212 31.9181 76.4859 32.2356 76.3172C32.5553 76.1485 32.9138 76.0641 33.3111 76.0641C33.7107 76.0641 34.0648 76.1485 34.3733 76.3172C34.6819 76.4859 34.9239 76.7134 35.0992 76.9998C35.2746 77.2862 35.3623 77.6047 35.3623 77.9555C35.3623 78.2063 35.3168 78.4516 35.2258 78.6913C35.137 78.9289 34.9816 79.1941 34.7596 79.4872C34.5398 79.778 34.2346 80.1331 33.8439 80.5527L32.3122 82.191V82.2442H35.4822V82.9768H31.18ZM39.1616 83.07C38.7221 83.07 38.3303 82.9946 37.9862 82.8436C37.6443 82.6927 37.3724 82.4829 37.1704 82.2143C36.9706 81.9435 36.8618 81.6293 36.844 81.2719H37.6832C37.7009 81.4917 37.7764 81.6815 37.9096 81.8413C38.0428 81.999 38.217 82.121 38.4324 82.2076C38.6477 82.2942 38.8863 82.3375 39.1483 82.3375C39.4413 82.3375 39.701 82.2864 39.9275 82.1843C40.1539 82.0822 40.3315 81.9401 40.4602 81.7581C40.589 81.5761 40.6533 81.3652 40.6533 81.1254C40.6533 80.8746 40.5912 80.6537 40.4669 80.4628C40.3426 80.2697 40.1605 80.1187 39.9208 80.0099C39.681 79.9012 39.388 79.8468 39.0417 79.8468H38.4956V79.1142H39.0417C39.3125 79.1142 39.5501 79.0654 39.7543 78.9677C39.9607 78.87 40.1217 78.7324 40.2371 78.5548C40.3548 78.3772 40.4136 78.1686 40.4136 77.9288C40.4136 77.6979 40.3625 77.497 40.2604 77.3261C40.1583 77.1552 40.014 77.022 39.8276 76.9265C39.6433 76.8311 39.4258 76.7834 39.1749 76.7834C38.9396 76.7834 38.7176 76.8266 38.509 76.9132C38.3025 76.9976 38.1338 77.1208 38.0028 77.2828C37.8718 77.4427 37.8008 77.6358 37.7897 77.8622H36.9906C37.0039 77.5048 37.1115 77.1918 37.3136 76.9232C37.5156 76.6524 37.7797 76.4415 38.106 76.2905C38.4346 76.1396 38.7953 76.0641 39.1882 76.0641C39.61 76.0641 39.9718 76.1496 40.2738 76.3205C40.5757 76.4892 40.8076 76.7123 40.9697 76.9898C41.1317 77.2673 41.2128 77.567 41.2128 77.8889C41.2128 78.2729 41.1118 78.6003 40.9097 78.8712C40.71 79.142 40.438 79.3296 40.0939 79.4339V79.4872C40.5246 79.5582 40.8609 79.7413 41.1029 80.0366C41.3448 80.3296 41.4658 80.6926 41.4658 81.1254C41.4658 81.4962 41.3648 81.8291 41.1628 82.1244C40.963 82.4174 40.69 82.6483 40.3437 82.817C39.9974 82.9857 39.6033 83.07 39.1616 83.07ZM45.4782 82.9768V77.8622H46.2374V78.6614H46.304C46.4106 78.3883 46.5826 78.1763 46.8202 78.0254C47.0577 77.8722 47.3429 77.7956 47.6759 77.7956C48.0133 77.7956 48.2942 77.8722 48.5184 78.0254C48.7448 78.1763 48.9213 78.3883 49.0478 78.6614H49.1011C49.232 78.3972 49.4285 78.1874 49.6905 78.032C49.9524 77.8744 50.2665 77.7956 50.6328 77.7956C51.0901 77.7956 51.4641 77.9388 51.7549 78.2252C52.0457 78.5093 52.1911 78.9522 52.1911 79.5538V82.9768H51.4053V79.5538C51.4053 79.1764 51.3021 78.9067 51.0956 78.7446C50.8892 78.5826 50.6461 78.5015 50.3664 78.5015C50.0068 78.5015 49.7282 78.6103 49.5306 78.8279C49.3331 79.0432 49.2343 79.3162 49.2343 79.647V82.9768H48.4351V79.4738C48.4351 79.183 48.3408 78.9488 48.1521 78.7713C47.9634 78.5914 47.7203 78.5015 47.4229 78.5015C47.2186 78.5015 47.0277 78.5559 46.8501 78.6647C46.6748 78.7735 46.5327 78.9244 46.4239 79.1176C46.3174 79.3085 46.2641 79.5293 46.2641 79.7802V82.9768H45.4782ZM53.628 82.9768V77.8622H54.4138V82.9768H53.628ZM54.0275 77.0098C53.8744 77.0098 53.7423 76.9576 53.6313 76.8533C53.5225 76.749 53.4681 76.6235 53.4681 76.477C53.4681 76.3305 53.5225 76.2051 53.6313 76.1007C53.7423 75.9964 53.8744 75.9442 54.0275 75.9442C54.1807 75.9442 54.3117 75.9964 54.4204 76.1007C54.5314 76.2051 54.5869 76.3305 54.5869 76.477C54.5869 76.6235 54.5314 76.749 54.4204 76.8533C54.3117 76.9576 54.1807 77.0098 54.0275 77.0098ZM56.6389 79.9001V82.9768H55.8531V77.8622H56.6123V78.6614H56.6789C56.7988 78.4016 56.9808 78.193 57.225 78.0354C57.4692 77.8755 57.7844 77.7956 58.1706 77.7956C58.5169 77.7956 58.82 77.8667 59.0797 78.0087C59.3394 78.1486 59.5414 78.3617 59.6857 78.6481C59.83 78.9322 59.9021 79.2918 59.9021 79.7269V82.9768H59.1163V79.7802C59.1163 79.3784 59.012 79.0654 58.8033 78.8412C58.5946 78.6148 58.3083 78.5015 57.9442 78.5015C57.6934 78.5015 57.4692 78.5559 57.2716 78.6647C57.0762 78.7735 56.922 78.9322 56.8088 79.1409C56.6955 79.3495 56.6389 79.6026 56.6389 79.9001ZM65.8933 81.0322C65.6247 81.0322 65.3794 80.9667 65.1574 80.8357C64.9354 80.7025 64.7578 80.525 64.6247 80.303C64.4937 80.081 64.4282 79.8357 64.4282 79.5671C64.4282 79.2963 64.4937 79.051 64.6247 78.8312C64.7578 78.6092 64.9354 78.4327 65.1574 78.3018C65.3794 78.1686 65.6247 78.102 65.8933 78.102C66.1641 78.102 66.4094 78.1686 66.6292 78.3018C66.8512 78.4327 67.0277 78.6092 67.1586 78.8312C67.2918 79.051 67.3584 79.2963 67.3584 79.5671C67.3584 79.8357 67.2918 80.081 67.1586 80.303C67.0277 80.525 66.8512 80.7025 66.6292 80.8357C66.4094 80.9667 66.1641 81.0322 65.8933 81.0322ZM71.9935 82.9768V76.1574H74.3777C74.8527 76.1574 75.2445 76.2395 75.5531 76.4038C75.8617 76.5658 76.0914 76.7845 76.2424 77.0597C76.3933 77.3328 76.4688 77.6358 76.4688 77.9688C76.4688 78.2618 76.4166 78.5038 76.3123 78.6947C76.2102 78.8856 76.0748 79.0365 75.906 79.1475C75.7396 79.2585 75.5586 79.3407 75.3633 79.3939V79.4605C75.572 79.4738 75.7817 79.5471 75.9926 79.6803C76.2035 79.8135 76.38 80.0044 76.5221 80.253C76.6641 80.5016 76.7352 80.8058 76.7352 81.1654C76.7352 81.5073 76.6575 81.8147 76.5021 82.0877C76.3467 82.3608 76.1014 82.5772 75.7662 82.7371C75.431 82.8969 74.9948 82.9768 74.4576 82.9768H71.9935ZM72.8193 82.2442H74.4576C74.997 82.2442 75.3799 82.1399 75.6064 81.9312C75.835 81.7204 75.9493 81.4651 75.9493 81.1654C75.9493 80.9345 75.8905 80.7214 75.7729 80.5261C75.6552 80.3285 75.4876 80.1709 75.2701 80.0532C75.0525 79.9334 74.795 79.8734 74.4975 79.8734H72.8193V82.2442ZM72.8193 79.1542H74.351C74.5997 79.1542 74.8239 79.1053 75.0236 79.0077C75.2257 78.91 75.3855 78.7724 75.5031 78.5948C75.623 78.4172 75.683 78.2085 75.683 77.9688C75.683 77.6691 75.5786 77.4149 75.3699 77.2062C75.1613 76.9954 74.8305 76.8899 74.3777 76.8899H72.8193V79.1542ZM81.2088 80.8857V77.8622H81.9946V82.9768H81.2088V82.1111H81.1555C81.0356 82.3708 80.8491 82.5917 80.5961 82.7737C80.343 82.9535 80.0234 83.0434 79.6371 83.0434C79.3174 83.0434 79.0333 82.9735 78.7847 82.8336C78.536 82.6916 78.3407 82.4784 78.1986 82.1943C78.0565 81.9079 77.9855 81.5472 77.9855 81.1121V77.8622H78.7713V81.0588C78.7713 81.4318 78.8757 81.7292 79.0843 81.9512C79.2952 82.1732 79.5638 82.2842 79.8902 82.2842C80.0855 82.2842 80.2842 82.2343 80.4862 82.1344C80.6904 82.0345 80.8614 81.8813 80.999 81.6749C81.1388 81.4684 81.2088 81.2053 81.2088 80.8857ZM87.0567 79.0077L86.3508 79.2075C86.3064 79.0898 86.2409 78.9755 86.1544 78.8645C86.07 78.7513 85.9546 78.658 85.8081 78.5848C85.6616 78.5115 85.474 78.4749 85.2453 78.4749C84.9323 78.4749 84.6715 78.547 84.4628 78.6913C84.2564 78.8334 84.1532 79.0143 84.1532 79.2341C84.1532 79.4294 84.2242 79.5837 84.3663 79.6969C84.5083 79.8102 84.7303 79.9045 85.0322 79.98L85.7914 80.1664C86.2487 80.2774 86.5895 80.4473 86.8137 80.6759C87.0379 80.9023 87.15 81.1942 87.15 81.5516C87.15 81.8447 87.0656 82.1066 86.8969 82.3375C86.7304 82.5683 86.4973 82.7504 86.1977 82.8836C85.898 83.0168 85.5495 83.0834 85.1521 83.0834C84.6304 83.0834 84.1987 82.9701 83.8568 82.7437C83.5149 82.5173 83.2985 82.1865 83.2075 81.7514L83.9534 81.565C84.0244 81.8402 84.1587 82.0467 84.3563 82.1843C84.5561 82.3219 84.8169 82.3908 85.1388 82.3908C85.5051 82.3908 85.7959 82.3131 86.0112 82.1577C86.2287 82.0001 86.3375 81.8114 86.3375 81.5916C86.3375 81.414 86.2754 81.2653 86.151 81.1454C86.0267 81.0233 85.8358 80.9323 85.5783 80.8724L84.7259 80.6726C84.2575 80.5616 83.9134 80.3895 83.6936 80.1565C83.4761 79.9212 83.3673 79.627 83.3673 79.2741C83.3673 78.9855 83.4483 78.7302 83.6104 78.5082C83.7747 78.2862 83.9978 78.112 84.2797 77.9854C84.5638 77.8589 84.8857 77.7956 85.2453 77.7956C85.7515 77.7956 86.1488 77.9066 86.4374 78.1286C86.7282 78.3506 86.9347 78.6436 87.0567 79.0077ZM93.1811 83.07C92.6794 83.07 92.2521 82.9335 91.8991 82.6605C91.5462 82.3852 91.2764 81.9867 91.09 81.4651C90.9035 80.9412 90.8103 80.3085 90.8103 79.5671C90.8103 78.8301 90.9035 78.2007 91.09 77.6791C91.2787 77.1552 91.5495 76.7556 91.9025 76.4803C92.2576 76.2029 92.6838 76.0641 93.1811 76.0641C93.6784 76.0641 94.1035 76.2029 94.4564 76.4803C94.8116 76.7556 95.0824 77.1552 95.2689 77.6791C95.4576 78.2007 95.5519 78.8301 95.5519 79.5671C95.5519 80.3085 95.4587 80.9412 95.2722 81.4651C95.0857 81.9867 94.816 82.3852 94.4631 82.6605C94.1101 82.9335 93.6828 83.07 93.1811 83.07ZM93.1811 82.3375C93.6784 82.3375 94.0646 82.0977 94.3399 81.6182C94.6151 81.1388 94.7528 80.455 94.7528 79.5671C94.7528 78.9766 94.6895 78.4738 94.563 78.0587C94.4387 77.6436 94.2588 77.3272 94.0235 77.1097C93.7905 76.8921 93.5096 76.7834 93.1811 76.7834C92.6883 76.7834 92.3031 77.0264 92.0257 77.5126C91.7482 77.9965 91.6094 78.6814 91.6094 79.5671C91.6094 80.1576 91.6716 80.6593 91.7959 81.0722C91.9202 81.4851 92.0989 81.7992 92.332 82.0145C92.5673 82.2298 92.8503 82.3375 93.1811 82.3375ZM96.8172 82.9768V82.3774L99.0682 79.9134C99.3324 79.6248 99.5499 79.374 99.7208 79.1608C99.8918 78.9455 100.018 78.7435 100.1 78.5548C100.185 78.3639 100.227 78.1641 100.227 77.9555C100.227 77.7157 100.169 77.5081 100.054 77.3328C99.9406 77.1574 99.7852 77.022 99.5876 76.9265C99.3901 76.8311 99.1681 76.7834 98.9217 76.7834C98.6597 76.7834 98.4311 76.8377 98.2357 76.9465C98.0426 77.0531 97.8928 77.2029 97.7862 77.396C97.6819 77.5892 97.6297 77.8156 97.6297 78.0753H96.8439C96.8439 77.6757 96.936 77.325 97.1203 77.0231C97.3045 76.7212 97.5554 76.4859 97.8728 76.3172C98.1925 76.1485 98.551 76.0641 98.9483 76.0641C99.3479 76.0641 99.702 76.1485 100.011 76.3172C100.319 76.4859 100.561 76.7134 100.736 76.9998C100.912 77.2862 100.999 77.6047 100.999 77.9555C100.999 78.2063 100.954 78.4516 100.863 78.6913C100.774 78.9289 100.619 79.1941 100.397 79.4872C100.177 79.778 99.8718 80.1331 99.4811 80.5527L97.9494 82.191V82.2442H101.119V82.9768H96.8172ZM104.626 83.07C104.235 83.07 103.883 82.9923 103.57 82.837C103.257 82.6816 103.006 82.4685 102.818 82.1976C102.629 81.9268 102.526 81.6182 102.508 81.2719H103.307C103.338 81.5805 103.478 81.8358 103.727 82.0378C103.977 82.2376 104.277 82.3375 104.626 82.3375C104.905 82.3375 105.154 82.272 105.372 82.141C105.591 82.0101 105.763 81.8302 105.888 81.6016C106.014 81.3707 106.077 81.1099 106.077 80.8191C106.077 80.5216 106.012 80.2564 105.881 80.0233C105.752 79.788 105.575 79.6026 105.348 79.4672C105.122 79.3318 104.863 79.263 104.572 79.2607C104.364 79.2585 104.149 79.2907 103.93 79.3573C103.71 79.4217 103.529 79.5049 103.387 79.607L102.614 79.5138L103.027 76.1574H106.57V76.8899H103.72L103.48 78.9011H103.52C103.66 78.7901 103.835 78.698 104.046 78.6247C104.257 78.5515 104.477 78.5149 104.706 78.5149C105.123 78.5149 105.495 78.6148 105.821 78.8145C106.15 79.0121 106.407 79.2829 106.594 79.627C106.782 79.9711 106.877 80.364 106.877 80.8058C106.877 81.2409 106.779 81.6293 106.584 81.9712C106.39 82.3108 106.124 82.5794 105.784 82.777C105.445 82.9724 105.059 83.07 104.626 83.07Z" fill="#9D9D9D"/>
<path d="M121.021 65.3955V58.5761H125.11V59.3086H121.846V61.6128H124.803V62.3454H121.846V65.3955H121.021ZM126.362 65.3955V60.2809H127.122V61.0534H127.175C127.268 60.8004 127.437 60.595 127.681 60.4374C127.925 60.2798 128.201 60.201 128.507 60.201C128.565 60.201 128.637 60.2021 128.723 60.2043C128.81 60.2066 128.875 60.2099 128.92 60.2143V61.0135C128.893 61.0068 128.832 60.9968 128.737 60.9835C128.643 60.968 128.545 60.9602 128.44 60.9602C128.192 60.9602 127.97 61.0124 127.774 61.1167C127.581 61.2188 127.428 61.3609 127.315 61.5429C127.204 61.7227 127.148 61.9281 127.148 62.1589V65.3955H126.362ZM131.773 65.5021C131.312 65.5021 130.907 65.3922 130.558 65.1724C130.212 64.9526 129.941 64.6452 129.746 64.2501C129.552 63.8549 129.456 63.3932 129.456 62.8649C129.456 62.3321 129.552 61.867 129.746 61.4697C129.941 61.0723 130.212 60.7637 130.558 60.544C130.907 60.3242 131.312 60.2143 131.773 60.2143C132.235 60.2143 132.639 60.3242 132.985 60.544C133.334 60.7637 133.605 61.0723 133.798 61.4697C133.993 61.867 134.091 62.3321 134.091 62.8649C134.091 63.3932 133.993 63.8549 133.798 64.2501C133.605 64.6452 133.334 64.9526 132.985 65.1724C132.639 65.3922 132.235 65.5021 131.773 65.5021ZM131.773 64.7961C132.124 64.7961 132.413 64.7062 132.639 64.5264C132.866 64.3466 133.033 64.1102 133.142 63.8172C133.251 63.5242 133.305 63.2067 133.305 62.8649C133.305 62.523 133.251 62.2044 133.142 61.9092C133.033 61.614 132.866 61.3753 132.639 61.1933C132.413 61.0113 132.124 60.9202 131.773 60.9202C131.423 60.9202 131.134 61.0113 130.908 61.1933C130.681 61.3753 130.514 61.614 130.405 61.9092C130.296 62.2044 130.242 62.523 130.242 62.8649C130.242 63.2067 130.296 63.5242 130.405 63.8172C130.514 64.1102 130.681 64.3466 130.908 64.5264C131.134 64.7062 131.423 64.7961 131.773 64.7961ZM135.291 65.3955V60.2809H136.05V61.0801H136.116C136.223 60.807 136.395 60.595 136.632 60.4441C136.87 60.2909 137.155 60.2143 137.488 60.2143C137.826 60.2143 138.106 60.2909 138.331 60.4441C138.557 60.595 138.734 60.807 138.86 61.0801H138.913C139.044 60.8159 139.241 60.6061 139.503 60.4507C139.765 60.2931 140.079 60.2143 140.445 60.2143C140.902 60.2143 141.276 60.3575 141.567 60.6439C141.858 60.928 142.003 61.3709 142.003 61.9725V65.3955H141.218V61.9725C141.218 61.5951 141.114 61.3254 140.908 61.1633C140.701 61.0013 140.458 60.9202 140.179 60.9202C139.819 60.9202 139.54 61.029 139.343 61.2466C139.145 61.4619 139.047 61.7349 139.047 62.0657V65.3955H138.247V61.8925C138.247 61.6017 138.153 61.3675 137.964 61.19C137.776 61.0101 137.533 60.9202 137.235 60.9202C137.031 60.9202 136.84 60.9746 136.662 61.0834C136.487 61.1922 136.345 61.3431 136.236 61.5363C136.13 61.7272 136.076 61.948 136.076 62.1989V65.3955H135.291Z" fill="#9D9D9D"/>
<path d="M120.952 83.6001V75.9282H123.888C124.443 75.9282 124.904 76.0156 125.271 76.1904C125.64 76.3628 125.916 76.5988 126.099 76.8984C126.283 77.1981 126.376 77.5378 126.376 77.9174C126.376 78.2295 126.316 78.4967 126.196 78.719C126.076 78.9388 125.915 79.1173 125.713 79.2547C125.51 79.3921 125.284 79.4907 125.035 79.5506V79.6256C125.307 79.6405 125.568 79.7242 125.818 79.8765C126.07 80.0264 126.276 80.2387 126.436 80.5134C126.596 80.7881 126.675 81.1202 126.675 81.5098C126.675 81.9069 126.579 82.264 126.387 82.5812C126.195 82.8958 125.905 83.1443 125.518 83.3266C125.131 83.5089 124.644 83.6001 124.057 83.6001H120.952ZM122.341 82.4388H123.836C124.34 82.4388 124.704 82.3427 124.926 82.1504C125.151 81.9556 125.263 81.7059 125.263 81.4012C125.263 81.1739 125.207 80.9691 125.095 80.7868C124.982 80.602 124.822 80.4572 124.615 80.3523C124.408 80.2449 124.161 80.1912 123.873 80.1912H122.341V82.4388ZM122.341 79.191H123.716C123.956 79.191 124.172 79.1473 124.364 79.0599C124.556 78.97 124.708 78.8439 124.817 78.6816C124.93 78.5167 124.986 78.3219 124.986 78.0972C124.986 77.8 124.881 77.5552 124.671 77.3629C124.464 77.1707 124.156 77.0745 123.746 77.0745H122.341V79.191ZM131.386 81.1802V77.8462H132.743V83.6001H131.428V82.5774H131.368C131.238 82.8996 131.024 83.1631 130.727 83.3678C130.432 83.5726 130.069 83.675 129.637 83.675C129.26 83.675 128.927 83.5914 128.637 83.424C128.35 83.2542 128.125 83.0082 127.963 82.6861C127.8 82.3614 127.719 81.9693 127.719 81.5098V77.8462H129.075V81.3C129.075 81.6646 129.175 81.9543 129.375 82.1691C129.575 82.3839 129.837 82.4913 130.161 82.4913C130.361 82.4913 130.555 82.4426 130.742 82.3452C130.929 82.2478 131.083 82.1029 131.203 81.9106C131.325 81.7158 131.386 81.4723 131.386 81.1802ZM138.579 79.3671L137.343 79.5019C137.308 79.3771 137.247 79.2597 137.159 79.1498C137.075 79.0399 136.96 78.9513 136.815 78.8838C136.67 78.8164 136.493 78.7827 136.283 78.7827C136.001 78.7827 135.763 78.8439 135.571 78.9663C135.381 79.0886 135.288 79.2472 135.29 79.442C135.288 79.6093 135.349 79.7454 135.474 79.8503C135.601 79.9552 135.811 80.0414 136.103 80.1088L137.085 80.3186C137.629 80.4359 138.033 80.622 138.298 80.8767C138.565 81.1315 138.7 81.4649 138.703 81.8769C138.7 82.239 138.594 82.5587 138.384 82.8359C138.177 83.1106 137.889 83.3254 137.519 83.4802C137.149 83.6351 136.725 83.7125 136.245 83.7125C135.541 83.7125 134.974 83.5651 134.545 83.2704C134.115 82.9733 133.859 82.5599 133.777 82.0305L135.099 81.9031C135.159 82.1629 135.286 82.3589 135.481 82.4913C135.676 82.6236 135.929 82.6898 136.242 82.6898C136.564 82.6898 136.822 82.6236 137.017 82.4913C137.214 82.3589 137.313 82.1953 137.313 82.0005C137.313 81.8357 137.249 81.6996 137.122 81.5922C136.997 81.4848 136.802 81.4024 136.538 81.345L135.556 81.139C135.004 81.0241 134.596 80.8305 134.331 80.5583C134.066 80.2836 133.935 79.9365 133.938 79.5169C133.935 79.1623 134.031 78.8551 134.226 78.5954C134.424 78.3332 134.697 78.1309 135.047 77.9885C135.399 77.8437 135.805 77.7713 136.264 77.7713C136.938 77.7713 137.469 77.9149 137.856 78.2021C138.246 78.4893 138.487 78.8776 138.579 79.3671ZM146.456 78.0372C146.421 77.7101 146.274 77.4553 146.014 77.273C145.757 77.0907 145.422 76.9996 145.01 76.9996C144.72 76.9996 144.472 77.0433 144.264 77.1307C144.057 77.2181 143.899 77.3367 143.789 77.4866C143.679 77.6364 143.623 77.8075 143.62 77.9998C143.62 78.1596 143.656 78.2982 143.729 78.4156C143.804 78.533 143.905 78.6329 144.032 78.7153C144.16 78.7952 144.301 78.8626 144.456 78.9176C144.61 78.9725 144.766 79.0187 144.924 79.0562L145.643 79.236C145.933 79.3034 146.211 79.3945 146.478 79.5094C146.748 79.6243 146.989 79.7692 147.201 79.944C147.416 80.1188 147.586 80.3298 147.711 80.577C147.836 80.8243 147.898 81.114 147.898 81.4461C147.898 81.8957 147.783 82.2915 147.553 82.6336C147.324 82.9733 146.992 83.2392 146.557 83.4315C146.125 83.6213 145.602 83.7162 144.987 83.7162C144.391 83.7162 143.872 83.6238 143.433 83.439C142.996 83.2542 142.654 82.9845 142.406 82.6299C142.162 82.2752 142.029 81.8432 142.009 81.3337H143.377C143.397 81.601 143.479 81.8232 143.624 82.0005C143.769 82.1779 143.957 82.3102 144.19 82.3976C144.424 82.485 144.687 82.5287 144.976 82.5287C145.278 82.5287 145.543 82.4838 145.77 82.3939C146 82.3015 146.18 82.1741 146.31 82.0118C146.44 81.847 146.506 81.6547 146.508 81.4349C146.506 81.2351 146.447 81.0703 146.332 80.9404C146.217 80.8081 146.056 80.6982 145.849 80.6108C145.644 80.5209 145.404 80.4409 145.13 80.371L144.257 80.1463C143.625 79.9839 143.126 79.7379 142.759 79.4083C142.394 79.0761 142.212 78.6354 142.212 78.0859C142.212 77.6339 142.334 77.2381 142.579 76.8984C142.826 76.5588 143.162 76.2953 143.586 76.108C144.011 75.9182 144.492 75.8233 145.029 75.8233C145.573 75.8233 146.05 75.9182 146.46 76.108C146.872 76.2953 147.195 76.5563 147.43 76.8909C147.665 77.2231 147.786 77.6052 147.793 78.0372H146.456ZM151.845 77.8462V78.8951H148.537V77.8462H151.845ZM149.354 76.4676H150.71V81.8694C150.71 82.0517 150.737 82.1916 150.792 82.289C150.85 82.3839 150.925 82.4488 151.017 82.4838C151.109 82.5187 151.212 82.5362 151.324 82.5362C151.409 82.5362 151.487 82.53 151.556 82.5175C151.629 82.505 151.684 82.4938 151.721 82.4838L151.95 83.5439C151.877 83.5689 151.774 83.5964 151.639 83.6263C151.507 83.6563 151.344 83.6738 151.152 83.6788C150.812 83.6888 150.506 83.6376 150.234 83.5252C149.962 83.4103 149.746 83.233 149.586 82.9932C149.429 82.7535 149.351 82.4538 149.354 82.0942V76.4676ZM155.322 83.7125C154.76 83.7125 154.273 83.5889 153.861 83.3416C153.449 83.0944 153.129 82.7485 152.902 82.304C152.677 81.8594 152.564 81.34 152.564 80.7456C152.564 80.1512 152.677 79.6305 152.902 79.1835C153.129 78.7365 153.449 78.3894 153.861 78.1421C154.273 77.8949 154.76 77.7713 155.322 77.7713C155.883 77.7713 156.37 77.8949 156.783 78.1421C157.195 78.3894 157.513 78.7365 157.738 79.1835C157.965 79.6305 158.079 80.1512 158.079 80.7456C158.079 81.34 157.965 81.8594 157.738 82.304C157.513 82.7485 157.195 83.0944 156.783 83.3416C156.37 83.5889 155.883 83.7125 155.322 83.7125ZM155.329 82.6261C155.634 82.6261 155.888 82.5425 156.093 82.3751C156.298 82.2053 156.45 81.9781 156.55 81.6934C156.653 81.4087 156.704 81.0915 156.704 80.7419C156.704 80.3897 156.653 80.0713 156.55 79.7866C156.45 79.4994 156.298 79.2709 156.093 79.1011C155.888 78.9313 155.634 78.8464 155.329 78.8464C155.017 78.8464 154.757 78.9313 154.55 79.1011C154.345 79.2709 154.192 79.4994 154.089 79.7866C153.989 80.0713 153.939 80.3897 153.939 80.7419C153.939 81.0915 153.989 81.4087 154.089 81.6934C154.192 81.9781 154.345 82.2053 154.55 82.3751C154.757 82.5425 155.017 82.6261 155.329 82.6261ZM159.124 85.7578V77.8462H160.458V78.7977H160.536C160.606 78.6578 160.705 78.5092 160.832 78.3519C160.96 78.1921 161.132 78.056 161.349 77.9436C161.567 77.8287 161.844 77.7713 162.181 77.7713C162.625 77.7713 163.026 77.8849 163.383 78.1122C163.743 78.3369 164.028 78.6703 164.237 79.1123C164.45 79.5519 164.556 80.0913 164.556 80.7306C164.556 81.3625 164.452 81.8994 164.245 82.3414C164.038 82.7835 163.755 83.1206 163.398 83.3529C163.041 83.5851 162.637 83.7012 162.185 83.7012C161.855 83.7012 161.582 83.6463 161.364 83.5364C161.147 83.4265 160.972 83.2942 160.84 83.1393C160.71 82.982 160.609 82.8334 160.536 82.6936H160.48V85.7578H159.124ZM160.454 80.7231C160.454 81.0952 160.506 81.4212 160.611 81.7009C160.719 81.9806 160.872 82.1991 161.072 82.3564C161.274 82.5112 161.519 82.5887 161.806 82.5887C162.106 82.5887 162.357 82.5088 162.559 82.3489C162.762 82.1866 162.914 81.9656 163.016 81.6859C163.121 81.4037 163.174 81.0828 163.174 80.7231C163.174 80.366 163.122 80.0489 163.02 79.7716C162.918 79.4944 162.765 79.2772 162.563 79.1198C162.361 78.9625 162.108 78.8838 161.806 78.8838C161.517 78.8838 161.271 78.96 161.068 79.1123C160.866 79.2647 160.712 79.4782 160.608 79.7529C160.505 80.0276 160.454 80.351 160.454 80.7231Z" fill="#1F1F1F"/>
<rect x="30.4741" y="100.837" width="15.2372" height="15.2372" rx="5.86047" fill="#F5F5F5"/>
<path d="M38.0926 107.797L37.5432 108.988L37.6531 109.335L38.2717 109.954M38.2717 109.954L39.4112 110.873L40.0705 112.192M38.2717 109.954L39.1914 107.797L38.3123 106.918H37.6531L36.9937 107.137L36.5542 108.456M39.6309 108.236L40.51 108.896M37.9827 110.654L37.4333 111.313L36.774 111.972M39.4112 105.599C39.4112 105.963 39.116 106.258 38.7519 106.258C38.3878 106.258 38.0926 105.963 38.0926 105.599C38.0926 105.235 38.3878 104.94 38.7519 104.94C39.116 104.94 39.4112 105.235 39.4112 105.599Z" stroke="#1F1F1F" stroke-width="0.586047" stroke-linecap="round" stroke-linejoin="round"/>
<path d="M45.7114 108.456L60.3626 108.456" stroke="url(#paint0_linear_10_1812)" stroke-width="1.17209" stroke-linejoin="round" stroke-dasharray="1.76 1.76"/>
<rect x="60.3623" y="100.837" width="15.2372" height="15.2372" rx="5.86047" fill="#1A1528"/>
<path d="M65.4226 108.968V110.048C65.4226 110.215 65.6333 110.538 65.7828 110.613M65.4226 108.968H68.2002M65.4226 108.968V106.401V105.819M70.9778 108.968V110.048C70.9778 110.215 70.7671 110.538 70.6177 110.613M70.9778 108.968H68.2002M70.9778 108.968V106.401V105.819M65.7828 110.613V111.429C65.7828 111.496 65.8056 111.561 65.8476 111.613L65.9146 111.696C65.9702 111.765 66.0541 111.806 66.1428 111.806H66.3218C66.4135 111.806 66.4998 111.763 66.5552 111.69L66.6148 111.611C66.6535 111.56 66.6744 111.498 66.6744 111.434V110.613M65.7828 110.613H66.6744M66.6744 110.613H69.726M70.6177 110.613H69.726M70.6177 110.613V111.429C70.6177 111.496 70.5948 111.561 70.5528 111.613L70.4859 111.696C70.4302 111.765 70.3463 111.806 70.2576 111.806H70.0786C69.9869 111.806 69.9006 111.763 69.8452 111.69L69.7856 111.611C69.7469 111.56 69.726 111.498 69.726 111.434V110.613M68.2002 104.94H70.3979C70.8374 104.94 70.9778 104.94 70.9778 105.379V105.819M68.2002 104.94H66.0025C65.563 104.94 65.4226 104.94 65.4226 105.379V105.819M68.2002 104.94V108.968M66.4422 109.775H67.3212M69.0794 109.775H69.9584M65.4226 105.819L64.4644 106.401V107.06M70.9778 105.819L71.9363 106.401V107.06" stroke="white" stroke-width="0.586047" stroke-linecap="round" stroke-linejoin="round"/>
<rect x="75.5996" y="107.87" width="45.6698" height="1.17209" fill="#1A1528"/>
<rect x="121.27" y="100.837" width="15.2372" height="15.2372" rx="5.86047" fill="#F5F5F5"/>
<path d="M128.888 107.797L128.339 108.988L128.448 109.335L129.067 109.954M129.067 109.954L130.207 110.873L130.866 112.192M129.067 109.954L129.987 107.797L129.108 106.918H128.448L127.789 107.137L127.35 108.456M130.426 108.236L131.305 108.896M128.778 110.654L128.229 111.313L127.569 111.972M130.207 105.599C130.207 105.963 129.911 106.258 129.547 106.258C129.183 106.258 128.888 105.963 128.888 105.599C128.888 105.235 129.183 104.94 129.547 104.94C129.911 104.94 130.207 105.235 130.207 105.599Z" stroke="#1F1F1F" stroke-width="0.586047" stroke-linecap="round" stroke-linejoin="round"/>
<path d="M136.507 108.456L151.158 108.456" stroke="url(#paint1_linear_10_1812)" stroke-width="1.17209" stroke-linejoin="round" stroke-dasharray="1.76 1.76"/>
<rect x="151.157" y="104.94" width="7.03256" height="7.03256" rx="3.51628" fill="#1A1528"/>
<rect x="152.282" y="106.065" width="4.78214" height="4.78214" rx="2.39107" fill="white"/>
<rect x="153.408" y="107.19" width="2.53172" height="2.53172" rx="1.26586" fill="#1A1528"/>
<rect x="169.911" y="99.6653" width="51.614" height="17.5814" rx="7.03256" fill="#FFCE48"/>
<path d="M179.418 105.526H184.074C184.236 105.526 184.367 105.657 184.367 105.819V106.722C184.367 106.874 184.25 106.999 184.103 107.04C183.643 107.171 183.037 107.562 183.037 108.456C183.037 109.406 183.62 109.779 184.077 109.886C184.235 109.922 184.367 110.052 184.367 110.214V111.093C184.367 111.255 184.236 111.386 184.074 111.386H179.418M179.418 105.526H176.846C176.684 105.526 176.553 105.657 176.553 105.819V106.722C176.553 106.874 176.671 106.999 176.817 107.04C177.278 107.171 177.883 107.562 177.883 108.456C177.883 109.406 177.3 109.779 176.843 109.886C176.686 109.922 176.553 110.052 176.553 110.214V111.093C176.553 111.255 176.684 111.386 176.846 111.386H179.418M179.418 105.526V106.363M179.418 107.2V108.037M179.418 108.874V109.712M179.418 111.386V110.549" stroke="#1A1528" stroke-width="0.586047" stroke-linecap="round" stroke-linejoin="round"/>
<path d="M195.029 107.668V108.251H189.085V107.668H195.029ZM195.029 108.927V109.51H189.085V108.927H195.029ZM194.466 105.489V111.456H193.636L190.603 107.08H190.551V111.456H189.647V105.489H190.484L193.517 109.871H193.572V105.489H194.466ZM198.2 105.489V111.456H197.297V106.392H197.262L195.834 107.324V106.462L197.323 105.489H198.2ZM200.778 110.64L200.735 110.958C200.706 111.191 200.656 111.433 200.586 111.686C200.518 111.94 200.447 112.176 200.373 112.394C200.302 112.612 200.242 112.784 200.196 112.913H199.578C199.603 112.792 199.638 112.629 199.683 112.423C199.728 112.219 199.771 111.991 199.814 111.738C199.857 111.486 199.889 111.229 199.91 110.966L199.939 110.64H200.778ZM203.704 105.489V111.456H202.801V106.392H202.766L201.338 107.324V106.462L202.827 105.489H203.704ZM207.559 111.555C207.099 111.553 206.706 111.432 206.379 111.191C206.053 110.95 205.804 110.599 205.631 110.139C205.458 109.679 205.371 109.124 205.371 108.475C205.371 107.828 205.458 107.276 205.631 106.817C205.806 106.359 206.056 106.009 206.382 105.768C206.711 105.528 207.103 105.407 207.559 105.407C208.016 105.407 208.407 105.529 208.734 105.771C209.06 106.012 209.31 106.362 209.482 106.82C209.657 107.277 209.745 107.828 209.745 108.475C209.745 109.126 209.658 109.681 209.485 110.142C209.312 110.6 209.063 110.951 208.737 111.194C208.41 111.434 208.018 111.555 207.559 111.555ZM207.559 110.777C207.964 110.777 208.279 110.58 208.506 110.185C208.736 109.791 208.85 109.221 208.85 108.475C208.85 107.98 208.798 107.561 208.693 107.219C208.59 106.876 208.441 106.615 208.247 106.439C208.055 106.26 207.826 106.171 207.559 106.171C207.157 106.171 206.842 106.369 206.613 106.765C206.383 107.161 206.268 107.731 206.266 108.475C206.266 108.972 206.317 109.393 206.42 109.737C206.525 110.079 206.674 110.338 206.866 110.515C207.058 110.69 207.289 110.777 207.559 110.777ZM213.02 111.555C212.559 111.553 212.166 111.432 211.84 111.191C211.513 110.95 211.264 110.599 211.091 110.139C210.918 109.679 210.832 109.124 210.832 108.475C210.832 107.828 210.918 107.276 211.091 106.817C211.266 106.359 211.516 106.009 211.843 105.768C212.171 105.528 212.563 105.407 213.02 105.407C213.476 105.407 213.868 105.529 214.194 105.771C214.52 106.012 214.77 106.362 214.943 106.82C215.118 107.277 215.205 107.828 215.205 108.475C215.205 109.126 215.118 109.681 214.946 110.142C214.773 110.6 214.523 110.951 214.197 111.194C213.871 111.434 213.478 111.555 213.02 111.555ZM213.02 110.777C213.424 110.777 213.739 110.58 213.967 110.185C214.196 109.791 214.31 109.221 214.31 108.475C214.31 107.98 214.258 107.561 214.153 107.219C214.05 106.876 213.902 106.615 213.707 106.439C213.515 106.26 213.286 106.171 213.02 106.171C212.618 106.171 212.302 106.369 212.073 106.765C211.844 107.161 211.728 107.731 211.726 108.475C211.726 108.972 211.778 109.393 211.881 109.737C211.985 110.079 212.134 110.338 212.326 110.515C212.519 110.69 212.75 110.777 213.02 110.777Z" fill="#1A1528"/>
</g>
<defs>
<filter id="filter0_dddddd_10_1812" x="-73.842" y="-34.0279" width="399.684" height="268.484" filterUnits="userSpaceOnUse" color-interpolation-filters="sRGB">
<feFlood flood-opacity="0" result="BackgroundImageFix"/>
<feColorMatrix in="SourceAlpha" type="matrix" values="0 0 0 0 0 0 0 0 0 0 0 0 0 0 0 0 0 0 127 0" result="hardAlpha"/>
<feOffset dy="0.356783"/>
<feGaussianBlur stdDeviation="1.21631"/>
<feColorMatrix type="matrix" values="0 0 0 0 0 0 0 0 0 0 0 0 0 0 0 0 0 0 0.01 0"/>
<feBlend mode="normal" in2="BackgroundImageFix" result="effect1_dropShadow_10_1812"/>
<feColorMatrix in="SourceAlpha" type="matrix" values="0 0 0 0 0 0 0 0 0 0 0 0 0 0 0 0 0 0 127 0" result="hardAlpha"/>
<feOffset dy="0.857399"/>
<feGaussianBlur stdDeviation="2.92295"/>
<feColorMatrix type="matrix" values="0 0 0 0 0 0 0 0 0 0 0 0 0 0 0 0 0 0 0.01 0"/>
<feBlend mode="normal" in2="effect1_dropShadow_10_1812" result="effect2_dropShadow_10_1812"/>
<feColorMatrix in="SourceAlpha" type="matrix" values="0 0 0 0 0 0 0 0 0 0 0 0 0 0 0 0 0 0 127 0" result="hardAlpha"/>
<feOffset dy="1.61441"/>
<feGaussianBlur stdDeviation="5.50366"/>
<feColorMatrix type="matrix" values="0 0 0 0 0 0 0 0 0 0 0 0 0 0 0 0 0 0 0.01 0"/>
<feBlend mode="normal" in2="effect2_dropShadow_10_1812" result="effect3_dropShadow_10_1812"/>
<feColorMatrix in="SourceAlpha" type="matrix" values="0 0 0 0 0 0 0 0 0 0 0 0 0 0 0 0 0 0 127 0" result="hardAlpha"/>
<feOffset dy="2.87983"/>
<feGaussianBlur stdDeviation="9.81759"/>
<feColorMatrix type="matrix" values="0 0 0 0 0 0 0 0 0 0 0 0 0 0 0 0 0 0 0.0119221 0"/>
<feBlend mode="normal" in2="effect3_dropShadow_10_1812" result="effect4_dropShadow_10_1812"/>
<feColorMatrix in="SourceAlpha" type="matrix" values="0 0 0 0 0 0 0 0 0 0 0 0 0 0 0 0 0 0 127 0" result="hardAlpha"/>
<feOffset dy="5.3864"/>
<feGaussianBlur stdDeviation="18.3627"/>
<feColorMatrix type="matrix" values="0 0 0 0 0 0 0 0 0 0 0 0 0 0 0 0 0 0 0.0143771 0"/>
<feBlend mode="normal" in2="effect4_dropShadow_10_1812" result="effect5_dropShadow_10_1812"/>
<feColorMatrix in="SourceAlpha" type="matrix" values="0 0 0 0 0 0 0 0 0 0 0 0 0 0 0 0 0 0 127 0" result="hardAlpha"/>
<feOffset dy="12.893"/>
<feGaussianBlur stdDeviation="43.9535"/>
<feColorMatrix type="matrix" values="0 0 0 0 0 0 0 0 0 0 0 0 0 0 0 0 0 0 0.04 0"/>
<feBlend mode="normal" in2="effect5_dropShadow_10_1812" result="effect6_dropShadow_10_1812"/>
<feBlend mode="normal" in="SourceGraphic" in2="effect6_dropShadow_10_1812" result="shape"/>
</filter>
<linearGradient id="paint0_linear_10_1812" x1="45.7114" y1="107.956" x2="60.3626" y2="107.956" gradientUnits="userSpaceOnUse">
<stop stop-color="#DEDEDE"/>
<stop offset="1" stop-color="#C7C7C7"/>
</linearGradient>
<linearGradient id="paint1_linear_10_1812" x1="136.507" y1="107.956" x2="151.158" y2="107.956" gradientUnits="userSpaceOnUse">
<stop stop-color="#DEDEDE"/>
<stop offset="1" stop-color="#C7C7C7"/>
</linearGradient>
</defs>
</svg>
