<svg width="48" height="48" viewBox="0 0 48 48" fill="none" xmlns="http://www.w3.org/2000/svg">
<rect width="48" height="48" rx="24" fill="#FFBF00"/>
<mask id="mask0_1_529" style="mask-type:alpha" maskUnits="userSpaceOnUse" x="12" y="11" width="24" height="25">
<rect x="12" y="11.8" width="24" height="24" fill="#D9D9D9"/>
</mask>
<g mask="url(#mask0_1_529)">
<path d="M18.5479 29.2523L26.0659 25.8658L29.4524 18.3478L21.9344 21.7343L18.5479 29.2523ZM24.0001 24.8001C23.7168 24.8001 23.4793 24.7042 23.2876 24.5126C23.096 24.3209 23.0001 24.0834 23.0001 23.8001C23.0001 23.5167 23.096 23.2792 23.2876 23.0876C23.4793 22.8959 23.7168 22.8001 24.0001 22.8001C24.2835 22.8001 24.521 22.8959 24.7126 23.0876C24.9043 23.2792 25.0001 23.5167 25.0001 23.8001C25.0001 24.0834 24.9043 24.3209 24.7126 24.5126C24.521 24.7042 24.2835 24.8001 24.0001 24.8001ZM24.0001 34.0033C22.585 34.0033 21.2571 33.7356 20.0166 33.2003C18.776 32.665 17.6968 31.9386 16.7791 31.0211C15.8616 30.1034 15.1352 29.0242 14.5999 27.7836C14.0645 26.5431 13.7969 25.2152 13.7969 23.8001C13.7969 22.3849 14.0645 21.0571 14.5999 19.8166C15.1352 18.5759 15.8616 17.4967 16.7791 16.5791C17.6968 15.6616 18.776 14.9351 20.0166 14.3998C21.2571 13.8645 22.585 13.5968 24.0001 13.5968C25.4153 13.5968 26.7431 13.8645 27.9836 14.3998C29.2243 14.9351 30.3035 15.6616 31.2211 16.5791C32.1386 17.4967 32.865 18.5759 33.4004 19.8166C33.9357 21.0571 34.2034 22.3849 34.2034 23.8001C34.2034 25.2152 33.9357 26.5431 33.4004 27.7836C32.865 29.0242 32.1386 30.1034 31.2211 31.0211C30.3035 31.9386 29.2243 32.665 27.9836 33.2003C26.7431 33.7356 25.4153 34.0033 24.0001 34.0033ZM24.0001 31.7283C26.2175 31.7283 28.0932 30.9613 29.6274 29.4273C31.1614 27.8931 31.9284 26.0174 31.9284 23.8001C31.9284 21.5827 31.1614 19.707 29.6274 18.1728C28.0932 16.6388 26.2175 15.8718 24.0001 15.8718C21.7828 15.8718 19.907 16.6388 18.3729 18.1728C16.8389 19.707 16.0719 21.5827 16.0719 23.8001C16.0719 26.0174 16.8389 27.8931 18.3729 29.4273C19.907 30.9613 21.7828 31.7283 24.0001 31.7283Z" fill="#1C1B1F"/>
</g>
</svg>
