<svg width="48" height="48" viewBox="0 0 48 48" fill="none" xmlns="http://www.w3.org/2000/svg">
<rect width="48" height="48" rx="24" fill="#FFBF00"/>
<g clip-path="url(#clip0_1_521)">
<mask id="mask0_1_521" style="mask-type:alpha" maskUnits="userSpaceOnUse" x="8" y="8" width="32" height="33">
<rect x="8" y="8.19019" width="32" height="32" fill="#D9D9D9"/>
</mask>
<g mask="url(#mask0_1_521)">
<path d="M22.6522 36.3099V33.4192C21.4317 33.1419 20.3884 32.6109 19.5222 31.8262C18.6562 31.0413 18.0257 29.9388 17.6309 28.5186L20.3289 27.4469C20.6569 28.5347 21.1446 29.351 21.7922 29.8959C22.4397 30.441 23.281 30.7136 24.3159 30.7136C25.211 30.7136 25.958 30.5199 26.5569 30.1326C27.1555 29.7454 27.4549 29.1424 27.4549 28.3236C27.4549 27.5829 27.2077 26.9861 26.7135 26.5332C26.2193 26.0803 25.0886 25.573 23.3215 25.0112C21.4317 24.4219 20.126 23.6986 19.4042 22.8412C18.6824 21.9841 18.3215 20.9449 18.3215 19.7236C18.3215 18.3004 18.7815 17.1756 19.7015 16.3489C20.6217 15.5224 21.6053 15.0377 22.6522 14.8946V12.0706H25.4382V14.8946C26.5706 15.0937 27.506 15.5204 28.2442 16.1749C28.9822 16.8296 29.5232 17.6337 29.8672 18.5872L27.1855 19.7336C26.924 19.0331 26.5474 18.5024 26.0559 18.1416C25.5645 17.7807 24.9045 17.6002 24.0759 17.6002C23.1354 17.6002 22.4269 17.801 21.9502 18.2026C21.4737 18.6039 21.2355 19.1029 21.2355 19.6996C21.2355 20.3958 21.5489 20.947 22.1755 21.3532C22.8024 21.7594 23.9486 22.2012 25.6142 22.6786C27.1689 23.1337 28.35 23.8512 29.1575 24.8312C29.9651 25.8112 30.3689 26.9531 30.3689 28.2569C30.3689 29.856 29.8969 31.0746 28.9529 31.9126C28.0089 32.7508 26.8373 33.2752 25.4382 33.4859V36.3099H22.6522Z" fill="#1C1B1F"/>
</g>
</g>
<defs>
<clipPath id="clip0_1_521">
<rect width="24" height="24" fill="white" transform="translate(12 12)"/>
</clipPath>
</defs>
</svg>
