<svg width="550" height="551" viewBox="0 0 550 551" fill="none" xmlns="http://www.w3.org/2000/svg">
<g clip-path="url(#clip0_1_539)">
<g filter="url(#filter0_f_1_539)">
<mask id="mask0_1_539" style="mask-type:alpha" maskUnits="userSpaceOnUse" x="-100" y="-110" width="876" height="584">
<ellipse cx="337.598" cy="182" rx="437.598" ry="292" fill="url(#paint0_linear_1_539)"/>
</mask>
<g mask="url(#mask0_1_539)">
<path d="M601.945 472.086L481.874 530.442L322.813 541.416L-62.8938 644.766C-65.1198 645.362 -67.457 644.302 -68.474 642.234L-85.42 607.777L-110.088 547.473L-122.453 501.328L-141.848 428.944L-177.487 295.938L-124.722 172.217L-110.67 118.993L-133.401 34.162C-134.099 31.5555 -132.525 28.8827 -129.907 28.2298L21.8208 -9.60476L106.535 -32.304L214.206 -64.0636L393.655 -112.147L506.608 -142.412L598.614 -167.065C600.165 -167.481 601.779 -166.657 602.352 -165.158L685.295 -120.468L714.388 -11.8923L759.482 156.401L793.476 301.485L723.889 431.653L601.945 472.086Z" fill="url(#paint1_linear_1_539)"/>
<path d="M21.8208 -9.60476L49.1053 83.9397M21.8208 -9.60476L106.535 -32.304M21.8208 -9.60476L-129.907 28.2298C-132.525 28.8827 -134.099 31.5555 -133.401 34.162L-110.67 118.993M49.1053 83.9397L69.8311 154.998L89.9796 239.302M49.1053 83.9397L129.075 66.3909M49.1053 83.9397L-78.3968 111.913M129.075 66.3909L106.535 -32.304M129.075 66.3909L237.841 31.4287M129.075 66.3909L162.29 190.349M106.535 -32.304L214.206 -64.0636M237.841 31.4287L214.206 -64.0636M237.841 31.4287L416.019 -25.0419M237.841 31.4287L272.51 160.815M214.206 -64.0636L393.656 -112.147M416.019 -25.0419L393.656 -112.147M416.019 -25.0419L538.389 -67.5285M416.019 -25.0419L447.962 90.5287M393.656 -112.147L506.608 -142.412M538.389 -67.5285L506.608 -142.412M538.389 -67.5285L572.896 21.1716M538.389 -67.5285L627.423 -99.6133M506.608 -142.412L598.614 -167.065C600.165 -167.481 601.779 -166.657 602.352 -165.158V-165.158M447.962 90.5287L272.51 160.815M447.962 90.5287L501.996 230.243M447.962 90.5287L558.674 48.2566M272.51 160.815L162.29 190.349M272.51 160.815L296.387 257.212L315.062 312.334M162.29 190.349L240.36 346.896M162.29 190.349L89.9796 239.302M315.062 312.334L295.083 321.577M315.062 312.334L408.529 271.288M501.996 230.243L609.093 185.413M501.996 230.243L408.529 271.288M501.996 230.243L562.949 373.921M558.674 48.2566L565.732 25.4267C566.222 23.8418 567.492 22.6196 569.094 22.1903L572.896 21.1716M558.674 48.2566L563.984 71.6602C564.039 71.9033 564.113 72.1419 564.205 72.3736L609.093 185.413M602.339 32.6775L580.999 20.4521C579.893 19.8186 578.581 19.6482 577.35 19.978L572.896 21.1716M602.339 32.6775L714.388 -11.8923M602.339 32.6775L656.497 165.57M714.388 -11.8923L759.482 156.401M714.388 -11.8923L685.295 -120.468M656.497 165.57L609.093 185.413M656.497 165.57L759.482 156.401M656.497 165.57L698.682 323.005M685.295 -120.468L627.423 -99.6133M685.295 -120.468L602.352 -165.158M627.423 -99.6133L602.352 -165.158M759.482 156.401L793.476 301.485M240.36 346.896L37.9993 437M240.36 346.896L249.033 368.332L257.705 389.767M240.36 346.896L295.083 321.577M-110.67 118.993L-78.3968 111.913M-110.67 118.993L-124.722 172.217M-78.3968 111.913L-68.3872 154.212L-63.8575 173.354C-63.7136 173.962 -63.4529 174.537 -63.09 175.045L17.6694 288.255M-124.722 172.217L-94.768 308.685M-124.722 172.217L-177.487 295.938M-79.3763 447.116L-72.7814 434.556C-72.4419 433.91 -72.2536 433.194 -72.2306 432.464L-71.6678 414.613C-71.6553 414.215 -71.6922 413.816 -71.7777 413.426L-94.768 308.685M-79.3763 447.116L-63.846 475.927M-79.3763 447.116L-108.024 443.424C-108.474 443.366 -108.913 443.245 -109.329 443.064L-141.848 428.944M-63.846 475.927L-122.453 501.328M-63.846 475.927L-57.6467 473.557M-122.453 501.328L-110.088 547.473M-122.453 501.328L-141.848 428.944M-141.848 428.944L-177.487 295.938M-94.768 308.685L-130.671 315.51C-131.627 315.692 -132.616 315.58 -133.508 315.19L-177.487 295.938M-94.768 308.685L17.6694 288.255M17.6694 288.255L17.0239 379.672C17.0198 380.257 17.1222 380.839 17.3263 381.387L37.9993 437M17.6694 288.255L89.9796 239.302M37.9993 437L-57.6467 473.557M-57.6467 473.557L-48.309 495.653L-38.9712 517.75M-38.9712 517.75L-110.088 547.473M-38.9712 517.75L214.951 405.102L257.705 389.767M-38.9712 517.75L-13.1996 588.425M-110.088 547.473L-85.42 607.777M257.705 389.767L316.069 363.461M257.705 389.767L274.808 431.733M295.083 321.577L306.365 341.818L316.069 363.461M316.069 363.461L336.757 400.588M408.529 271.288L469.604 415.419M469.604 415.419L393.749 449.321M469.604 415.419L562.949 373.921M393.749 449.321L336.757 400.588M393.749 449.321L481.874 530.442M336.757 400.588L274.808 431.733M274.808 431.733L308.352 502.266M308.352 502.266L-13.1996 588.425M308.352 502.266L322.812 541.416M562.949 373.921L698.682 323.005M562.949 373.921L601.945 472.086M698.682 323.005L793.476 301.485M698.682 323.005L723.889 431.653M793.476 301.485L723.889 431.653M601.945 472.086L481.874 530.442M601.945 472.086L723.889 431.653M481.874 530.442L322.812 541.416M-13.1996 588.425L-85.42 607.777M-85.42 607.777L-68.474 642.234C-67.457 644.302 -65.1198 645.362 -62.8938 644.766L322.812 541.416" stroke="url(#paint2_linear_1_539)" stroke-width="12.8705" stroke-linecap="round" stroke-linejoin="round"/>
</g>
</g>
</g>
<defs>
<filter id="filter0_f_1_539" x="-103.218" y="-113.218" width="881.631" height="590.435" filterUnits="userSpaceOnUse" color-interpolation-filters="sRGB">
<feFlood flood-opacity="0" result="BackgroundImageFix"/>
<feBlend mode="normal" in="SourceGraphic" in2="BackgroundImageFix" result="shape"/>
<feGaussianBlur stdDeviation="1.60882" result="effect1_foregroundBlur_1_539"/>
</filter>
<linearGradient id="paint0_linear_1_539" x1="337.598" y1="266.802" x2="337.598" y2="474" gradientUnits="userSpaceOnUse">
<stop stop-color="#F8F8F8"/>
<stop offset="1" stop-color="#F8F8F8" stop-opacity="0"/>
</linearGradient>
<linearGradient id="paint1_linear_1_539" x1="213.295" y1="-63.8195" x2="379.852" y2="557.779" gradientUnits="userSpaceOnUse">
<stop stop-color="#FFF7E2"/>
<stop offset="1" stop-color="white"/>
</linearGradient>
<linearGradient id="paint2_linear_1_539" x1="289.55" y1="217.182" x2="323.455" y2="347.295" gradientUnits="userSpaceOnUse">
<stop stop-color="white"/>
<stop offset="1" stop-color="white"/>
</linearGradient>
<clipPath id="clip0_1_539">
<rect y="0.519897" width="550" height="550" rx="24" fill="white"/>
</clipPath>
</defs>
</svg>
