<svg width="48" height="49" viewBox="0 0 48 49" fill="none" xmlns="http://www.w3.org/2000/svg">
<rect y="0.249878" width="48" height="48" rx="24" fill="#FFBF00"/>
<mask id="mask0_1_506" style="mask-type:alpha" maskUnits="userSpaceOnUse" x="12" y="12" width="24" height="24">
<rect x="12" y="12" width="24" height="24" fill="#D9D9D9"/>
</mask>
<g mask="url(#mask0_1_506)">
<path d="M32.5708 35.4255L31.3425 34.2033H15.7968V31.9283H17.7968V29C17.7968 27.9993 18.0233 27.0552 18.4763 26.1675C18.9294 25.2797 19.5631 24.5572 20.3773 24C19.8439 23.6308 19.3937 23.192 19.0265 22.6835C18.6595 22.175 18.3714 21.6194 18.162 21.0168L12.645 15.5L14.13 14.0153L34.0555 33.9408L32.5708 35.4255ZM27.313 24.2098L25.6338 22.5495C26.3359 22.2288 26.8939 21.7481 27.3075 21.1073C27.7214 20.4666 27.9283 19.7642 27.9283 19V16.0718H20.0718V16.9935L19.156 16.0718L16.881 13.7968H32.2033V16.0718H30.2033V19C30.2033 20.0667 29.9499 21.0623 29.4433 21.987C28.9366 22.9117 28.2265 23.6526 27.313 24.2098ZM20.0718 31.9283H27.9283V30.7833L22.505 25.3658C21.7669 25.6744 21.1768 26.1571 20.7348 26.8138C20.2928 27.4706 20.0718 28.1993 20.0718 29V31.9283Z" fill="#1C1B1F"/>
</g>
</svg>
