<svg width="48" height="48" viewBox="0 0 48 48" fill="none" xmlns="http://www.w3.org/2000/svg">
<rect width="48" height="48" rx="24" fill="#FFBF00"/>
<g clip-path="url(#clip0_1_513)">
<mask id="mask0_1_513" style="mask-type:alpha" maskUnits="userSpaceOnUse" x="12" y="12" width="24" height="24">
<rect x="12" y="12" width="24" height="24" fill="#D9D9D9"/>
</mask>
<g mask="url(#mask0_1_513)">
<path d="M24.0031 28.9523C24.2965 28.9523 24.544 28.8514 24.7456 28.6498C24.9471 28.4481 25.0479 28.2006 25.0479 27.9073C25.0479 27.6141 24.9475 27.3667 24.7466 27.165C24.5458 26.9633 24.297 26.8625 24.0001 26.8625C23.7088 26.8625 23.4613 26.9629 23.2576 27.1638C23.0541 27.3646 22.9524 27.6134 22.9524 27.9103C22.9524 28.2016 23.0541 28.4481 23.2576 28.6498C23.4613 28.8514 23.7098 28.9523 24.0031 28.9523ZM24.0031 25.0478C24.2965 25.0478 24.544 24.946 24.7456 24.7425C24.9471 24.5388 25.0479 24.2903 25.0479 23.997C25.0479 23.7037 24.9475 23.4562 24.7466 23.2545C24.5458 23.053 24.297 22.9523 24.0001 22.9523C23.7088 22.9523 23.4613 23.0527 23.2576 23.2535C23.0541 23.4543 22.9524 23.7032 22.9524 24C22.9524 24.2913 23.0541 24.5388 23.2576 24.7425C23.4613 24.946 23.7098 25.0478 24.0031 25.0478ZM24.0031 21.1375C24.2965 21.1375 24.544 21.0357 24.7456 20.832C24.9471 20.6285 25.0479 20.3801 25.0479 20.0868C25.0479 19.7934 24.9475 19.5469 24.7466 19.3473C24.5458 19.1476 24.297 19.0478 24.0001 19.0478C23.7088 19.0478 23.4613 19.1476 23.2576 19.3473C23.0541 19.5471 22.9524 19.7946 22.9524 20.0898C22.9524 20.3811 23.0541 20.6285 23.2576 20.832C23.4613 21.0357 23.7098 21.1375 24.0031 21.1375ZM31.9284 32.2033H16.0719C15.4422 32.2033 14.9056 31.9815 14.4621 31.538C14.0186 31.0945 13.7969 30.5579 13.7969 29.9283V25.8925C14.3429 25.8925 14.8127 25.7086 15.2064 25.3408C15.6 24.9731 15.7969 24.5262 15.7969 24C15.7969 23.466 15.6 23.0171 15.2064 22.6533C14.8127 22.2894 14.3429 22.1075 13.7969 22.1075V18.0718C13.7969 17.4421 14.0186 16.9055 14.4621 16.462C14.9056 16.0185 15.4422 15.7968 16.0719 15.7968H31.9284C32.558 15.7968 33.0946 16.0185 33.5381 16.462C33.9816 16.9055 34.2034 17.4421 34.2034 18.0718V22.1075C33.6614 22.1075 33.1925 22.2894 32.7969 22.6533C32.4012 23.0171 32.2034 23.466 32.2034 24C32.2034 24.5262 32.4012 24.9731 32.7969 25.3408C33.1925 25.7086 33.6614 25.8925 34.2034 25.8925V29.9283C34.2034 30.5579 33.9816 31.0945 33.5381 31.538C33.0946 31.9815 32.558 32.2033 31.9284 32.2033ZM31.9284 29.9283V27.48C31.3157 27.1093 30.8292 26.6171 30.4689 26.0033C30.1085 25.3894 29.9284 24.7209 29.9284 23.9978C29.9284 23.2746 30.1085 22.6068 30.4689 21.9945C30.8292 21.3822 31.3157 20.8907 31.9284 20.52V18.0718H16.0719V20.52C16.6925 20.8907 17.181 21.3825 17.5374 21.9955C17.8937 22.6083 18.0719 23.2758 18.0719 23.998C18.0719 24.72 17.8937 25.3882 17.5374 26.0025C17.181 26.6168 16.6925 27.1093 16.0719 27.48V29.9283H31.9284Z" fill="#1C1B1F"/>
</g>
</g>
<defs>
<clipPath id="clip0_1_513">
<rect width="24" height="24" fill="white" transform="translate(12 12)"/>
</clipPath>
</defs>
</svg>
