<svg width="64" height="37" viewBox="0 0 64 37" fill="none" xmlns="http://www.w3.org/2000/svg">
<g clip-path="url(#clip0_1_275)">
<g clip-path="url(#clip1_1_275)">
<mask id="mask0_1_275" style="mask-type:luminance" maskUnits="userSpaceOnUse" x="1" y="0" width="88" height="37">
<path d="M1.5 0.77002H88.5V36.77H1.5V0.77002Z" fill="white"/>
</mask>
<g mask="url(#mask0_1_275)">
<path d="M19.576 0.769937C16.4298 0.756606 13.3351 1.56817 10.6003 3.12371C7.86549 4.67926 5.58619 6.92446 3.9896 9.63549C2.39301 12.3465 1.5349 15.4287 1.50081 18.5747C1.46672 21.7208 2.25784 24.8208 3.79531 27.5658C5.33278 30.3108 7.56289 32.6049 10.2633 34.2193C12.9638 35.8338 16.0402 36.7122 19.186 36.767C22.3317 36.8219 25.4369 36.0512 28.192 34.5319C30.9471 33.0126 33.2558 30.7977 34.888 28.1079H50.146L53.336 35.9039H60.03L63.22 28.1079H78.397L81.64 35.9039H88.007L73.625 1.30794H67.826L56.69 28.5619L45.54 1.30094H39.745L30.575 23.1779C27.56 30.3679 19.355 32.6699 13.457 29.2659C11.381 28.0677 9.70678 26.2809 8.64597 24.1314C7.58516 21.982 7.18536 19.5662 7.49712 17.1896C7.80887 14.8129 8.81818 12.5821 10.3975 10.7789C11.9768 8.97572 14.0552 7.6812 16.37 7.05894C17.9073 6.64628 19.5109 6.54048 21.0891 6.74757C22.6673 6.95467 24.1892 7.47061 25.568 8.26594C25.945 8.48594 26.31 8.72694 26.661 8.98594L29.191 3.57894C28.97 3.43694 28.737 3.30894 28.509 3.17694C25.7951 1.60242 22.7136 0.772126 19.576 0.769937ZM42.621 9.71194L47.736 22.2239H37.42L42.621 9.71194ZM70.747 9.71194L75.949 22.2239H65.632L70.747 9.71194Z" fill="#A3A3A3"/>
</g>
</g>
</g>
<defs>
<clipPath id="clip0_1_275">
<rect width="89" height="36" fill="white" transform="translate(0 0.77002)"/>
</clipPath>
<clipPath id="clip1_1_275">
<rect width="88" height="36" fill="white" transform="translate(1 0.77002)"/>
</clipPath>
</defs>
</svg>
