<svg width="153" height="21" viewBox="0 0 153 21" fill="none" xmlns="http://www.w3.org/2000/svg">
<g clip-path="url(#clip0_1_268)">
<mask id="mask0_1_268" style="mask-type:luminance" maskUnits="userSpaceOnUse" x="0" y="0" width="153" height="21">
<path d="M0.5 0.77002H152.5V20.771H0.5V0.77002Z" fill="white"/>
</mask>
<g mask="url(#mask0_1_268)">
<path d="M54.086 20.568L52.141 17.209C53.05 15.467 53.05 13.447 53.05 10.77C53.05 7.41102 53.05 4.96202 51.106 2.91602C49.768 1.47702 48.05 0.77002 45.803 0.77002C43.556 0.77002 41.813 1.57802 40.5 2.91702C38.556 4.86002 38.556 7.31002 38.556 10.77C38.556 14.129 38.454 16.578 40.5 18.624C41.939 20.063 43.556 20.77 45.803 20.77C46.409 20.77 46.914 20.669 47.444 20.568H54.086ZM43.252 16.275C42.545 15.467 42.343 14.533 42.343 10.77C42.343 7.00702 42.545 6.07302 43.252 5.26502C43.758 4.65902 44.692 4.25502 45.702 4.25502C46.712 4.25502 47.646 4.65902 48.151 5.26502C48.859 6.07302 49.061 7.00702 49.061 10.77C49.061 14.533 48.859 15.467 48.151 16.275C47.646 16.881 46.712 17.285 45.702 17.285C44.692 17.285 43.783 16.881 43.252 16.275ZM98.859 0.97102H102.622V20.567H98.859V0.97102ZM7.646 20.77C4.692 20.77 2.444 20.166 0.5 18.22L2.95 15.77C4.162 16.983 5.904 17.412 7.646 17.412C9.894 17.412 11.106 16.604 11.106 14.962C11.106 14.255 10.904 13.75 10.5 13.322C10.096 12.917 9.692 12.816 8.758 12.614L6.409 12.311C4.768 12.109 3.455 11.503 2.647 10.669C1.737 9.76002 1.207 8.42202 1.207 6.78102C1.207 3.32002 3.757 0.87002 8.05 0.87002C10.702 0.87002 12.747 1.47702 14.389 3.11802L11.939 5.46602C10.727 4.25502 9.187 4.13002 7.949 4.13002C5.904 4.13002 4.894 5.24102 4.894 6.58002C4.894 7.08502 5.096 7.59002 5.5 8.01902C5.904 8.42302 6.51 8.62502 7.343 8.82702L9.692 9.13002C11.535 9.33202 12.646 9.83702 13.455 10.67C14.465 11.68 14.995 13.12 14.995 14.863C14.995 18.625 11.737 20.772 7.647 20.772L7.646 20.77ZM20.499 20.567V0.97102H33.454V4.33002H24.363V8.92602H32.115V12.411H24.363V17.209H33.454V20.567H20.499ZM66.004 20.77C62.014 20.77 58.757 18.017 58.757 13.825V0.97002H62.647V13.723C62.647 15.97 63.984 17.283 66.004 17.283C68.025 17.283 69.364 15.945 69.364 13.723V0.97002H73.126V13.824C73.151 18.016 69.994 20.768 66.004 20.768V20.77ZM91.307 18.624C89.969 20.063 88.252 20.77 86.004 20.77C83.757 20.77 82.014 19.962 80.701 18.624C78.757 16.679 78.757 14.23 78.757 10.77C78.757 7.41102 78.656 4.96202 80.701 2.91602C82.039 1.47702 83.757 0.77002 86.004 0.77002C88.252 0.77002 89.893 1.57802 91.307 2.91702C93.252 4.86002 93.252 7.31002 93.252 10.77C93.252 14.129 93.252 16.578 91.307 18.624ZM88.454 5.26502C87.949 4.65902 87.014 4.25502 86.004 4.25502C84.994 4.25502 84.06 4.65902 83.554 5.26502C82.848 6.07302 82.646 7.00702 82.646 10.77C82.646 14.533 82.848 15.467 83.555 16.275C84.06 16.881 84.994 17.285 86.004 17.285C87.014 17.285 87.949 16.881 88.454 16.275C89.161 15.467 89.363 14.533 89.363 10.77C89.388 7.00702 89.187 6.07302 88.454 5.26502ZM120.703 20.567L119.592 17.107H112.647L111.435 20.567H107.445L114.592 0.97102H117.546L124.693 20.567H120.703ZM116.107 6.67802L113.657 13.825H118.556L116.107 6.67802ZM147.142 0.97102H152.041V5.87102H147.142V0.97002V0.97102ZM134.894 16.375V0.97102H132.444V18.825L134.894 16.375ZM136.611 18.118L134.161 20.568H152.015V18.118H136.611ZM139.793 11.476V0.97102H137.344V13.926L139.793 11.476ZM141.51 13.22L139.061 15.669H152.015V13.219L141.51 13.22ZM144.692 6.57702V0.97102H142.242V9.02702L144.692 6.57702ZM146.408 8.32002L143.959 10.77H152.015V8.32002H146.408Z" fill="#A3A3A3"/>
</g>
</g>
<defs>
<clipPath id="clip0_1_268">
<rect width="153" height="20" fill="white" transform="translate(0 0.77002)"/>
</clipPath>
</defs>
</svg>
