<svg width="113" height="33" viewBox="0 0 113 33" fill="none" xmlns="http://www.w3.org/2000/svg">
<g clip-path="url(#clip0_1_208)">
<mask id="mask0_1_208" style="mask-type:luminance" maskUnits="userSpaceOnUse" x="1" y="1" width="112" height="32">
<path d="M1.5 1.27002H112.5V32.27H1.5V1.27002Z" fill="white"/>
</mask>
<g mask="url(#mask0_1_208)">
<path d="M49.102 24.8409V13.7869H49.298L57.27 24.8409H59.779V8.60793H56.99V19.6339H56.795L48.824 8.60793H46.314V24.8409H49.102ZM67.668 25.0909C71.347 25.0909 73.605 22.6969 73.605 18.6869C73.605 14.7069 71.347 12.2829 67.668 12.2829C64.016 12.2829 61.73 14.7059 61.73 18.6869C61.758 22.6969 63.988 25.0909 67.668 25.0909ZM67.668 22.7519C65.716 22.7519 64.601 21.2769 64.601 18.6869C64.601 16.1269 65.716 14.6219 67.668 14.6219C69.618 14.6219 70.734 16.1259 70.734 18.6869C70.734 21.2769 69.619 22.7519 67.668 22.7519ZM76.142 9.52693V12.6179H74.19V14.8449H76.142V21.5549C76.142 23.9499 77.257 24.8959 80.1 24.8959C80.5957 24.8967 81.0902 24.8501 81.577 24.7569V22.5849C81.243 22.6129 81.02 22.6409 80.63 22.6409C79.459 22.6409 78.929 22.1119 78.929 20.8869V14.8449H81.577V12.6179H78.929V9.52793H76.142V9.52693ZM83.25 24.8409H86.038V12.5339H83.25V24.8409ZM84.644 10.5019C85.564 10.5019 86.316 9.74993 86.316 8.83193C86.316 7.88393 85.564 7.13293 84.644 7.13293C83.724 7.13293 82.971 7.88393 82.971 8.83093C82.971 9.75093 83.724 10.5019 84.644 10.5019ZM93.674 25.0919C97.354 25.0919 99.613 22.6969 99.613 18.6869C99.613 14.7069 97.355 12.2829 93.675 12.2829C90.024 12.2829 87.738 14.7059 87.738 18.6869C87.738 22.6969 89.968 25.0909 93.675 25.0909L93.674 25.0919ZM93.674 22.7519C91.724 22.7519 90.609 21.2769 90.609 18.6869C90.609 16.1269 91.724 14.6219 93.675 14.6219C95.599 14.6219 96.742 16.1259 96.742 18.6869C96.714 21.2769 95.598 22.7519 93.674 22.7519ZM101.258 24.8419H104.045V17.6849C104.045 15.8749 105.104 14.7349 106.749 14.7349C108.45 14.7349 109.23 15.6799 109.23 17.5459V24.8409H112.018V16.8779C112.018 13.9259 110.512 12.2829 107.781 12.2829C105.941 12.2829 104.714 13.1189 104.129 14.5109H103.934V12.5339H101.23C101.258 12.5339 101.258 24.8409 101.258 24.8409V24.8419ZM7.27203 7.02993C8.21803 7.78793 8.56003 7.72793 10.332 7.60893L27.022 6.61293C27.384 6.61293 27.082 6.25293 26.962 6.21293L24.183 4.24193C23.66 3.84393 22.935 3.36593 21.586 3.48593L5.44003 4.65993C4.85603 4.71993 4.73503 5.01793 4.97703 5.23693L7.27203 7.02993ZM8.27903 10.8749V28.2439C8.27903 29.1799 8.74203 29.5179 9.80903 29.4589L28.149 28.4029C29.217 28.3429 29.337 27.7059 29.337 26.9489V9.69893C29.337 8.94293 29.035 8.52493 28.391 8.58493L9.22503 9.69993C8.52003 9.75993 8.27903 10.1179 8.27903 10.8749ZM26.378 11.8109C26.499 12.3289 26.378 12.8669 25.854 12.9269L24.969 13.1059V25.9329C24.204 26.3309 23.499 26.5699 22.895 26.5699C21.949 26.5699 21.707 26.2719 21.002 25.3949L15.224 16.4119V25.0969L17.056 25.4949C17.056 25.4949 17.056 26.5509 15.587 26.5509L11.52 26.7899C11.399 26.5499 11.52 25.9729 11.923 25.8529L12.99 25.5549V14.0819L11.52 13.9619C11.399 13.4449 11.701 12.6879 12.527 12.6279L16.895 12.3279L22.915 21.4119V13.3849L21.385 13.2049C21.264 12.5679 21.747 12.0899 22.331 12.0299L26.378 11.8099V11.8109ZM4.09103 3.06693L20.902 1.85193C22.955 1.67193 23.499 1.79193 24.787 2.72893L30.143 6.45293C31.028 7.09093 31.33 7.26993 31.33 7.96693V28.4229C31.33 29.6979 30.867 30.4529 29.217 30.5729L9.70803 31.7499C8.46003 31.8099 7.87603 31.6299 7.23203 30.8139L3.26603 25.7339C2.56103 24.7989 2.25903 24.1019 2.25903 23.2839V5.09993C2.25903 4.04393 2.74203 3.18793 4.09103 3.06793V3.06693Z" fill="#A3A3A3"/>
</g>
</g>
<defs>
<clipPath id="clip0_1_208">
<rect width="113" height="32" fill="white" transform="translate(0 0.77002)"/>
</clipPath>
</defs>
</svg>
