<svg width="98" height="33" viewBox="0 0 98 33" fill="none" xmlns="http://www.w3.org/2000/svg">
<mask id="mask0_1_227" style="mask-type:luminance" maskUnits="userSpaceOnUse" x="0" y="1" width="153" height="32">
<path d="M0.520508 1.27002H152.48V32.27H0.520508V1.27002Z" fill="white"/>
</mask>
<g mask="url(#mask0_1_227)">
<mask id="mask1_1_227" style="mask-type:luminance" maskUnits="userSpaceOnUse" x="0" y="1" width="153" height="32">
<path d="M0.520508 1.27002H152.48V32.27H0.520508V1.27002Z" fill="white"/>
</mask>
<g mask="url(#mask1_1_227)">
<path d="M105.352 9.104C103.001 9.104 100.674 11.215 100.425 14.237V9.348H97.0354V24.103H100.47V16.97C100.47 14.97 101.917 12.148 105.374 12.148V9.104H105.352ZM141.353 21.747V11.637H143.342C145.986 11.637 148.156 13.259 148.156 16.614C148.156 19.947 146.009 21.747 143.342 21.747H141.353ZM137.941 24.103H143.748C147.319 24.103 151.704 21.814 151.704 16.614C151.704 11.481 147.319 9.37 143.748 9.37H137.941V24.103ZM124.946 16.77C124.946 14.081 126.347 11.881 128.675 11.881C130.912 11.881 132.155 14.081 132.155 16.77C132.155 19.458 130.912 21.658 128.675 21.658C126.37 21.658 124.946 19.458 124.946 16.77ZM121.465 16.925C121.465 21.325 123.793 24.414 127.431 24.414C130.076 24.414 131.658 22.703 132.494 19.925V24.103H135.884V9.348H132.494V13.259C131.749 10.659 130.167 9.104 127.68 9.104C123.951 9.126 121.465 12.459 121.465 16.925ZM44.1068 24.436C39.88 24.436 37.3945 21.103 37.3945 16.948C37.3945 12.637 40.1288 9.126 45.3495 9.126C50.7284 9.126 52.5592 12.703 52.6498 14.748H48.7623C48.6718 13.614 47.6778 11.903 45.2818 11.903C42.7058 11.903 41.0561 14.103 41.0561 16.792C41.0561 19.481 42.7058 21.681 45.2818 21.681C47.6091 21.681 48.6041 19.881 49.0111 18.103H45.2818V16.636H53.1015V24.103H49.6658V19.37C49.417 21.081 48.3325 24.436 44.1068 24.436ZM60.0625 24.436C56.8307 24.436 54.8417 22.325 54.8417 18.081V9.37H58.3222V18.081C58.3222 20.281 59.4068 21.347 61.2147 21.347C64.7857 21.347 66.0961 17.036 66.0961 14.014V9.37H69.5766V24.103H66.1866V18.636C65.5309 21.658 63.7001 24.436 60.0625 24.436ZM90.3908 9.104C87.4307 9.104 85.5541 11.926 84.9442 14.525C84.8308 11.037 83.0916 9.104 80.2887 9.104C77.8708 9.104 75.6331 11.215 75.0461 14.57V9.348H71.6561V24.103H75.0908V18.814C75.0908 17.503 75.656 12.126 79.1136 12.126C81.3513 12.126 81.5772 14.103 81.5772 16.836V24.103H85.0119V18.814C85.0119 17.503 85.5999 12.126 89.0575 12.126C91.2953 12.126 91.5211 14.103 91.5211 16.836V24.103H94.9558V15.37C94.9787 11.192 93.4643 9.104 90.3908 9.104ZM112.719 9.104C108.267 9.104 105.261 12.526 105.261 16.77C105.261 21.436 108.132 24.436 112.719 24.436C117.171 24.436 120.245 21.014 120.245 16.77C120.223 12.103 117.307 9.104 112.719 9.104ZM112.719 21.814C110.121 21.814 108.448 19.658 108.448 16.77C108.448 13.881 110.121 11.726 112.719 11.726C115.295 11.726 116.923 13.881 116.923 16.77C116.923 19.658 115.295 21.814 112.719 21.814Z" fill="#A3A3A3"/>
<path d="M1.46753 16.7701C1.46753 9.17006 7.72596 3.00806 15.4436 3.00806C23.1623 3.00806 29.4197 9.17006 29.4197 16.7701C29.4197 24.3701 23.1623 30.5321 15.4436 30.5321C7.72596 30.5321 1.46753 24.3701 1.46753 16.7701Z" stroke="#A3A3A3" stroke-width="1.60172" stroke-miterlimit="10"/>
<path d="M14.2278 23.6881C10.127 23.6881 7.73315 20.4722 7.73315 16.4332C7.73315 12.2452 10.3935 8.87915 15.4435 8.87915C20.6466 8.87915 22.4316 12.3571 22.5075 14.3021H18.7481C18.6721 13.1802 17.7229 11.5342 15.3675 11.5342C12.8998 11.5342 11.2667 13.6662 11.2667 16.2462C11.2667 18.8642 12.8613 20.9581 15.3675 20.9581C17.6084 20.9581 18.5962 19.2381 18.9761 17.4801H15.3301V16.0602H22.9249V23.3142H19.5828V18.7522C19.3539 20.4722 18.3287 23.6881 14.2278 23.6881Z" fill="#A3A3A3"/>
</g>
</g>
</svg>
