<svg width="89" height="37" viewBox="0 0 89 37" fill="none" xmlns="http://www.w3.org/2000/svg">
<g clip-path="url(#clip0_1_244)">
<g clip-path="url(#clip1_1_244)">
<mask id="mask0_1_244" style="mask-type:luminance" maskUnits="userSpaceOnUse" x="1" y="0" width="88" height="37">
<path d="M1.5 0.77002H88.5V36.77H1.5V0.77002Z" fill="white"/>
</mask>
<g mask="url(#mask0_1_244)">
<path d="M19.5758 0.769937C16.4296 0.756606 13.3348 1.56817 10.6 3.12371C7.86524 4.67926 5.58595 6.92446 3.98936 9.63549C2.39277 12.3465 1.53466 15.4287 1.50057 18.5747C1.46648 21.7208 2.2576 24.8208 3.79507 27.5658C5.33254 30.3108 7.56265 32.6049 10.2631 34.2193C12.9635 35.8338 16.04 36.7122 19.1857 36.767C22.3315 36.8219 25.4367 36.0512 28.1917 34.5319C30.9468 33.0126 33.2556 30.7977 34.8878 28.1079H50.1458L53.3358 35.9039H60.0298L63.2198 28.1079H78.3968L81.6398 35.9039H88.0068L73.6248 1.30794H67.8258L56.6898 28.5619L45.5398 1.30094H39.7448L30.5748 23.1779C27.5598 30.3679 19.3548 32.6699 13.4568 29.2659C11.3808 28.0677 9.70654 26.2809 8.64572 24.1314C7.58491 21.982 7.18512 19.5662 7.49687 17.1896C7.80863 14.8129 8.81794 12.5821 10.3972 10.7789C11.9765 8.97572 14.055 7.6812 16.3698 7.05894C17.9071 6.64628 19.5106 6.54048 21.0888 6.74757C22.667 6.95467 24.189 7.47061 25.5678 8.26594C25.9448 8.48594 26.3098 8.72694 26.6608 8.98594L29.1908 3.57894C28.9698 3.43694 28.7368 3.30894 28.5088 3.17694C25.7948 1.60242 22.7134 0.772126 19.5758 0.769937ZM42.6208 9.71194L47.7358 22.2239H37.4198L42.6208 9.71194ZM70.7468 9.71194L75.9488 22.2239H65.6318L70.7468 9.71194Z" fill="#A3A3A3"/>
</g>
</g>
</g>
<defs>
<clipPath id="clip0_1_244">
<rect width="89" height="36" fill="white" transform="translate(0 0.77002)"/>
</clipPath>
<clipPath id="clip1_1_244">
<rect width="88" height="36" fill="white" transform="translate(1 0.77002)"/>
</clipPath>
</defs>
</svg>
