<svg width="141" height="27" viewBox="0 0 141 27" fill="none" xmlns="http://www.w3.org/2000/svg">
<g clip-path="url(#clip0_1_252)">
<g clip-path="url(#clip1_1_252)">
<mask id="mask0_1_252" style="mask-type:luminance" maskUnits="userSpaceOnUse" x="1" y="1" width="140" height="26">
<path d="M1.5 1.27002H140.5V26.27H1.5V1.27002Z" fill="white"/>
</mask>
<g mask="url(#mask0_1_252)">
<path d="M29.409 8.25002C24.385 8.25002 20.46 12.109 20.46 17.276C20.46 22.442 24.286 26.269 29.409 26.269C34.531 26.269 38.424 22.376 38.424 17.243C38.424 12.142 34.598 8.25002 29.409 8.25002ZM29.443 22.545C26.582 22.545 24.486 20.297 24.486 17.277C24.486 14.223 26.548 11.976 29.409 11.976C32.303 11.976 34.398 14.257 34.398 17.276C34.398 20.296 32.303 22.545 29.443 22.545ZM39.521 12.176H42.016V25.935H46.008V8.58502H39.521V12.176ZM10.415 11.974C12.511 11.974 14.174 13.283 14.805 15.229H19.031C18.265 11.069 14.872 8.24902 10.449 8.24902C5.425 8.25002 1.5 12.11 1.5 17.278C1.5 22.446 5.326 26.271 10.449 26.271C14.773 26.271 18.232 23.452 18.998 19.257H14.805C14.207 21.203 12.544 22.547 10.447 22.547C7.553 22.547 5.524 20.297 5.524 17.277C5.526 14.224 7.521 11.974 10.415 11.974ZM115.364 15.599L112.437 15.163C111.04 14.963 110.042 14.493 110.042 13.384C110.042 12.176 111.34 11.573 113.103 11.573C115.032 11.573 116.263 12.411 116.529 13.787H120.388C119.955 10.297 117.294 8.25102 113.203 8.25102C108.978 8.25102 106.184 10.432 106.184 13.519C106.184 16.471 108.014 18.184 111.705 18.72L114.633 19.156C116.064 19.356 116.862 19.928 116.862 21.002C116.862 22.378 115.465 22.948 113.536 22.948C111.173 22.948 109.843 21.975 109.643 20.498H105.718C106.085 23.888 108.712 26.27 113.502 26.27C117.86 26.27 120.753 24.256 120.753 20.8C120.753 17.713 118.658 16.102 115.364 15.599ZM44.012 1.43802C42.549 1.43802 41.45 2.51102 41.45 3.98802C41.45 5.46402 42.547 6.53702 44.012 6.53702C45.476 6.53702 46.574 5.46402 46.574 3.98702C46.574 2.51102 45.476 1.43802 44.012 1.43802ZM102.591 14.525C102.591 10.767 100.329 8.25102 95.539 8.25102C91.016 8.25102 88.487 10.567 87.988 14.124H91.947C92.146 12.748 93.211 11.607 95.473 11.607C97.503 11.607 98.5 12.513 98.5 13.621C98.5 15.064 96.67 15.432 94.408 15.667C91.348 16.003 87.556 17.077 87.556 21.103C87.556 24.225 89.852 26.237 93.511 26.237C96.372 26.237 98.168 25.029 99.067 23.116C99.2 24.826 100.464 25.935 102.227 25.935H104.556V22.345H102.593V14.525H102.591ZM98.666 18.888C98.666 21.204 96.67 22.915 94.241 22.915C92.744 22.915 91.48 22.277 91.48 20.935C91.48 19.225 93.51 18.755 95.372 18.554C97.169 18.386 98.167 17.984 98.666 17.211V18.888ZM77.477 8.25002C75.247 8.25002 73.385 9.19002 72.054 10.766V1.27002H68.062V25.935H71.987V23.653C73.318 25.297 75.215 26.27 77.477 26.27C82.267 26.27 85.893 22.445 85.893 17.277C85.893 12.109 82.2 8.25002 77.477 8.25002ZM76.878 22.545C74.017 22.545 71.921 20.297 71.921 17.277C71.921 14.257 74.05 11.976 76.911 11.976C79.805 11.976 81.834 14.224 81.834 17.276C81.834 20.296 79.739 22.545 76.878 22.545ZM58.515 8.25002C55.921 8.25002 54.223 9.32302 53.226 10.833V8.58502H49.267V25.933H53.258V16.505C53.258 13.853 54.921 11.975 57.383 11.975C59.679 11.975 61.108 13.618 61.108 16.001V25.935H65.1V15.7C65.101 11.337 62.873 8.25002 58.515 8.25002ZM139.781 16.707C139.781 11.741 136.189 8.25102 131.365 8.25102C126.242 8.25102 122.483 12.143 122.483 17.277C122.483 22.68 126.508 26.27 131.431 26.27C135.59 26.27 138.85 23.786 139.681 20.264H135.522C134.923 21.807 133.46 22.68 131.497 22.68C128.935 22.68 127.006 21.069 126.574 18.25H139.78V16.707H139.781ZM126.807 15.364C127.44 12.947 129.236 11.774 131.298 11.774C133.56 11.774 135.29 13.082 135.689 15.364H126.807Z" fill="#A3A3A3"/>
</g>
</g>
</g>
<defs>
<clipPath id="clip0_1_252">
<rect width="141" height="26" fill="white" transform="translate(0 0.77002)"/>
</clipPath>
<clipPath id="clip1_1_252">
<rect width="140" height="26" fill="white" transform="translate(1 0.77002)"/>
</clipPath>
</defs>
</svg>
