<svg width="107" height="25" viewBox="0 0 107 25" fill="none" xmlns="http://www.w3.org/2000/svg">
<g clip-path="url(#clip0_1_201)">
<mask id="mask0_1_201" style="mask-type:luminance" maskUnits="userSpaceOnUse" x="0" y="0" width="107" height="25">
<path d="M0.5 0.77002H106.5V24.77H0.5V0.77002Z" fill="white"/>
</mask>
<g mask="url(#mask0_1_201)">
<path d="M93.546 0.77002C86.828 0.77002 81.373 6.14002 81.373 12.77C81.373 19.4 86.828 24.77 93.546 24.77C100.264 24.77 105.72 19.4 105.72 12.77C105.72 6.14002 100.264 0.77002 93.546 0.77002ZM0.5 1.73302V5.62202H9.593V19.955H0.5V23.845H22.62V19.955H13.564V5.62202H22.62V1.73202L0.5 1.73302ZM28.485 1.73302V23.806H39.099C45.966 23.732 50.679 18.918 50.679 12.733C50.679 6.62302 46.04 1.91802 39.285 1.73302H28.485ZM55.504 1.73302V23.844H77.847V19.955H59.512V14.733H73.802V10.843H59.512V5.62302H77.847V1.73202L55.504 1.73302ZM93.546 4.95502C97.926 4.95502 101.526 8.47402 101.526 12.807C101.526 17.14 97.926 20.658 93.546 20.658C89.167 20.658 85.567 17.14 85.567 12.807C85.567 8.47402 89.13 4.95502 93.546 4.95502ZM32.456 5.54802H39.173C43.516 5.65902 46.374 8.69602 46.374 12.807C46.337 16.955 43.479 19.955 39.099 20.029H32.456V5.54802Z" fill="#A3A3A3"/>
</g>
</g>
<defs>
<clipPath id="clip0_1_201">
<rect width="107" height="24" fill="white" transform="translate(0 0.77002)"/>
</clipPath>
</defs>
</svg>
