<svg width="63" height="73" viewBox="0 0 63 73" fill="none" xmlns="http://www.w3.org/2000/svg">
<g clip-path="url(#clip0_1_260)">
<mask id="mask0_1_260" style="mask-type:luminance" maskUnits="userSpaceOnUse" x="0" y="0" width="63" height="73">
<path d="M0.5 0.77002H62.5V72.77H0.5V0.77002Z" fill="white"/>
</mask>
<g mask="url(#mask0_1_260)">
<path fill-rule="evenodd" clip-rule="evenodd" d="M0.5 0.77002H61.659V60.966H0.5V0.77002ZM18.404 43.63V22.276H26.945V17.89H5.573V22.276H14.076V43.63H18.404ZM48.113 43.63V47.9H52.48V43.553H48.228V39.36H52.48V22.161H48.228V17.89H35.359V22.16H31.107V39.36H35.359V43.63H48.113ZM35.435 22.276H48.113V39.282H35.435V22.276Z" fill="#A3A3A3"/>
<path d="M6.98696 67.3361V70.594H5.90996V72.7701H3.71796V70.594H2.64096V67.3361H1.56396V64.051H3.74396V67.3111H4.82096V70.568H5.88496V64.051H8.06396V67.3361H6.98696ZM10.217 72.7701V64.051H15.64V65.159H12.397V67.3101H14.563V68.4171H12.397V71.662H15.64V72.7701H10.217ZM21.024 72.7701V70.594H19.935V68.4171H18.884V72.7701H17.781V64.051H19.96V66.2281H21.037V68.4041H22.101V64.051H23.204V72.771L21.024 72.7701ZM28.601 65.16V72.7701H26.421V65.16H24.255V64.05H30.767V65.1581H28.601V65.16ZM37.254 71.675V72.7701H32.908V71.675H31.831V64.051H34.011V71.662H36.151V64.0521H38.331V71.675H37.254ZM44.804 72.7701V69.512H43.727V68.4041H44.804V65.16H42.664V72.7701H40.484V64.051H45.907V65.146H46.984V68.4171H45.907V69.4871H46.984V72.7701H44.804ZM49.137 72.7701V64.051H54.56V65.159H51.317V67.3101H53.483V68.4171H51.317V71.662H54.56V72.7701H49.137ZM61.047 71.675V72.7701H57.777V71.675H56.701V70.568H57.803V71.662H59.944V69.512H57.777V68.4171H56.701V65.147H57.777V64.05H61.047V65.1451H62.123V66.2531H61.021V65.16H58.88V67.3111H61.047V68.4051H62.123V71.676L61.047 71.675Z" fill="#A3A3A3"/>
</g>
</g>
<defs>
<clipPath id="clip0_1_260">
<rect width="63" height="72" fill="white" transform="translate(0 0.77002)"/>
</clipPath>
</defs>
</svg>
