<svg width="77" height="39" viewBox="0 0 77 39" fill="none" xmlns="http://www.w3.org/2000/svg">
<g clip-path="url(#clip0_1_216)">
<mask id="mask0_1_216" style="mask-type:luminance" maskUnits="userSpaceOnUse" x="0" y="0" width="77" height="39">
<path d="M0.5 0.77002H76.5V38.77H0.5V0.77002Z" fill="white"/>
</mask>
<g mask="url(#mask0_1_216)">
<mask id="mask1_1_216" style="mask-type:luminance" maskUnits="userSpaceOnUse" x="0" y="0" width="77" height="39">
<path d="M0.5 0.77002H76.5V38.77H0.5V0.77002Z" fill="white"/>
</mask>
<g mask="url(#mask1_1_216)">
<path d="M0.5 30.669L8.392 17.336H1.43C1.36538 16.9176 1.33961 16.4941 1.353 16.071C1.34007 15.6475 1.36584 15.2238 1.43 14.805H12.649L12.797 15.227L4.827 28.56H12.264C12.328 28.978 12.354 29.402 12.341 29.826C12.357 30.221 12.331 30.618 12.264 31.007H0.578L0.5 30.669ZM23.173 20.375C23.26 19.408 22.948 18.449 22.322 17.759C21.5914 17.2035 20.6834 16.9333 19.768 16.999C19.12 17.01 18.474 17.067 17.833 17.168C17.257 17.259 16.687 17.4 16.131 17.59C15.7333 16.8075 15.5469 15.9347 15.59 15.058C16.289 14.8017 17.0168 14.6318 17.757 14.552C18.524 14.412 19.301 14.355 20.079 14.383C21.658 14.275 23.222 14.783 24.489 15.817C25.495 16.746 26.036 18.349 26.036 20.458V30.668L23.56 31.174C22.5887 31.3421 21.6048 31.4267 20.619 31.427C19.7614 31.4344 18.9055 31.3495 18.066 31.174C17.3582 31.0175 16.6961 30.7 16.131 30.246C15.5911 29.8233 15.1655 29.2722 14.893 28.643C14.5666 27.8989 14.4078 27.0922 14.428 26.28C14.3941 25.4581 14.5809 24.6422 14.969 23.917C15.2709 23.2382 15.7526 22.6549 16.362 22.23C16.9797 21.7961 17.6576 21.4548 18.374 21.217C19.1502 20.9758 19.9604 20.862 20.773 20.88C21.2902 20.8589 21.8082 20.8871 22.32 20.964C22.707 20.964 23.017 21.048 23.326 21.048V20.373L23.173 20.375ZM23.173 23.413C22.8078 23.392 22.4453 23.3378 22.09 23.251C21.625 23.251 21.238 23.167 20.929 23.167C19.942 23.1064 18.9625 23.3736 18.143 23.927C17.523 24.449 17.176 25.268 17.215 26.121C17.125 27.071 17.547 27.991 18.298 28.484C18.63 28.687 19.001 28.803 19.381 28.821C19.739 28.888 20.102 28.917 20.465 28.905C20.93 28.919 21.396 28.891 21.858 28.821L23.095 28.568V23.421L23.173 23.413ZM29.209 14.805C29.441 14.805 29.596 14.721 29.827 14.721H31.065C31.297 14.721 31.452 14.805 31.684 14.805C31.726 14.942 31.752 15.084 31.761 15.227C31.761 15.48 31.838 15.649 31.838 15.902C31.838 16.155 31.915 16.409 31.915 16.662C31.913 16.807 31.939 16.95 31.992 17.083L32.689 16.071C32.989 15.744 33.327 15.46 33.695 15.227C34.5818 14.6878 35.5972 14.3967 36.635 14.384C37.4622 14.3741 38.2813 14.5469 39.034 14.89C39.7929 15.2277 40.4553 15.7499 40.961 16.409C41.53 17.1672 41.9501 18.0263 42.199 18.941C42.526 20.117 42.683 21.341 42.663 22.569C42.787 24.977 42.037 27.342 40.574 29.151C39.181 30.754 37.24 31.514 34.694 31.514C34.2537 31.528 33.813 31.4999 33.378 31.43C32.988 31.3615 32.6011 31.2771 32.218 31.177V38.687C31.986 38.687 31.753 38.771 31.444 38.771H30.051C29.819 38.771 29.587 38.687 29.355 38.687V14.805H29.209ZM32.071 28.476C32.4457 28.6273 32.8346 28.7406 33.232 28.814C33.744 28.891 34.262 28.919 34.779 28.898C35.4376 28.9173 36.0933 28.8023 36.706 28.56C37.2887 28.3386 37.7979 27.9586 38.176 27.463C38.6217 26.8794 38.9621 26.2226 39.182 25.522C39.447 24.622 39.578 23.682 39.569 22.737C39.6198 21.3377 39.3273 19.9472 38.717 18.687C38.117 17.659 37.046 17.075 35.931 17.168C35.4554 17.1701 34.9839 17.2557 34.538 17.421C34.098 17.603 33.701 17.891 33.378 18.265C33.007 18.675 32.717 19.163 32.526 19.699C32.2919 20.3737 32.187 21.0865 32.217 21.8V28.467L32.071 28.476ZM46.155 17.244H44.228C44.159 17.0554 44.1327 16.8539 44.151 16.654V15.305C44.151 15.052 44.228 14.883 44.228 14.715H48.949V31.085C48.717 31.085 48.484 31.169 48.252 31.169H46.859C46.627 31.169 46.394 31.085 46.163 31.085L46.155 17.244ZM55.209 23.741C55.286 25.513 55.674 26.863 56.446 27.623C57.434 28.539 58.713 28.994 60.006 28.888C61.3586 28.8955 62.6996 28.6376 63.953 28.129C64.14 28.497 64.271 28.896 64.34 29.31C64.429 29.754 64.481 30.206 64.495 30.66C63.8342 30.9827 63.1308 31.2097 62.406 31.334C61.565 31.51 60.702 31.595 59.853 31.587C58.6634 31.6374 57.4766 31.4364 56.37 30.997C55.4633 30.5306 54.6502 29.9015 53.971 29.141C53.3209 28.3496 52.8461 27.4294 52.578 26.441C52.2611 25.344 52.1048 24.2068 52.114 23.065C52.118 21.928 52.247 20.803 52.501 19.69C52.7611 18.7136 53.2076 17.7967 53.816 16.99C54.4222 16.2474 55.1561 15.6189 55.983 15.134C56.9845 14.6095 58.1028 14.348 59.233 14.374C61.007 14.29 62.718 15.099 63.875 16.568C64.4325 17.2598 64.8291 18.0669 65.036 18.931C65.326 19.911 65.458 20.939 65.422 21.969V22.898C65.422 23.236 65.345 23.488 65.345 23.742L55.209 23.741ZM62.638 21.378C62.6423 20.8074 62.5642 20.2392 62.406 19.691C62.2481 19.1935 62.0407 18.7131 61.787 18.257C61.5091 17.8402 61.1384 17.4934 60.704 17.244C60.227 16.9963 59.6928 16.8796 59.156 16.906C58.139 16.85 57.149 17.282 56.448 18.088C55.7554 19.052 55.3526 20.1938 55.287 21.379L62.638 21.378ZM68.673 14.797C68.905 14.797 69.06 14.713 69.292 14.713H70.53C70.762 14.713 70.916 14.797 71.148 14.797C71.248 15.21 71.3 15.636 71.303 16.063C71.366 16.509 71.392 16.961 71.38 17.412C71.7636 16.671 72.3212 16.0342 73.005 15.556C73.7523 15.0343 74.6481 14.768 75.559 14.797H76.024C76.1587 14.7754 76.2965 14.8054 76.41 14.881C76.41 15.042 76.487 15.302 76.487 15.47V16.145C76.5 16.401 76.474 16.658 76.41 16.905C76.41 17.158 76.333 17.411 76.333 17.664C76.185 17.664 76.024 17.58 75.869 17.58H75.482C74.982 17.575 74.485 17.661 74.012 17.833C73.5111 18.0029 73.0593 18.2926 72.696 18.677C72.2599 19.1596 71.9421 19.7372 71.768 20.364C71.5255 21.2428 71.4209 22.154 71.458 23.065V31.175C71.226 31.175 70.993 31.259 70.762 31.259H69.368C69.136 31.259 68.827 31.175 68.595 31.175V14.805L68.673 14.797ZM51.726 5.18599H48.87L50.882 2.99199C50.734 2.73899 50.572 2.57099 50.417 2.31799C50.1933 2.1407 49.9865 1.9432 49.799 1.72799L47.781 3.91899V0.872988C47.5293 0.803225 47.2678 0.774855 47.007 0.788988C46.7464 0.770871 46.4846 0.799315 46.234 0.872988V3.99499L44.144 1.71599C43.904 1.86699 43.694 2.06699 43.525 2.30699C43.377 2.55999 43.138 2.72899 42.984 2.98199L44.996 5.17599H42.201L42.124 6.01899C42.107 6.30599 42.133 6.59399 42.201 6.87099H45.064L42.975 9.14999C43.281 9.64999 43.675 10.082 44.135 10.415L46.147 8.22099V11.344C46.4 11.413 46.66 11.442 46.921 11.428C47.1816 11.4461 47.4434 11.4177 47.694 11.344V8.22099L49.706 10.415C49.946 10.265 50.157 10.064 50.325 9.82499C50.524 9.61899 50.705 9.39299 50.866 9.14999L48.87 6.95799H51.734C51.797 6.68199 51.823 6.39799 51.811 6.11399C51.8271 5.80194 51.8012 5.48914 51.734 5.18399L51.726 5.18599ZM48.166 6.02999C48.1593 6.40061 48.1072 6.76901 48.011 7.12699C47.6943 7.26488 47.348 7.3206 47.004 7.28899C46.6623 7.28083 46.3235 7.22358 45.998 7.11899C45.8708 6.7681 45.8204 6.39403 45.85 6.02199C45.8568 5.65105 45.9089 5.28232 46.005 4.92399C46.3219 4.7869 46.6682 4.73154 47.012 4.76299C47.3538 4.77106 47.6926 4.82831 48.018 4.93299C48.107 5.29099 48.159 5.65899 48.173 6.02999H48.166Z" fill="#A3A3A3"/>
</g>
</g>
</g>
<defs>
<clipPath id="clip0_1_216">
<rect width="77" height="38" fill="white" transform="translate(0 0.77002)"/>
</clipPath>
</defs>
</svg>
