<svg width="115" height="23" viewBox="0 0 115 23" fill="none" xmlns="http://www.w3.org/2000/svg">
<g clip-path="url(#clip0_1_190)">
<mask id="mask0_1_190" style="mask-type:luminance" maskUnits="userSpaceOnUse" x="0" y="0" width="115" height="23">
<path d="M0.5 0.77002H114.5V22.77H0.5V0.77002Z" fill="white"/>
</mask>
<g mask="url(#mask0_1_190)">
<mask id="mask1_1_190" style="mask-type:luminance" maskUnits="userSpaceOnUse" x="0" y="0" width="115" height="23">
<path d="M0.5 0.77002H114.5V22.77H0.5V0.77002Z" fill="white"/>
</mask>
<g mask="url(#mask1_1_190)">
<path d="M7.722 22.431H3.426V11.754H0.5V8.27702H3.426V5.80402C3.426 2.87202 4.72 0.77002 9.004 0.77002C9.91 0.77002 11.333 0.95202 11.333 0.95202V4.18002H9.839C8.317 4.18002 7.722 4.64202 7.722 5.91802V8.27702H11.276L10.96 11.754H7.722V22.431ZM17.578 7.99902C17.516 7.99902 17.451 8.00202 17.388 8.00302C13.404 8.00302 11.582 10.991 11.582 15.231C11.582 20.574 13.946 22.712 17.419 22.712C19.406 22.712 20.711 21.878 21.505 20.322V22.432H25.59V8.27902H21.505V10.455C20.857 9.05502 19.515 8.01602 17.578 7.99902ZM18.617 11.344C20.29 11.344 21.294 12.507 21.294 14.487L21.298 16.508C21.298 17.842 20.469 19.402 18.617 19.402C15.771 19.402 15.847 16.338 15.847 15.317C15.847 11.883 17.363 11.344 18.617 11.344ZM27.24 15.356C27.24 13.636 27.158 8.00902 34.511 8.00902C37.463 8.00902 38.696 8.94402 38.696 8.94402L37.705 12.008C37.705 12.008 36.474 11.332 34.87 11.332C32.816 11.332 31.505 12.52 31.505 14.609L31.507 16.107C31.507 18.115 32.772 19.455 34.874 19.455C36.335 19.455 37.682 18.773 37.682 18.773L38.67 21.773C38.67 21.773 37.543 22.714 34.532 22.714C27.53 22.714 27.24 17.665 27.24 15.356ZM62.652 8.00302C66.635 8.00302 68.486 10.991 68.486 15.231C68.486 20.574 66.122 22.712 62.649 22.712C60.663 22.712 59.194 21.878 58.4 20.322V22.432L54.366 22.431V1.20002L58.649 0.82802V10.264C59.268 8.61302 61.299 8.00302 62.652 8.00302ZM61.451 11.344C59.778 11.344 58.649 12.507 58.649 14.487L58.645 16.508C58.643 17.842 59.427 19.402 61.451 19.402C64.298 19.402 64.222 16.338 64.222 15.317C64.222 11.883 62.705 11.344 61.451 11.344ZM46.128 8.01502C41.61 8.01502 39.225 10.471 39.225 14.836V15.647C39.225 21.312 42.574 22.77 46.567 22.77C50.449 22.77 52.206 21.688 52.206 21.688L51.404 18.805C51.404 18.805 49.337 19.682 47.081 19.682C44.742 19.682 43.736 19.087 43.478 16.846H52.548V14.533C52.548 9.79802 49.871 8.01502 46.128 8.01502ZM46.237 10.902C47.8 10.902 48.814 11.858 48.758 14.075H43.486C43.577 11.741 44.67 10.902 46.237 10.902ZM77.027 7.99602C72.388 7.99602 69.945 10.602 69.945 15.274C69.945 21.684 74.156 22.716 77.035 22.716C81.25 22.716 84.055 20.453 84.055 15.332C84.055 10.003 80.901 7.99602 77.027 7.99602ZM76.969 11.356C79.009 11.356 79.817 12.878 79.817 14.611V16.101C79.817 18.2 78.686 19.414 76.961 19.414C75.348 19.414 74.214 18.278 74.214 16.101V14.611C74.214 12.288 75.563 11.356 76.969 11.356ZM92.588 7.99602C87.949 7.99602 85.506 10.602 85.506 15.274C85.506 21.684 89.716 22.716 92.596 22.716C96.811 22.716 99.615 20.453 99.615 15.332C99.615 10.003 96.462 7.99602 92.588 7.99602ZM92.53 11.356C94.57 11.356 95.378 12.878 95.378 14.611V16.101C95.378 18.2 94.247 19.414 92.522 19.414C90.909 19.414 89.775 18.278 89.775 16.101V14.611C89.775 12.288 91.124 11.356 92.53 11.356ZM101.234 22.431V1.20002L105.53 0.82802V15.058L109.792 8.27702H114.329L109.883 15.3L114.5 22.431H109.95L105.53 15.507V22.431H101.234Z" fill="#A3A3A3"/>
</g>
</g>
</g>
<defs>
<clipPath id="clip0_1_190">
<rect width="115" height="22" fill="white" transform="translate(0 0.77002)"/>
</clipPath>
</defs>
</svg>
