<svg width="41" height="28" viewBox="0 0 41 28" fill="none" xmlns="http://www.w3.org/2000/svg">
<g clip-path="url(#clip0_403_16912)">
<path d="M12.4645 1.94275C5.81463 1.94275 0.404785 7.35175 0.404785 13.999C0.404785 20.6464 5.81463 26.057 12.4645 26.057H28.7025C35.3506 26.057 40.7588 20.648 40.7588 13.999C40.7588 7.35005 35.3506 1.94699 28.7067 1.94699L12.4645 1.94275Z" fill="white"/>
<path d="M28.7024 26.3015H12.4644C5.67875 26.3015 0.157715 20.7847 0.157715 13.9991C0.157715 7.21345 5.6745 1.69751 12.4644 1.69751H28.7024C35.4855 1.69751 41.004 7.2143 41.004 13.9991C41.004 20.7839 35.4872 26.3058 28.7024 26.3058M12.4644 1.94279C5.81454 1.94279 0.404697 7.35179 0.404697 13.9991C0.404697 20.6464 5.81454 26.0571 12.4644 26.0571H28.7024C35.3506 26.0571 40.7587 20.6481 40.7587 13.9991C40.7587 7.35009 35.3506 1.94704 28.7067 1.94704L12.4644 1.94279Z" fill="#231F20"/>
<path d="M31.5405 13.2632L36.941 19.6856C38.1286 17.9686 38.7487 15.9228 38.7143 13.8354C38.6799 11.748 37.9927 9.72381 36.7492 8.04688L31.5405 13.2632Z" fill="#E31F28"/>
<path d="M16.2388 7.50543C20.272 7.50543 23.3105 8.53155 23.6228 11.929L27.8665 7.50458H36.3139C35.3754 6.40139 34.2083 5.51534 32.8935 4.90775C31.5787 4.30016 30.1475 3.98556 28.6991 3.98572H12.4644C11.0154 3.98517 9.58354 4.29967 8.26809 4.90742C6.95264 5.51517 5.78504 6.40165 4.84619 7.50543H16.2388Z" fill="#E31F28"/>
<path d="M9.59471 11.7881L8.15186 15.7474H13.9623C15.6793 15.7474 16.1996 15.0362 16.5841 13.6672C16.9668 12.3135 16.0112 11.7881 14.8407 11.7881H9.59471Z" fill="#E31F28"/>
<path d="M27.9018 20.2255L23.4129 14.5533C22.582 18.421 19.8651 20.2255 14.7727 20.2255H4.62354C5.56031 21.4072 6.75214 22.3618 8.1099 23.0179C9.46766 23.674 10.9562 24.0146 12.4642 24.0142H28.7022C30.2097 24.0144 31.6976 23.6737 33.0548 23.0176C34.412 22.3615 35.6033 21.407 36.5394 20.2255H27.9018Z" fill="#E31F28"/>
</g>
<defs>
<clipPath id="clip0_403_16912">
<rect width="40.8463" height="27" fill="white" transform="translate(0.157715 0.5)"/>
</clipPath>
</defs>
</svg>
