<svg width="88" height="97" viewBox="0 0 88 97" fill="none" xmlns="http://www.w3.org/2000/svg">
<g clip-path="url(#clip0_1_585)">
<g clip-path="url(#clip1_1_585)">
<g clip-path="url(#clip2_1_585)">
<path d="M45.0026 90.5528C45.1412 90.6637 45.2244 90.3804 45.2726 90.3467C44.9953 90.2562 44.9688 90.6215 45.0026 90.5528ZM42.1974 89.6451L42.3083 89.5691L41.7839 89.5968L42.1974 89.6451ZM39.9539 88.1382C39.8852 88.6879 40.8098 88.6264 41.1064 89.0387V89.1761L41.5078 88.9712C40.9895 88.6951 40.218 88.4817 39.9539 88.1382ZM39.4091 86.4601C39.3681 86.6651 39.0715 86.4035 39.6381 86.7073C39.6236 86.6723 39.6236 86.6518 39.6164 86.6313C39.5435 86.5786 39.4742 86.5222 39.4091 86.4601ZM39.6176 86.6301C39.5694 86.389 39.8455 86.7892 39.6176 86.6301V86.6301ZM38.5254 85.9297L38.9184 86.0201C38.9257 85.8815 38.6846 85.6609 38.8292 85.6753C38.476 85.5234 38.4627 85.6549 38.5254 85.9369V85.9297ZM38.0276 86.0056L38.2204 86.0683C38.2204 86.0129 38.1927 85.9647 38.0276 86.0056ZM38.6436 86.1901L38.2289 86.0659C38.2289 86.1624 38.1324 86.2938 38.4085 86.1346C38.2916 86.2311 38.4435 86.1696 38.6436 86.1901ZM38.7798 86.3902C38.8847 86.6036 39.0571 86.8242 38.6568 86.7277C39.2644 87.1063 39.3813 86.7627 38.781 86.3902H38.7798ZM39.5465 88.4817L39.6984 88.7566H39.9961C39.8515 88.7566 39.6224 88.3431 39.5465 88.4817ZM36.8799 84.3192C36.7979 84.3879 36.7979 84.6145 36.728 84.7387L37.0113 84.8206C36.9498 84.676 36.7907 84.4493 36.8739 84.3192H36.8799Z" fill="#FFBF00"/>
<path d="M36.7377 84.7387L36.3085 84.6085C36.5713 84.8628 36.6823 84.8423 36.7377 84.7387ZM37.6418 86.3986L38.4085 86.5071L37.5382 86.3227L37.6418 86.3986ZM35.7142 83.3017L36.0445 83.2655L35.4924 83.2728L35.713 83.3005L35.7142 83.3017ZM34.9066 82.6616C35.1681 82.6206 34.9548 82.2553 35.1754 82.2831C34.9403 82.1312 34.657 82.0829 34.3954 82.0492C34.6233 82.1384 34.7752 82.3385 34.9066 82.6616ZM33.9819 81.9672C34.1001 82.0082 34.2447 82.0275 34.3978 82.0492C34.2662 81.9937 34.1248 81.9654 33.9819 81.966V81.9672ZM35.8143 84.113C35.8263 84.0431 35.889 83.8779 35.7649 83.679L35.6962 84.0093C35.7299 84.0431 35.7721 84.0781 35.8131 84.119L35.8143 84.113ZM35.6877 84.0178V84.0045C35.6034 83.9254 35.5202 83.845 35.4382 83.7634C35.4743 83.7972 35.5491 83.8731 35.6877 84.0118V84.0178Z" fill="#FFBF00"/>
<path d="M35.8386 84.1395L35.8109 84.1118C35.8109 84.1118 35.8109 84.16 35.8386 84.1395ZM36.9513 85.5246C36.6547 85.5102 36.1436 85.3245 36.3714 85.826C36.6403 85.7778 36.5028 85.4969 36.9513 85.5246ZM35.7542 84.5542L36.0448 84.8917C36.0869 84.8291 36.1002 84.6844 36.2449 84.7061L35.7542 84.5542ZM35.5276 84.4843L35.7566 84.553L35.6445 84.4228L35.5276 84.4843ZM34.3329 82.6809C34.1123 82.6471 33.9532 82.5085 33.7736 82.365C33.9122 82.5784 34.0786 82.7845 34.257 82.9497C34.3474 82.9087 34.5343 82.8593 34.3329 82.6809ZM34.9694 83.3487L34.9273 83.3342C34.9273 83.3692 34.9417 83.3897 34.9694 83.3487ZM32.116 80.775L32.1016 80.8437L32.1438 80.8099L32.116 80.775ZM34.2437 83.0196C34.3474 83.1848 34.4788 83.2053 34.6235 83.2053C34.4902 83.134 34.3649 83.0488 34.2498 82.9509C34.2088 82.9714 34.1883 82.9919 34.2498 83.0196H34.2437ZM33.4276 81.6224C33.4565 81.7333 33.4975 81.8503 33.553 81.9672C33.553 81.8358 33.5108 81.5947 33.4288 81.6224H33.4276ZM34.9345 83.233C34.9345 83.233 34.955 83.233 34.9622 83.2402C34.9622 83.1498 34.9417 83.1775 34.9345 83.233Z" fill="#FFBF00"/>
<path d="M34.9342 83.233C34.8318 83.1992 34.7281 83.2053 34.6244 83.2053C34.7281 83.2607 34.8245 83.3089 34.9282 83.3367V83.233H34.9354H34.9342ZM30.2726 81.5947C30.5004 81.4223 31.0043 81.6285 31.1212 82.1312C31.5781 82.2831 32.0061 81.4501 32.0953 80.8449C32.0061 80.9208 31.9157 81.0028 31.5082 80.7967C31.4949 81.0161 31.9434 81.7189 31.5082 81.6429C30.9898 81.3404 31.2466 81.2367 31.149 80.9341C31.073 81.3464 30.2858 80.7412 30.0098 81.1752L30.4932 81.4284C30.445 81.491 30.2243 81.4428 30.2726 81.5947ZM32.6775 81.4284L32.8282 81.5248C32.7185 81.3524 32.6908 81.174 32.6486 80.8377C32.3448 80.7268 32.2279 80.7533 32.1447 80.8099L32.7535 81.4428L32.6836 81.4284H32.6775Z" fill="#FFBF00"/>
<path d="M33.4071 82.0769C33.1033 82.1938 32.7031 81.9865 32.6681 82.4C33.0623 82.7508 33.1033 82.4759 33.4215 82.6001C32.7585 82.0697 33.7109 82.6483 33.3866 82.1046C33.5385 82.1794 33.6566 82.2758 33.7663 82.3578C33.6835 82.2306 33.6098 82.0976 33.5457 81.96V81.9865C33.5457 82.042 33.5457 82.0625 33.5252 82.0227C33.5252 82.0227 33.5107 82.0227 33.5107 82.0142C33.4796 82.0385 33.4445 82.0572 33.4071 82.0697C33.2769 81.8563 33.4348 81.9865 33.5107 82.0142C33.5252 82.0082 33.5385 82.001 33.5457 81.9865L32.8272 81.5188C32.9309 81.6707 33.0973 81.8214 33.4071 82.0697V82.0769ZM35.6119 86.0261C35.6119 85.9912 35.6252 85.9707 35.6324 85.9574C35.5697 85.9502 35.536 85.9574 35.6119 86.0261ZM35.4588 85.6597C35.5348 85.6669 35.6457 85.6114 35.7831 85.7706C35.8591 85.9562 35.6939 85.8803 35.6384 85.9634C35.7831 85.9839 36.1014 86.0804 35.9 85.7151H35.8313C35.6312 85.4053 35.542 84.8351 35.6107 84.8411C35.5143 85.11 35.4588 85.3161 35.4661 85.6669L35.4588 85.6597ZM34.3257 83.9201C34.1183 83.8032 33.8977 83.6863 33.6904 83.5633C33.7181 83.714 33.7603 83.8526 33.7868 83.99L33.8772 83.8659C34.146 84.1757 34.2027 83.9756 34.3196 83.9201H34.3257ZM32.1582 80.6183L32.4487 80.4591C32.2486 80.4736 32.0557 80.4736 31.8544 80.4808L32.1582 80.6183ZM31.5108 79.9866L31.7314 79.8202L31.4481 79.7587L31.5108 79.9866ZM5.86863 34.7803L5.75049 34.5874C5.79268 34.6839 5.83487 34.7381 5.86863 34.7803ZM6.16639 36.3077H6.30381C6.21461 36.2595 6.15915 36.245 6.16639 36.3077ZM18.6517 61.7172C18.7422 61.3315 18.9423 60.8565 18.6795 61.0301L18.4516 61.2423C18.5963 61.4074 18.6385 61.5653 18.6445 61.7172H18.6517ZM11.0209 48.0457C10.9984 48.0826 10.9798 48.1217 10.9655 48.1626C11.0824 48.2036 11.2006 48.2385 11.303 48.2723C11.2123 48.1971 11.1203 48.1236 11.027 48.0517L11.0209 48.0457ZM9.76962 48.2253L9.82508 47.7768C9.7842 47.9227 9.7655 48.0739 9.76962 48.2253ZM7.88663 25.85L7.93485 25.4642C7.60937 25.6692 7.83118 25.7113 7.88663 25.85ZM25.4267 72.9103C25.3863 72.688 25.3089 72.474 25.1976 72.2774C25.2398 72.6282 25.1771 72.985 25.4267 72.9103ZM9.1066 34.7442C9.03065 34.6272 8.95471 34.5862 8.89323 34.6067C8.96917 34.7237 9.03789 34.7851 9.1066 34.7442ZM24.7552 71.6722C24.7552 71.7277 24.7697 71.7687 24.7757 71.8241C24.9288 71.9483 25.0734 72.0785 25.1904 72.2786C25.1627 72.017 25.0734 71.7554 24.7564 71.6722H24.7552ZM33.7253 9.98922C33.7253 9.98922 33.7735 9.98319 33.8013 9.98922C33.788 9.95547 33.7603 9.96873 33.7253 9.98922ZM42.8268 7.85669C42.7654 7.91817 42.6412 7.99412 42.5303 8.07006C42.599 8.0568 42.6894 7.99412 42.8268 7.85669ZM29.1408 77.1983C29.189 77.1983 29.2794 77.3297 29.1408 77.1983V77.1983ZM28.8647 78.6895C28.8096 78.6812 28.7533 78.6936 28.7068 78.7244C28.7683 78.6895 28.8238 78.6762 28.8647 78.6895ZM22.1115 71.1165V71.1032C22.0838 71.1864 22.091 71.172 22.1115 71.1165ZM29.2324 77.5081C29.2109 77.4214 29.178 77.3379 29.1348 77.2597C29.1548 77.3467 29.1885 77.4304 29.2324 77.5081ZM29.306 77.3827C29.3409 77.4381 29.3686 77.4864 29.3964 77.5274C29.4518 77.5129 29.4579 77.4791 29.306 77.3827ZM28.954 77.0054C29.0299 77.0886 29.0854 77.1705 29.1336 77.2609C29.1263 77.2188 29.1275 77.1983 29.1408 77.1983C29.0998 77.1573 29.0432 77.1018 28.954 77.0054ZM20.378 19.2776H20.4262C20.5311 19.063 20.4684 19.1329 20.378 19.2776ZM13.6248 58.4142C13.6248 58.4142 13.6393 58.4214 13.6453 58.4274V58.3937L13.6248 58.4069V58.4142ZM13.1269 57.8415C13.5971 57.9729 13.6248 58.1526 13.6453 58.3937L14.3361 57.8283L13.1269 57.8415Z" fill="#FFBF00"/>
<path d="M5.12983 31.1325L4.94419 31.6749C4.67415 31.3929 4.56445 31.1807 4.47404 31.0083C4.42582 30.8914 4.38483 30.8432 4.34264 30.8781C4.3124 30.9135 4.29129 30.9557 4.28116 31.0011C4.26388 31.0729 4.2332 31.1408 4.19075 31.2012C5.12381 31.1325 4.61267 33.1541 5.55176 33.0649L5.41313 33.4302C5.4071 33.3337 5.35165 33.3265 5.34441 33.23C5.01893 33.9533 6.09664 33.5821 6.12437 34.4283C6.11111 34.7237 6.01467 34.9503 5.8688 34.7779L6.22804 35.371C6.24854 35.5567 6.08338 35.5494 6.06289 35.3565L6.33895 36.3137H6.31122C6.48361 36.4222 6.77414 36.685 6.90553 36.8152C6.82959 37.0901 6.78137 36.7127 6.67649 36.8019L7.02247 37.2841C6.83562 37.5518 6.5041 37.1588 6.45588 36.7875C5.65543 37.4891 6.7874 37.1805 6.49808 38.3775L6.26903 37.8953C5.82059 38.3426 6.10388 38.6934 5.92426 39.3407C6.05686 39.1611 6.46312 38.0062 6.82838 38.5282C6.80186 38.7078 6.82236 38.9272 7.07792 39.1961C6.75244 39.2792 6.90554 39.5613 7.02247 39.9387L6.58849 40.0218C6.81512 40.4076 7.02247 40.3172 7.27803 40.5101C7.35398 40.9778 7.05019 41.1574 6.80186 41.3358C6.92603 42.0857 7.20209 40.6897 7.50587 41.5359C7.50587 42.1893 7.78917 42.5678 8.25208 43.2212C8.22435 43.6817 7.96879 43.2212 7.89284 43.4069L8.34129 43.689C8.36178 43.7854 8.24485 43.7854 8.18939 43.7854C8.41 44.0603 8.62458 43.689 8.88014 44.1507C9.37681 44.1507 8.50041 45.361 9.21768 45.8143C9.14294 46.0011 8.9356 45.8143 8.79094 45.9179C9.39851 46.6473 9.25264 46.5653 9.94339 47.0945L9.86022 47.7623C10.0338 47.2319 10.5859 47.6587 11.0488 48.03C11.1358 47.8751 11.2119 47.7144 11.2767 47.549L11.7468 48.2301C11.7046 48.347 11.5383 48.3193 11.3249 48.2506C11.3731 48.2916 11.4286 48.3265 11.4696 48.3542C11.4008 48.6773 11.1176 48.6158 10.821 48.4989C10.8752 48.382 10.9307 48.2578 10.9862 48.1409C10.6691 48.0372 10.3304 47.9552 10.0953 48.0722C10.1761 48.1264 10.2424 48.1997 10.2882 48.2855C10.2062 48.2578 10.1302 48.2506 10.0953 48.2855C10.0615 48.3265 10.1785 48.3747 10.3243 48.4639L9.91567 48.7943L10.1158 48.7738C10.123 49.139 10.1507 49.5031 10.164 49.8671C10.8897 50.4181 11.7733 50.7894 12.3881 51.8213C11.9457 51.6706 11.8143 51.9659 11.4081 52.1046C11.7119 51.6428 10.903 51.3053 10.786 50.6869C10.8487 51.01 10.6341 51.01 10.5377 50.9545C10.7933 51.2571 11.0344 51.5609 11.2972 51.8562C10.9596 51.9527 11.1308 52.166 11.1043 52.4891C11.6769 52.0431 11.8288 53.0943 12.188 53.439C11.9807 53.5487 11.7251 53.5355 11.5805 52.9978C11.3104 53.7489 12.6088 53.439 12.4159 54.1479C12.3604 54.0237 12.3677 53.9478 12.2351 53.9405C12.54 54.1539 12.6847 54.917 12.4231 54.829L12.3677 54.7048C12.6232 55.5583 13.3899 57.2099 13.9975 57.0917C13.9276 57.1339 13.2995 57.2641 13.1681 57.2641L15.6129 57.9115C15.0945 57.9874 14.2181 58.9711 13.6587 58.4129C13.6792 58.6335 13.707 58.9084 14.0529 59.2459C14.0529 59.0808 14.5713 58.6191 14.6943 58.7782C14.3977 59.5075 14.5773 59.2387 14.4254 60.044C14.4254 59.8029 15.2536 59.6859 15.3718 60.003C15.2392 60.003 14.6738 60.361 14.5496 60.2851L15.6201 60.7191C15.4055 60.5865 15.0125 60.9662 14.8944 61.235C14.9908 61.0904 15.1982 61.9089 15.3718 62.0801V61.675C15.696 62.5972 16.787 62.0331 17.174 62.8926C16.9811 62.8649 16.165 63.0927 16.3036 63.5677C16.7665 63.5797 18.4301 63.5677 19.1136 64.1306L18.9895 64.379L19.5283 64.8057C18.8171 64.7575 17.1535 64.379 16.4422 64.0414C16.4422 64.4477 16.2494 64.2548 16.5182 64.7286C16.4218 64.9986 16.0963 64.6201 16.0131 64.4814C16.165 64.8804 16.3241 65.2734 16.4965 65.6652C16.8762 65.3976 17.3741 66.2849 17.6911 66.057L16.6002 65.0938C16.9799 64.8322 18.1468 65.1565 18.4988 65.9678C18.4506 66.2571 17.6984 66.2234 17.567 66.3126C17.7599 66.3331 18.2433 66.9033 18.189 67.0274L17.7888 66.8225C17.878 67.3457 18.7134 67.2215 18.6447 67.9581C18.7279 68.151 18.4518 68.7899 18.7062 68.6814C18.9834 68.116 20.3637 67.2348 20.8194 67.2143C20.8194 67.2902 20.9303 68.3776 20.8339 68.7151C20.6531 69.2166 19.7284 68.8043 19.5765 69.2311C19.6947 69.1756 19.9225 69.2516 20.0045 69.2926C20.025 69.5337 19.6248 69.4228 19.9153 69.7953C20.3493 69.6156 20.3975 70.621 20.3637 69.7748C20.7302 70.0834 20.5506 70.2353 20.8616 70.6693C21.0195 70.3655 21.9936 70.5101 22.3528 70.8139C22.2347 70.8549 22.166 71.0261 22.1322 71.1093C22.6024 71.9145 22.7108 72.4437 23.2232 73.1466C23.175 73.2767 23.3124 73.6963 23.0424 73.6685C23.181 73.724 23.3811 73.724 23.5475 73.9374C23.5197 74.598 23.1472 73.4829 22.9809 74.0953C23.222 73.9651 23.6921 74.4389 24.0514 74.6522C24.3202 74.3087 23.6029 73.8891 23.2364 73.6758C23.7126 73.3382 24.5902 73.5239 25.3292 74.082C25.8813 74.5558 25.2183 74.5498 25.3629 74.598C26.1104 75.7191 26.8698 74.8728 27.2206 76.0012C27.2001 76.5798 26.6613 76.4834 26.5094 76.7245C26.0392 76.352 26.1369 75.8698 25.8885 75.5672L26.0537 76.0566C25.8403 75.9879 25.5293 75.7324 25.4811 75.4985C25.4461 76.0012 26.8276 77.3429 27.2966 78.3133C27.5111 78.3748 27.8222 78.5327 27.8354 78.3194L27.5799 78.106C27.6148 77.6865 28.2983 78.3061 28.132 77.9011C28.5816 78.1 29.1482 78.2506 29.417 78.8293L29.182 79.1934C29.2579 79.1041 29.106 78.7256 28.8926 78.6774C29.1892 78.7533 29.0988 79.7648 29.7064 79.5996L29.6244 79.0909C30.0873 79.2693 30.7841 79.3525 31.0541 79.8335C31.1915 79.3657 30.9287 79.778 31.0264 79.1668C30.8118 79.8202 30.1006 78.1482 29.9969 78.9667C30.1415 78.3061 29.7136 78.3061 29.7413 77.5973C29.6449 77.7009 29.6581 77.9143 29.4158 77.5213C29.3641 77.5314 29.3109 77.5314 29.2591 77.5213C29.2591 77.5081 29.2507 77.5008 29.2447 77.4936V77.5213C29.2447 77.5213 29.2169 77.5213 29.2447 77.5358C29.2705 77.6398 29.268 77.7489 29.2374 77.8516C28.8517 77.8938 28.3815 77.3357 28.0982 77.2537C27.9741 77.0054 28.2911 77.2392 28.3116 77.0259L27.8836 76.9089C28.0982 76.6823 27.8149 76.0422 28.3671 76.4002L28.0078 75.9602C27.9319 75.5877 27.704 75.1826 27.4292 75.044C27.3171 74.7909 26.7372 74.7209 27.076 74.7547L26.3719 74.1712L26.4274 74.1158C25.9018 73.4142 24.935 72.9525 24.7903 71.8109C24.5553 71.6108 24.2925 71.4191 24.0791 70.9646L24.2442 70.7307C23.9549 70.4619 23.838 69.6301 23.5197 69.6434C23.8995 68.908 22.6289 68.0268 22.4083 67.3734L22.0972 67.5301C21.8766 67.1251 21.5584 66.802 21.1449 66.3825L20.8954 66.5681C20.4047 66.2716 20.4469 65.3506 20.0322 64.6827C20.1636 64.6695 20.2323 64.8612 20.2396 65.0203C20.3987 63.863 18.8171 63.5411 18.8858 62.537C18.6857 62.3983 18.6519 62.2476 18.6519 62.0752C18.658 62.0957 18.6724 62.103 18.6929 62.1162C18.6929 62.0957 18.6724 62.068 18.658 62.0403C18.658 61.9306 18.6724 61.8209 18.6724 61.7027C18.6452 61.7991 18.6334 61.8992 18.6375 61.9993C18.5228 61.8072 18.386 61.6292 18.23 61.4689L18.4783 61.2278C18.4783 61.2278 18.4578 61.2013 18.4446 61.1796C18.4446 60.9119 18.2155 61.0771 18.0504 61.3049C17.9527 61.222 17.843 61.1545 17.7249 61.1048C18.1131 60.6986 17.2837 60.6106 17.6839 60.1211C17.3596 60.0934 16.9666 59.1085 16.3796 59.2339C16.4483 59.1917 16.4483 59.1097 16.511 59.2339C16.4555 58.9578 16.3928 58.683 16.1373 58.5311L16.476 58.249L15.7165 57.9392C15.8057 57.4992 15.8817 57.3063 16.3241 57.4992C15.5164 56.9085 15.8684 56.935 15.1162 56.454L15.3778 56.3781C15.2609 56.1442 14.7497 55.8959 14.9016 55.662C15.1572 54.9194 13.8456 52.9303 13.7829 51.3415C13.1344 51.8924 13.8733 50.5639 13.2645 50.7146C13.4176 50.5639 13.4454 50.3289 13.6792 50.5097C13.2453 49.8479 13.5756 49.3186 12.9065 48.9883C13.0584 48.8437 13.2236 49.0498 13.3067 48.9401C13.2441 48.8991 13.0717 48.7617 13.1476 48.6508C13.2308 48.5411 13.3345 48.7063 13.4586 48.7955C13.1693 48.0661 12.5883 48.1758 12.0494 48.3012C12.1736 47.8395 12.0771 47.6599 11.6419 47.4947C11.7661 47.3091 11.877 47.027 12.0916 47.4742C12.0289 47.1994 11.8143 45.7962 11.3936 45.8986C11.4768 45.7817 11.3104 45.5201 11.2417 45.4647C11.0826 44.8667 11.1103 44.798 10.8897 44.2266L10.8692 44.4062C10.2894 44.3231 10.6064 43.9518 10.4135 43.4973H10.4678C10.5305 42.3075 10.158 43.0778 10.2749 41.8879L9.97112 42.0326C9.25264 42.1218 10.123 40.9657 9.69386 40.4148L9.5709 40.6897C9.24541 40.4088 10.2544 39.4999 10.2616 39.1346C10.3026 39.0454 10.3858 39.231 10.4545 39.3214C10.6474 38.3305 10.0061 39.307 9.74328 38.6668C9.9434 38.4884 10.3581 38.6885 10.2954 38.2268C10.4196 37.9652 9.24662 37.0985 9.5504 36.3824C9.40574 36.5548 9.25988 36.7344 9.05976 36.4523C8.88014 35.9834 9.45276 35.0202 8.8042 34.6971C8.83916 34.6284 8.88014 34.5947 8.92113 34.5802C8.70052 34.2427 8.45099 33.4386 8.10019 33.2734C9.1562 32.7298 7.14784 31.071 8.18939 30.9058L8.12791 30.6238L8.10019 30.4863L8.07849 30.4104L8.00254 30.109L8.11345 30.1355C8.12791 29.9631 8.05799 29.8329 7.95432 29.6955C7.89284 29.6196 7.83739 29.5581 7.78193 29.4882L7.69875 29.323C7.86511 29.3025 7.89163 29.4062 7.93985 29.4339C8.30753 29.3303 8.45219 29.2893 8.54863 29.1723C8.61132 29.1036 8.59685 29.0554 8.69329 28.9035C8.7837 28.7588 8.88014 28.5804 9.00431 28.3466L9.26711 28.5877C9.37078 28.2911 10.8897 28.2019 11.5805 27.3014C11.5918 27.333 11.5958 27.3668 11.5923 27.4002C11.5887 27.4336 11.5777 27.4657 11.56 27.4943C12.3677 26.5166 14.5086 26.771 14.2181 25.4847L14.7292 24.8036C13.8034 25.2641 14.5701 24.2672 14.1012 24.3142C14.405 24.0393 15.1849 24.0803 14.7979 24.3973L14.7015 24.3829C14.8944 25.0302 15.9034 23.9007 16.1168 24.2864C17.8165 23.1858 19.673 22.4505 21.2956 21.4656L20.8399 21.157L21.4137 20.8327C21.6211 20.8399 21.8212 21.0461 21.4137 21.2739C21.773 21.3836 21.9586 20.6543 21.9104 20.5506C22.8025 20.2348 21.9176 21.2389 22.166 21.1015L22.4697 20.8676H22.3661C22.518 20.5241 22.4288 20.324 22.9194 20.0479C23.2774 19.9454 23.2437 20.2143 23.3678 20.1588C23.3883 20.1865 23.4366 20.1793 23.5607 20.0551L24.2925 19.6501L23.7958 19.491C24.0031 19.1269 24.4733 19.0931 23.9067 18.9123C24.7554 19.2016 26.6685 17.4826 27.0832 17.4754C27.3665 16.9594 27.8017 16.6918 28.3538 16.388C28.173 16.4025 27.8559 16.0722 28.3538 15.8311C28.6781 16.7183 29.4098 15.6382 30.1415 15.9685C29.575 15.8033 31.3989 15.0535 30.543 14.8534C30.9709 14.675 30.7503 15.1295 31.1578 15.1367C31.8811 14.2627 33.3036 14.0698 34.3753 13.2573C34.327 13.1476 34.0377 13.1066 34.1884 12.8041L35.107 12.9415C35.2999 12.7486 34.9406 12.2182 35.5771 12.3219C35.4662 12.2736 35.2939 12.1977 35.424 12.0675C37.9592 11.1802 39.706 8.81988 42.551 8.35214C42.123 8.34491 42.3099 8.20025 42.5377 8.04233C42.3569 8.09055 42.3786 7.78797 42.2604 7.6638L43.4491 7.45766C43.3803 6.9622 44.4436 6.79705 44.3122 6.3703L44.0566 6.62466C44.1808 5.94355 42.8897 6.00503 42.5992 5.41434C42.4678 6.18465 40.9633 5.41434 40.68 6.58367C40.445 6.56921 40.7078 6.31485 40.5354 6.2401C40.4992 6.59693 40.3063 6.78258 39.8241 6.93447V6.84527C38.7054 7.62884 38.0557 7.70479 36.6464 8.3654L36.9165 8.57877C36.6127 8.7162 36.4945 8.66798 36.3221 8.68245C36.2607 9.30087 37.1298 8.21471 37.1238 8.85363C36.3981 8.52332 35.1347 10.0856 34.4789 9.60465C34.0437 9.87228 34.8032 9.84576 34.3753 10.1134L34.1547 10.0097L34.1812 10.299C33.8774 10.4365 33.5953 10.3123 33.4916 10.1749C33.5736 10.1471 33.664 10.0097 33.7255 9.95546C33.2288 9.98198 32.731 10.6703 32.5658 10.6848L33.0492 10.5329C31.9715 11.4346 30.3839 12.1085 29.4653 13.1681L29.6304 13.2441C28.9131 14.0276 28.8444 13.5394 27.9596 14.2482L27.9741 14.1928C27.8632 14.4411 27.6486 14.6678 27.3797 14.8196C27.5244 14.5171 26.7372 14.8064 26.9518 14.4411C26.1718 15.2874 26.6143 14.9354 26.296 15.8106L26.0127 15.6864C25.9223 16.0167 25.9705 16.1264 25.5293 16.4844C25.8054 16.0505 25.0182 16.347 25.3003 15.8238C24.0031 15.9757 24.114 17.2343 23.2147 16.828C23.1328 17.7165 24.2937 16.6231 24.114 16.9112C24.4516 16.9727 24.0176 17.5923 23.6644 17.7309C23.3329 17.9154 22.6361 17.303 21.8417 17.8189C21.9249 17.7707 21.9044 17.7225 21.9791 17.6743C21.5789 17.7104 21.5174 18.2529 20.9918 18.2324C21.0135 18.7206 20.5024 18.5145 20.7302 19.01L21.3993 18.4386C21.0545 18.8243 21.0063 19.6079 20.1492 19.773C20.1492 19.6501 20.2745 19.3945 20.371 19.2366C20.0816 19.2306 20.0395 19.5669 19.7429 19.5597C19.5139 19.0582 20.5783 18.9003 20.8062 18.2662C20.4674 18.2047 20.1709 19.1341 20.0804 18.494C20.1564 19.333 19.2378 18.9063 18.9955 19.7393L18.8581 19.4427C18.7966 19.5392 18.7001 19.7803 18.541 19.8767L18.6025 19.3403C18.3542 19.9249 17.5814 19.6019 17.2644 20.0346C18.1468 19.4705 17.6706 20.2408 18.1745 20.2143C17.3114 21.2667 17.0896 19.884 15.9516 20.7784C16.089 20.6338 16.6761 20.5578 16.4965 20.8471C16.2277 20.9364 15.854 21.0183 15.6201 20.9641C14.8462 21.5283 15.9239 21.1702 15.6816 21.5548C15.1921 21.3908 15.3718 21.9405 15.0812 22.2708L14.9016 21.9888C13.8649 22.3878 15.0258 22.7241 14.059 23.0279L14.1626 22.4155L13.7889 22.7868L13.6804 22.4083C13.355 22.9387 13.1681 22.9724 12.6509 23.1726C12.8848 23.3028 12.9125 23.7235 12.5063 23.9839C12.1181 23.9911 12.4918 23.6198 11.9397 24.0261C11.9602 23.7705 11.9674 23.4546 12.3809 23.5583C12.3472 23.4474 12.4014 23.3028 12.3677 23.1931C11.9457 23.1931 11.5865 23.6198 11.3731 23.7572C11.4557 23.7117 11.5477 23.6857 11.6419 23.6813L11.0488 24.5975C10.8487 24.5758 10.9042 24.4251 10.9524 24.2732C10.7993 24.4106 10.7655 24.6107 10.5305 24.7964C10.4545 24.5275 10.2894 24.3009 10.5715 23.9706L9.93013 24.7277C9.812 24.6589 9.34908 24.7132 9.39851 24.5625C8.86688 24.7072 8.59082 25.6836 7.88561 25.8765C7.88561 25.938 7.85065 26.0212 7.74095 26.1309C7.59629 26.2068 7.44319 26.2623 7.29129 26.3165C7.1394 26.372 7.02247 26.4069 6.73194 26.5576C6.24251 26.812 5.71691 27.1483 5.35165 27.61C4.97699 27.6468 4.60383 27.6974 4.23294 27.7619C4.20521 27.7824 4.18472 27.8029 4.16423 27.8173C4.14976 27.8378 4.17026 27.8716 4.17749 27.8921C4.19075 27.9403 4.21245 27.9825 4.22571 28.009C4.26067 28.0717 4.28839 28.0922 4.32215 28.0994C4.39207 28.1055 4.45475 28.0368 4.54396 27.9958C4.70188 27.9958 4.83328 27.9958 4.86101 28.0717V28.1404C4.86824 28.1742 4.90199 28.2296 4.92369 28.2851C4.97191 28.402 5.0129 28.5527 5.06112 28.7528C5.35888 29.8812 4.68139 29.0554 4.59097 29.4472C4.75733 29.7775 4.99964 30.191 5.17203 30.631C5.21301 30.7347 5.25521 30.8721 5.28293 30.9468C5.30945 31.0228 5.32392 31.0987 5.33718 31.1747C5.35615 31.3467 5.3351 31.5208 5.2757 31.6834C5.15153 31.4772 5.19252 31.2976 5.12381 31.0987L5.12983 31.1337V31.1325ZM6.81512 38.5222C6.71145 38.398 6.43539 38.1569 6.60778 38.0123C7.01524 38.0882 6.86334 38.2534 6.81512 38.5222ZM10.7655 49.2969C10.6269 49.2282 10.6209 49.0558 10.6824 48.8352C10.7625 48.9749 10.7919 49.1381 10.7655 49.2969ZM27.5666 75.7516H27.5461C27.4497 75.4225 27.4834 75.5395 27.5666 75.7516ZM27.8704 76.3508C27.9463 76.3713 27.9801 76.3375 28.0018 76.2893C27.9053 76.3098 27.8017 76.1989 27.7185 76.0554C27.6763 76.1446 27.6908 76.2483 27.8764 76.3508H27.8704ZM23.3678 20.0491H23.2087C23.4088 19.808 23.3811 19.9249 23.3678 20.0491Z" fill="#FFBF00"/>
<path d="M9.92272 48.2096C9.9636 48.1586 10.0161 48.1181 10.0758 48.0915C10.0059 48.0577 9.94321 48.071 9.92272 48.2096ZM7.87939 25.9187H7.89989C7.89989 25.9187 7.89989 25.8632 7.88542 25.85V25.9187H7.87939ZM19.5414 69.559C19.5133 69.4531 19.5133 69.3418 19.5414 69.2359C19.4655 69.2709 19.445 69.3589 19.5414 69.559ZM30.5765 78.5882L30.2233 78.3411C30.3752 78.4785 30.368 78.5749 30.4042 78.6846C30.4524 78.6231 30.4861 78.4917 30.5765 78.5822V78.5882ZM31.6555 82.6483C31.7314 82.6616 31.7519 82.7375 31.8291 82.7508L31.9255 82.6278C31.7242 82.447 31.5036 82.4072 31.6555 82.6483ZM30.0244 79.6189C29.8448 79.8323 30.0943 79.9625 30.3354 80.1421C30.3222 80.1276 30.3077 80.1216 30.3005 80.1011C30.6465 79.8937 30.3354 79.7563 30.0244 79.6117V79.6189ZM30.3897 80.1843C30.4584 80.2397 30.5344 80.3012 30.5826 80.3772C30.7212 80.294 30.5283 80.2735 30.3897 80.1843ZM28.5549 76.8607C28.5887 77.0114 28.8852 76.6956 28.8515 76.8258C29.2252 76.7161 27.9196 76.399 28.5549 76.8607ZM29.5145 80.4169L29.6941 80.1059L29.3759 80.1686L29.5145 80.4169ZM28.1185 78.4917L28.3596 78.9185C28.4018 78.8775 28.4645 78.898 28.5332 78.939C28.3464 78.7051 28.1872 78.4146 28.1185 78.4917Z" fill="#FFBF00"/>
<path d="M28.5261 78.9378C28.6226 79.0632 28.719 79.1668 28.8239 79.1933C28.7367 79.0953 28.6365 79.0086 28.5261 78.9378ZM28.9902 80.0131L28.942 79.8624L28.7274 79.6008L28.9902 80.0131ZM24.9217 74.4605C24.7831 74.3436 24.6661 74.2195 24.5359 74.0953C24.4106 74.123 24.431 74.2809 24.5841 74.4123C24.7216 74.4666 24.8807 74.5907 24.9217 74.4605ZM25.1507 76.2905C25.1146 76.1326 25.1712 76.0771 25.2122 75.9457L24.8662 76.1941L25.1507 76.2905ZM24.1212 75.1332C23.9886 75.1682 23.3883 74.7209 23.809 75.2429C23.9416 75.2164 24.3406 75.5732 24.12 75.1344L24.1212 75.1332ZM20.1214 68.2474L20.1973 68.3643L20.7916 67.9786L20.1214 68.2474ZM15.2331 62.9058C15.3705 63.546 15.6888 62.8444 15.7635 63.4495C15.9781 63.505 15.7032 62.9553 15.9033 63.03C15.5718 62.7684 15.5718 62.5478 15.2331 62.9131V62.9058ZM15.9045 63.0252C15.96 63.0662 16.0142 63.1072 16.0914 63.1481C16.0369 63.0964 15.9736 63.0548 15.9045 63.0252ZM44.27 7.401L44.6859 7.31059L44.3399 7.24911L44.27 7.401ZM44.6449 6.55594L44.9619 6.88625L44.9487 6.41852C44.8787 6.48 44.7558 6.6114 44.6449 6.56318V6.55594ZM6.20027 39.8314H6.31118C6.40762 39.747 6.39436 39.6505 6.36663 39.4577L6.20027 39.8314ZM5.34437 34.3596L5.3516 34.456L5.71807 34.2077L5.34437 34.3596ZM3.92188 28.6962C3.9496 29.0542 4.09426 29.4942 4.12199 29.845C3.9496 29.0337 4.44024 28.7516 3.92188 28.6962ZM43.5322 6.87902C43.3936 6.76209 43.2971 7.04538 43.2429 7.0719C43.5322 7.17557 43.5599 6.81031 43.5322 6.87902ZM46.3772 7.88199L46.2663 7.95794L46.7907 7.94468L46.3772 7.88199ZM48.705 9.34909C48.746 8.79094 47.8141 8.88738 47.4971 8.48113V8.3437L47.0884 8.56431C47.6273 8.8259 48.4217 9.01034 48.7038 9.35512L48.705 9.34909ZM49.3801 11.0296C49.4078 10.8162 49.7393 11.0573 49.1245 10.7945C49.1378 10.8294 49.145 10.8427 49.1522 10.8704C49.2077 10.8982 49.2764 10.9464 49.3873 11.0296H49.3801Z" fill="#FFBF00"/>
<path d="M49.1519 10.8692C48.8964 10.7246 49.2279 11.1031 49.1519 10.8692V10.8692ZM50.3405 11.4816L49.9247 11.4262C49.9319 11.5636 50.2079 11.7637 50.0573 11.7697C50.4358 11.9011 50.4298 11.7637 50.3393 11.4877L50.3405 11.4816ZM50.8457 11.3707L50.6383 11.3297C50.6383 11.3852 50.6793 11.4334 50.8457 11.3707ZM50.1947 11.2333L50.6299 11.3297C50.6299 11.2333 50.7058 11.0959 50.437 11.2755C50.5395 11.1718 50.3948 11.2478 50.1947 11.2405V11.2333ZM50.0356 11.0477C49.9114 10.8415 49.7101 10.6414 50.1248 10.6981C49.469 10.3665 49.3798 10.7173 50.0356 11.0477ZM49.0965 8.99107L48.9313 8.71622H48.6348C48.7794 8.71622 49.0278 9.1285 49.0965 8.99107ZM52.2272 12.9608C52.3031 12.8848 52.2681 12.657 52.3164 12.5268L52.0126 12.4786C52.0958 12.616 52.2959 12.8161 52.2272 12.9608Z" fill="#FFBF00"/>
<path d="M52.3082 12.528L52.7639 12.5967C52.4529 12.3773 52.3492 12.4183 52.3082 12.528ZM51.1907 10.944L50.4023 10.8958L51.3065 11.0127L51.1907 10.944ZM53.5788 13.8287L53.2473 13.9059L53.8067 13.8227L53.5776 13.8299L53.5788 13.8287ZM54.5107 14.3579C54.2551 14.4327 54.5384 14.7702 54.3106 14.7775C54.5722 14.9004 54.8772 14.8872 55.146 14.8739C54.8964 14.8184 54.6963 14.6666 54.5035 14.3579H54.5107ZM55.5908 14.8799C55.4459 14.8633 55.2998 14.8609 55.1544 14.8727C55.2981 14.9031 55.4462 14.9056 55.5908 14.8799ZM53.345 13.0223C53.345 13.091 53.304 13.2634 53.4691 13.449L53.4836 13.1115C53.4426 13.0837 53.3932 13.05 53.345 13.0223Z" fill="#FFBF00"/>
<path d="M53.4823 13.1054V13.1175C53.627 13.2224 53.7319 13.2911 53.7801 13.3248L53.4823 13.1115V13.1054ZM53.3111 13.0018L53.3461 13.0223C53.3461 12.9873 53.3461 12.974 53.3111 13.0018ZM51.9839 11.7577C52.2816 11.7505 52.8133 11.8746 52.5227 11.3997C52.2672 11.4756 52.4335 11.7505 51.9839 11.7577ZM53.3304 12.5835L52.9844 12.2881C52.9507 12.3568 52.9579 12.493 52.8121 12.5015L53.3304 12.5835ZM53.5643 12.616L53.3304 12.5823L53.4606 12.6859L53.5655 12.616H53.5643ZM55.0844 14.2422C55.3195 14.2422 55.4991 14.3387 55.7137 14.4472C55.5306 14.2638 55.3267 14.1023 55.1061 13.9662C55.0302 14.0289 54.8433 14.1108 55.0844 14.2422ZM54.3177 13.6696C54.3177 13.6696 54.3515 13.6696 54.366 13.6768C54.3587 13.6431 54.3455 13.6214 54.3177 13.6696ZM57.7076 15.6997V15.631L57.6726 15.672L57.7088 15.6997H57.7076ZM55.0989 13.8902C54.9675 13.7395 54.8301 13.7395 54.6914 13.76C54.8301 13.8082 54.9687 13.877 55.1061 13.9589C55.1411 13.9324 55.1616 13.9107 55.0989 13.8902ZM56.2164 15.115C56.1621 15.0113 56.0922 14.9077 56.0235 14.798C56.0573 14.9282 56.1477 15.156 56.2164 15.115ZM54.3792 13.7805H54.3443C54.366 13.8697 54.3708 13.836 54.3792 13.7805Z" fill="#FFBF00"/>
<path d="M54.3789 13.7805C54.4828 13.7896 54.5874 13.7847 54.69 13.7661C54.5851 13.7244 54.4759 13.6945 54.3645 13.6769C54.3732 13.7108 54.378 13.7455 54.3789 13.7805ZM59.3251 14.4737C59.1527 14.6871 58.5861 14.6316 58.3728 14.1506C57.8954 14.0952 57.6615 15.0029 57.7097 15.6298C57.7857 15.5333 57.8399 15.4441 58.3028 15.5406C58.2474 15.3332 57.6543 14.7208 58.1027 14.7148C58.6766 14.9077 58.462 15.0523 58.6211 15.3272C58.5934 14.9137 59.518 15.3055 59.6771 14.8112L59.1467 14.6871C59.1804 14.6184 59.4011 14.6111 59.3179 14.4737H59.3251ZM57.0033 15.1632L56.8309 15.0945C56.9828 15.2452 57.0527 15.4176 57.1685 15.7407C57.494 15.7889 57.6049 15.7407 57.6736 15.672L56.9346 15.1632H57.0105H57.0033ZM56.1414 14.6605C56.4174 14.4821 56.8587 14.6123 56.8044 14.1928C56.3415 13.924 56.3548 14.2061 56.0172 14.1446C56.7899 14.5364 55.7195 14.1518 56.1546 14.6268C56.0044 14.5814 55.859 14.5213 55.7207 14.4472C55.8292 14.5569 55.934 14.675 56.0232 14.798C56.0232 14.7919 56.0232 14.7847 56.0172 14.7715C56.0028 14.7232 56.01 14.6955 56.0305 14.7353H56.051C56.0787 14.7015 56.1137 14.681 56.1414 14.6605C56.321 14.8462 56.1342 14.7498 56.051 14.7365C56.0449 14.7498 56.0305 14.757 56.0172 14.7715L56.8382 15.0945C56.7068 14.9631 56.5066 14.8462 56.1414 14.6605ZM53.253 11.1043C53.2564 11.117 53.257 11.1303 53.2547 11.1432C53.2524 11.1561 53.2473 11.1683 53.2397 11.1791C53.3085 11.1791 53.3362 11.167 53.253 11.1043Z" fill="#FFBF00"/>
<path d="M53.4628 11.4407C53.3856 11.4407 53.2759 11.5154 53.124 11.378C53.0203 11.2068 53.2 11.261 53.2409 11.173C53.0963 11.173 52.7648 11.1248 53.0131 11.4467H53.0891C53.3302 11.7155 53.511 12.2664 53.4411 12.2664C53.5066 11.9935 53.516 11.7101 53.4688 11.4334L53.4628 11.4407ZM54.8623 13.0018L55.5531 13.2634L55.3807 12.8511L55.312 12.9885C54.9937 12.7197 54.9745 12.9258 54.8623 13.0018ZM57.7025 15.8648L57.453 16.0782L58.04 15.9263L57.7025 15.8648ZM58.5162 16.3253L58.3366 16.5399L58.6343 16.5327L58.5162 16.3253ZM76.835 54.6856V54.9122C76.842 54.8368 76.842 54.7609 76.835 54.6856ZM77.416 53.2474L77.3051 53.163C77.3461 53.2594 77.3883 53.3016 77.416 53.2474ZM78.0055 28.4768C78.1297 28.8553 78.2117 29.3713 78.3431 29.0964L78.419 28.7938C78.2485 28.7434 78.1018 28.6335 78.0055 28.484V28.4768ZM79.7511 40.7669C79.786 40.7452 79.827 40.7247 79.862 40.7042C79.7832 40.6142 79.7068 40.5222 79.633 40.4281C79.6691 40.5318 79.7101 40.6427 79.7439 40.7656H79.7511V40.7669ZM80.8915 41.2876L80.601 41.6324C80.7151 41.5336 80.814 41.4172 80.8915 41.2876ZM73.6537 62.5635L73.8128 62.9215C73.9924 62.5695 73.7766 62.6527 73.6537 62.5635ZM66.6931 21.3149C66.8583 21.556 67.0102 21.7067 67.1621 21.8164C66.9824 21.5006 66.9005 21.1498 66.6931 21.3149ZM74.1009 52.9641C74.1009 53.1015 74.1431 53.1775 74.2058 53.198C74.2058 53.0533 74.1769 52.9641 74.1009 52.9641ZM67.8106 22.2226C67.7901 22.1744 67.7552 22.1334 67.7286 22.0912C67.5227 22.034 67.3285 21.941 67.1548 21.8164C67.2862 22.0503 67.4731 22.2564 67.8046 22.2226H67.8106ZM54.7599 86.8989C54.7599 86.8989 54.7117 86.9194 54.6839 86.9194C54.7056 86.9544 54.7321 86.9339 54.7599 86.8989ZM45.8247 89.6583C45.8862 89.5968 46.0043 89.5281 46.114 89.4582C46.0453 89.4727 45.9561 89.5281 45.8247 89.6583ZM61.6385 18.4326C61.4588 18.3421 61.5975 18.4458 61.6385 18.4326V18.4326ZM61.4444 16.9245C61.4998 16.9245 61.548 16.8967 61.589 16.8413C61.5348 16.8967 61.4926 16.9172 61.4444 16.9245ZM70.4772 21.6934H70.4904C70.4699 21.6247 70.4772 21.638 70.4772 21.6934ZM61.4588 18.1625C61.5034 18.2391 61.559 18.3085 61.624 18.3687C61.5777 18.2933 61.5223 18.2241 61.4588 18.1625ZM61.4166 18.3012C61.3612 18.2529 61.3274 18.2168 61.2852 18.183C61.237 18.2107 61.2358 18.2529 61.4166 18.3012ZM61.8808 18.5688C61.7871 18.5142 61.7011 18.4473 61.6252 18.3699C61.6457 18.4036 61.6529 18.4313 61.6385 18.4313C61.6867 18.4591 61.7626 18.5001 61.8796 18.5627L61.8808 18.5688ZM65.3731 74.2327L65.3249 74.2532C65.3044 74.4871 65.3454 74.4039 65.3731 74.2327ZM83.2169 30.6431L83.2037 30.6153C83.2037 30.6226 83.1892 30.6358 83.1892 30.6431H83.2169ZM83.329 31.3929C83.012 31.0288 83.0807 30.8625 83.1916 30.6431L82.2995 30.7467L83.3218 31.3857L83.329 31.3929Z" fill="#FFBF00"/>
<path d="M75.4707 58.1441L75.9264 57.7861C76.0855 58.5215 75.7612 58.8735 76.3061 58.5841C75.4779 58.1441 77.0246 56.7277 76.1687 56.2937L76.4785 56.0598C76.4375 56.1418 76.4785 56.1828 76.4375 56.2648C77.1005 55.832 75.9951 55.5644 76.4375 54.8423C76.6171 54.6012 76.8172 54.4625 76.8449 54.6831L76.8727 53.996C76.9559 53.8236 77.0933 53.9261 77.0101 54.0985L77.2934 53.1485L77.3139 53.163C77.216 52.923 77.1421 52.6738 77.0933 52.4192C77.3079 52.2336 77.1415 52.5711 77.2741 52.5506L77.2524 51.9587C77.5634 51.8345 77.6177 52.3372 77.4525 52.682C78.5085 52.5301 77.4043 52.1781 78.2879 51.3258L78.2265 51.8562C78.8413 51.7176 78.793 51.2704 79.303 50.8231C79.0896 50.8991 78.1216 51.6549 78.1023 51.016C78.2265 50.8846 78.3301 50.6857 78.2602 50.3204C78.5785 50.4313 78.6062 50.1083 78.7159 49.7297L79.1233 49.8949C79.1438 49.4537 78.9232 49.4127 78.8135 49.1101C78.9992 48.6761 79.3584 48.6906 79.6622 48.6761C79.966 47.9745 78.9787 49.0004 79.18 48.1264C79.5308 47.5755 79.5103 47.1078 79.4754 46.3097C79.7526 45.9312 79.7104 46.4604 79.8768 46.3507L79.655 45.8758C79.6899 45.7865 79.7876 45.848 79.8358 45.8758C79.7996 45.5262 79.4211 45.7251 79.4549 45.1946C79.0329 44.927 80.4494 44.3833 80.0841 43.6118C80.2493 43.4961 80.3252 43.7565 80.4976 43.7565C80.3879 42.8138 80.4494 42.9584 80.1733 42.1411L80.6073 41.624C80.1733 41.9748 79.9383 41.3141 79.7514 40.756C79.5585 40.8669 79.3861 40.9633 79.2969 41.0333L79.2692 40.2063C79.3657 40.1303 79.4898 40.2485 79.6345 40.4197C79.6162 40.3638 79.5957 40.3087 79.573 40.2545C79.8008 40.0206 80.0142 40.2268 80.1999 40.4823C80.0914 40.5511 79.9732 40.6198 79.8623 40.6957C80.0697 40.9489 80.312 41.2044 80.5736 41.2322C80.5333 41.1439 80.5167 41.0467 80.5253 40.9501C80.5808 41.0188 80.6362 41.067 80.6845 41.0525C80.7399 41.0393 80.664 40.9356 80.588 40.7777L81.1124 40.7222L80.9328 40.633L81.4849 39.6903C81.1811 38.8368 80.629 38.0388 80.6845 36.8417C80.9738 37.207 81.2438 37.0346 81.6585 37.1383C81.1401 37.3577 81.6513 38.081 81.409 38.6657C81.5331 38.3631 81.7128 38.48 81.7622 38.5752L81.6091 37.4059C81.9478 37.5096 81.9201 37.2347 82.1202 36.9864C81.403 37.0479 81.8514 36.0847 81.7272 35.6037C81.9623 35.6242 82.1684 35.7749 82.0033 36.3053C82.6386 35.8171 81.368 35.3771 81.9201 34.8876C81.8996 35.019 81.8514 35.0805 81.9551 35.1564C81.8237 34.8129 82.1202 34.0956 82.2866 34.3102L82.2661 34.4404C82.5216 33.5869 82.7627 31.7774 82.1962 31.5508C82.2721 31.5508 82.8736 31.7774 82.9834 31.8534C82.4258 31.2249 81.8575 30.606 81.2788 29.9969C81.755 30.2091 83.0255 29.845 83.1979 30.6153C83.2795 30.4777 83.3314 30.3247 83.3505 30.1659C83.3696 30.0071 83.3554 29.8461 83.3088 29.6931C83.2184 29.8305 82.5349 29.9547 82.5132 29.7546C82.9629 29.4243 82.9496 29.3978 83.116 29.1012L82.6109 28.0621C82.6253 28.0139 82.5626 27.8837 82.4734 27.6643C82.5976 27.8692 81.9756 28.4069 81.6995 28.2067C81.8104 28.138 82.0937 27.5317 82.2384 27.5256L81.1124 27.7318C81.368 27.7318 81.4922 27.1953 81.45 26.9132C81.45 27.0856 80.8436 26.5154 80.6085 26.4588L80.8159 26.8035C80.0697 26.1972 79.4344 27.2303 78.6604 26.6938C78.8413 26.6179 79.4271 26.0115 79.0691 25.6752C78.6677 25.8946 77.2247 26.7758 76.3543 26.5902L76.3411 26.3153L75.6575 26.1911C76.3133 25.8946 77.9359 25.4269 78.7099 25.3376C78.5025 24.9941 78.7641 25.0556 78.3024 24.7952C78.2542 24.5119 78.7243 24.677 78.8618 24.747L77.8805 23.9682C77.6804 24.3877 76.8245 23.8585 76.6653 24.2093L78.0673 24.5191C77.8672 24.9386 76.7063 25.2207 76.0023 24.6843C75.9131 24.4082 76.5821 24.0791 76.6521 23.9344C76.4712 24.0104 75.7817 23.7488 75.7745 23.6114L76.2229 23.5969C75.8986 23.1907 75.2151 23.6933 74.9523 23.0062C74.7944 22.8736 74.7522 22.1792 74.5798 22.3926C74.5798 23.0195 73.7649 24.4359 73.3647 24.6493C73.3225 24.5806 72.7294 23.6584 72.6739 23.3148C72.6112 22.7844 73.6263 22.7434 73.572 22.2962C73.4961 22.3998 73.2538 22.4336 73.1646 22.4336C73.0404 22.2287 73.4479 22.1527 73.0259 21.9514C72.7089 22.3106 72.246 21.4162 72.6257 22.1732C72.17 22.049 72.2665 21.8357 71.8035 21.5668C71.7831 21.9116 70.8512 22.1865 70.3883 22.0623C70.4715 21.9731 70.4715 21.7875 70.4642 21.7043C69.6975 21.1751 69.3865 20.7278 68.656 20.2673C68.6476 20.1287 68.3655 19.7923 68.6271 19.7164C68.4752 19.7164 68.2955 19.7923 68.0605 19.661C67.8399 19.0425 68.5993 19.9225 68.5234 19.3041C68.351 19.5163 67.7362 19.2559 67.3227 19.2004C67.1973 19.62 68.0267 19.7369 68.4414 19.7911C68.1304 20.2878 67.2468 20.4457 66.3354 20.1974C65.6446 19.937 66.2727 19.7164 66.1208 19.7164C65.0298 18.9111 64.6019 19.9635 63.8702 19.0148C63.6893 18.4639 64.2427 18.3819 64.3041 18.0986C64.878 18.2915 64.9467 18.7737 65.2926 18.9726L64.9672 18.5676C65.189 18.5676 65.5747 18.6905 65.7001 18.8979C65.5615 18.4157 63.7942 17.6321 63.0757 16.8196C62.8551 16.8196 62.5091 16.7641 62.5646 16.9715L62.8756 17.1017C62.9721 17.514 62.1294 17.1222 62.4055 17.4597C61.9148 17.4043 61.3205 17.4187 60.8793 16.9438L61.0035 16.5242C60.948 16.6327 61.2181 16.951 61.4314 16.9365C61.1144 16.957 60.9275 15.9456 60.3887 16.2614L60.6032 16.7436C60.1126 16.6894 59.4086 16.7786 59.0084 16.3723C59.0011 16.8606 59.1398 16.4001 59.2157 17.0197C59.2495 16.3241 60.4031 17.79 60.279 16.957C60.32 17.6526 60.7419 17.5284 60.9348 18.2168C60.9962 18.0926 60.9203 17.8925 61.2723 18.1963C61.3211 18.1739 61.3726 18.1577 61.4254 18.148C61.4314 18.1613 61.4387 18.1613 61.4459 18.1758L61.4314 18.148C61.4314 18.148 61.4676 18.1408 61.4314 18.1408C61.3739 18.0503 61.343 17.9455 61.3422 17.8382C61.7087 17.6863 62.3307 18.0926 62.6261 18.0793C62.8262 18.2782 62.4477 18.1541 62.4959 18.3614L62.9443 18.347C62.8129 18.629 63.2891 19.1727 62.6478 18.9798L63.1372 19.3029C63.3373 19.6332 63.7038 19.943 64.0148 19.9852C64.2149 20.1841 64.7875 20.06 64.456 20.1419L65.3336 20.4674L65.2987 20.5349C66.0449 21.0437 67.1491 21.0859 67.7302 22.1105C68.0267 22.207 68.345 22.2901 68.7307 22.6337L68.6753 22.9158C69.0562 23.046 69.5252 23.7621 69.8217 23.6174C69.794 24.4492 71.3479 24.753 71.859 25.2279L72.0664 24.9459C72.4605 25.2135 72.8945 25.3726 73.4683 25.5643L73.5997 25.2822C74.1663 25.3376 74.587 26.1562 75.2838 26.5552C75.1741 26.6239 75.0222 26.4937 74.9391 26.3563C75.3815 27.4497 76.9209 26.9952 77.3838 27.8837C77.6249 27.9042 77.7358 28.0211 77.825 28.1658C77.8045 28.1585 77.7913 28.1525 77.7708 28.1525C77.7928 28.1732 77.8186 28.1896 77.8467 28.2007C77.901 28.2972 77.9492 28.3996 78.0119 28.4961C77.9842 28.3988 77.9424 28.3062 77.8877 28.2212C78.0324 28.3032 78.2674 28.4069 78.5158 28.4683L78.4266 28.8059L78.482 28.8264C78.6194 29.0602 78.7304 28.7986 78.7509 28.5166C78.8783 28.5405 79.0091 28.5405 79.1366 28.5166C79.0197 29.0735 79.7876 28.7094 79.7104 29.3363C79.9997 29.1916 80.8773 29.8173 81.3053 29.3905C81.2715 29.4593 81.3125 29.528 81.2028 29.4593C81.3125 29.5762 81.4307 29.6931 81.5609 29.7691L81.1329 28.8806C81.1204 28.9926 81.1423 29.1057 81.1956 29.2049L80.7604 29.2664L81.2426 29.927C80.94 30.2501 80.7677 30.3742 80.4976 29.9752C80.8641 30.8974 80.5808 30.6913 80.9533 31.4953L80.6917 31.4134C80.664 31.675 80.9473 32.1487 80.6917 32.2729C80.0902 32.7623 80.0841 35.136 79.2752 36.5042C80.1251 36.3957 78.7713 37.1106 79.3657 37.3095C79.1583 37.3517 79.0064 37.5373 78.9027 37.2613C78.916 38.0533 78.3362 38.3149 78.7304 38.9538C78.523 38.996 78.4953 38.7271 78.3711 38.7754C78.3988 38.8441 78.4748 39.0502 78.3434 39.1057C78.212 39.1539 78.212 38.961 78.1638 38.8236C78.0119 39.5951 78.558 39.8145 79.0751 40.0074C78.7231 40.3305 78.7099 40.5306 78.9787 40.9019C78.7713 40.9911 78.5302 41.1695 78.5929 40.674C78.5025 40.9356 77.901 42.2363 78.3157 42.381C78.1843 42.4353 78.1782 42.7451 78.2048 42.827C78.0119 43.4202 77.9637 43.4611 77.825 44.0603L77.9432 43.9156C78.3844 44.2941 77.9082 44.4316 77.825 44.9198L77.7768 44.8921C77.08 45.8565 77.819 45.4153 77.0656 46.3435L77.3971 46.3857C78.0468 46.7015 76.6858 47.197 76.7485 47.8926L77.0041 47.7274C77.121 48.1397 75.7817 48.3603 75.5744 48.6556C75.4912 48.7111 75.5189 48.511 75.5117 48.394C74.8077 49.1234 75.8854 48.6496 75.7467 49.3295C75.4839 49.3717 75.2428 48.9799 75.0427 49.3994C74.7872 49.5501 75.3188 50.9196 74.663 51.3523C74.8836 51.2848 75.097 51.2221 75.1114 51.5657C74.9945 52.0479 74.0072 52.5566 74.3797 53.1763C74.311 53.2173 74.2628 53.2245 74.2133 53.2112C74.2133 53.609 73.9795 54.4288 74.1796 54.7519C73.5853 54.6964 73.4961 55.2883 73.4274 55.8392C73.3502 56.3889 73.2948 56.9061 72.8126 56.6927L72.3979 57.7656L72.3147 57.6969C71.9554 58.3442 72.0663 58.6806 72.1905 59.0181C72.0531 59.1423 72.0181 58.9904 71.9699 58.9494C71.3141 59.8294 71.3069 59.9403 71.3901 60.9867L71.0441 60.9168C71.114 61.2266 69.8567 62.0524 69.7253 63.1735C69.6761 63.1296 69.6462 63.0681 69.6421 63.0023C69.442 64.2476 67.4469 65.0107 68.3233 66.0088C68.2895 66.2909 68.2341 66.5585 68.1919 66.8346C68.8006 66.0148 68.5788 67.2324 68.9791 66.9853C68.8344 67.371 68.1159 67.6808 68.316 67.2264L68.4125 67.1914C67.9508 66.7104 67.5566 68.1558 67.1973 67.9002C66.7079 68.7682 66.0859 69.5385 65.4783 70.2956C64.8852 71.0587 64.2487 71.7747 63.6966 72.5173L64.2354 72.6342L63.8352 73.1442C63.6423 73.2129 63.3795 73.0959 63.6688 72.7379C63.2963 72.7656 63.4133 73.5094 63.4892 73.5842C62.7997 74.1966 63.2204 72.9453 63.048 73.1647L62.8612 73.495L62.9576 73.46C62.9516 73.8313 63.0962 73.976 62.737 74.4027C62.4404 74.6161 62.3777 74.3545 62.2741 74.4509C62.2463 74.4304 62.2054 74.4509 62.1294 74.6088L61.5906 75.2212L62.1089 75.208C62.0402 75.6142 61.6183 75.7987 62.2054 75.7866C61.3422 75.8131 60.0584 77.9806 59.6642 78.0976C59.5533 78.6762 59.2217 79.0535 58.76 79.4742C58.9252 79.4188 59.3194 79.6527 58.9119 80.0047C58.3658 79.2331 57.9379 80.4507 57.164 80.3C57.4533 80.3121 57.2122 80.6086 57.006 80.8979C56.7987 81.1873 56.6046 81.4549 57.0543 81.4694C56.6745 81.7237 56.7915 81.2415 56.3912 81.3247C56.1357 81.8189 55.6655 82.1842 55.1616 82.5422C54.9061 82.7219 54.6433 82.9003 54.3949 83.0992C54.1333 83.286 53.8766 83.4849 53.6499 83.7188C53.7114 83.8225 54.0019 83.8152 53.9115 84.1383H52.9869C52.8278 84.3457 53.263 84.8194 52.6277 84.8062C52.7446 84.8399 52.917 84.8954 52.8145 85.0328C52.2407 85.3499 51.6958 85.7079 51.1774 86.1057C50.6591 86.5059 50.1624 86.9387 49.6585 87.3654C48.6085 88.1575 47.5031 88.9205 46.1156 89.1412C46.5435 89.1616 46.3566 89.2991 46.1288 89.4425C46.3096 89.4027 46.2879 89.6981 46.4061 89.8223L45.2247 89.9946C45.2874 90.4889 44.2374 90.6203 44.3543 91.0543L44.6171 90.8059C44.4725 91.487 45.7503 91.4593 46.0324 92.0585C46.177 91.2809 47.7104 92.0862 48.001 90.9012C48.236 90.9012 47.9805 91.1712 48.1456 91.246C48.1806 90.8819 48.3674 90.6818 48.8496 90.5106V90.5998C49.9478 89.7391 50.6386 89.6836 51.9924 88.8518L51.703 88.6662C51.9996 88.4938 52.1165 88.5348 52.2889 88.501C52.2889 87.8742 51.5162 89.058 51.468 88.4046C52.2202 88.6529 53.3666 86.9809 54.0634 87.3522C54.4648 87.0146 53.7054 87.1593 54.1056 86.8218L54.3395 86.8905L54.2708 86.6012C54.5541 86.4167 54.8506 86.4927 54.9748 86.6156C54.8988 86.6566 54.8301 86.8085 54.7686 86.8772C55.2653 86.7675 55.6655 85.9972 55.8319 85.955L55.369 86.1889C56.349 85.1497 57.751 84.0973 58.4623 82.8653L58.2766 82.8316C58.8071 81.8961 58.9806 82.3494 59.6774 81.4272V81.4826C59.7196 81.2078 59.8787 80.9401 60.0993 80.7195C60.0306 81.0498 60.7346 80.5604 60.6177 80.9727C61.1698 79.942 60.8239 80.4025 60.8865 79.4598L61.1903 79.5008C61.1831 79.1572 61.0999 79.0608 61.4254 78.5858C61.2868 79.0813 61.9558 78.5653 61.8389 79.15C63.048 78.593 62.5718 77.4502 63.5386 77.5262C63.3313 76.6534 62.5923 78.0903 62.661 77.754C62.3235 77.8082 62.5441 77.0729 62.8202 76.8173C63.0685 76.528 63.9316 76.8728 64.5187 76.1025C64.456 76.1784 64.4982 76.2122 64.4355 76.2881C64.802 76.1097 64.6766 75.5865 65.189 75.4081C64.9889 74.9536 65.547 74.9536 65.1468 74.5751C65.0094 74.8367 64.878 75.1055 64.7249 75.3587C64.9189 74.8765 64.6646 74.1134 65.3951 73.6384C65.4506 73.7566 65.4228 74.0386 65.3951 74.2243C65.6651 74.1206 65.582 73.7831 65.858 73.6806C66.2595 74.0591 65.3336 74.6233 65.3541 75.3044C65.6917 75.2285 65.6314 74.2436 65.9484 74.809C65.5615 74.0519 66.5837 74.0857 66.4933 73.2261L66.7344 73.4467C66.7561 73.3298 66.7489 73.0682 66.867 72.9236L67.0117 73.4467C67.0322 72.8139 67.8543 72.7789 67.9713 72.2412C67.3914 73.1369 67.5084 72.222 67.0671 72.4631C67.4191 71.1274 68.1919 72.3112 68.8754 70.9899C68.8067 71.1828 68.2967 71.5131 68.345 71.1684C68.5511 70.9694 68.8633 70.7283 69.1044 70.6801C69.5746 69.8206 68.738 70.6259 68.7934 70.1714C69.3046 70.1027 68.9031 69.6759 69.014 69.2492L69.2973 69.4216C70.0568 68.5813 68.8549 68.8092 69.5939 68.0931L69.7747 68.6922L69.9398 68.1896L70.2087 68.4716C70.2569 67.8388 70.4233 67.7363 70.7825 67.3023C70.5125 67.3023 70.2919 66.937 70.5197 66.5103C70.8512 66.3174 70.7053 66.8273 71.0019 66.2017C71.1068 66.4428 71.2514 66.7176 70.8367 66.8346C70.9127 66.9165 70.9404 67.0757 71.0236 67.1504C71.3973 66.9443 71.5142 66.3801 71.6312 66.1595C71.5757 66.2354 71.4998 66.3319 71.4311 66.3596L71.5215 65.259C71.7071 65.183 71.7348 65.3337 71.7626 65.4929C71.8313 65.3 71.7626 65.0999 71.8867 64.825C72.0868 65.0179 72.3424 65.1348 72.246 65.5676C72.3147 65.2373 72.3834 64.9142 72.4388 64.5779C72.5715 64.5779 72.95 64.2886 72.9849 64.4465C73.3707 64.0402 73.1224 63.0433 73.6335 62.5056C73.6058 62.4514 73.5925 62.361 73.6275 62.2103C73.965 61.6389 74.5244 61.2471 74.5244 60.3803L75.1597 60.1802C75.326 59.5751 74.3447 60.4695 74.6208 59.4654C74.7739 58.7421 75.1042 59.3894 75.3321 59.211C75.2561 58.777 75.056 58.0055 75.6853 57.5595C75.6853 57.8006 75.5466 57.9235 75.4924 58.1309L75.4707 58.1441ZM78.0806 51.0365C78.0951 51.1944 78.2048 51.5452 77.9841 51.579C77.6804 51.2909 77.8949 51.2366 78.0806 51.0365ZM80.6435 39.8555C80.7255 39.9869 80.6362 40.1376 80.4627 40.2895C80.4718 40.1285 80.5356 39.9754 80.6435 39.8555ZM63.6218 19.3584H63.6423C63.8485 19.6405 63.7809 19.538 63.6218 19.3584ZM63.1312 18.8834C63.0468 18.8834 63.0275 18.9316 63.0275 18.9798C63.1095 18.9316 63.2409 19.0076 63.3723 19.1173C63.3723 19.0208 63.3373 18.9244 63.1312 18.8762V18.8834ZM62.309 74.5896L62.4537 74.5413C62.35 74.8295 62.3295 74.7125 62.309 74.5896Z" fill="#FFBF00"/>
<path d="M80.7602 41.2274C80.6981 41.2486 80.6316 41.2532 80.5673 41.2406C80.6083 41.3093 80.6697 41.3298 80.7602 41.2274ZM73.6248 62.502L73.6103 62.5225C73.6103 62.5225 73.6381 62.5575 73.6525 62.5707L73.6248 62.502ZM73.4452 22.002C73.5166 22.0834 73.5623 22.1841 73.5766 22.2914C73.6248 22.2299 73.6115 22.1334 73.4452 22.002ZM59.8158 17.4754L60.2233 17.6273C60.0364 17.5308 60.0159 17.4272 59.9532 17.3307C59.9183 17.3994 59.9327 17.5381 59.8158 17.4754ZM57.7508 13.754C57.6748 13.754 57.6326 13.6853 57.5639 13.6913L57.494 13.8288C57.7291 13.9614 57.9509 13.9529 57.7508 13.754ZM60.0629 16.3253C60.1799 16.0722 59.9038 16.0095 59.6205 15.8926C59.635 15.8998 59.6555 15.9058 59.6687 15.9203C59.3866 16.2024 59.7242 16.2639 60.0629 16.3253ZM59.5578 15.866C59.4746 15.8239 59.3854 15.7817 59.3167 15.7214C59.2058 15.8383 59.3927 15.8106 59.5578 15.866ZM62.3088 18.5832C62.2268 18.4458 62.0399 18.8364 62.0327 18.7002C61.7084 18.9135 63.0682 18.8376 62.3088 18.5832ZM60.3462 15.42L60.2546 15.7696L60.5451 15.6249L60.345 15.42H60.3462ZM62.2316 16.8907L61.8724 16.5532C61.8447 16.6086 61.7759 16.6014 61.7 16.5893C61.9483 16.7533 62.1834 16.9872 62.2316 16.8907ZM61.7 16.5893C61.5758 16.4989 61.4444 16.429 61.3407 16.429C61.4167 16.4712 61.5686 16.5544 61.7 16.5893ZM60.961 15.678L61.0454 15.8154L61.3215 16.0155L60.961 15.678ZM66.5823 19.6899L67.0789 19.8828C67.1898 19.8141 67.1067 19.6766 66.9138 19.6079C66.7619 19.6079 66.5762 19.5452 66.5823 19.6839V19.6899ZM65.7408 18.0468C65.8228 18.1842 65.789 18.2529 65.7951 18.3916L66.0374 18.0396H65.7408V18.0468ZM67.0862 18.7737C67.1971 18.6978 67.9155 18.8906 67.3345 18.5603C67.2248 18.6291 66.7269 18.4362 67.0862 18.7737ZM73.5079 23.4269L73.3909 23.3582L73.0317 23.9646L73.5079 23.4269ZM80.3165 25.7029C79.8825 25.2292 79.9573 25.9922 79.598 25.5173C79.3847 25.58 79.8958 25.903 79.6945 25.9513C80.1092 25.9995 80.2201 26.1924 80.3238 25.7102L80.3165 25.7029ZM79.6873 25.9452C79.6136 25.9373 79.5395 25.9333 79.4654 25.9332C79.5836 25.9525 79.6463 25.9525 79.6873 25.9452ZM44.4023 90.0646L43.9936 90.1393L44.3263 90.2152L44.4023 90.0646ZM44.0153 90.8964L43.7188 90.554V91.0278C43.7802 90.9663 43.9116 90.8409 44.0153 90.8964ZM79.3099 50.2734L79.2195 50.2119C79.0881 50.2324 79.0471 50.3216 78.964 50.494L79.3099 50.2734ZM77.0496 55.3257L77.0918 55.2425L76.6494 55.257L77.0496 55.3257ZM75.6898 59.7945C75.7802 59.6305 75.7935 59.3894 75.8827 59.217C75.779 59.6305 75.2064 59.6305 75.6898 59.7957V59.7945ZM45.9839 91.9849C45.9562 92.1163 46.2467 92.0681 46.3021 92.0886C46.2395 91.8752 45.9079 91.9922 45.9839 91.9849ZM45.3269 89.8729L45.445 89.9079L45.1617 89.598L45.3269 89.8729ZM45.3341 87.8971C44.8435 88.0827 45.4173 88.6131 45.2377 88.9639L45.1268 89.0194L45.521 89.1761C45.4583 88.7506 45.1955 88.1936 45.3341 87.891V87.8971ZM46.4046 86.8435C46.2105 86.905 46.2382 86.6156 46.3419 87.0918C46.3624 87.0713 46.3769 87.0641 46.3901 87.0508C46.3901 87.0086 46.3901 86.9471 46.4046 86.8507V86.8435Z" fill="#FFBF00"/>
<path d="M46.3893 87.0436C46.4038 87.2497 46.5484 86.9062 46.3893 87.0436V87.0436ZM46.2796 86.0804L46.4532 86.3553C46.5629 86.301 46.5906 86.0527 46.6738 86.1419C46.5774 85.8598 46.4665 85.9213 46.2796 86.0804ZM45.9228 85.8188L45.9915 85.9635C46.0397 85.9357 46.0542 85.9008 45.9228 85.8188ZM46.1494 86.2672L45.9975 85.9647C45.9131 86.0057 45.7552 86.0056 46.053 86.1021C45.9083 86.0744 46.053 86.1371 46.1494 86.2672ZM46.0735 86.4384C45.9638 86.5891 45.9011 86.7892 45.7287 86.5132C45.7974 87.0376 46.1434 86.9616 46.0747 86.4372L46.0735 86.4384ZM44.8234 87.7946L44.6787 88.0008L44.8439 88.1804C44.7607 88.0912 44.9765 87.7802 44.8234 87.7946ZM46.5364 84.3746C46.4327 84.3613 46.2591 84.465 46.1217 84.4855L46.2386 84.6856C46.3073 84.582 46.3773 84.3818 46.5292 84.3686L46.5364 84.3746ZM46.1217 84.4855L45.9409 84.1817C45.9216 84.4506 46.0048 84.506 46.1217 84.4855ZM45.3767 85.7718L45.7492 86.2733L45.3695 85.6753L45.3767 85.7718ZM46.5484 83.2173L46.7895 83.3909L46.4243 83.0799L46.5484 83.2173ZM46.5075 82.4482C46.7076 82.5712 46.8462 82.2758 46.9704 82.406C46.9354 82.2011 46.763 82.0203 46.6051 81.8636C46.6943 82.0347 46.6654 82.2131 46.5075 82.4482ZM46.3773 81.5947C46.4255 81.6779 46.5087 81.7671 46.6051 81.8636C46.55 81.7578 46.4729 81.6659 46.3773 81.5947ZM45.9891 83.6658C46.053 83.6441 46.2181 83.5959 46.2881 83.4247L45.9903 83.5416L45.9891 83.6658Z" fill="#FFBF00"/>
<path d="M45.9903 83.5561H45.9975C45.9975 83.4259 46.012 83.3355 46.012 83.2945C46.012 83.3294 46.0047 83.4042 45.9842 83.5561H45.9903ZM45.9903 83.7019V83.6742C45.9625 83.6875 45.9481 83.6947 45.9903 83.7019ZM45.6371 84.9798C45.4719 84.8001 45.2923 84.4288 45.0439 84.7869C45.2441 84.9171 45.3887 84.7109 45.6371 84.9798ZM45.625 83.8454L45.5563 84.1697C45.6322 84.1697 45.7492 84.107 45.8335 84.1901L45.625 83.8454ZM45.5261 83.685L45.6226 83.8442L45.6443 83.7272L45.5261 83.685ZM46.1 82.1444C45.9686 82.007 45.9625 81.8551 45.9408 81.6839C45.8843 81.8643 45.8543 82.0519 45.8516 82.2409C45.9408 82.2686 46.1144 82.3445 46.1 82.1517V82.1444ZM46.0252 82.8316C46.0252 82.8316 46.0192 82.8111 46.012 82.805C45.9842 82.8255 45.977 82.8388 46.0264 82.8328L46.0252 82.8316ZM45.9481 79.9914C45.9481 79.9914 45.9131 80.0119 45.8926 80.0179H45.9408V79.9842L45.9481 79.9914ZM45.7962 82.2686C45.7407 82.406 45.8094 82.4892 45.8998 82.5712C45.8693 82.4637 45.8531 82.3526 45.8516 82.2409C45.8094 82.2276 45.7829 82.2276 45.7962 82.2686ZM46.2386 81.1197C46.1738 81.1917 46.1202 81.273 46.0795 81.3608C46.1759 81.2909 46.3206 81.1463 46.2386 81.1197ZM46.0867 82.7496C46.0867 82.7496 46.0939 82.764 46.1012 82.7713C46.1639 82.7231 46.1361 82.7291 46.0867 82.7496Z" fill="#FFBF00"/>
<path d="M46.0865 82.7508C46.0455 82.6821 45.9696 82.6266 45.9069 82.5651C45.9264 82.6455 45.9589 82.722 46.0033 82.7918C46.0305 82.7742 46.0587 82.7581 46.0877 82.7436L46.0865 82.7508ZM44.0504 79.4803C44.3265 79.5092 44.5748 79.866 44.2843 80.1831C44.4916 80.4929 45.3897 80.2928 45.8936 80.0179C45.7767 80.0107 45.6658 80.0107 45.5006 79.6876C45.3487 79.7973 45.1486 80.3964 44.9063 80.1276C44.7689 79.7081 45.0028 79.784 45.1474 79.5779C44.8099 79.7491 44.6508 79.0403 44.1541 79.1307L44.3337 79.502C44.2578 79.5092 44.1336 79.3778 44.0564 79.4742L44.0504 79.4803ZM45.8659 80.6255L45.9009 80.7557C45.9491 80.605 46.06 80.5013 46.2746 80.3012C46.142 80.0818 46.0383 80.0408 45.9491 80.0264L45.9081 80.6737L45.8659 80.6255ZM45.8997 81.3488C45.6031 81.2451 45.4777 80.9281 45.1547 81.1197C45.1751 81.5055 45.403 81.3898 45.5344 81.6164C45.4584 80.9968 45.6995 81.7948 45.8647 81.3476C45.9129 81.4718 45.9346 81.5815 45.9418 81.6851C45.9776 81.5734 46.0236 81.4653 46.0793 81.362C46.0793 81.362 46.066 81.3681 46.0588 81.3753C46.0238 81.403 45.9961 81.4103 46.0178 81.3753V81.362C45.9794 81.3602 45.9417 81.3508 45.9069 81.3343C45.9684 81.1559 45.9828 81.3066 46.0178 81.362C46.0311 81.362 46.0455 81.3681 46.0588 81.3681L45.8924 80.7497C45.8514 80.8799 45.8587 81.045 45.8924 81.3343L45.8997 81.3488ZM44.4097 84.4578C44.4097 84.4578 44.4579 84.4373 44.4772 84.4373C44.4434 84.3963 44.4169 84.3818 44.4097 84.4578ZM44.5905 84.201C44.6315 84.2492 44.7484 84.2842 44.7207 84.4276C44.6315 84.5518 44.576 84.4276 44.4796 84.4276C44.5555 84.518 44.6929 84.7374 44.8376 84.4626L44.7966 84.4216C44.9003 84.1733 45.2728 83.8502 45.3078 83.8912C45.0533 83.9521 44.8106 84.0543 44.5893 84.1938V84.201H44.5905ZM45.1691 82.7592L45.0233 82.2421L44.7677 82.5037L44.9196 82.4904C44.8581 82.7857 45.051 82.717 45.1679 82.758L45.1691 82.7592ZM46.0925 79.9359L46.4108 80.0047L45.9611 79.7021L46.0925 79.9359ZM46.0588 79.2633L46.3288 79.2898L46.1624 79.1102L46.0588 79.2633ZM42.6677 41.3575L42.5918 41.2056C42.6135 41.2744 42.64 41.3226 42.6677 41.3575ZM42.6484 42.4594L42.7798 42.4871C42.7039 42.4389 42.6472 42.4184 42.6472 42.4594H42.6484ZM46.025 62.7708C46.2806 62.5502 46.676 62.3019 46.371 62.3296L46.0732 62.3983C46.0973 62.459 46.1062 62.5247 46.099 62.5897C46.0919 62.6546 46.069 62.7168 46.0323 62.7708H46.025ZM44.2361 51.4717C44.2361 51.4717 44.1734 51.5127 44.1456 51.5332C44.2493 51.5886 44.347 51.6368 44.4362 51.6851C44.3735 51.6224 44.312 51.5476 44.2433 51.4717H44.2361ZM43.0004 51.3138L43.1933 51.0244C43.1127 51.1089 43.0474 51.2068 43.0004 51.3138ZM42.3507 35.3578L42.0469 35.1781C42.0469 35.4542 42.206 35.3361 42.3507 35.3578ZM45.9479 72.3835C46.0431 72.2408 46.105 72.0784 46.1287 71.9085C45.9551 72.1352 45.6995 72.3208 45.9479 72.3835ZM45.8442 41.7915C45.7899 41.6951 45.7273 41.6601 45.6658 41.6601C45.714 41.7566 45.7767 41.812 45.8454 41.7903L45.8442 41.7915ZM46.1275 71.3552C46.1275 71.3552 46.0793 71.4239 46.0588 71.4577C46.107 71.5951 46.148 71.7398 46.1275 71.9049C46.2589 71.7337 46.3348 71.5408 46.1275 71.3552ZM42.593 13.5816C42.593 13.5816 42.6135 13.5466 42.6279 13.5334C42.5857 13.5334 42.5869 13.5466 42.593 13.5816ZM45.6176 7.22983C45.6362 7.3161 45.6431 7.4045 45.6381 7.49263C45.6586 7.44441 45.6586 7.36846 45.6176 7.22983ZM46.1854 76.5581C46.2058 76.7028 46.2191 76.5786 46.1854 76.5581V76.5581ZM45.0028 77.2537C45.0028 77.2537 44.9268 77.1983 44.8581 77.1983C44.9097 77.2065 44.9589 77.2253 45.0028 77.2537ZM44.265 69.9399V69.9255C44.2023 69.9677 44.2168 69.9604 44.265 69.9399ZM46.0515 76.7703C46.0886 76.7141 46.1189 76.6539 46.142 76.5907C46.103 76.6461 46.0725 76.7059 46.0515 76.7703ZM46.1902 76.7438C46.1769 76.792 46.1697 76.8342 46.1624 76.8679C46.2107 76.8884 46.2456 76.8667 46.1902 76.7438ZM46.1697 76.358C46.1723 76.4378 46.1604 76.5175 46.1347 76.5931C46.1552 76.5654 46.1697 76.5509 46.1829 76.5569C46.1829 76.5172 46.1697 76.4545 46.1697 76.358ZM43.4006 25.2448C43.4006 25.2448 43.4139 25.2231 43.4284 25.2159C43.303 25.0712 43.3247 25.1351 43.4006 25.2448ZM42.9172 59.0591C42.9172 59.0591 42.9317 59.0663 42.9317 59.0736C42.9317 59.0736 42.9389 59.0603 42.9462 59.0531H42.9172V59.0591ZM42.6894 58.5443C43.0619 58.7637 43.0137 58.8879 42.9377 59.0531L43.8009 58.8819L42.6894 58.5443Z" fill="#FFBF00"/>
<path d="M42.5775 38.7295L42.3087 39.0876C41.8675 38.6536 42.0194 38.3378 41.6396 38.6753C42.5787 38.7235 41.7361 40.0713 42.6764 40.1195L42.4751 40.3534C42.4823 40.2846 42.4268 40.2786 42.4401 40.2087C41.9917 40.6704 43.1176 40.5535 42.9862 41.1454C42.9175 41.3515 42.7788 41.495 42.6679 41.3587L42.903 41.8192C42.8825 41.9506 42.7234 41.9229 42.7379 41.7855L42.8138 42.4871H42.7861C42.9307 42.5835 43.1598 42.8102 43.2562 42.9211C43.1236 43.0995 43.1598 42.8307 43.0416 42.8789L43.2695 43.2719C43.0284 43.4286 42.7933 43.1067 42.8271 42.8379C41.888 43.202 43.0621 43.161 42.516 43.9457L42.3991 43.5805C41.8675 43.8144 42.0616 44.1037 41.7289 44.5232C41.9024 44.4267 42.5655 43.6914 42.7993 44.1109C42.7306 44.2278 42.6957 44.3858 42.8825 44.6124C42.551 44.6124 42.6342 44.8402 42.6474 45.1151L42.2062 45.0946C42.3304 45.3972 42.5582 45.3694 42.7584 45.5491C42.7162 45.8866 42.3726 45.9541 42.0809 46.0313C42.0121 46.5665 42.627 45.6588 42.7101 46.2989C42.5438 46.7449 42.7234 47.062 42.9862 47.5924C42.8343 47.9022 42.7162 47.5369 42.592 47.6466L42.944 47.9227C42.938 47.9914 42.8271 47.9709 42.7716 47.9564C42.9102 48.1903 43.214 47.9769 43.331 48.3422C43.8144 48.4386 42.6197 49.0993 43.173 49.5537C43.0477 49.6622 42.903 49.4983 42.7306 49.532C43.0899 50.1589 42.9934 50.0697 43.4829 50.5784L43.1935 51.0124C43.5251 50.6881 43.918 51.1016 44.2423 51.4584C44.4014 51.3415 44.5401 51.2463 44.6088 51.1836L44.8439 51.755C44.7739 51.8237 44.6221 51.7682 44.4364 51.6718C44.4674 51.7097 44.5022 51.7444 44.5401 51.7755C44.3737 51.9816 44.1182 51.8719 43.8771 51.7273L44.1459 51.5211C43.8771 51.3764 43.5793 51.2463 43.3249 51.28C43.3822 51.3283 43.4231 51.3932 43.4419 51.4657C43.3659 51.4319 43.3032 51.4042 43.2623 51.4247C43.214 51.4452 43.3105 51.5079 43.4286 51.5971L42.938 51.7273L43.1309 51.7622L42.8198 52.512C43.3177 53.0485 44.0422 53.5162 44.2496 54.3625C43.8903 54.1491 43.6625 54.3143 43.2345 54.307C43.6902 54.0732 43.0416 53.6476 43.1309 53.2064C43.0826 53.4342 42.8825 53.386 42.8066 53.3306L43.2213 54.1141C42.8693 54.0936 42.9585 54.2805 42.8138 54.4866C43.5046 54.3287 43.2767 55.0713 43.4829 55.3944C43.249 55.4149 43.0127 55.3401 43.0694 54.9483C42.551 55.3811 43.8843 55.5053 43.4419 55.9248C43.4419 55.8284 43.4696 55.7801 43.3515 55.7392C43.5588 55.9586 43.3937 56.5022 43.1935 56.3781V56.2816C43.1031 56.9157 43.1863 58.2092 43.7722 58.3057C43.6974 58.3057 43.0609 58.2225 42.944 58.1815L44.9198 59.3098C44.4159 59.2134 43.214 59.5919 42.9307 59.0687C42.862 59.2206 42.7716 59.4063 42.9512 59.7221C43.0199 59.6197 43.683 59.469 43.7252 59.6052C43.1658 59.991 43.4214 59.874 42.944 60.349C43.0549 60.1971 43.8421 60.3622 43.8216 60.6106C43.7047 60.5684 43.0416 60.6311 42.9585 60.5419L43.7324 61.147C43.5938 60.9951 43.0754 61.1193 42.8548 61.2567C43.0067 61.1952 42.8415 61.7799 42.9175 61.9439L43.0971 61.6907C42.979 62.3718 44.1881 62.3658 44.1459 63.0457C43.9868 62.9637 43.1586 62.8468 43.0609 63.1903C43.4624 63.3483 44.9753 63.892 45.2791 64.4911L45.05 64.608L45.3128 65.0685C44.7125 64.7792 43.4563 63.9751 42.9657 63.5339C42.7849 63.7895 42.6957 63.6038 42.7162 63.9884C42.5028 64.1258 42.3919 63.7823 42.3786 63.6653L42.24 64.5598C42.7029 64.5188 42.7029 65.2409 43.0899 65.2059L42.6065 64.2367C43.0694 64.1945 43.9253 64.7937 43.8421 65.4266C43.6564 65.5845 43.0139 65.3096 42.862 65.3169C43.0212 65.3988 43.1658 65.9148 43.0549 65.9775L42.8066 65.7086C42.6342 66.0594 43.4214 66.28 42.979 66.7068C42.9512 66.8515 42.3786 67.1408 42.6535 67.1673C43.1863 66.9262 44.8234 66.8852 45.2236 67.0431C45.1886 67.0913 44.7197 67.8074 44.4569 67.9786C44.0422 68.2197 43.4684 67.6218 43.1104 67.8219C43.2345 67.8279 43.3936 67.9665 43.4419 68.0208C43.331 68.1715 43.0477 67.9581 43.1043 68.2884C43.5733 68.3439 43.0621 68.9635 43.5046 68.4475C43.6348 68.7706 43.4081 68.7911 43.4286 69.1769C43.7324 69.0527 44.4641 69.5204 44.5955 69.8435C44.4774 69.823 44.3183 69.899 44.2496 69.9339C44.2086 70.6006 43.994 70.9586 43.9868 71.5854C43.8698 71.6397 43.7384 71.9423 43.5311 71.8121C43.6155 71.9013 43.7722 71.9833 43.7866 72.1761C43.3792 72.5474 43.7252 71.7494 43.2345 72.0315C43.5118 72.0592 43.6143 72.5269 43.7806 72.803C44.2025 72.7198 43.8626 72.1689 43.6902 71.8941C44.27 71.8941 44.8849 72.369 45.1549 73.0224C45.2995 73.5384 44.7739 73.249 44.8571 73.3395C44.7535 74.3099 45.8722 74.1652 45.4514 74.9765C45.0777 75.2996 44.7125 74.991 44.4436 75.0597C44.305 74.639 44.6775 74.4124 44.6642 74.123L44.4919 74.4738C44.3665 74.3436 44.2773 74.0616 44.381 73.9036C44.0494 74.1712 44.3183 75.5479 44.0073 76.2978C44.1326 76.4279 44.264 76.663 44.4087 76.5521L44.3532 76.3182C44.6498 76.0976 44.7679 76.7655 44.9053 76.4629C45.1127 76.78 45.4442 77.138 45.2791 77.584L44.8571 77.6672C44.9813 77.66 45.1127 77.3706 44.9813 77.2477C45.1681 77.4333 44.4087 77.9348 44.9608 78.1422L45.2501 77.8251C45.4647 78.1422 45.9131 78.5412 45.783 78.9402C46.2049 78.7606 45.7347 78.8498 46.2254 78.5677C45.6166 78.816 46.2519 77.5503 45.6106 77.9421C46.1771 77.6527 45.8517 77.4394 46.3351 77.062C46.1976 77.0753 46.0662 77.1922 46.135 76.8619C46.0898 76.8434 46.0479 76.8177 46.0108 76.786C46.0108 76.78 46.0108 76.7727 46.0241 76.7655C46.0241 76.7655 46.0108 76.78 46.0108 76.786C45.9831 76.7727 45.9903 76.7727 46.0108 76.786C45.9586 76.864 45.8837 76.9242 45.7962 76.9584C45.4792 76.7932 45.4852 76.2628 45.32 76.0844C45.3888 75.8843 45.4792 76.1676 45.6311 76.0567L45.3827 75.789C45.6925 75.7613 45.9011 75.2658 46.0795 75.7263L46.094 75.3068C46.2664 75.0597 46.3351 74.7222 46.2037 74.5088C46.2736 74.3099 45.8589 74.0061 46.1 74.1785L45.9071 73.5179H45.9831C46.0241 72.8645 45.4719 72.1761 46.0313 71.4324C45.9553 71.213 45.8589 70.9863 45.9481 70.6211L46.2181 70.5523C46.1217 70.2703 46.487 69.7133 46.2037 69.5891C46.9294 69.2866 46.3628 68.2269 46.487 67.7315L46.135 67.711C46.1555 67.3734 46.0518 67.0431 45.9144 66.6236L45.6033 66.6513C45.3478 66.2861 45.8239 65.7159 45.7902 65.1445C45.9071 65.1855 45.8794 65.3301 45.8034 65.4338C46.5014 64.7454 45.2923 63.9812 45.8034 63.3627C45.6925 63.2036 45.7275 63.0939 45.8034 62.9842C45.8034 62.9975 45.8034 63.0119 45.8167 63.0252V62.9637C45.8722 62.895 45.9348 62.8263 45.9831 62.7503C45.9167 62.7986 45.8602 62.8592 45.8167 62.9288C45.8167 62.8118 45.7685 62.6262 45.6925 62.4466L46.0241 62.3718C46.0241 62.3718 46.0241 62.3441 46.018 62.3296C46.1422 62.1584 45.8589 62.1922 45.6106 62.2814C45.5592 62.1915 45.4913 62.1122 45.4105 62.0475C45.9481 61.9029 45.2296 61.5798 45.8034 61.3881C45.5262 61.2712 45.5961 60.4936 45.009 60.3972C45.085 60.3972 45.1199 60.3345 45.1272 60.431C45.1959 60.2321 45.2574 60.0331 45.0922 59.8523L45.5141 59.7703L44.9475 59.3364C45.2031 59.076 45.355 58.9663 45.6793 59.2279C45.1814 58.5938 45.4924 58.7179 44.9958 58.1815L45.2718 58.2092C45.2586 58.0163 44.8921 57.7138 45.1199 57.5968C45.6383 57.1701 45.1886 55.4703 45.672 54.3697C44.8644 54.5831 46.0313 53.861 45.4092 53.8128C45.6021 53.7501 45.707 53.5922 45.8722 53.7706C45.6865 53.2064 46.1759 52.9243 45.6516 52.5398C45.8444 52.4771 45.9288 52.6567 46.0457 52.6012C46.0036 52.553 45.8794 52.4228 45.9903 52.3674C46.1 52.3119 46.1482 52.4493 46.2314 52.5398C46.1964 51.9684 45.6106 51.9057 45.0645 51.8647C45.3273 51.5754 45.2851 51.4307 44.927 51.2185C45.1055 51.1149 45.2923 50.9497 45.361 51.3077C45.3888 51.1076 45.6238 50.083 45.1826 50.0625C45.2923 49.9998 45.2164 49.7804 45.1609 49.7322C45.1886 49.2849 45.2308 49.2439 45.1886 48.7967L45.1199 48.9196C44.5883 48.7485 45.003 48.5556 44.9403 48.1975H44.9958C45.3815 47.3923 44.8089 47.854 45.2513 47.0487L44.9198 47.0897C44.2086 47.0137 45.3417 46.3748 45.0645 45.9071L44.8776 46.0783C44.6365 45.8239 45.8444 45.3634 45.9348 45.1078C45.9963 45.0536 46.0313 45.1983 46.0795 45.273C46.5014 44.5991 45.6455 45.1838 45.5491 44.6883C45.783 44.5991 46.1422 44.8053 46.1832 44.4689C46.37 44.3038 45.4237 43.4925 45.8722 43.0308C45.6925 43.1332 45.5129 43.2297 45.3755 43.003C45.3128 42.645 46.059 42.0386 45.4864 41.7156C45.5346 41.6674 45.5828 41.6553 45.6238 41.6553C45.4792 41.378 45.3827 40.7668 45.0717 40.6017C46.2169 40.3473 44.5124 38.9092 45.5684 38.9152L45.5129 38.0762L45.6238 38.0967C45.6925 37.5602 45.437 37.3746 45.1898 37.1817C45.2574 37.0587 45.361 37.1479 45.4165 37.1612C45.6311 36.3776 45.5828 36.3017 45.0572 35.6411L45.4032 35.5723C45.2031 35.3927 45.9421 34.4368 45.5406 33.6725C45.5702 33.6756 45.5988 33.6846 45.6249 33.6989C45.651 33.7132 45.674 33.7325 45.6925 33.7557C45.2923 32.8877 46.6449 31.6846 45.396 31.3688L45.0922 30.7974C44.9958 31.5327 44.5533 30.6865 44.346 30.9902C44.27 30.7009 44.7197 30.2392 44.7884 30.5972L44.7257 30.6527C45.3755 30.7829 44.9548 29.7365 45.396 29.7582C45.361 28.3056 45.7215 26.8891 45.748 25.5329L45.2441 25.6921L45.2718 25.2171C45.3888 25.0929 45.666 25.0519 45.6455 25.3883C45.9276 25.2099 45.4032 24.8241 45.2923 24.8096C45.4997 24.1502 45.8794 25.0724 45.8927 24.8663L45.8589 24.5902L45.7962 24.6529C45.5889 24.4251 45.3683 24.4118 45.396 23.9983C45.4997 23.7452 45.707 23.8681 45.7275 23.7645C45.7625 23.7645 45.783 23.7307 45.7408 23.6078L45.783 23.0074L45.3827 23.2485C45.1898 22.9809 45.4032 22.6843 44.9548 22.9592C45.6516 22.5542 45.2031 20.7302 45.4237 20.4831C45.1344 20.1118 45.1404 19.7477 45.1754 19.2921C45.0922 19.403 44.6438 19.4717 44.6992 19.0799C45.6238 19.2246 45.0994 18.3638 45.7685 18.0468C45.3273 18.3289 45.6588 16.9329 45.0307 17.3801C45.1067 17.0559 45.3755 17.3597 45.5973 17.1113C45.2369 16.3338 45.8312 15.3983 45.7058 14.4351C45.5828 14.4206 45.4032 14.5798 45.2164 14.3736L45.8239 13.8637C45.7625 13.6708 45.1199 13.6913 45.5479 13.3405C45.4442 13.3887 45.2923 13.4647 45.2513 13.3405C45.8444 11.4551 44.7679 9.49497 45.8794 7.58184C45.6443 7.84343 45.6238 7.67105 45.6106 7.47214C45.5551 7.60233 45.3128 7.47214 45.1477 7.49263L45.6033 6.69459C45.1477 6.54993 45.5756 5.83387 45.1332 5.75189L45.2091 6.00625C44.6908 5.66871 44.0639 6.48122 43.4009 6.42577C43.9868 6.80429 42.5305 7.42392 43.3732 8.04234C43.2345 8.18097 43.1586 7.92541 43.0067 8.00135C43.29 8.16048 43.3515 8.34613 43.2213 8.69693L43.1513 8.65474C43.2213 9.63963 42.944 10.0652 42.7584 11.1742L43.0838 11.0911C43.0416 11.3322 42.938 11.3804 42.8548 11.4901C43.3527 11.7649 42.8825 10.8222 43.4286 11.0706C42.7656 11.3864 43.4214 12.7498 42.6619 12.9632C42.6619 13.3273 43.0416 12.8523 43.0344 13.2236L42.8271 13.32L43.0899 13.4092C43.0477 13.6503 42.7933 13.7745 42.6197 13.7817C42.6414 13.7263 42.5715 13.6166 42.5582 13.5539C42.3171 13.8637 42.6414 14.4339 42.5582 14.5388L42.6824 14.1868C42.8753 15.1849 42.6065 16.4097 43.0199 17.3729L43.173 17.297C43.4551 18.0323 42.9995 17.8889 43.1369 18.7014L43.1031 18.6736C43.179 18.7526 43.2373 18.8467 43.2743 18.9497C43.3112 19.0527 43.326 19.1624 43.3177 19.2716C43.1369 19.0666 42.9657 19.6573 42.7656 19.3885C43.0694 20.1865 43.0067 19.7875 43.5793 20.3107L43.3249 20.4349C43.5588 20.6133 43.6769 20.6278 43.7457 21.034C43.5251 20.7037 43.3599 21.2944 43.0621 20.9231C42.5028 21.7694 43.6287 22.1829 42.8066 22.5746C43.5178 22.9664 43.2008 21.8393 43.3527 22.0587C43.5865 21.873 43.8831 22.3818 43.8083 22.6434C43.7939 22.9122 42.9042 23.1039 42.9163 23.785C42.9163 23.7163 42.8681 23.7102 42.8681 23.6475C42.6896 23.9031 43.1104 24.1502 42.8198 24.46C43.249 24.6385 42.7921 24.8663 43.3454 24.9133L43.2213 24.2877C43.3659 24.6457 44.0012 24.9748 43.6914 25.5607C43.5793 25.5124 43.4346 25.3401 43.3515 25.2231C43.1935 25.3955 43.4551 25.5534 43.2972 25.7331C42.7511 25.6848 43.1791 24.9688 42.7584 24.5902C42.5293 24.7759 43.1513 25.3063 42.5655 25.1207C43.3177 25.3955 42.469 25.7957 43.0477 26.2562L42.7234 26.2285C42.7716 26.3045 42.9307 26.4551 42.9235 26.5853L42.4956 26.3442C42.8548 26.7167 42.1785 27.0675 42.3786 27.4256C42.3714 26.6758 42.7716 27.2604 43.0139 26.9373C43.4551 27.8656 42.158 27.4678 42.3159 28.5045C42.2677 28.3683 42.516 27.9753 42.6619 28.1959C42.592 28.396 42.469 28.6576 42.2954 28.7745C42.3642 29.4617 42.633 28.6709 42.8343 28.9602C42.4341 29.194 42.9995 29.2977 43.1236 29.5991H42.7921C42.5787 30.3839 43.4913 29.8064 43.2273 30.5153L42.7656 30.2187L42.8825 30.584L42.5028 30.508C42.7861 30.9059 42.7101 31.0312 42.6065 31.423C42.8415 31.3338 43.214 31.4712 43.2213 31.822C43.0212 32.0559 42.903 31.6918 42.9512 32.1801C42.7439 32.0704 42.4811 31.9462 42.7861 31.7328C42.6752 31.7123 42.5787 31.6231 42.4678 31.6014C42.24 31.8558 42.4124 32.2415 42.4196 32.4212C42.4341 32.3512 42.4473 32.2693 42.4956 32.2283L42.9585 32.9431C42.8343 33.0541 42.7294 32.9636 42.633 32.8817C42.6691 33.0263 42.8198 33.1228 42.8548 33.3361C42.586 33.2807 42.3027 33.294 42.1785 32.9914L42.4823 33.6725C42.3642 33.7207 42.1568 34.0233 42.0604 33.9341C41.9024 34.3126 42.586 34.8563 42.3786 35.359C42.4341 35.3867 42.4823 35.4349 42.5233 35.5446C42.4618 36.0124 42.1303 36.4319 42.5028 36.9828L42.0194 37.2986C42.1303 37.7326 42.6342 36.8719 42.8138 37.5952C42.9657 38.1111 42.3991 37.7881 42.2605 37.9665C42.5016 38.2208 43.0079 38.6681 42.6065 39.1358C42.516 38.9779 42.586 38.861 42.551 38.7091L42.5775 38.7295ZM42.7921 44.0964C42.7234 43.994 42.51 43.7866 42.7029 43.7107C43.0826 43.8288 42.9018 43.9253 42.7921 44.0964ZM43.5938 52.2577C43.4829 52.1817 43.5383 52.0576 43.6625 51.9274C43.6902 52.0238 43.6769 52.1323 43.5938 52.2577ZM45.9144 74.997L45.8999 74.9838C46.0325 74.7499 45.9758 74.8319 45.9144 74.997ZM45.7697 75.4792C45.8179 75.5274 45.8589 75.5274 45.9071 75.5069C45.8239 75.472 45.8167 75.3623 45.8384 75.2381C45.748 75.2731 45.6937 75.3346 45.7625 75.4792H45.7697ZM45.6371 23.7235L45.5479 23.8199C45.4514 23.6066 45.5394 23.6692 45.6371 23.7235Z" fill="#FFBF00"/>
<path d="M43.1376 51.3355C43.1946 51.311 43.2554 51.2967 43.3172 51.2933C43.2618 51.2523 43.2003 51.2523 43.1376 51.3355ZM42.4059 35.3855V35.371C42.3859 35.3629 42.3647 35.358 42.3432 35.3566L42.3986 35.3927L42.4059 35.3855ZM42.9447 68.0112C42.9835 67.9323 43.0431 67.8656 43.1171 67.8183C43.0339 67.8183 42.9652 67.8605 42.9447 68.0112ZM46.3358 78.0313L46.2454 77.7215C46.2599 77.8733 46.1899 77.9216 46.1357 77.9975C46.2116 77.9975 46.3286 77.9288 46.3286 78.0252L46.3358 78.0313ZM44.278 80.7147C44.319 80.7629 44.278 80.8111 44.3262 80.8521L44.4781 80.8389C44.4721 80.646 44.3407 80.5146 44.278 80.7075V80.7147ZM45.2292 78.3194C44.9459 78.3471 45.0435 78.54 45.099 78.7534V78.7124C45.4932 78.7738 45.3618 78.5472 45.2304 78.3121L45.2292 78.3194ZM45.1062 78.8028C45.1221 78.8679 45.1246 78.9356 45.1134 79.0017C45.2726 79.0294 45.1484 78.9197 45.1062 78.8028ZM45.9549 76.0892C45.8862 76.1929 46.3153 76.1519 46.1972 76.2134C46.5564 76.3315 45.768 75.5311 45.9549 76.0892ZM44.3045 78.4918L44.6493 78.4158L44.372 78.2977L44.3045 78.4918ZM44.5601 76.7848L44.4637 77.1283C44.5191 77.1283 44.5529 77.1705 44.5806 77.2188C44.5951 77.0042 44.665 76.7703 44.5601 76.7775V76.7848ZM44.5806 77.2248C44.5806 77.3345 44.5806 77.4382 44.6361 77.5008C44.6354 77.4057 44.6166 77.3116 44.5806 77.2236V77.2248ZM44.2021 78.0228L44.278 77.9204L44.2985 77.672L44.2021 78.0228ZM44.6312 73.0682L44.5348 72.6897C44.4167 72.6487 44.3407 72.7512 44.3889 72.897C44.4721 72.9863 44.5215 73.1237 44.6312 73.0682ZM43.6765 74.2122C43.7464 74.1074 43.8296 74.1013 43.9393 74.0459L43.5113 74.0326L43.6765 74.2122ZM43.58 73.1116C43.4631 73.0779 43.2413 72.5607 43.2618 73.0429C43.3799 73.0839 43.4764 73.4564 43.58 73.1116ZM44.1249 67.4349V67.5241L44.8289 67.5109L44.1249 67.4349ZM42.4396 62.4249C42.2733 62.8709 42.8736 62.5273 42.6602 62.9336C42.8266 63.0373 42.8326 62.6033 42.9785 62.713C42.8049 62.4454 42.9025 62.3019 42.4396 62.4249ZM42.9809 62.7069C43.0086 62.7479 43.0424 62.7962 43.0846 62.8444C43.0596 62.7921 43.0243 62.7453 42.9809 62.7069ZM45.9971 6.17743L46.1417 5.89535L45.9066 6.08099L45.9971 6.17743ZM45.4715 5.62773L45.9211 5.55901L45.5137 5.38663C45.5341 5.44931 45.5679 5.57951 45.4715 5.62773ZM41.8875 44.8945L41.9984 44.915C42.1154 44.874 42.1226 44.8041 42.1431 44.6666L41.8947 44.8945H41.8875ZM42.2263 40.9995L42.219 41.0682L42.6205 40.9368L42.2263 40.9995ZM41.7091 37.723C41.6946 37.8544 41.785 38.0123 41.7646 38.1497C41.6886 37.8604 42.2142 37.688 41.7091 37.723Z" fill="#FFBF00"/>
</g>
</g>
</g>
<defs>
<clipPath id="clip0_1_585">
<rect width="88" height="96" fill="white" transform="translate(0 0.52002)"/>
</clipPath>
<clipPath id="clip1_1_585">
<rect width="88" height="96.43" fill="white" transform="translate(0 0.52002)"/>
</clipPath>
<clipPath id="clip2_1_585">
<rect width="88" height="96.43" fill="white" transform="translate(0 0.52002)"/>
</clipPath>
</defs>
</svg>
