<svg width="118" height="97" viewBox="0 0 118 97" fill="none" xmlns="http://www.w3.org/2000/svg">
<g clip-path="url(#clip0_1_680)">
<g clip-path="url(#clip1_1_680)">
<mask id="mask0_1_680" style="mask-type:luminance" maskUnits="userSpaceOnUse" x="-1" y="0" width="119" height="97">
<path d="M-0.0012207 0H117.028V97H-0.0012207V0Z" fill="white"/>
</mask>
<g mask="url(#mask0_1_680)">
<path d="M0.444979 28.7387C0.320092 28.5144 0.0788043 28.8102 -0.0012207 28.8187C0.320092 29.1133 0.516517 28.6756 0.444979 28.7387ZM3.67023 31.7687L3.50048 31.7954L4.17948 32.1082L3.67023 31.7687ZM6.00187 35.1189C6.3062 34.4399 5.08279 33.9573 4.84999 33.2334L4.90334 33.0552L4.29709 33.0819C4.86697 33.7609 5.79695 34.5114 6.01157 35.1189H6.00065H6.00187ZM6.08189 37.6894C6.21648 37.4396 6.5196 37.9573 5.85879 37.225V37.3329C5.91214 37.4044 5.97519 37.5026 6.08189 37.6809V37.6894ZM5.85879 37.3438C5.59932 37.0043 5.8406 37.6918 5.85879 37.3438V37.3438ZM7.08342 38.8958L6.58265 38.5563C6.5293 38.7345 6.78029 39.1723 6.58265 39.074C7.00339 39.4863 7.05553 39.3068 7.07493 38.8958H7.08342ZM7.7709 39.085L7.52962 38.897C7.50294 38.977 7.5284 39.0486 7.7709 39.085ZM7.02037 38.4848L7.52962 38.8873C7.57448 38.7624 7.73574 38.6363 7.315 38.6909C7.50294 38.6278 7.27863 38.6278 7.02037 38.4848ZM6.90397 38.1465C6.84213 37.807 6.69057 37.4141 7.19012 37.7633C6.51112 36.9146 6.23467 37.2977 6.90397 38.1465ZM6.66268 34.92L6.57417 34.4653L6.1898 34.2859C6.37653 34.3756 6.51112 35.0546 6.66268 34.92ZM8.74454 42.0059C8.87792 41.961 8.94097 41.6494 9.06585 41.5148L8.70817 41.2553C8.74454 41.4881 8.8961 41.8713 8.74454 42.0059ZM9.06585 41.5245L9.60178 41.9173C9.31563 41.4348 9.17255 41.4081 9.06585 41.5245ZM8.41353 38.7721L7.4411 38.1913L8.53114 38.9419L8.41353 38.7721ZM10.031 44.0077L9.5751 43.8816L10.3075 44.1593L10.031 44.0077ZM10.9246 45.3111C10.5669 45.2299 10.7464 45.8459 10.4602 45.704C10.7282 46.0435 11.1126 46.2302 11.4605 46.4C11.1744 46.1684 11.0046 45.8386 10.9246 45.3111Z" fill="#FFBF00"/>
<path d="M11.9965 46.7055C11.8535 46.5891 11.657 46.4994 11.4509 46.3927C11.6132 46.5278 11.7979 46.6337 11.9965 46.7055ZM10.1293 42.8449C10.0856 42.9346 9.95954 43.1214 10.0674 43.4706L10.2554 43.0583C10.2147 42.9892 10.1726 42.9209 10.1293 42.8534V42.8449ZM10.2639 43.0413V43.0595C10.3972 43.2911 10.487 43.4439 10.5318 43.5154L10.2651 43.0413H10.2639ZM10.0941 42.7891C10.0941 42.7891 10.1123 42.8255 10.1305 42.8437C10.1475 42.7988 10.1475 42.7794 10.0941 42.7891ZM9.03076 40.3362C9.40664 40.523 10.0226 41.0419 9.888 40.238C9.52182 40.1568 9.60306 40.6224 9.03076 40.3362ZM10.3342 42.2726L10.048 41.6663C9.96802 41.727 9.91467 41.9161 9.72674 41.8179L10.3439 42.2641L10.3342 42.2726ZM10.6119 42.4799L10.3354 42.2738L10.4324 42.4969L10.6119 42.4799ZM11.6922 45.5597C11.988 45.7125 12.1651 45.9719 12.3809 46.2569C12.2423 45.8982 12.0684 45.5542 11.8619 45.2299C11.7371 45.2481 11.4606 45.2299 11.6922 45.5597ZM11.0326 44.3108C11.0326 44.3108 11.0678 44.3375 11.0847 44.3545C11.0847 44.3011 11.0847 44.2744 11.0314 44.3108H11.0326ZM14.2033 49.2154L14.2397 49.1256L14.1766 49.1523L14.2033 49.2154ZM11.8898 45.1317C11.8001 44.854 11.6304 44.7558 11.4424 44.6843C11.5855 44.8455 11.7286 45.0238 11.8632 45.2214C11.925 45.2117 11.9517 45.1935 11.8898 45.1317ZM12.6658 47.4354C12.6573 47.2657 12.621 47.0874 12.5858 46.9092C12.5591 47.0959 12.5591 47.4451 12.6658 47.4354ZM11.0496 44.4891L11.0132 44.4624C10.9962 44.5873 11.0132 44.5521 11.0496 44.4891Z" fill="#FFBF00"/>
<path d="M11.0496 44.4903C11.1744 44.5873 11.3163 44.6321 11.4509 44.6867C11.3435 44.5646 11.2241 44.4537 11.0944 44.3557C11.0918 44.4022 11.0794 44.4477 11.058 44.4891L11.0496 44.4903ZM16.8562 48.8395C16.5252 48.9826 15.8559 48.5085 15.8377 47.7495C15.2751 47.3384 14.5064 48.3121 14.2372 49.1257C14.3815 49.0626 14.5064 48.9923 15.0253 49.4385C15.069 49.1426 14.6495 47.9641 15.2121 48.2672C15.8195 48.9195 15.48 48.9377 15.5334 49.4021C15.7298 48.8662 16.6598 50.0181 17.1145 49.527L16.5252 48.9911C16.6052 48.9292 16.8829 49.0808 16.8562 48.848V48.8395ZM13.6225 48.0441L13.4442 47.8392C13.5509 48.1338 13.5509 48.3933 13.5243 48.8844C13.9086 49.179 14.0602 49.1875 14.1851 49.1523L13.534 48.0005L13.6225 48.0538V48.0441Z" fill="#FFBF00"/>
<path d="M12.8003 46.8122C13.2368 46.7855 13.7206 47.2499 13.8637 46.6958C13.426 46.035 13.2999 46.3927 12.907 46.0798C13.6673 47.1165 12.5312 45.8834 12.8355 46.7855C12.6711 46.6236 12.5217 46.4471 12.3893 46.2581C12.4693 46.4812 12.5409 46.6958 12.5857 46.9104V46.874C12.5954 46.8037 12.6124 46.7673 12.6221 46.8389C12.6221 46.8389 12.6391 46.8486 12.6391 46.8571C12.6877 46.8396 12.739 46.8306 12.7906 46.8304C12.9167 47.1869 12.7373 46.9274 12.6391 46.8571C12.6221 46.8571 12.6027 46.8558 12.5857 46.874L13.443 47.8574C13.346 47.5979 13.158 47.3214 12.8003 46.8304V46.8122ZM10.9598 40.3532C10.9598 40.4066 10.9331 40.4163 10.9064 40.4344C10.9961 40.4781 11.0313 40.4878 10.9598 40.3532ZM11.0495 40.9243C10.9525 40.8794 10.7827 40.8976 10.6482 40.6212C10.6033 40.335 10.7997 40.523 10.8979 40.4417C10.71 40.3447 10.3171 40.0586 10.4784 40.6394L10.5669 40.683C10.7367 41.1923 10.7003 42.0046 10.6033 41.961C10.8094 41.6482 10.9428 41.3984 11.0398 40.9243H11.0495ZM12.0498 43.8464L12.7822 44.6503V44.0162L12.6221 44.1495C12.3626 43.5954 12.228 43.8367 12.0583 43.8549L12.0498 43.8464ZM14.105 49.4118L13.6843 49.51L14.4966 49.7331L14.105 49.4118ZM14.864 50.5722L14.533 50.7055L14.9089 50.9117L14.864 50.5722ZM55.404 43.5518L55.5555 43.2571C55.4946 43.3496 55.4438 43.4484 55.404 43.5518ZM53.7877 45.1935L53.8774 45.3548C53.8774 45.2117 53.8592 45.1317 53.7877 45.1935ZM32.4186 81.4376C32.8915 81.2229 33.579 81.035 33.2043 80.8919L32.7933 80.8313C32.7035 81.1429 32.5786 81.3042 32.4089 81.4376H32.4186ZM43.2365 60.8639C43.1832 60.8736 43.1201 60.8905 43.0583 60.9002C43.0947 61.07 43.1298 61.23 43.165 61.3731C43.1832 61.2215 43.2086 61.0518 43.2365 60.8639ZM42.1647 59.6223L42.737 59.2912C42.5842 59.3458 42.3975 59.4525 42.1647 59.6223ZM64.0515 34.4023V33.8566C63.632 34.2592 63.9545 34.224 64.0515 34.4023ZM21.8323 62.8196C21.8771 63.2307 21.9571 63.5435 22.0554 63.7933C22.0554 63.2755 22.1718 62.7845 21.8323 62.8196ZM57.7708 47.0268C57.852 46.8389 57.852 46.7322 57.7889 46.6691C57.7004 46.8571 57.6725 46.9904 57.7708 47.0268ZM22.5464 64.8033V64.5802C22.345 64.345 22.1821 64.0794 22.0638 63.7933C22.0638 64.1776 22.1451 64.5802 22.5549 64.8033H22.5464ZM100.43 7.00582C100.43 7.00582 100.5 6.98763 100.537 6.98763C100.519 6.93428 100.474 6.96096 100.43 7.00582ZM113.776 3.76117C113.678 3.84119 113.49 3.94789 113.32 4.04611C113.418 4.01943 113.553 3.93941 113.776 3.76117ZM17.5182 55.4416C17.3484 55.1991 17.4551 55.4234 17.5182 55.4416V55.4416ZM18.1426 53.4397C18.2154 53.4761 18.2857 53.4846 18.3657 53.4397C18.2931 53.4622 18.2153 53.4622 18.1426 53.4397ZM25.9693 66.4207V66.4474C26.013 66.3407 26.0045 66.3577 25.9693 66.4207ZM17.4551 54.9675C17.4636 55.0839 17.5 55.2172 17.5352 55.3518C17.5226 55.2212 17.4958 55.0923 17.4551 54.9675ZM17.3302 55.1118L17.2405 54.8693C17.169 54.8693 17.1508 54.9153 17.3302 55.1118ZM17.7413 55.7798C17.6576 55.6458 17.5916 55.5015 17.5449 55.3506C17.5449 55.4137 17.5449 55.4488 17.5267 55.4403C17.5715 55.5119 17.6334 55.6186 17.7413 55.7798ZM81.0168 21.7341C81.0168 21.7341 81.0617 21.7256 81.0883 21.7256C81.2217 21.4127 81.1429 21.511 81.0168 21.7341ZM32.7581 72.8446V72.8809C32.7678 72.8712 32.7848 72.8628 32.7945 72.8543H32.7581V72.8446Z" fill="#FFBF00"/>
<path d="M33.0793 71.7715C33.2406 72.4238 33.0623 72.6118 32.7847 72.8531L33.9196 73.1477L33.0793 71.7812V71.7715Z" fill="#FFBF00"/>
<path d="M59.1651 39.5227L58.3964 39.8173C58.6195 38.7624 59.2281 38.4229 58.3879 38.5842C59.1736 39.5227 56.4309 40.7812 57.2263 41.7015L56.6989 41.881C56.8068 41.7828 56.7716 41.7197 56.8783 41.63C55.7871 41.9161 57.0117 42.7564 56.0199 43.5239C55.6537 43.7737 55.3142 43.8634 55.4136 43.5506L54.9577 44.4539C54.7431 44.6406 54.6364 44.4539 54.8498 44.2563L53.9041 45.3827L53.8859 45.3463C53.8859 45.6324 53.7877 46.1866 53.7246 46.446C53.3487 46.6061 53.7513 46.2217 53.5815 46.1866L53.2602 46.9904C52.8043 47.0268 53.0274 46.3199 53.4385 45.9271C52.0356 45.6773 53.2154 46.6328 51.5979 47.3833L52.0004 46.7043C51.1602 46.6158 50.9455 47.2317 50.035 47.5979C50.3381 47.5979 51.9992 47.0171 51.6427 47.8841C51.4112 48.0089 51.1602 48.2236 51.0171 48.7413C50.6958 48.4551 50.4642 48.8747 50.0883 49.3306L49.687 48.9195C49.3923 49.5015 49.6421 49.6531 49.5888 50.0993C49.0795 50.5819 48.6503 50.4024 48.2574 50.2872C47.4354 51.0729 49.3123 50.1708 48.5072 51.233C47.7312 51.7968 47.4984 52.4661 47.0425 53.5476C46.4702 53.9235 46.8461 53.2348 46.5696 53.3148L46.5515 54.0569C46.4532 54.1551 46.372 54.0387 46.3368 53.9672C46.1574 54.4582 46.7479 54.36 46.3817 55.0584C46.7382 55.6113 44.666 55.6913 44.6115 56.8711C44.335 56.9511 44.4065 56.568 44.1931 56.4783C43.7275 57.7732 43.7542 57.5586 43.5942 58.7917L42.7454 59.2828C43.4863 59.016 43.3711 60.0066 43.2547 60.8469C43.5578 60.7838 43.8258 60.739 43.9785 60.6856L43.5057 61.8108C43.3444 61.8642 43.2632 61.6508 43.1916 61.3549C43.1838 61.4415 43.1749 61.528 43.1649 61.6144C42.7369 61.8205 42.6108 61.4531 42.5393 61.0154L43.0764 60.8905C42.977 60.4443 42.8436 59.9884 42.5393 59.8357C42.5289 59.9767 42.4897 60.1141 42.4241 60.2394C42.3962 60.123 42.3611 60.0333 42.2907 60.0248C42.218 60.0248 42.2447 60.1946 42.2362 60.4359L41.5657 60.2661L41.7269 60.471L40.4586 61.4713C40.2792 62.7408 40.4671 64.0891 39.6632 65.6787C39.5384 65.0543 39.1006 65.161 38.6629 64.813C39.422 64.7596 39.2607 63.5447 39.8948 62.8657C39.565 63.2222 39.4135 62.9809 39.4135 62.8208L38.886 64.4735C38.538 64.1788 38.4035 64.5632 38.0009 64.8033C38.9224 65.0628 37.7778 66.1443 37.6178 66.85C37.3498 66.7166 37.1885 66.4026 37.7245 65.7769C36.6526 66.1261 37.9124 67.3229 36.9291 67.7169C37.037 67.5472 37.1352 67.4926 37.0552 67.341C36.9921 67.8685 36.1967 68.699 36.1252 68.3232L36.2331 68.1534C35.411 69.1986 33.9997 71.512 34.5259 72.0844C34.4374 72.0395 33.8469 71.4417 33.7669 71.2987C34.0445 72.4141 34.3658 73.5503 34.6787 74.6573C34.2312 74.1395 32.4901 73.9965 32.7581 72.8713C32.5156 73.0944 32.2124 73.3708 32.0609 74.0595C32.2573 73.9249 33.1509 74.0947 33.043 74.3808C31.9978 74.684 32.4186 74.6476 31.3637 75.1847C31.6498 74.9786 32.3458 75.8104 32.0609 76.2299C31.9711 76.0868 31.1673 75.757 31.1673 75.5424L31.4001 77.1502C31.4001 76.784 30.6944 76.6773 30.3003 76.784C30.5428 76.7658 29.7292 77.7298 29.6577 78.0874L30.1221 77.7213C29.4164 78.7579 30.3185 79.4285 30.1585 80.3839L30.658 80.4736C30.5776 80.3148 30.529 80.1418 30.5149 79.9644C30.7477 80.0978 31.8463 80.2311 31.8547 79.4551C31.5698 79.3218 30.909 79.0344 30.23 78.6779C29.5328 78.3202 28.8356 77.8825 28.5143 77.3466L28.7459 77.052L28.1748 76.2396C29.0854 76.5597 31.0606 77.811 31.8644 78.6682C31.9978 78.0705 32.1773 78.4451 31.9808 77.623C32.187 77.2751 32.4901 77.9892 32.5616 78.2305L32.3022 76.2481C31.7396 76.4712 31.3285 74.9616 30.8641 75.1665C31.2485 75.7825 31.6498 76.3912 31.9893 77.052C31.7032 77.1587 31.2303 76.9538 30.7926 76.5694C30.3367 76.1935 29.9257 75.6309 29.8008 74.9786C29.9341 74.5857 30.8908 74.9252 31.0775 74.8452C30.8459 74.7203 30.3185 73.7285 30.4264 73.5672L30.909 74.0146C30.8811 73.2192 29.7923 73.0847 30.0239 72.0577C29.9523 71.7545 30.4349 70.9228 30.0772 70.9943C29.6128 71.7097 27.6389 72.5039 27.0496 72.379C27.0666 72.2638 27.1296 70.6815 27.2994 70.2353C27.6122 69.5745 28.7738 70.4681 29.0417 69.9043C28.8805 69.9491 28.5858 69.7624 28.4876 69.6727C28.4961 69.3247 29.0054 69.6096 28.6841 68.9852C28.0766 69.1004 28.2015 67.6357 28.0851 68.8688C27.674 68.2965 27.9153 68.1534 27.5855 67.4211C27.3261 67.8054 26.076 67.2877 25.6455 66.7518C25.8068 66.7251 25.9244 66.5008 25.9765 66.4026C25.4503 65.1258 25.3958 64.3219 24.8247 63.1603C24.9047 62.9906 24.7883 62.348 25.146 62.4716C24.9677 62.3565 24.7095 62.2849 24.5215 61.9357C24.6464 61.0069 24.9944 62.7044 25.2975 61.8909C24.958 61.9988 24.3954 61.1864 23.9395 60.7754C23.5297 61.1767 24.4488 61.9903 24.8962 62.4098C24.2257 62.7408 23.0738 62.2037 22.1535 61.1767C21.5012 60.3098 22.3766 60.5426 22.1984 60.4262C21.3678 58.5953 20.2511 59.5325 19.9286 57.8181C20.0365 57.0057 20.7507 57.3355 20.9835 57.0409C21.5643 57.7199 21.3593 58.3625 21.6528 58.8717L21.5097 58.1212C21.7777 58.2909 22.162 58.7468 22.1887 59.0948C22.3148 58.3989 20.6609 56.0575 20.2329 54.5116C19.9553 54.3515 19.5806 54.0217 19.5176 54.3067L19.8219 54.6995C19.7055 55.2815 18.9016 54.1636 19.0532 54.7892C18.4991 54.3527 17.7582 53.9223 17.4818 53.0202L17.8649 52.5922C17.74 52.6892 17.8831 53.2797 18.1608 53.4228C17.7582 53.2081 18.088 51.8235 17.2575 51.815V52.5643C16.6864 52.1363 15.7661 51.7337 15.4981 50.9396C15.2217 51.5373 15.6497 51.0729 15.3999 51.895C15.8291 51.0547 16.4366 53.7089 16.7312 52.5922C16.3917 53.4761 16.981 53.6374 16.8282 54.6195C16.9725 54.5128 16.9895 54.2085 17.2575 54.8426C17.3316 54.8476 17.4042 54.8657 17.4721 54.8959C17.4721 54.9141 17.4721 54.9238 17.4818 54.9408V54.8972C17.4818 54.8972 17.5254 54.9056 17.4818 54.879C17.4721 54.6995 17.4818 54.5395 17.5436 54.4413C18.071 54.5298 18.5985 55.4864 18.9647 55.701C19.0895 56.0939 18.6967 55.6562 18.6421 55.9423L19.1962 56.2636C18.8749 56.5049 19.1344 57.5319 18.4724 56.8093L18.8664 57.5671C18.9113 58.1212 19.1696 58.7735 19.5188 59.0682C19.634 59.4622 20.3845 59.7653 19.9468 59.5956L20.7955 60.6674L20.7155 60.7208C21.2781 61.9187 22.5646 62.856 22.5646 64.5353C22.8507 64.893 23.1708 65.2507 23.3685 65.9746L23.1187 66.251C23.4667 66.7154 23.52 67.9388 23.9408 68.02C23.3321 68.9488 24.8332 70.6112 25.0296 71.6018L25.4685 71.4769C25.7001 72.1195 26.0214 72.6833 26.487 73.4242L26.8435 73.2459C27.3891 73.8352 27.183 75.1132 27.5225 76.1935C27.3527 76.1583 27.3164 75.8722 27.3527 75.6491C27.0933 76.4263 27.4594 77.0605 27.8001 77.6946C28.1215 78.3202 28.5325 78.9556 28.2815 79.5982C28.359 79.6981 28.4097 79.8162 28.4286 79.9412C28.4475 80.0663 28.434 80.194 28.3894 80.3124C28.3894 80.2857 28.3712 80.259 28.353 80.2408C28.353 80.2675 28.353 80.3124 28.3712 80.3657C28.3229 80.4887 28.2812 80.6142 28.2463 80.7416L26.8168 85.6195L32.4004 81.4473C32.4004 81.4473 32.4367 81.4206 32.4537 81.4109C32.427 81.4206 32.4089 81.4291 32.3822 81.4376L26.6022 83.9474L28.273 80.7416C28.3289 80.647 28.3709 80.5449 28.3979 80.4385C28.4161 80.5185 28.4343 80.6082 28.4707 80.7234L30.2118 86.9763L32.2221 81.366C32.284 81.1963 32.3373 80.9829 32.3919 80.7501L32.8466 80.8216C32.8466 80.8216 32.8648 80.7768 32.8732 80.7416C33.1764 80.5088 32.8296 80.3924 32.4537 80.4106C32.4804 80.2226 32.4804 80.0347 32.4537 79.865C33.2043 79.9462 32.695 78.9192 33.5522 78.9459C33.3655 78.5518 34.2312 77.2399 33.6783 76.6761C33.7669 76.7125 33.8651 76.6494 33.7669 76.8192C34.0445 76.5063 34.3392 76.2129 34.3489 75.7922L34.9102 75.9255L34.7502 74.7822C35.3213 74.496 35.5989 74.416 35.679 75.0853C35.8123 73.6485 36.01 74.0595 36.0718 72.79L36.3398 73.0228C36.5459 72.6833 36.501 71.9061 36.8757 71.8612C37.4031 71.6733 38.0191 70.7797 38.7345 69.7442C39.4583 68.7075 40.3156 67.5557 41.2262 66.8136C40.1276 66.5638 42.218 66.2328 41.6105 65.6884C41.887 65.7248 42.1828 65.555 42.1464 65.9746C42.6108 64.8833 43.4778 64.813 43.4147 63.7678C43.6924 63.8127 43.5578 64.1788 43.7457 64.1788C43.7639 64.0709 43.7991 63.7581 43.987 63.7496C44.175 63.7496 44.0501 64.0091 44.0234 64.214C44.7024 63.2586 44.175 62.7044 43.656 62.2037C44.2901 61.9369 44.4332 61.6678 44.3265 61.0336C44.6393 61.007 45.0419 60.8821 44.666 61.5162C44.9425 61.2131 46.4702 59.729 46.0422 59.3361C46.2289 59.3191 46.4435 58.9166 46.4617 58.7905C47.0777 58.0945 47.1674 58.0678 47.7118 57.327L47.4802 57.4604C47.1771 56.745 47.8464 56.7814 48.2477 56.1557L48.2926 56.2188C49.7488 55.2367 48.5788 55.5034 50.0713 54.5843L49.687 54.3782C49.088 53.6628 51.0268 53.5828 51.4196 52.6443L51.0001 52.7438C51.1153 52.1448 52.9292 52.4673 53.3669 52.1545C53.5003 52.1181 53.3402 52.3776 53.2772 52.5291C54.6 51.8586 52.9741 52.0284 53.5633 51.1711C53.9125 51.2342 53.9756 51.8683 54.4751 51.3858C54.8862 51.296 55.0814 49.2324 56.146 48.9195C55.8331 48.9195 55.5288 48.9195 55.7167 48.4382C56.1363 47.821 57.7004 47.5797 57.6288 46.6073C57.6658 46.5959 57.7047 46.5923 57.7431 46.5967C57.7815 46.6011 57.8185 46.6133 57.852 46.6328C58.1017 46.0968 58.8886 45.105 58.8438 44.5873C60.2636 45.2481 60.7644 41.5766 61.7295 42.5418L62.8814 41.2553L62.9432 41.3887C63.8102 40.6927 63.8647 40.192 63.9181 39.6912C64.1679 39.5845 64.1242 39.7991 64.1594 39.8706C65.5259 38.9588 65.5974 38.8073 66.1151 37.3862L66.5177 37.6105C66.6062 37.1728 68.6796 36.5193 69.4835 35.0558C69.5101 35.0995 69.5368 35.1892 69.4835 35.3226C70.4474 33.7245 73.5029 33.4553 72.9221 31.8039L73.5563 30.732C72.3244 31.6341 73.2713 30.053 72.619 30.2579C73.0118 29.7936 74.1104 29.6153 73.6108 30.1597L73.4677 30.1779C73.8072 30.9903 75.0925 29.1679 75.432 29.6323C77.6303 27.5953 80.2844 26.2373 82.4899 24.5228L81.8376 24.21L82.633 23.6377C82.9277 23.6025 83.215 23.8256 82.6512 24.2367C83.169 24.2997 83.3836 23.2715 83.312 23.1466C84.5451 22.5125 83.3569 24.0766 83.6964 23.8341L84.1159 23.451L83.9728 23.4679C84.1693 22.9769 84.0359 22.7174 84.7149 22.2263C85.2157 22.0032 85.1708 22.3791 85.349 22.2712C85.3757 22.3076 85.4472 22.2809 85.6085 22.093C85.948 21.8602 86.2693 21.6104 86.6173 21.3873L85.9116 21.2624C86.1893 20.7253 86.8683 20.6101 86.0547 20.467C87.2696 20.7083 90.0038 18.0723 90.5846 18.0008C90.9956 17.2502 91.6116 16.8222 92.407 16.3215C92.156 16.3663 91.7098 15.9735 92.407 15.5624C92.8435 16.7143 93.9081 15.1332 94.9253 15.4727C94.5325 15.4012 94.9799 15.0447 95.3728 14.687C95.7741 14.3293 96.1403 13.9995 95.5243 13.9001C96.15 13.6237 95.8105 14.2493 96.3913 14.2129C97.4898 12.9713 99.5353 12.5785 101.116 11.3999C101.063 11.2472 100.652 11.2205 100.885 10.801L102.189 10.9077C102.474 10.6312 102.01 9.94372 102.904 10.0225C102.752 9.9619 102.519 9.87218 102.716 9.69273C104.556 8.97735 106.129 7.77213 107.853 6.77182C109.551 5.73513 111.301 4.77119 113.365 4.44018C112.758 4.44018 113.052 4.23405 113.401 4.02914C113.132 4.09219 113.222 3.68964 113.069 3.52838L114.793 3.24344C114.776 2.57293 116.313 2.34134 116.206 1.76055L115.794 2.10854C116.09 1.17977 114.249 1.27798 113.926 0.474091C113.606 1.51927 111.578 0.500766 110.98 2.08187C110.649 2.07217 111.06 1.72418 110.827 1.62597C110.721 2.10854 110.416 2.36802 109.692 2.58142L109.72 2.46623C107.968 3.54657 107.021 3.66297 104.878 4.59174L105.244 4.8694C104.779 5.06583 104.618 5.00278 104.368 5.02097C104.199 5.85153 105.601 4.36864 105.512 5.23558C104.476 4.77119 102.519 7.04827 101.635 6.4505C100.983 6.85184 102.082 6.74514 101.429 7.15618L101.116 7.03978L101.135 7.43263C100.679 7.65573 100.296 7.50538 100.161 7.32593C100.277 7.28107 100.42 7.08343 100.519 7.00462C99.8032 7.08464 99.0175 8.07647 98.7763 8.11163L99.4819 7.85215C97.8475 9.17378 95.4977 10.2553 94.0948 11.7831L94.3373 11.8643C93.2642 13.0162 93.2012 12.3821 91.9062 13.4891L91.9329 13.4187C91.7729 13.7752 91.46 14.1244 91.066 14.3645C91.2806 13.928 90.1554 14.4542 90.4597 13.9183C89.3248 15.2048 89.959 14.6506 89.4849 15.8935L89.0835 15.7674C88.9501 16.2317 89.0108 16.3748 88.3779 16.9289C88.7792 16.2948 87.6455 16.8319 88.0553 16.0802C86.1796 16.5179 86.3409 18.1887 85.0459 17.8044C84.9295 19.0108 86.6003 17.3315 86.3409 17.751C86.8319 17.7777 86.1978 18.6895 85.6885 18.9393C85.2156 19.2424 84.1972 18.5367 83.0889 19.4388C83.2053 19.3588 83.169 19.2969 83.2854 19.2072C82.7228 19.3503 82.6512 20.1008 81.9092 20.2075C81.954 20.878 81.2217 20.7083 81.5697 21.3327L82.4996 20.3955C82.0268 21.0017 81.9904 22.0833 80.784 22.5125C80.7755 22.3427 80.9452 21.9669 81.0701 21.7365C80.6591 21.7886 80.6142 22.2712 80.1947 22.3246C79.837 21.7001 81.3466 21.226 81.6412 20.3057C81.1598 20.3057 80.7755 21.6371 80.6142 20.7883C80.7573 21.9135 79.4357 21.557 79.1313 22.7356L78.9167 22.3597C78.8367 22.504 78.7106 22.8605 78.4887 23.0217L78.5505 22.2809C78.2292 23.1297 77.104 22.8872 76.6748 23.5577C77.9079 22.5755 77.2738 23.7371 77.9879 23.5674C76.8264 25.2018 76.4153 23.3879 74.8354 24.8975C75.0222 24.6562 75.8612 24.4064 75.6211 24.8441C75.2368 25.0224 74.7178 25.2552 74.388 25.2552C73.3513 26.2652 74.8342 25.4431 74.5396 26.0506C73.8424 25.9693 74.1382 26.675 73.7709 27.2121L73.4944 26.8811C72.0734 27.7384 73.7442 27.8463 72.4129 28.5604L72.4941 27.7032L72.0115 28.3192L71.8151 27.8463C71.4223 28.6671 71.1628 28.7666 70.4486 29.2043C70.7881 29.311 70.8766 29.8651 70.3407 30.3477C69.7951 30.481 70.2777 29.8554 69.5453 30.5793C69.5453 30.2228 69.5089 29.8033 70.1091 29.8117C70.0546 29.6784 70.1091 29.4541 70.0461 29.3195C69.4471 29.4456 68.9827 30.1512 68.7063 30.3913C68.8227 30.3113 68.973 30.2131 69.0821 30.2046L68.3486 31.6244C68.0624 31.6608 68.1158 31.4377 68.1703 31.2231C67.9739 31.4547 67.9472 31.7408 67.6344 32.0537C67.4816 31.7142 67.2221 31.4644 67.5895 30.9369C67.3216 31.348 67.0354 31.7408 66.7857 32.1701C66.6159 32.1252 65.9733 32.3665 66.0169 32.1434C65.3016 32.5362 65.0712 33.9743 64.123 34.492C64.123 34.5817 64.0963 34.6981 63.9714 34.8945C63.2027 35.5105 62.2739 35.7966 61.7562 36.9497H60.8347C60.2733 37.6821 62.0411 36.9049 61.1039 38.1198C60.4613 39.0049 60.4334 38.0119 60.0405 38.1465C59.8708 38.7357 59.6925 39.8706 58.6376 40.2198C58.7807 39.8973 59.022 39.7809 59.21 39.5311L59.1651 39.5227ZM51.6427 47.8841C51.7228 47.661 51.804 47.1517 52.0986 47.2051C52.2951 47.7228 52.0004 47.7046 51.6427 47.8841ZM41.5754 61.6678C41.5572 61.4544 41.7718 61.3016 42.0664 61.1767C41.9558 61.386 41.7846 61.5571 41.5754 61.6678ZM19.3745 58.0678H19.4024C19.4824 58.5771 19.4642 58.3989 19.3757 58.0678H19.3745ZM19.0629 57.1124C18.9647 57.059 18.9101 57.0857 18.8834 57.1573C19.0095 57.1573 19.1259 57.3537 19.2229 57.5938C19.286 57.4786 19.2957 57.327 19.0714 57.1124H19.0629ZM85.2593 22.1015L85.0362 22.1281C85.3042 21.762 85.2787 21.922 85.2593 22.1015Z" fill="#FFBF00"/>
<path d="M42.2811 59.775C42.3793 59.775 42.4509 59.8017 42.5236 59.8466C42.5236 59.7302 42.4509 59.6865 42.2811 59.775ZM64.0516 34.5102L64.0782 34.492L64.0516 34.412V34.5102ZM29.0952 69.4678C29.1166 69.6218 29.0983 69.7787 29.0418 69.9237C29.1388 69.897 29.1934 69.7721 29.0952 69.4678ZM15.8377 52.922L16.25 53.413C16.0802 53.1633 16.1057 53.0202 16.0887 52.8504C16.0075 52.9123 15.9456 53.0917 15.8377 52.922ZM15.2751 46.8122C15.1769 46.7588 15.1672 46.6424 15.069 46.5988L14.9089 46.7237C15.132 47.0535 15.4182 47.2063 15.2654 46.8134L15.2751 46.8122ZM16.7762 51.6901C17.0623 51.467 16.7495 51.1808 16.4634 50.8328C16.4815 50.8595 16.49 50.8777 16.5082 50.9044C16.0087 51.0475 16.393 51.3688 16.7762 51.6901ZM16.4003 50.7504C16.3126 50.6431 16.2377 50.5259 16.1772 50.4012C15.9711 50.4642 16.2306 50.5709 16.4003 50.7504ZM18.2494 56.1303C18.2324 55.8987 17.7765 56.2467 17.848 56.0672C17.3291 56.0854 19.0266 57.0142 18.2494 56.1303ZM17.6164 50.7686L17.3133 51.1348L17.7583 51.1711L17.6164 50.7686ZM19.1163 53.9926L18.8665 53.3136C18.8035 53.3585 18.7235 53.3051 18.6337 53.2251C18.8483 53.6083 19.0096 54.0739 19.1066 53.9926H19.1163ZM18.6349 53.2166C18.527 53.0117 18.4118 52.8335 18.2773 52.7534C18.3403 52.8601 18.4919 53.082 18.6349 53.2166ZM18.2312 51.5458L18.2579 51.7774L18.4822 52.2248L18.2312 51.5458ZM22.7077 60.7838L23.1721 61.418C23.3419 61.418 23.3334 61.1864 23.1454 60.9536C22.966 60.8372 22.7793 60.6056 22.7077 60.7753V60.7838ZM22.698 58.1212C22.7162 58.354 22.6362 58.417 22.5562 58.5868L23.0557 58.3443L22.6895 58.1212H22.698ZM23.8778 60.0866C24.0475 60.0866 24.7896 60.9087 24.307 60.0333C24.1373 60.0333 23.6644 59.3907 23.8778 60.0866ZM28.1215 71.1543L28.0488 70.9761L27.2097 71.3253L28.1215 71.1556V71.1543ZM28.6211 78.6876C28.067 79.3484 28.729 79.232 28.5411 79.5897L32.4453 80.259C32.4356 80.1875 32.4453 80.0893 32.4538 79.9462C32.3204 79.831 32.3022 80.0796 32.2756 80.2772L28.7023 79.6612C28.8175 79.5351 28.9254 79.4369 28.9521 79.5715C29.0236 78.9289 29.2819 78.741 28.6308 78.6864L28.6211 78.6876Z" fill="#FFBF00"/>
<path d="M28.9437 79.5703C28.9437 79.6334 28.9352 79.6952 28.9267 79.7765L32.0174 80.3027L31.9361 80.196C31.964 80.2578 31.9992 80.3027 32.0089 80.3027L28.917 79.7765C28.9383 79.7099 28.9445 79.6395 28.9352 79.5703H28.9437ZM115.902 3.12826L116.501 3.01186L116.028 2.92214L115.902 3.12826ZM116.572 1.97639L116.965 2.42259L117.027 1.78845C116.92 1.87696 116.724 2.04671 116.572 1.98488V1.97518V1.97639ZM49.6604 48.3472L49.732 48.4721C49.9102 48.4988 50.0084 48.4006 50.2146 48.2139L49.6604 48.3472ZM55.5205 42.6218L55.4235 42.7115L55.9764 42.8813L55.5205 42.6218ZM59.8624 37.2347C59.649 37.4129 59.4865 37.7173 59.2647 37.9052C59.6405 37.4129 60.3717 37.6542 59.8624 37.2347ZM59.1931 84.0808C59.4247 83.9293 59.0949 83.7147 59.0767 83.6443C58.7906 84.0008 59.2647 84.1536 59.1931 84.0808ZM56.1825 87.6116L56.1546 87.4322L55.8066 88.1209L56.1825 87.6116ZM52.528 89.8972C53.1888 90.2367 53.8411 89.0399 54.5917 88.8071L54.7784 88.8605V88.2349C54.0824 88.8423 53.1803 89.7105 52.528 89.8972ZM49.8835 89.7274C50.1151 89.8887 49.544 90.1397 50.3831 89.5577C50.3297 89.5577 50.3031 89.5577 50.2679 89.5407C50.1435 89.6079 50.0152 89.6674 49.8835 89.719V89.7274Z" fill="#FFBF00"/>
<path d="M50.2677 89.5492C49.9185 89.4958 50.6508 89.3346 50.2677 89.5492V89.5492ZM48.489 90.541L48.9279 90.1045C48.7581 90.0148 48.2756 90.193 48.4004 90.0233C47.9094 90.3713 48.0791 90.461 48.4805 90.541H48.489ZM48.1676 91.1945L48.4101 90.9884C48.3374 90.952 48.2574 90.9617 48.1676 91.1945ZM48.9182 90.5495L48.4089 90.986C48.5253 91.049 48.6235 91.237 48.6502 90.7993C48.6769 90.9957 48.7218 90.7726 48.9182 90.5495ZM49.2941 90.4889C49.6505 90.4889 50.0701 90.3713 49.6336 90.8284C50.6072 90.2464 50.2592 89.9335 49.2941 90.4889ZM52.6527 90.5956L53.1353 90.5228L53.3668 90.1397C53.2517 90.3264 52.5278 90.4343 52.6442 90.5956H52.6527ZM45.0151 91.5583C45.0236 91.7014 45.3098 91.8347 45.408 91.9778L45.756 91.6832C45.5147 91.6747 45.0952 91.7365 45.0054 91.5583H45.0151ZM45.4068 91.9802C45.2313 92.1277 45.0497 92.2677 44.8624 92.3998C45.425 92.2664 45.488 92.0954 45.408 91.9778L45.4068 91.9802ZM48.3471 91.8905L49.1328 91.0054L48.1507 91.9802L48.3471 91.8905ZM42.675 92.247C42.7663 92.1162 42.8524 91.9819 42.9333 91.8444C42.7732 92.0675 42.6035 92.264 42.4337 92.4701L42.6653 92.247H42.675ZM41.1194 92.6835C41.3158 92.3719 40.6635 92.344 40.9048 92.1221C40.4937 92.2821 40.1809 92.5586 39.8863 92.8181C40.2173 92.6483 40.5919 92.6119 41.1194 92.6932V92.6835ZM39.3867 93.2049C39.5565 93.1054 39.7165 92.9624 39.8863 92.8108C39.6962 92.9086 39.5266 93.0432 39.3867 93.2049ZM43.7905 92.6653C43.7178 92.6035 43.5674 92.4252 43.2012 92.4422L43.5492 92.7368C43.6208 92.7199 43.7105 92.6932 43.799 92.6665L43.7905 92.6653ZM43.5577 92.7368H43.5492C43.3692 92.7756 43.1905 92.8201 43.0133 92.8702C43.0848 92.8532 43.2449 92.8181 43.5577 92.7368Z" fill="#FFBF00"/>
<path d="M43.8537 92.6496C43.8537 92.6496 43.8173 92.6581 43.7906 92.6678C43.827 92.6944 43.8452 92.7041 43.8537 92.6496ZM46.6133 92.2021C46.3284 92.5332 45.6397 93.0327 46.4884 93.0691C46.6582 92.7296 46.1756 92.7114 46.6133 92.2021ZM44.2914 93.0073L44.9886 92.8921C44.9437 92.8023 44.7824 92.6956 44.9255 92.5429L44.2914 93.0157V93.0073ZM44.0052 93.2219L44.2914 93.0073L44.0404 93.0521L44.0052 93.2219ZM40.6017 93.3383C40.3423 93.5517 40.0197 93.6232 39.6717 93.7214C40.0743 93.7214 40.4841 93.6947 40.8697 93.6147C40.8964 93.4813 41.0128 93.2388 40.6102 93.3467L40.6017 93.3383ZM42.0482 93.097L41.9864 93.1333C42.0313 93.1503 42.0652 93.16 42.0482 93.097ZM36.0803 94.2391L36.1434 94.301L36.1519 94.2391H36.0803Z" fill="#FFBF00"/>
<path d="M40.9401 93.6668C41.2444 93.6668 41.396 93.5335 41.539 93.3819C41.3195 93.4778 41.0924 93.5553 40.86 93.6135C40.8515 93.6765 40.8515 93.7117 40.9401 93.6668ZM38.4314 93.5614C38.5914 93.6147 38.7794 93.6499 38.9673 93.6765C38.7976 93.588 38.4666 93.4534 38.4314 93.5614ZM41.87 93.0606C41.87 93.0606 41.8967 93.0436 41.9064 93.0339C41.79 92.9806 41.8167 93.0169 41.87 93.0606Z" fill="#FFBF00"/>
<path d="M41.87 93.0594C41.7366 93.1491 41.6372 93.2655 41.539 93.3807C41.7087 93.3092 41.8615 93.2291 41.9864 93.1394C41.9398 93.1214 41.8973 93.0941 41.8615 93.0594H41.87ZM35.1515 96.7599C35.1879 96.3926 35.9736 96.053 36.7059 96.3307C37.368 95.9827 36.769 94.883 36.1433 94.3022C36.1433 94.4635 36.153 94.6053 35.4825 94.8563C35.742 95.0527 37.0636 95.1594 36.5095 95.5438C35.5989 95.83 35.7335 95.482 35.2776 95.3304C35.6971 95.7414 34.133 96.0458 34.3658 96.6787L35.1879 96.3926C35.2146 96.492 34.9199 96.6702 35.1612 96.7502L35.1515 96.7599ZM37.448 94.1773L37.7244 94.0961C37.4031 94.0791 37.1533 93.9627 36.7059 93.7396C36.2694 93.9712 36.1797 94.1143 36.1615 94.2307L37.5377 94.1058L37.448 94.1676V94.1773Z" fill="#FFBF00"/>
<path d="M38.9662 93.9093C38.8146 94.3301 38.1623 94.615 38.6448 94.9545C39.4669 94.7763 39.1723 94.5265 39.6367 94.2755C38.332 94.615 39.9762 93.9991 38.9843 93.9542C39.2052 93.8541 39.4355 93.7766 39.6718 93.7226C39.4305 93.7226 39.1893 93.7044 38.9662 93.6778C38.9759 93.6778 38.9928 93.6863 39.0025 93.6947C39.0644 93.7311 39.091 93.7578 39.0195 93.7396C39.0195 93.7396 39.0025 93.7493 38.9928 93.7493C38.9903 93.8016 38.9779 93.8531 38.9565 93.9009C38.5648 93.9009 38.8861 93.8111 38.9928 93.7493V93.6862C38.5733 93.8378 38.1441 93.9724 37.7161 94.0888C38.0022 94.1058 38.3587 94.0621 38.9662 93.9009V93.9093ZM46.069 94.107C46.0156 94.0888 46.0059 94.0621 45.9974 94.0342C45.9259 94.107 45.9089 94.1506 46.0702 94.107H46.069Z" fill="#FFBF00"/>
<path d="M45.453 94.0621C45.533 93.9809 45.5694 93.8196 45.8895 93.7493C46.1939 93.7578 45.9526 93.9275 46.0059 94.0354C46.1587 93.8657 46.56 93.5347 45.9259 93.5698L45.8544 93.6511C45.2833 93.7044 44.46 93.4365 44.5412 93.3649C44.8007 93.6511 45.0056 93.8475 45.4712 94.0621H45.453ZM42.1574 94.2125L41.0929 94.6684L41.7355 94.8563L41.6652 94.6684C42.3175 94.5883 42.1211 94.3822 42.1659 94.2125H42.1574ZM35.9373 94.0621L36.0464 93.6426L35.4644 94.2585L35.9373 94.0621ZM34.509 94.2028L34.5454 93.8451L34.178 94.0876L34.509 94.2028ZM20.0899 37.3971L20.3494 37.1377C20.216 37.2444 20.1336 37.3341 20.0899 37.3971ZM17.8832 38.7551L17.9281 38.9334C17.9729 38.7818 17.9729 38.7018 17.8832 38.7551ZM6.16316 79.2126C6.31473 78.6597 6.63604 78.0159 6.27956 78.2038L5.95825 78.4633C6.128 78.7397 6.17165 78.9883 6.16316 79.2126ZM5.37625 55.2985C5.3229 55.3264 5.26106 55.3531 5.2065 55.3797C5.26955 55.5495 5.3326 55.701 5.38595 55.8441C5.38595 55.6744 5.38595 55.4949 5.37625 55.2985ZM4.11768 54.2351C4.29591 54.0739 4.46566 53.8956 4.6536 53.7429C4.49234 53.8326 4.32259 53.9951 4.11768 54.2351ZM32.9909 31.5808L33.3025 31.0982C32.6599 31.2595 32.9909 31.3844 32.9909 31.5808ZM20.0633 92.4168C19.7335 92.1488 19.4655 91.9608 19.206 91.8541C19.5722 92.23 19.8317 92.6847 20.0633 92.4168ZM21.3849 41.4336C21.5195 41.2638 21.5546 41.1571 21.5013 41.0856C21.3582 41.2553 21.2952 41.3802 21.3849 41.4336ZM18.1427 91.4152C18.1875 91.4783 18.2506 91.5231 18.2942 91.585C18.5889 91.6395 18.8762 91.7014 19.1975 91.8529C18.9296 91.568 18.5986 91.3267 18.1342 91.4164L18.1427 91.4152ZM75.1568 52.9863V53.1099C75.2102 53.1099 75.1932 53.0578 75.1568 52.9863ZM74.7276 67.4574C74.7094 67.341 74.7276 67.1713 74.7276 66.9846C74.6997 67.0731 74.6912 67.2065 74.7276 67.4574ZM28.7739 93.9542C28.8272 93.9178 29.077 93.9639 28.7739 93.9542V93.9542ZM30.1585 95.579C30.0858 95.6153 30.0337 95.6687 30.0252 95.7572C30.0345 95.7202 30.0512 95.6853 30.0741 95.6548C30.0969 95.6242 30.1257 95.5984 30.1585 95.579ZM14.3184 92.184L14.293 92.167C14.3366 92.2834 14.3269 92.2555 14.3184 92.184ZM29.2116 94.1688C29.0896 94.1127 28.9641 94.0649 28.8357 94.0257C28.8988 94.0621 29.0055 94.1155 29.2116 94.1688ZM29.1667 93.9809C29.2734 93.9991 29.3547 94.0173 29.4262 94.0342C29.4698 93.9724 29.4347 93.9275 29.1667 93.9809Z" fill="#FFBF00"/>
<path d="M28.3544 93.9263C28.5241 93.9445 28.6842 93.9797 28.8357 94.0233C28.7824 93.9882 28.7557 93.9712 28.7739 93.953C28.6842 93.953 28.5593 93.9348 28.3544 93.9263ZM56.4771 33.6711C56.4771 33.6711 56.5135 33.7063 56.5304 33.733C56.9063 33.7148 56.7535 33.6796 56.4771 33.6699V33.6711ZM0.409876 72.0674C0.409876 72.0674 0.426851 72.094 0.436551 72.1037V72.0492L0.409876 72.0674ZM0.0437012 70.8597C0.552951 71.3605 0.489901 71.6479 0.436551 72.0492L1.5084 71.5654C1.014 71.3432 0.525596 71.1079 0.0437012 70.8597Z" fill="#FFBF00"/>
<path d="M25.5583 34.4835L24.6368 34.5102C25.3425 33.5632 26.1209 33.4383 25.1824 33.3219C25.3704 33.9027 24.6198 34.2677 23.8778 34.6436C23.1454 35.0461 22.4228 35.4474 22.6447 36.0113L22.0287 36.0379C22.1803 35.9749 22.1621 35.9046 22.3149 35.8403C21.0733 35.8318 22.0202 37.0019 20.7241 37.5208C20.2512 37.6724 19.8753 37.6991 20.0899 37.4044L19.3224 38.235C19.0448 38.3781 18.9914 38.1634 19.2776 38.0119C18.8302 38.3332 18.3658 38.6375 17.9365 38.977V38.9407C17.794 39.3165 17.6238 39.6812 17.4273 40.0319C16.9908 40.1204 17.5267 39.8076 17.357 39.7445L16.7847 40.5048C16.2936 40.4599 16.7398 39.7809 17.2854 39.4596C15.8826 38.9588 16.821 40.1107 14.9356 40.6745L15.5346 40.0222C14.6761 39.8258 14.2566 40.4151 13.2199 40.7279C13.5424 40.7182 15.463 40.352 14.8459 41.1923C14.5597 41.282 14.2481 41.4869 13.9971 42.0228C13.7207 41.6918 13.3812 42.1125 12.8986 42.5587L12.5591 42.1028C12.1129 42.6933 12.3627 42.8898 12.2281 43.3542C11.6121 43.8549 11.1829 43.6488 10.7901 43.5057C9.78975 44.3278 11.925 43.4087 10.9065 44.5242C10.031 45.1499 9.62849 45.8107 9.08408 47.0074C8.44994 47.4366 8.90584 46.6776 8.6112 46.7758L8.52996 47.57C8.41356 47.6864 8.34203 47.553 8.30687 47.49C8.09225 48.0259 8.69971 47.8743 8.29838 48.6516C8.67425 49.2239 6.4578 49.4736 6.4675 50.8135C6.18014 50.9383 6.25168 50.5103 6.01888 50.4558C5.58238 51.9386 5.58238 51.6974 5.51933 53.0554L4.68028 53.7526C5.4393 53.3148 5.37625 54.3867 5.40293 55.307C5.70726 55.1736 5.95704 55.0657 6.10012 54.976L5.80548 56.2539C5.65391 56.3521 5.52903 56.1557 5.41263 55.8611C5.41263 55.9581 5.41263 56.0575 5.43082 56.1278C5.03675 56.4504 4.84033 56.0927 4.70695 55.655C4.8767 55.5665 5.05494 55.4767 5.23318 55.3967C5.06343 54.9493 4.867 54.5031 4.5372 54.4049C4.55182 54.5625 4.53026 54.7213 4.47415 54.8693C4.42929 54.7529 4.37715 54.6631 4.3141 54.6728C4.24135 54.6813 4.28622 54.8693 4.3141 55.1287H3.60843L3.80485 55.2985C3.41079 55.7629 3.0628 56.2539 2.70512 56.7535C2.74998 57.4689 2.87487 58.1479 3.00097 58.9166C3.12585 59.6756 3.12585 60.4613 3.03613 61.4349C2.70512 60.8457 2.32075 61.1318 1.79453 60.9706C2.46383 60.5947 2.00065 59.4161 2.45534 58.4425C2.22375 58.9433 2.00914 58.7371 1.97277 58.5759C1.94609 59.2379 1.88425 59.872 1.90123 60.5244C1.47322 60.3546 1.47322 60.819 1.16888 61.2482C2.13403 61.1148 1.375 62.7311 1.56173 63.5253C1.2586 63.5253 0.98094 63.284 1.23193 62.3819C0.373478 63.267 2.02612 63.8733 1.29377 64.7414C1.33014 64.5171 1.39198 64.4104 1.25739 64.294C1.40168 64.8396 1.10704 66.0812 0.865753 65.7587L0.882728 65.5356C0.543228 67.01 0.632953 70.1007 1.44654 70.2704C1.34712 70.2886 0.52504 70.1104 0.36499 70.0207C1.2586 70.8961 2.12433 71.7 3.08948 72.4335C2.41048 72.2638 0.972453 73.3344 0.463203 72.1377C0.409853 72.5039 0.356503 72.9598 0.669328 73.6836C0.731165 73.4242 1.53505 72.9598 1.63327 73.2811C1.00762 74.2729 1.32044 73.9419 0.91789 75.1665C0.99064 74.7822 2.07098 74.9968 2.14252 75.5509C1.97277 75.4963 1.16039 75.8007 1.01732 75.6127C1.42835 76.025 1.85637 76.4081 2.31227 76.7743C2.04552 76.4797 1.47322 76.9174 1.27679 77.3017C1.43684 77.1053 1.56173 78.5264 1.80302 78.8646C1.80302 78.65 1.8212 78.4269 1.84788 78.2123C1.99944 79.0162 2.5002 79.2842 2.96459 79.5254C3.45565 79.7679 3.88488 80.008 4.18922 80.7137C3.92004 80.6252 2.81303 80.7671 3.03613 81.5709C3.34895 81.6437 4.0813 81.7686 4.84033 81.9832C5.60905 82.1966 6.4481 82.4476 6.92219 82.9205L6.78882 83.2866C7.02889 83.5291 7.33323 83.7243 7.60119 83.9474C7.10043 83.9111 6.26138 83.7328 5.44779 83.4212C4.62572 83.1266 3.7418 82.7422 3.25923 82.3845C3.31258 83.0453 2.99248 82.7058 3.46535 83.5097C3.38411 83.9305 2.83122 83.26 2.7136 83.0005C2.98278 83.6892 3.30409 84.35 3.60843 85.0375C4.04493 84.6713 5.01978 86.1457 5.39444 85.7892L4.48506 84.9841L3.6448 84.1087C3.88609 83.9208 4.42202 84.019 4.96643 84.3051C5.50357 84.5998 6.1377 85.0375 6.49418 85.6813C6.51236 86.136 5.4587 86.0572 5.30593 86.1906C5.449 86.2172 5.72667 86.4573 5.96795 86.7168C6.22621 86.9678 6.45902 87.226 6.44083 87.3242L5.78001 87.0126C6.15589 87.825 7.25442 87.6104 7.486 88.7453C7.70062 89.0218 7.66545 90.0403 7.96858 89.8438C8.04011 88.9332 9.54119 87.4406 10.1487 87.3242C10.1668 87.3788 10.3366 87.7971 10.5148 88.2542C10.6846 88.7271 10.9259 89.1915 10.9441 89.451C11.0241 90.2197 9.45995 89.8802 9.5133 90.5228C9.6394 90.4161 10.0141 90.4695 10.1571 90.5046C10.3451 90.8441 9.71094 90.7908 10.3718 91.2564C10.8446 90.8805 11.5964 92.31 10.9792 91.0951C11.6849 91.4346 11.5418 91.7014 12.3105 92.1937C12.3105 91.7111 13.7134 91.5328 14.4191 91.7378C14.3027 91.8457 14.3378 92.1039 14.3645 92.2288C15.6425 93.0242 16.2681 93.6317 17.5813 94.1943C17.6431 94.3822 18.2239 94.8017 17.848 94.9363C18.0808 94.9181 18.3318 94.7835 18.7513 94.9363C19.377 95.7317 17.7959 94.6684 18.1887 95.4904C18.367 95.1873 19.4485 95.4359 20.1093 95.4092C20.0912 94.8381 18.778 94.8551 18.099 94.8284C18.3767 94.1227 19.6534 93.7929 21.1097 93.8645C22.2446 93.9979 21.4492 94.4707 21.6638 94.4271C23.7274 95.0964 23.7274 93.6232 25.3255 94.4634C25.9342 95.0612 25.1921 95.4092 25.2819 95.7754C24.3167 95.7936 23.9154 95.2225 23.2897 95.0964L24.0051 95.4904C23.6826 95.5789 23.0303 95.562 22.7271 95.3474C22.9684 95.6335 23.8705 95.8736 24.9157 96.0627C25.4419 96.1694 25.996 96.2761 26.5235 96.3828C27.0594 96.4726 27.5602 96.589 27.9712 96.732C28.2925 96.6071 28.8199 96.4992 28.5956 96.2761H28.0597C27.6232 95.8384 29.1049 95.8651 28.4538 95.6056C29.1764 95.4274 29.9815 94.9994 30.9455 95.2843L31.1152 95.8384C31.097 95.6772 30.4811 95.4807 30.1949 95.6323C30.6072 95.4189 31.696 96.4544 32.1604 95.7135L31.4729 95.3377C32.1786 95.0527 33.0176 94.4804 33.8761 94.632C33.4735 94.1142 33.6796 94.7047 33.0637 94.0791C33.5984 94.8648 30.9006 94.0609 31.7324 94.883C31.1237 94.1591 30.6593 94.5253 29.8918 93.8645C29.9003 94.0427 30.1501 94.221 29.4541 94.0961C29.4064 94.1561 29.349 94.2077 29.2843 94.2488C29.2661 94.2488 29.2577 94.2391 29.2395 94.2307L29.2758 94.2573C29.2758 94.2573 29.2395 94.284 29.2928 94.2573C29.4541 94.3458 29.5875 94.4453 29.6323 94.552C29.248 94.9715 28.1046 94.8199 27.6935 94.9897C27.274 94.8563 27.8997 94.8017 27.6935 94.5871L27.0776 94.8381C27.0679 94.4356 26.0494 94.0427 27.0776 93.9263C26.7836 93.8896 26.4914 93.839 26.2022 93.7747C25.7196 93.4619 25.0406 93.2473 24.5677 93.337C24.1736 93.1673 23.4328 93.5432 23.8608 93.3188C23.3879 93.2922 22.9151 93.2655 22.441 93.2219L22.4592 93.1224C21.163 92.7296 19.5104 92.926 18.3403 91.648C17.8844 91.5595 17.3946 91.4783 16.7677 91.0418L16.7944 90.6659C16.2136 90.5143 15.4643 89.5407 15.0714 89.7104C15.0532 89.1466 14.5173 88.7538 13.9183 88.3609C13.3109 87.9766 12.6682 87.5571 12.3372 87.1909L12.0062 87.5037C11.4636 86.9969 10.8746 86.5423 10.2469 86.1457L9.98739 86.4488C9.26353 86.0645 8.92403 84.7877 8.2814 83.8056C8.45115 83.7874 8.58453 84.0554 8.62939 84.2869C8.6209 83.4297 8.04011 82.9471 7.53935 82.3845C7.01313 81.8389 6.44931 81.2945 6.50388 80.5536C6.23591 80.3208 6.19105 80.0808 6.19105 79.8298C6.20106 79.856 6.21994 79.8779 6.2444 79.8916C6.23266 79.8477 6.21469 79.8056 6.19105 79.7667C6.19105 79.6067 6.19954 79.4454 6.20924 79.2757C6.16438 79.4369 6.14619 79.5788 6.15468 79.7049C6.02979 79.4806 5.86974 79.1411 5.65513 78.8198L6.00312 78.5251C6.00312 78.5251 5.97644 78.4803 5.96674 78.4451C5.99463 78.0523 5.6818 78.2305 5.44052 78.5251C5.32195 78.3786 5.18361 78.2493 5.02948 78.1408C5.5751 77.6497 4.50204 77.2556 5.1192 76.6579C4.91308 76.5863 4.72635 76.1486 4.48506 75.7206C4.27045 75.2914 4.02917 74.8622 3.63632 74.827C3.73332 74.7906 3.7515 74.6742 3.79637 74.8804C3.79637 74.4426 3.80607 74.0049 3.51992 73.6557L4.03765 73.3975L3.20709 72.5572C3.47505 71.951 3.63632 71.7085 4.11768 72.2177C3.70785 71.5836 3.63632 71.3071 3.57327 71.0658C3.50173 70.8161 3.43019 70.6015 3.09069 70.0207L3.44838 70.0655C3.40352 69.6533 2.93913 68.984 3.24225 68.7342C3.59145 68.2698 3.62662 67.1349 3.81455 65.8303C3.9843 64.5268 4.27045 63.0342 4.8864 61.9988C3.77939 62.1685 5.59208 61.0688 4.8864 60.7657C5.16407 60.7123 5.40414 60.4443 5.48538 60.8626C5.62845 59.6671 6.40566 59.3361 6.11951 58.3261C6.39597 58.2994 6.3511 58.702 6.53904 58.6486C6.53055 58.5407 6.48569 58.2194 6.67242 58.166C6.85187 58.1127 6.79852 58.4073 6.82519 58.6207C7.23623 57.5052 6.62877 57.076 6.02979 56.6929C6.61906 56.2721 6.70879 55.9775 6.50267 55.3434C6.807 55.2536 7.18166 55.0475 6.91492 55.7714C7.11134 55.3785 8.52269 53.6543 8.0583 53.3064C8.25473 53.27 8.43418 52.8238 8.44267 52.6892C9.02224 51.895 9.08529 51.8404 9.6394 51.0462L9.3969 51.2063C9.0768 50.4909 9.76429 50.474 10.1753 49.795L10.2202 49.858C11.7746 48.8213 10.533 49.0893 12.1408 48.1508L11.7564 47.9277C11.2108 47.1869 13.2126 47.1335 13.7207 46.2035L13.2842 46.2836C13.4903 45.6676 15.2763 46.1053 15.7674 45.8555C15.9105 45.8373 15.7055 46.0702 15.6158 46.2314C17.0708 45.7125 15.383 45.6858 16.1336 44.8904C16.4828 44.9983 16.4367 45.6421 17.0187 45.2214C17.2248 45.1947 17.4831 44.6855 17.8408 44.158C18.1972 43.6306 18.6446 43.0777 19.2339 43.0413C18.9211 42.9698 18.5998 42.908 18.9211 42.4787C19.2157 42.2193 19.7783 42.1028 20.2791 41.9331C20.7883 41.773 21.2442 41.5584 21.3509 41.0674C21.4673 41.0674 21.5292 41.1038 21.5656 41.1474C21.9584 40.6563 23.0751 39.9143 23.2 39.3784C23.7893 39.8791 24.5216 39.3165 25.2103 38.7539C25.8796 38.1816 26.5417 37.6991 26.8096 38.315C27.3552 38.0386 27.8997 37.7706 28.4623 37.5293V37.6724C29.5875 37.3244 29.8566 36.8685 30.1331 36.4308C30.418 36.4308 30.2749 36.6187 30.2749 36.689C31.9821 36.3774 32.1155 36.3144 33.3135 35.234L33.5717 35.6172C33.7245 35.4474 34.3756 35.4656 35.1625 35.4111C35.9482 35.3759 36.877 35.2959 37.6542 34.8945C37.6542 34.9479 37.6275 35.0364 37.5124 35.1176C38.3963 34.7151 39.5494 34.8315 40.5218 34.9212C41.4954 34.9661 42.292 34.9927 42.6036 34.161C43.0062 34.0009 43.416 33.8481 43.8368 33.7245C42.2108 33.6153 44.0683 33.0176 43.3893 32.7593C44.0514 32.6611 45.0699 33.2419 44.2745 33.3304L44.1496 33.2504C44.0065 33.6699 44.5158 33.7414 45.0432 33.7863C45.5694 33.8312 46.132 33.8845 46.0969 34.1622C49.2494 34.2859 52.18 35.3044 54.8159 36.3592L54.7359 35.6269L55.6647 36.0379C55.8526 36.2792 55.7981 36.6442 55.147 36.3507C55.3519 36.8321 56.3704 36.5108 56.4601 36.3944C57.6217 37.2432 55.6562 36.8503 56.0394 37.0649C56.2273 37.1183 56.397 37.1983 56.5753 37.2613L56.4953 37.1365C57.0227 37.1001 57.1924 36.8685 57.9515 37.2795C58.3807 37.6372 58.0048 37.7706 58.1746 37.8858C58.1479 37.9222 58.2012 37.9852 58.4425 38.0652L59.4877 38.7539L59.3277 38.0567C59.9618 38.1101 60.3195 38.7442 60.1582 37.9052C60.2564 38.5563 61.2216 39.245 62.0788 40.0028C62.3019 40.1823 62.525 40.3617 62.7311 40.5315C62.9276 40.7182 63.1155 40.8879 63.2853 41.0407C63.6151 41.3535 63.8563 41.6033 63.9012 41.7464C64.7136 42.0592 65.2774 42.6388 65.8667 43.4342C65.7951 43.1747 66.1431 42.6836 66.6354 43.3978C66.0716 43.6573 66.2147 44.0416 66.4656 44.4891C66.6972 44.9534 67.0282 45.4978 66.8767 46.0168C67.0185 45.168 68.3147 47.9277 68.4663 46.6958C68.7694 47.3469 68.1086 46.9723 68.1631 47.57C69.4399 48.7765 69.7345 50.9286 70.6997 52.7607C70.861 52.7243 70.9325 52.3145 71.3338 52.6273L71.0307 53.9575C71.2538 54.3067 72.031 53.9672 71.7897 54.879C71.8795 54.7262 72.0043 54.5031 72.1474 54.7529C72.5403 56.8165 73.3175 58.782 73.9601 60.819C74.2826 61.8375 74.5494 62.8827 74.7119 63.9278C74.8537 64.9282 74.8004 65.9564 74.4427 66.8221C74.7373 66.3492 74.7919 66.662 74.7822 67.0282C74.8622 66.7857 75.1665 67.0452 75.3812 67.0015C75.1665 67.5278 74.9083 67.9921 74.6039 68.3413C74.8537 68.5293 74.7555 68.8773 74.6039 69.1452C74.4609 69.412 74.2814 69.6096 74.4342 69.8509C74.5142 69.743 74.5494 69.6011 74.6124 69.4932C74.7106 69.8861 75.1132 70.0388 75.6224 69.9491C76.1487 69.8958 76.7113 69.5914 77.0871 69.8158C76.9259 69.1986 77.3733 68.6893 77.7031 67.9752C78.0256 67.278 78.222 66.4207 77.6231 65.7054C77.7746 65.3489 77.9177 65.9733 78.1056 65.7781C77.7128 65.4022 77.5879 64.973 77.6049 64.0976L77.7128 64.1776C77.4448 62.9809 77.2921 62.2388 77.2035 61.3731C77.0871 60.5244 77.0241 59.6307 76.7658 58.371L76.4166 58.6741C76.3099 58.1297 76.4081 57.9866 76.4348 57.7017C75.6394 57.2894 76.8471 59.193 75.9983 58.8451C76.6312 57.8884 74.8537 55.1639 75.5679 54.3782C75.2732 53.5743 75.1932 54.7795 74.9071 53.9853L75.0768 53.6822L74.684 53.601C74.5324 53.0651 74.7288 52.6795 74.9253 52.5728C74.9519 52.7074 75.1314 52.9123 75.2017 53.0384C75.2017 52.243 74.3263 51.1614 74.2996 50.9032C74.3724 51.1796 74.433 51.4488 74.479 51.7253C73.3442 49.6785 72.3257 46.9359 70.6282 45.3014L70.5566 45.5512C69.3235 44.3011 69.9758 44.2744 68.7342 42.8182L68.8143 42.8449C68.3747 42.6307 67.9945 42.3118 67.7072 41.9161C68.1898 42.1392 67.4841 40.9158 68.0831 41.2456C66.5275 40.0755 67.2065 40.7364 65.84 40.335L65.8764 39.8973C65.3574 39.8161 65.2228 39.9058 64.482 39.325C65.241 39.6463 64.3838 38.5393 65.2774 38.8606C64.8045 37.8785 64.0528 37.5657 63.4987 37.2795C62.9458 36.9849 62.4802 36.8236 62.4098 36.1179C61.1234 36.3326 63.5435 37.5378 62.9894 37.4032C63.1422 37.8955 61.9806 37.5026 61.5247 37.0831C61.0421 36.6987 61.2931 35.502 59.8539 34.6702C59.9885 34.7599 60.0333 34.7066 60.1764 34.7866C59.7642 34.241 58.97 34.5005 58.4692 33.8215C57.863 34.1343 57.6035 33.3668 57.2009 33.9743C57.6835 34.0894 58.1394 34.2956 58.6038 34.4568C58.1843 34.3586 57.7187 34.3938 57.2191 34.3756C56.7099 34.3671 56.1921 34.2689 55.6283 33.83C55.7714 33.733 56.2188 33.7148 56.5219 33.7233C56.2188 33.3838 55.7629 33.5535 55.4416 33.214C55.7981 32.5799 57.1755 33.7063 58.2194 33.6081C57.9527 33.1073 56.4152 33.4104 57.1476 32.866C56.6565 33.1873 56.2988 33.0176 55.8878 32.786C55.4768 32.5714 55.0027 32.3386 54.3697 32.5265L54.5662 32.1422C54.3782 32.1519 53.9757 32.2319 53.6726 32.1337C53.9138 32.0088 54.1454 31.9009 54.3879 31.776C53.3949 31.9457 52.7971 30.9369 51.8768 30.9636C53.6544 31.3831 52.163 31.5614 52.8323 32.0439C51.6986 32.0439 51.4573 31.7226 51.1712 31.3468C50.885 30.9806 50.5637 30.5162 49.2954 30.4447C49.6434 30.4083 50.5188 30.9006 49.9647 30.9988C49.51 30.8205 48.9099 30.6144 48.6431 30.3465C46.982 30.2495 48.8492 30.8108 48.1242 30.9891C47.6149 30.4095 47.3033 31.1152 46.5879 31.2401L46.6061 30.8108C44.757 30.4447 46.0787 31.6511 44.4357 31.3116L45.1414 30.7126L44.266 30.8654L44.4442 30.3731C43.4888 30.7393 43.2026 30.6326 42.2641 30.5611C42.4969 30.8557 42.1841 31.348 41.379 31.4098C40.8091 31.1952 41.6579 30.9539 40.5133 31.1334C40.7461 30.8375 41.0044 30.4629 41.5403 30.8375C41.5851 30.6957 41.7828 30.5526 41.8264 30.4095C41.1923 30.1331 40.2987 30.4544 39.8792 30.5065C40.0404 30.5065 40.2368 30.5065 40.3435 30.5611C39.7979 30.8205 39.2632 31.0703 38.7358 31.3383C38.4496 31.2219 38.6376 31.0618 38.8328 30.9018C38.503 30.9988 38.298 31.2316 37.807 31.3468C37.8785 30.9806 37.7888 30.6326 38.486 30.3561L36.9401 30.9903C36.8067 30.8472 36.0464 30.7308 36.2344 30.5611C35.2959 30.5344 34.2156 31.6596 33.0091 31.7045C32.9643 31.7857 32.8661 31.8742 32.6333 31.9906C31.5541 32.2234 30.4629 32.0706 29.3728 32.9727L28.4526 32.6247C27.5335 33.1073 29.6675 33.0273 28.1494 33.8312C27.1043 34.4556 27.5335 33.5002 27.0776 33.4917C26.6217 34.0009 25.9257 35.0012 24.7096 34.9928C24.9957 34.7333 25.3001 34.6969 25.5947 34.5199L25.5583 34.4835ZM14.8641 41.1741C14.9974 40.951 15.2218 40.4332 15.5164 40.5315C15.5964 41.0941 15.2836 41.031 14.8641 41.1741ZM3.84002 56.5752C3.77818 56.3521 3.94793 56.1206 4.24257 55.9144C4.16269 56.1635 4.02471 56.39 3.84002 56.5752ZM25.4322 93.8475C25.4322 93.8475 25.414 93.856 25.4055 93.8657C24.9496 93.6147 25.1109 93.7129 25.4322 93.8475ZM26.4143 94.2137C26.5223 94.1688 26.5307 94.1155 26.4956 94.0439C26.4059 94.1421 26.1828 94.107 25.9233 94.0257C25.9778 94.1506 26.093 94.2488 26.4156 94.2137H26.4143ZM58.2716 37.7439L58.1552 37.5475C58.6026 37.6724 58.4413 37.699 58.2716 37.7439Z" fill="#FFBF00"/>
<path d="M4.26079 54.3685C4.35779 54.3406 4.43903 54.3685 4.51057 54.3855C4.49238 54.2691 4.41357 54.2254 4.26079 54.3685ZM32.9279 31.6693H32.9643C32.9643 31.6693 32.9813 31.6062 32.9813 31.5796L32.9279 31.6693ZM9.68309 90.952C9.54002 90.7459 9.48667 90.6041 9.47697 90.4877C9.39694 90.5592 9.42362 90.6938 9.68309 90.952ZM31.8997 93.9093C31.6851 93.9457 31.462 93.9906 31.2474 94.0173C31.5602 94.0075 31.6766 94.0876 31.8379 94.1591C31.8197 94.0621 31.7033 93.919 31.9082 93.9093H31.8997ZM37.904 96.1876C38.001 96.1246 38.1186 96.1513 38.2072 96.0882L38.1538 95.8918C37.7246 95.9548 37.4481 96.1609 37.904 96.1876ZM32.5072 95.3389C32.5618 95.705 32.9898 95.5717 33.4639 95.5086H33.3838C33.5087 94.9994 33.008 95.1691 32.5072 95.3389ZM33.579 95.4904C33.7221 95.4735 33.8749 95.4553 34.0168 95.4638C34.0616 95.2504 33.8373 95.4468 33.579 95.4904ZM27.7554 94.1324C27.9615 94.2476 27.9433 93.685 28.05 93.8463C28.3459 93.4171 26.5405 94.2307 27.7554 94.1324ZM32.9097 96.5259L32.7315 96.0785L32.4635 96.4447L32.9097 96.5259ZM29.0867 96.0882L29.8542 96.2495C29.8542 96.1779 29.944 96.1331 30.0689 96.1064C29.596 96.0615 29.077 95.9451 29.0867 96.0797V96.0882ZM30.0689 96.1161C30.3186 96.1343 30.5514 96.1428 30.6945 96.0712C30.5599 96.0712 30.2738 96.0712 30.0689 96.1161ZM31.8464 96.6702L31.6148 96.5805C31.4295 96.5744 31.2446 96.5595 31.0607 96.5356C31.3189 96.5987 31.5784 96.6253 31.8367 96.669L31.8464 96.6702ZM20.9569 94.5083L20.1167 94.3737C19.9833 94.4901 20.1797 94.6502 20.501 94.695C20.7241 94.6587 21.0466 94.6865 20.9654 94.5083H20.9569ZM23.1455 96.3489C22.9394 96.207 22.9394 96.1088 22.8508 95.9294L22.6981 96.4653L23.1455 96.3489ZM20.6623 95.8299C20.5374 95.9633 19.3128 95.8748 20.3943 96.1791C20.5277 96.0627 21.4043 96.1791 20.6623 95.8299ZM9.68309 88.9138L9.83466 89.0654L10.4409 88.3864L9.68309 88.9138ZM1.56298 80.1256C1.73152 81.2339 2.15104 80.1802 2.26744 81.189C2.55359 81.3406 2.17044 80.3669 2.44568 80.5367C2.01767 80.0104 2.02737 79.6346 1.56298 80.1256ZM2.44689 80.5367C2.51843 80.6167 2.58997 80.7064 2.69667 80.7949C2.56329 80.6434 2.50994 80.5718 2.44689 80.5367ZM73.8522 68.7524C73.754 68.8154 73.6461 68.8324 73.5491 68.8506C73.6558 68.8773 73.771 68.9039 73.8971 68.9039L73.8522 68.7524ZM73.9589 69.663C73.8097 69.5329 73.6669 69.3957 73.5309 69.2519C73.5928 69.4217 73.6376 69.6011 73.6643 69.7976C73.7176 69.7163 73.8159 69.5914 73.9504 69.6545L73.9589 69.663ZM12.6574 41.4772L12.7107 41.6203C12.8902 41.6651 13.0235 41.5669 13.283 41.379L12.6574 41.4772ZM20.5459 36.4841L20.4028 36.5557L20.9205 36.8685L20.5459 36.4841ZM27.3262 32.5362C27.0231 32.6344 26.7102 32.8842 26.4059 32.9824C27.0218 32.6344 27.6475 33.1158 27.3262 32.5362Z" fill="#FFBF00"/>
</g>
</g>
</g>
<defs>
<clipPath id="clip0_1_680">
<rect width="117.61" height="97" fill="white"/>
</clipPath>
<clipPath id="clip1_1_680">
<rect width="117.613" height="97" fill="white" transform="translate(-0.0012207)"/>
</clipPath>
</defs>
</svg>
