<svg width="71" height="96" viewBox="0 0 71 96" fill="none" xmlns="http://www.w3.org/2000/svg">
<g clip-path="url(#clip0_1_542)">
<g clip-path="url(#clip1_1_542)">
<g clip-path="url(#clip2_1_542)">
<g clip-path="url(#clip3_1_542)">
<mask id="mask0_1_542" style="mask-type:luminance" maskUnits="userSpaceOnUse" x="0" y="-1" width="71" height="98">
<path d="M0 -0.000579834H70.018V96.2706H0V-0.000579834Z" fill="white"/>
</mask>
<g mask="url(#mask0_1_542)">
<path d="M2.09412 41.1541C1.91963 41.3274 2.20002 41.4345 2.21446 41.4947C2.42144 41.1409 2.02673 41.1216 2.09412 41.1541ZM4.10739 37.6114L4.15432 37.7377L4.31437 37.1023L4.10739 37.6114ZM6.51537 34.7088C5.91368 34.6679 5.69948 35.8123 5.14351 36.2202L4.99068 36.2323L5.09056 36.7148C5.5659 36.0457 6.04124 35.0626 6.51537 34.7088ZM8.60927 33.8375C8.38785 33.8111 8.76932 33.4031 8.26029 34.1588C8.30842 34.1384 8.32046 34.1324 8.35415 34.1251C8.4083 34.0577 8.47449 33.9783 8.60927 33.8375ZM8.35415 34.1275C8.10625 34.4404 8.64176 34.0265 8.35415 34.1275V34.1275ZM9.45164 32.6534L9.23744 33.1612C9.39147 33.1492 9.71278 32.8146 9.65863 32.9952C9.933 32.5258 9.77897 32.5403 9.44563 32.6534H9.45164ZM9.51061 32.0517L9.38425 32.3056C9.45044 32.3056 9.51061 32.2587 9.51061 32.0517Z" fill="#FFBF00"/>
<path d="M9.13025 32.8411L9.39138 32.3056C9.28428 32.3128 9.16394 32.219 9.26382 32.5403C9.1844 32.4127 9.21689 32.5872 9.13747 32.8411H9.13025ZM8.86189 33.0421C8.59474 33.1961 8.29991 33.444 8.51411 32.935C7.91843 33.7449 8.26742 33.8448 8.86309 33.0433L8.86189 33.0421ZM6.26738 34.2395L5.90636 34.4465L5.8125 34.8075C5.85943 34.627 6.40096 34.3129 6.26738 34.2323V34.2395ZM11.7717 30.3537C11.7187 30.2599 11.4504 30.3068 11.33 30.2538L11.1628 30.6209C11.3433 30.5138 11.6381 30.2731 11.7717 30.3537ZM11.33 30.2526L11.5779 29.6967C11.2229 30.0709 11.2229 30.1997 11.33 30.2526ZM9.16996 31.6365L8.82819 32.5992L9.28308 31.4969L9.16996 31.6365ZM13.2314 28.6942L13.1905 29.0962L13.3108 28.4271L13.2314 28.6942ZM14.1737 27.5691C14.1604 27.8771 14.6418 27.5366 14.5611 27.8098C14.7958 27.4897 14.8957 27.1214 14.9896 26.7941C14.8355 27.0949 14.5948 27.3416 14.1737 27.5691ZM15.1568 26.2574C15.0846 26.4114 15.0365 26.5919 14.9835 26.7869C15.0711 26.6216 15.1297 26.4425 15.1568 26.2574ZM12.2603 28.9891C12.3349 28.9951 12.5154 29.036 12.7825 28.835L12.4143 28.8146C12.3674 28.8687 12.3144 28.9229 12.2603 28.9831V28.9891Z" fill="#FFBF00"/>
<path d="M12.3998 28.8206H12.4142C12.5803 28.6401 12.7019 28.5137 12.7476 28.4596L12.3998 28.8206ZM12.2205 29.0288L12.2602 28.9891C12.2265 28.9891 12.2073 28.9891 12.2205 29.0288ZM10.3613 30.6606C10.4611 30.2996 10.7945 29.6497 10.1663 30.0108C10.1543 30.3261 10.5165 30.1191 10.3613 30.6606ZM11.7656 29.0071L11.3107 29.4283C11.3781 29.4692 11.531 29.456 11.478 29.6365L11.7584 29.0071H11.7656ZM11.892 28.7207L11.7656 29.0095L11.9329 28.8543L11.892 28.7207ZM14.2602 26.8747C14.3397 26.5931 14.5274 26.3657 14.7284 26.1046C14.454 26.3332 14.1929 26.5859 13.9582 26.8471C13.9919 26.9409 14.0123 27.1623 14.253 26.8747H14.2602ZM13.3372 27.8062L13.3637 27.7532C13.324 27.7652 13.2975 27.7797 13.3372 27.8062ZM16.8896 23.6978L16.8162 23.705L16.8427 23.7447L16.8896 23.6978Z" fill="#FFBF00"/>
<path d="M13.8873 26.8543C13.8063 26.9117 13.7378 26.9851 13.686 27.07C13.6343 27.1548 13.6004 27.2493 13.5865 27.3477C13.6924 27.1816 13.8199 27.0143 13.9668 26.8398C13.9535 26.8001 13.9331 26.7736 13.8861 26.8471V26.8543H13.8873ZM15.6575 25.5029C15.5252 25.563 15.3771 25.6509 15.2363 25.7375C15.3964 25.6966 15.6852 25.5835 15.6575 25.5029ZM13.4854 27.7315L13.4722 27.7713C13.572 27.7448 13.5444 27.7388 13.4842 27.7315H13.4854Z" fill="#FFBF00"/>
<path d="M13.4853 27.7315C13.5454 27.6052 13.5575 27.4788 13.5852 27.35C13.5006 27.4751 13.4269 27.6071 13.3649 27.7448C13.4046 27.7327 13.4444 27.7315 13.4853 27.7315ZM16.1736 21.7435C16.3397 21.9577 16.0593 22.64 15.4444 22.9011C15.1965 23.4763 16.1063 23.7627 16.8078 23.7098C16.7356 23.6159 16.655 23.5497 16.9426 22.9878C16.6947 23.0479 15.7922 23.77 15.9522 23.2284C16.3866 22.5329 16.4601 22.8 16.8283 22.5991C16.3602 22.6267 17.1568 21.516 16.6815 21.3223L16.3325 21.9637C16.2663 21.924 16.3469 21.6508 16.1664 21.7507L16.1736 21.7435ZM16.0196 24.5486L15.8788 24.7543C16.1075 24.5738 16.3205 24.4944 16.7212 24.3464C16.9017 23.9517 16.8897 23.8181 16.8415 23.7387L15.9931 24.634L16.0196 24.5486ZM15.1291 25.5967C15.0425 25.2622 15.3577 24.7267 14.8764 24.794C14.3998 25.356 14.7079 25.3356 14.5142 25.7507C15.2494 24.8145 14.4071 26.1118 15.0966 25.5823C14.9763 25.7905 14.8487 25.9577 14.7284 26.1118C14.8875 25.9783 15.0551 25.8553 15.2302 25.7435C15.2169 25.7435 15.2097 25.7435 15.1965 25.7507C15.1363 25.7628 15.1098 25.7628 15.1628 25.7303C15.1628 25.7303 15.17 25.7098 15.176 25.7098C15.1496 25.6773 15.1435 25.6376 15.1291 25.5967C15.4035 25.3825 15.223 25.6027 15.1772 25.7098L15.1965 25.7507L15.8716 24.7604C15.6791 24.9216 15.4709 25.1623 15.1231 25.5967H15.1291ZM10.1062 29.1214C10.1459 29.1094 10.1663 29.1214 10.1796 29.1359C10.206 29.0552 10.206 29.0155 10.1062 29.1214ZM10.561 28.8687C10.5346 28.9626 10.5743 29.0889 10.3673 29.2827C10.1398 29.4102 10.2674 29.1888 10.1868 29.1359C10.1326 29.3164 9.95212 29.7183 10.407 29.4102L10.4347 29.3236C10.8222 29.0288 11.4973 28.7941 11.4708 28.888C11.1733 28.8096 10.8615 28.803 10.561 28.8687ZM12.8102 27.1479L13.3577 26.3115L12.8366 26.5257L12.963 26.6064C12.549 26.9878 12.762 27.0203 12.8102 27.1479ZM17.069 23.711L17.2098 24.0118L17.2699 23.2958L17.069 23.711ZM17.8993 22.7266L18.0666 22.9408L18.1737 22.5798L17.8993 22.7266ZM66.0181 37.3298L66.3791 37.7052C66.2668 37.5729 66.1462 37.4467 66.0181 37.3298ZM64.1721 34.8207L64.0385 34.8604C64.1516 34.8941 64.219 34.8941 64.1721 34.8195V34.8207ZM36.6144 6.99591C36.6951 7.48449 36.695 8.0934 36.896 7.86596L37.0356 7.57835C36.8495 7.42176 36.7048 7.22171 36.6144 6.99591ZM51.9913 22.3933C51.9903 22.3417 51.9859 22.2902 51.9781 22.2393C51.8373 22.226 51.7037 22.2188 51.5834 22.2056C51.711 22.2597 51.8505 22.3259 51.9986 22.3933H51.9913ZM53.0961 21.8253L53.3235 22.374C53.2686 22.1829 53.1919 21.9988 53.0948 21.8253H53.0961ZM58.1322 42.1975L57.7917 42.4923C58.32 42.4923 58.0925 42.3383 58.1322 42.1975ZM26.7081 12.9479C27.0427 12.7614 27.2701 12.5808 27.4578 12.4003C27.0366 12.6073 26.6082 12.7 26.7081 12.9479ZM62.1913 37.3346C62.2683 37.3729 62.3559 37.3847 62.4404 37.3683C62.3321 37.3081 62.2514 37.2949 62.1913 37.3346ZM28.1811 11.6314C28.1137 11.6578 28.0607 11.6915 28.0006 11.7252C27.8525 11.9527 27.6997 12.1789 27.465 12.3991C27.7791 12.2463 28.0872 12.0261 28.1811 11.6241V11.6314ZM16.4011 41.9592C16.4011 41.9592 16.3337 41.9387 16.3072 41.9255C16.3012 41.9652 16.3409 41.9652 16.4011 41.9592ZM4.21436 39.0277C4.33469 39.0073 4.52844 39.0073 4.71617 39.0073C4.62952 38.988 4.47549 38.988 4.21436 39.0277ZM21.4637 18.9805C21.2977 19.1947 21.4637 19.0346 21.4637 18.9805V18.9805ZM19.7236 19.1899C19.7381 19.1237 19.7381 19.0635 19.6912 19.0166C19.7248 19.0828 19.7381 19.1369 19.7248 19.1899H19.7236ZM28.7214 8.4135L28.7418 8.39906C28.642 8.41952 28.6612 8.41952 28.7214 8.4135ZM21.0895 19.1959C21.1834 19.1417 21.2832 19.0755 21.3903 18.9949C21.2852 19.0543 21.1846 19.1215 21.0895 19.1959ZM21.2303 19.2488C21.1581 19.309 21.1039 19.3631 21.0498 19.4029C21.063 19.463 21.1039 19.4558 21.2303 19.2488Z" fill="#FFBF00"/>
<path d="M21.7117 18.6941C21.6118 18.8144 21.5047 18.9083 21.3916 19.0021C21.4446 18.9757 21.471 18.9684 21.4638 18.9889C21.518 18.9287 21.5914 18.8409 21.7117 18.7001V18.6941ZM38.7613 41.1806C38.7613 41.1806 38.7216 41.1686 38.7012 41.1541C38.428 41.2745 38.5483 41.254 38.7613 41.1806ZM43.4702 10.5471L43.4365 10.5339C43.4365 10.5471 43.4497 10.5603 43.457 10.5736L43.469 10.5543L43.4702 10.5471Z" fill="#FFBF00"/>
<path d="M44.2668 11.1548C43.7252 11.0682 43.6049 10.8612 43.4569 10.5664L43.0225 11.3558L44.2595 11.1548H44.2668Z" fill="#FFBF00"/>
<path d="M66.8076 41.9375L68.2926 42.1662C67.5369 42.6139 66.1385 42.514 67.8112 42.8353C67.3359 42.3864 68.4394 42.3335 69.5501 42.2793L69.9581 42.2601H70.005L69.9713 42.2119L69.9039 42.1193L69.7716 41.9388C69.6013 41.7089 69.4223 41.4857 69.2349 41.2697C68.8738 40.8617 68.5128 40.5404 68.1253 40.3731L68.0242 39.8858C68.1325 40.0518 68.2324 40.112 68.3395 40.2793C68.2721 39.7979 67.8437 39.4706 67.3828 39.1565C66.9075 38.828 66.3997 38.5139 65.9917 37.8448C65.7438 37.3767 65.6307 36.9952 66.0038 37.3298L64.9412 36.266C64.727 35.9459 64.9279 35.9531 65.1554 36.2864L64.4863 35.4501L63.9977 34.8688H64.0254C63.7907 34.7954 63.3563 34.574 63.1481 34.4669C63.041 34.1131 63.3286 34.5475 63.3695 34.4067L62.7341 33.9458C62.7341 33.5571 63.2961 33.9121 63.5837 34.3466C63.8713 33.237 63.0217 33.9928 62.5127 32.4741L63.0422 32.9627C63.1686 32.2803 62.674 31.9663 62.4333 31.1299C62.4201 31.3826 62.7943 32.8953 62.112 32.3935C62.0253 32.1732 61.8641 31.9121 61.4501 31.6774C61.7028 31.4705 61.3695 31.1901 61.0217 30.7821L61.3755 30.5414C60.9146 30.166 60.7738 30.3333 60.4128 30.1864C60.0385 29.657 60.2118 29.3441 60.3322 29.0492C59.7305 28.1996 60.3731 29.9398 59.5367 29.036C59.1216 28.2598 58.6005 27.9048 57.7437 27.2767C57.4765 26.7219 58.012 27.19 57.9723 26.9493L57.3706 26.7556C57.2888 26.6473 57.4031 26.6148 57.4561 26.5943C57.0686 26.3344 57.1023 26.8422 56.5607 26.3741C56.0794 26.5342 56.1516 24.8157 55.1756 24.5004C55.1287 24.2598 55.4428 24.4078 55.5234 24.2537C54.4729 23.5714 54.6606 23.6376 53.6582 23.1972L53.3224 22.3813C53.4837 23.0552 52.681 22.7086 51.9915 22.4005C52.0192 22.6689 52.0396 22.8963 52.0721 23.0359L51.1756 22.3608C51.1419 22.214 51.3224 22.1996 51.5775 22.22C51.5095 22.1878 51.4401 22.1589 51.3693 22.1334C51.2297 21.7314 51.5498 21.7242 51.9181 21.7784L51.9782 22.2537C52.3525 22.2874 52.734 22.2874 52.888 22.0792C52.7692 22.037 52.66 21.9715 52.5667 21.8867C52.6678 21.8927 52.7472 21.8867 52.7544 21.8325C52.7604 21.7723 52.6136 21.7519 52.4127 21.6845L52.6076 21.1839L52.4271 21.2633L51.7051 19.9865C50.6678 19.5316 49.5438 19.3307 48.326 18.2272C48.8554 18.3006 48.8145 17.9191 49.1418 17.6652C49.1021 18.2873 50.1118 18.4955 50.6004 19.1899C50.3464 18.8289 50.5606 18.7687 50.681 18.8084L49.3898 17.9395C49.6701 17.7458 49.3693 17.5304 49.2225 17.1429C48.9144 17.8048 48.1515 16.5893 47.5979 16.2608C47.7447 16.0863 48.0119 16.0466 48.4607 16.6483C48.2995 15.6976 47.1695 16.3535 46.9613 15.4642C47.0816 15.5978 47.1226 15.6988 47.2561 15.6784C46.8277 15.4846 46.2658 14.5953 46.5738 14.6483L46.6942 14.7819C45.9649 13.8119 44.3066 11.9731 43.7579 12.2066C43.8048 12.1537 44.3873 11.8865 44.5208 11.866L41.664 11.4449C42.1598 11.2764 42.581 9.96589 43.4366 10.5616C43.2604 10.1737 42.9747 9.84576 42.6147 9.61811C42.6869 9.81306 42.386 10.4484 42.179 10.2679C42.1261 9.35096 42.0719 9.6855 41.8445 8.69511C41.9528 8.98994 41.1562 9.23062 40.8746 8.85636C41.0093 8.83591 41.4305 8.34131 41.6038 8.42074L40.2861 8.00677C40.5749 8.14035 40.8084 7.63853 40.8084 7.30399C40.7675 7.49172 40.179 6.52179 39.9251 6.33406L40.1056 6.82263C39.3631 5.73958 38.4666 6.49531 37.6784 5.45799C37.8986 5.48446 38.6675 5.15714 38.3198 4.58192C38.0719 4.58192 37.5039 4.61562 36.8757 4.55545C36.2066 4.44714 35.6651 4.47482 35.3775 4.35448C35.3775 4.24136 35.3835 4.12704 35.3775 4.0067C35.2346 3.94206 35.0869 3.88855 34.9358 3.84665C35.0959 3.5783 35.4641 3.3316 36.0863 3.40501C36.3871 3.43148 36.7481 3.53136 37.1092 3.6854C37.203 3.72631 37.2897 3.76602 37.3763 3.79972C37.4509 3.82619 37.5243 3.84665 37.5977 3.86591L37.9792 3.99948C37.8914 3.75279 37.9251 3.6866 37.9118 3.61199C37.8986 3.52535 37.8986 3.50489 37.4966 3.02233C37.3498 2.50848 38.1994 3.39779 38.2536 3.44472C38.1525 3.28467 37.7915 2.80933 37.5111 2.4086L36.6073 1.1643C36.4665 1.71304 35.0947 -0.0390942 35.1212 0.60833C35.7036 1.09691 36.345 1.67935 37.0743 2.33399C36.9876 2.56263 36.5592 2.5145 36.1248 2.36769C35.6132 2.19009 35.1645 1.86725 34.8335 1.43867C34.7938 1.43867 34.7469 1.51087 34.7012 1.54577C34.493 1.5578 34.7541 0.636007 34.8937 0.173906C34.9237 0.130682 34.9404 0.0796665 34.9418 0.0270923C34.9346 0.0270923 34.9214 0.0270923 34.9009 0.013855C34.647 0.461516 33.777 1.55901 33.6494 1.53133L34.1452 0.668499C33.771 0.936855 33.4833 1.4507 33.2427 1.87189C32.9875 2.30752 32.7541 2.66853 32.2258 2.91643C32.085 3.04399 31.7637 3.17035 31.5098 3.27745C31.3088 3.3316 31.1488 3.39779 31.2282 3.50609C31.9177 3.52535 33.1211 4.56146 33.1945 5.04402C33.1019 5.08975 31.8311 5.77207 31.4231 5.82623C30.8142 5.8864 31.2017 4.66255 30.6806 4.70948C30.7601 4.80214 30.6927 5.09697 30.653 5.20287C30.3726 5.34487 30.4604 4.8563 30.0645 5.35811C30.3256 5.7456 29.1415 6.27389 30.1379 5.83947C29.8034 6.38099 29.6168 6.26065 29.1211 6.8094C29.4965 6.84309 29.3954 7.97307 29.0681 8.52182C29.0079 8.41352 28.801 8.41352 28.7071 8.41352C27.8045 9.32448 27.1752 9.67828 26.3593 10.5483C26.2052 10.5483 25.7094 10.8829 25.7371 10.5688C25.6769 10.7493 25.6842 10.9695 25.4423 11.2511C24.6673 11.5038 25.9573 10.6085 25.2425 10.6819C25.4026 10.8961 24.8611 11.6326 24.6204 12.126C25.0283 12.2872 25.5025 11.2908 25.7443 10.7962C26.1583 11.1765 25.9646 12.2535 25.3087 13.3438C24.7407 14.1669 24.7467 13.4112 24.6938 13.5917C23.3556 14.8962 24.3388 15.4245 22.9946 16.2873C22.3123 16.4943 22.4459 15.8252 22.1655 15.7458C22.6131 15.0562 23.1763 14.99 23.5373 14.5749L22.9549 14.9563C23.0415 14.688 23.3424 14.2271 23.6167 14.0803C23.0283 14.2403 21.4362 16.3547 20.2461 17.2103C20.1654 17.4774 19.9572 17.8926 20.2051 17.8324L20.4735 17.4642C20.9681 17.3511 20.1919 18.3668 20.6805 18.0334C20.4193 18.6219 20.1919 19.3379 19.4963 19.8662L19.0824 19.7121C19.1823 19.7783 19.6359 19.4582 19.7105 19.1971C19.6034 19.5846 18.4133 19.7988 18.5541 20.4546L19.1678 20.1995C18.9079 20.7952 18.7274 21.6448 18.1185 22.1201C18.654 22.1322 18.1991 21.9589 18.9151 21.8794C18.1654 21.8313 20.2388 20.4546 19.2761 20.5954C20.0583 20.5545 20.092 20.0395 20.9284 19.8192C20.8141 19.7458 20.5674 19.8313 21.0415 19.4101C21.0355 19.3644 21.0415 19.2777 21.0415 19.2296C21.0547 19.2175 21.062 19.2175 21.0752 19.2031L21.0415 19.2163C21.0415 19.1839 21.0415 19.1766 21.0295 19.2163C20.8814 19.291 20.7479 19.3307 20.654 19.3174C20.6408 18.8758 21.3291 18.1333 21.4434 17.7723C21.7443 17.5376 21.4494 17.9925 21.6961 17.9395L21.8646 17.398C22.1185 17.5653 22.914 16.9889 22.4398 17.7711L22.9886 17.1898C23.4302 16.9564 23.9176 16.5208 24.0981 16.1405C24.4062 15.9058 24.5 15.2103 24.4531 15.611L25.1691 14.5616L25.2293 14.6013C26.0981 13.712 26.6072 12.3871 27.9706 11.7192C28.1993 11.3582 28.4255 10.9828 28.9682 10.5279L29.2486 10.6085C29.5495 10.1536 30.5398 9.61209 30.5001 9.25709C31.4099 9.31726 32.3991 7.46404 33.1416 6.86957L32.9214 6.60843C33.267 6.25542 33.5781 5.87019 33.8504 5.45799C33.8841 5.37736 33.9178 5.29794 33.9587 5.21009L33.771 4.97663C33.8239 4.76243 34.0116 4.6084 34.1982 4.50731C34.3726 4.42187 34.5399 4.38096 34.6795 4.29431C34.7072 4.34124 34.7397 4.38096 34.7674 4.41465C34.7397 4.5013 34.7072 4.48204 34.6735 4.40141C34.653 4.38096 34.6326 4.39419 34.6133 4.37494C34.6338 4.40743 34.653 4.42187 34.6663 4.46158C34.7866 4.99108 34.907 4.91646 35.1549 5.00311C35.2752 5.0368 35.4088 5.10419 35.5159 5.19685C35.6964 5.38458 35.8913 5.65896 35.9707 5.94657C36.1894 6.06798 36.3524 6.26942 36.4256 6.50855C36.4092 6.48844 36.3887 6.47204 36.3655 6.46041C36.3787 6.48809 36.4124 6.52058 36.4389 6.5615C36.4798 6.69508 36.5195 6.84309 36.5797 6.98269C36.5625 6.85519 36.5311 6.73005 36.4858 6.60963C36.6326 6.78292 36.8877 7.03082 37.1621 7.25104L37.0081 7.56513C37.0081 7.56513 37.0406 7.59882 37.0682 7.61807C37.1886 7.95262 37.3559 7.7324 37.4293 7.43757C37.5761 7.53865 37.7301 7.61807 37.8637 7.66621C37.6362 8.20774 38.5737 8.24745 38.3787 8.89006C38.7337 8.89607 39.6363 10.0862 40.1838 9.85879C40.1381 9.91294 40.1718 10.0128 40.0514 9.87924C40.244 10.2138 40.4389 10.5483 40.7807 10.7096L40.5725 11.0971L41.5292 11.3775C41.6628 11.9262 41.6893 12.1801 41.1213 11.9996C42.2717 12.6145 41.8974 12.635 42.9263 13.1103L42.6929 13.2439C42.9408 13.5183 43.5894 13.7385 43.569 14.0466C43.723 15.0033 46.1647 17.1971 47.2008 19.096C47.5221 18.2741 47.5823 20.0659 48.0913 19.7386C48.0311 19.9528 48.1515 20.2404 47.8025 20.0936C48.6533 20.7892 48.6533 21.504 49.5293 21.7314C49.4692 21.9456 49.1743 21.7314 49.1611 21.8927C49.2478 21.9324 49.5101 22.0467 49.5029 22.1995C49.4957 22.3536 49.2814 22.1803 49.1082 22.1069C49.8567 22.9156 50.3525 22.6219 50.8061 22.3343C50.9806 22.9228 51.1948 23.1033 51.7231 23.1767C51.7231 23.4378 51.7905 23.7989 51.2947 23.3307C51.5294 23.6316 52.6329 25.2706 52.9795 25.0227C52.9795 25.1828 53.308 25.4511 53.4091 25.498C53.9506 26.1659 53.9699 26.2538 54.5451 26.8759L54.4452 26.6473C55.0541 26.5679 54.9867 27.1094 55.4753 27.5907L55.4223 27.6112C56.1372 29.0492 55.9903 28.0203 56.6462 29.4764L56.8399 29.2093C57.4681 28.882 57.3947 30.5282 58.1576 31.0493L58.0975 30.681C58.5921 30.9097 58.2238 32.3333 58.4657 32.7689C58.485 32.8893 58.2852 32.6943 58.1576 32.6077C58.639 33.8592 58.5921 32.4741 59.2612 33.1624C59.1938 33.444 58.6715 33.3429 59.0337 33.8724C59.0867 34.2334 60.7666 34.8821 60.9531 35.846C60.9736 35.5837 60.994 35.3297 61.3683 35.5981C61.6017 35.8448 61.7498 36.3129 61.9363 36.7353C61.9772 36.828 62.0566 36.9688 62.0699 37.0085C62.087 37.0564 62.1145 37.1 62.1505 37.136C62.2179 37.2094 62.325 37.2503 62.5115 37.2768C62.5032 37.2991 62.4899 37.3192 62.4726 37.3355C62.4553 37.3518 62.4344 37.3638 62.4116 37.3707C62.7125 37.5307 63.2143 38.059 63.8028 38.3539C63.0735 38.2997 63.4682 38.6066 64.0097 39.1288L64.1108 39.2227C64.1108 39.2227 64.2047 39.3033 64.171 39.2961C64.1492 39.3159 64.1244 39.3322 64.0976 39.3442C64.0285 39.3766 63.9522 39.3903 63.8762 39.384C63.6896 39.384 63.4478 39.2901 63.0675 39.035L62.2973 39.0891L62.2251 38.982C61.6956 38.9158 61.6559 39.1625 61.4622 39.4032C61.2937 39.337 61.3948 39.2359 61.3888 39.183L61.0999 39.1156C60.9662 39.1038 60.8326 39.0905 60.6992 39.0759C60.4877 39.0575 60.2749 39.0595 60.0638 39.0819C59.6823 39.13 59.3285 39.2696 58.692 39.5235L58.5656 39.189C58.225 39.384 56.3995 38.6679 54.9193 39.0566C54.9338 39.0157 54.9675 38.9555 55.0806 38.9086C53.4223 39.2961 51.1214 37.9928 50.5053 39.1962L49.409 39.4911C50.8194 39.5837 49.1948 40.0121 49.776 40.2131C49.2225 40.2865 48.338 39.8521 49.0275 39.7847L49.1346 39.8449C49.3885 39.2167 47.3753 39.6246 47.415 39.1962C44.6328 39.2299 41.9167 38.8821 39.309 38.8545L39.6098 39.343L38.7 39.3166C38.4594 39.2034 38.3787 38.9351 39.0274 38.9555C38.6868 38.6812 37.9371 39.189 37.9178 39.2961C36.6471 39.0963 38.4124 38.7281 38.0249 38.7149L37.4954 38.7486L37.6158 38.8087C37.1886 39.0085 37.1477 39.2227 36.3655 39.1962C35.8709 39.0963 36.1115 38.8954 35.9178 38.8749C35.9178 38.8412 35.8504 38.822 35.617 38.8629L34.4737 38.822L34.9274 39.2095C34.4196 39.3972 33.8504 39.189 34.3787 39.6246C33.6037 38.9483 30.1054 39.384 29.6229 39.1698C28.9141 39.4501 28.2125 39.4441 27.3424 39.4104C27.5566 39.4911 27.6914 39.9255 26.9417 39.8713C27.2149 38.976 25.5698 39.4838 24.9609 38.8352C25.5025 39.2636 22.8273 38.9423 23.6769 39.5512C23.0487 39.4766 23.6372 39.2167 23.1619 39.0025C21.6697 39.3503 19.8778 38.7738 18.0318 38.8942C18.0053 39.0145 18.3122 39.189 17.9175 39.3707L16.9415 38.7811C16.5805 38.8412 16.607 39.4634 15.9451 39.0494C16.039 39.1493 16.1786 39.2961 15.9379 39.337C12.3265 38.7618 8.56715 39.8051 4.89561 38.7281C5.389 38.9555 5.06168 38.976 4.68141 38.9892C4.9281 39.0422 4.68141 39.2769 4.72834 39.4369L3.1892 38.9953C2.91483 39.4369 1.54417 39.0229 1.39014 39.4501L1.87871 39.3779C1.2361 39.8785 2.79449 40.4875 2.70063 41.1289C3.41665 40.5609 4.61402 41.9712 5.79815 41.1565C6.05929 41.2889 5.57673 41.3635 5.71753 41.5103C6.01837 41.236 6.37939 41.1758 7.0557 41.3034L6.98229 41.3695C8.87522 41.3034 9.6839 41.5705 11.8115 41.751L11.6502 41.4369C12.1051 41.4766 12.2062 41.5777 12.4204 41.6572C12.9415 41.1758 11.1352 41.6307 11.6105 41.1036C12.2194 41.745 14.8284 41.1096 15.2424 41.8449C15.9451 41.8449 15.0354 41.4766 15.7382 41.4839L15.9247 41.6848L16.0992 41.4297C16.5601 41.4706 16.7947 41.7185 16.808 41.8846C16.6936 41.8653 16.4939 41.9327 16.3735 41.9448C16.968 42.1794 18.0583 41.8653 18.2593 41.9448L17.5842 41.8244C19.4975 41.6379 21.8381 41.899 23.6902 41.4971L23.5494 41.3503C24.9609 41.0759 24.6805 41.5176 26.2329 41.3828L26.1788 41.4165C26.4868 41.2697 26.9008 41.189 27.3292 41.2095C26.9345 41.384 28.0645 41.5513 27.5494 41.745C29.0813 41.4502 28.3052 41.5103 29.322 40.9556L29.5567 41.2035C29.9045 40.9748 29.9309 40.8617 30.7071 40.7943C30.0717 41.0085 31.2017 41.1758 30.4857 41.4562C32.1115 41.9977 32.9009 40.9086 33.6506 41.7041C34.3991 41.0157 32.2451 41.3238 32.6602 41.1758C32.3112 40.9484 33.2752 40.6607 33.7914 40.7342C34.3125 40.7474 34.6735 41.6102 35.978 41.597C35.8504 41.597 35.8372 41.6451 35.7096 41.6451C36.1982 41.8184 36.6663 41.4105 37.2692 41.6909C37.6025 41.2769 38.0442 41.7173 38.1453 41.183L36.9479 41.3034C37.6302 41.1626 38.2656 40.5476 39.3896 40.8485C39.3017 40.9556 38.9684 41.0964 38.7397 41.1758C39.0683 41.3298 39.3691 41.0759 39.7097 41.23C39.6098 41.7582 38.2524 41.3431 37.5231 41.751C37.8709 41.9724 38.901 41.3695 38.5328 41.9388C39.0623 41.2095 39.824 42.0326 40.7061 41.4694L40.6459 41.7847C40.7867 41.7378 41.0743 41.5838 41.3355 41.591L40.8661 42.0061C41.5834 41.6572 42.2452 42.313 42.9336 42.1193C41.4955 42.1265 42.6135 41.7378 42.0045 41.5043C43.7832 41.0759 43.0214 42.3335 45.007 42.1794C44.7399 42.2264 43.9974 41.9857 44.4185 41.8449C44.8 41.9123 45.2946 42.0326 45.5293 42.1999C46.847 42.1325 45.3283 41.8714 45.8903 41.6776C46.3392 42.0651 46.5401 41.5176 47.1141 41.3972V41.7173C48.6184 41.9255 47.5161 41.0434 48.8663 41.2961L48.2923 41.745L48.9938 41.6307L48.847 41.9989C49.616 41.7245 49.8507 41.798 50.6064 41.8978C50.4319 41.6716 50.7063 41.3094 51.3753 41.3034C51.8302 41.4971 51.1214 41.6102 52.0637 41.5645C51.8495 41.7643 51.616 42.0194 51.2081 41.7245C51.1684 41.8316 50.9939 41.9255 50.9542 42.0326C51.4415 42.2528 52.178 42.0856 52.5186 42.0795C52.3862 42.0651 52.231 42.0519 52.1515 42.0049L53.5234 41.5573C53.7364 41.6776 53.5619 41.7787 53.3946 41.8714C53.669 41.8377 53.864 41.6909 54.2719 41.6572C54.1636 41.9183 54.1841 42.1927 53.61 42.313L54.9133 42.0194C55 42.1325 55.5752 42.3323 55.4079 42.4273C56.1299 42.5814 57.1805 41.9183 58.1372 42.1193C58.1853 42.0663 58.2852 42.0194 58.4922 41.9785C58.9398 42.0061 59.361 42.106 59.8099 42.1469C60.0388 42.1674 60.2688 42.1714 60.4982 42.159C60.6186 42.153 60.7389 42.1325 60.8665 42.106C60.9266 42.0928 60.994 42.0795 61.0602 42.0579L61.3743 41.9977C61.7233 42.153 62.1036 42.313 62.5248 42.467C63.2817 42.4141 62.8328 42.2661 62.5524 42.106C62.2636 41.952 62.1505 41.7847 63.1878 41.6909C64.6199 41.544 64.0374 42.0928 64.7197 42.2264L65.2817 42.0194C65.4743 41.9387 65.6824 41.8653 65.9159 41.8052C66.3973 41.6909 66.9737 41.6511 67.9761 41.8244C67.6488 41.9183 67.1747 41.8653 66.7787 41.9051L66.8064 41.9388L66.8076 41.9375ZM62.1252 32.4067C62.2997 32.521 62.7149 32.7076 62.6547 32.9422C62.2191 32.9891 62.2528 32.7412 62.1252 32.4067ZM51.4632 20.8421C51.6437 20.883 51.752 21.09 51.8314 21.3716C51.6691 21.2262 51.543 21.0449 51.4632 20.8421ZM23.2906 16.6086V16.5821C23.6853 16.3414 23.5373 16.4209 23.2906 16.6086ZM22.5614 17.1971C22.5349 17.2969 22.5674 17.3234 22.6276 17.3234C22.6083 17.2235 22.7479 17.0635 22.9224 16.9094C22.8153 16.9022 22.695 16.9492 22.5614 17.2031V17.1971ZM35.8456 39.0145L36.0261 39.1024C35.617 39.1962 35.7313 39.1084 35.8456 39.0145Z" fill="#FFBF00"/>
<path d="M52.9685 21.8903C52.9685 21.9709 52.9276 22.0178 52.8951 22.0708C52.9877 22.0985 53.0359 22.0588 52.9685 21.8903ZM58.1984 42.1457H58.1659C58.1659 42.1457 58.1382 42.1794 58.1322 42.1999L58.1924 42.1457H58.1984ZM30.3255 4.8551C30.4374 4.77614 30.5658 4.72349 30.7009 4.70107C30.648 4.6409 30.5397 4.65413 30.3255 4.8551ZM19.6779 21.1707L20.0124 20.6761C19.8319 20.8963 19.7116 20.9228 19.578 20.9962C19.6442 21.0371 19.7982 21.0299 19.6779 21.1707ZM14.762 23.6521C14.7356 23.7447 14.6417 23.7916 14.6152 23.8795L14.7416 23.9589C14.9823 23.6785 15.0629 23.4042 14.762 23.646V23.6521ZM18.5142 20.8542C18.2796 20.7074 18.099 21.0419 17.8584 21.3837C17.8716 21.3632 17.8921 21.3427 17.9053 21.3295C18.1063 21.6785 18.3072 21.2621 18.507 20.8542H18.5142ZM17.8054 21.4631C17.7316 21.568 17.6465 21.6645 17.5515 21.7507C17.6321 21.8915 17.6791 21.6568 17.8054 21.4619V21.4631ZM21.9066 18.1718C21.7188 18.2717 22.0799 18.4991 21.9186 18.5064C22.0269 18.9011 22.495 17.2621 21.9066 18.1718ZM17.6249 20.5076L17.9715 20.6207L17.9318 20.2669L17.6249 20.5076ZM20.0064 18.2452L19.4914 18.6736C19.5383 18.7073 19.5034 18.7867 19.4577 18.8806C19.7381 18.587 20.0931 18.2994 20.0064 18.2452ZM19.4577 18.8818C19.3097 19.0358 19.1761 19.1899 19.1424 19.3174C19.2607 19.1823 19.3662 19.0364 19.4577 18.8818ZM18.1592 19.7663L18.3397 19.6664L18.6755 19.3379L18.1592 19.7663ZM24.8753 13.049L25.2965 12.4533C25.2628 12.3197 25.0763 12.4196 24.9283 12.6471C24.8681 12.8276 24.7213 13.055 24.8753 13.049ZM22.7165 14.0334C22.897 13.9395 22.9631 13.9792 23.1172 13.9732L22.8296 13.6723L22.7153 14.0334H22.7165ZM24.0799 12.4148C24.0462 12.2812 24.5552 11.4184 23.9463 12.1067C23.98 12.2403 23.5576 12.836 24.0799 12.4148ZM31.9176 4.82983L31.7972 4.9622L32.3123 5.41829L31.9176 4.82983ZM39.7179 5.30517C39.304 4.54222 39.2631 5.41107 38.9357 4.68903C38.6818 4.63608 39.2029 5.28471 38.9694 5.2113C39.4243 5.50493 39.5242 5.77449 39.7179 5.30517Z" fill="#FFBF00"/>
<path d="M38.9696 5.2101C38.8894 5.1589 38.8067 5.1119 38.7217 5.06931C38.8492 5.15595 38.9154 5.18964 38.9696 5.2101ZM2.19397 38.6667L1.63921 38.5199L2.00023 38.7534L2.19397 38.6667ZM1.13739 39.1686L1.00262 38.7341L0.675293 39.1276C0.802852 39.1084 1.04353 39.0747 1.13739 39.1686ZM61.852 30.6534L61.7437 30.6859C61.7112 30.8267 61.7846 30.9338 61.9314 31.148L61.852 30.6594V30.6534ZM67.2155 38.2793L67.0952 38.0987C67.0086 38.2071 66.9147 38.2997 66.8148 38.3803C66.9499 38.353 67.0836 38.3193 67.2155 38.2793ZM64.2251 42.8148C64.7474 42.8269 65.2757 42.7402 65.7895 42.7607C64.7197 42.8341 63.7907 42.3263 64.2251 42.8148ZM6.30114 40.5007C6.32882 40.266 6.04843 40.3539 5.99428 40.3202C6.05445 40.7077 6.37575 40.4935 6.30114 40.5007ZM6.94977 44.3516L6.83665 44.2854L7.12426 44.8534L6.94977 44.3516ZM6.94977 47.9581C7.4239 47.6176 6.87516 46.6536 7.04243 46.005L7.15073 45.8979L6.76926 45.6103C6.82943 46.3925 7.08214 47.4094 6.94977 47.9581ZM5.91245 49.8835C6.10017 49.7632 6.0737 50.2975 5.97262 49.4347C5.95336 49.4744 5.94012 49.4876 5.92568 49.5153C5.92568 49.5959 5.92448 49.7018 5.91245 49.8835Z" fill="#FFBF00"/>
<path d="M5.92672 49.5165C5.77268 49.7632 5.91348 49.135 5.92672 49.5165V49.5165ZM6.0266 51.2686L5.86534 50.768C5.75824 50.8739 5.72575 51.3156 5.65234 51.1483C5.73899 51.6633 5.85211 51.5574 6.03261 51.2686H6.0266ZM6.37438 51.7428L6.30819 51.4816C6.26006 51.5298 6.24802 51.5959 6.37438 51.7428Z" fill="#FFBF00"/>
<path d="M6.16167 50.9341L6.30849 51.4828C6.38911 51.4094 6.54195 51.4022 6.25433 51.2277C6.39513 51.2759 6.25433 51.1615 6.16167 50.9269V50.9341ZM6.23388 50.626C6.34218 50.3444 6.40235 49.9834 6.56842 50.4852C6.50103 49.5285 6.16769 49.6693 6.23388 50.626ZM7.44449 48.1434L7.58528 47.7704L7.42523 47.4419C7.50466 47.6019 7.29767 48.1639 7.44449 48.1434ZM5.76456 54.3842C5.86564 54.4179 6.04013 54.217 6.16649 54.1833L6.05337 53.8162C5.97996 54.0027 5.91979 54.365 5.76456 54.3914V54.3842ZM6.16769 54.1772L6.34218 54.7332C6.36144 54.2374 6.28201 54.1508 6.16769 54.1772ZM6.90176 51.8366L6.54074 50.9269L6.90898 52.0099L6.90176 51.8366ZM5.74049 56.4926L5.50583 56.1785L5.85361 56.7405L5.74049 56.4926ZM5.76456 57.8969C5.57201 57.6623 5.43122 58.211 5.31689 57.9643C5.35059 58.3446 5.51184 58.6731 5.65866 58.9667C5.57803 58.6538 5.6033 58.3253 5.76456 57.8969ZM5.87286 59.4553C5.82713 59.3025 5.7465 59.1424 5.65986 58.9619C5.70679 59.128 5.76576 59.288 5.87286 59.4553ZM6.28081 55.6779C6.22064 55.7176 6.05939 55.7982 5.98598 56.1111L6.27479 55.8981V55.6779H6.28081ZM6.28683 55.8848H6.28201C6.26878 56.1255 6.26156 56.2928 6.26156 56.359C6.26156 56.2988 6.27479 56.158 6.28803 55.8836L6.28683 55.8848ZM6.28201 55.6237V55.6767C6.30849 55.6562 6.32172 55.643 6.28201 55.6237ZM6.63581 53.2819C6.79586 53.6104 6.96313 54.2855 7.21103 53.6309C7.01728 53.3962 6.87649 53.7705 6.63581 53.2819ZM6.64303 55.3554L6.70922 54.7681C6.63701 54.7801 6.52269 54.8812 6.44206 54.72L6.63581 55.3566L6.64303 55.3554Z" fill="#FFBF00"/>
<path d="M6.72931 55.643L6.64267 55.3553L6.61619 55.5696L6.72931 55.643ZM6.14687 58.4529C6.26721 58.7068 6.27323 58.9884 6.29368 59.3025C6.35385 58.9679 6.38755 58.6201 6.38755 58.2916C6.3009 58.2459 6.13965 58.0991 6.14687 58.4601V58.4529ZM6.24073 57.2086C6.24073 57.2086 6.25397 57.2483 6.25397 57.2615C6.28045 57.229 6.28767 57.2013 6.24073 57.2086ZM6.25999 62.3843L6.31414 62.3374L6.266 62.3242L6.25999 62.3843ZM6.44772 58.2314C6.47268 58.1383 6.47666 58.0407 6.45939 57.9459C6.44212 57.851 6.40402 57.7611 6.34784 57.6827C6.37431 57.8692 6.39477 58.0702 6.39477 58.2844C6.43448 58.3049 6.46095 58.3121 6.44772 58.2314ZM6.00006 60.3193C6.06023 60.1858 6.11317 60.0389 6.16011 59.8849C6.06624 60.0113 5.92665 60.2724 6.00006 60.3193ZM6.17334 57.3482L6.16131 57.3084C6.10114 57.3891 6.12641 57.3819 6.17334 57.3482ZM6.17334 57.3482C6.21426 57.4757 6.28165 57.5828 6.34784 57.6827C6.32902 57.5398 6.29761 57.3989 6.25397 57.2615C6.23472 57.2952 6.19982 57.3217 6.17334 57.3482ZM8.08673 63.341C7.81838 63.2941 7.58492 62.6262 7.87855 62.057C7.686 61.489 6.80753 61.85 6.32016 62.3386C6.43448 62.3579 6.54158 62.3579 6.69441 62.9403C6.84243 62.7393 7.04941 61.6563 7.28407 62.1509C7.41043 62.9211 7.18299 62.7791 7.03617 63.1545C7.37072 62.8392 7.50429 64.1377 7.99287 63.9764L7.83161 63.3013C7.90502 63.2881 8.02656 63.5348 8.09997 63.3483L8.08673 63.341Z" fill="#FFBF00"/>
<path d="M6.35418 61.2351L6.32771 60.9944C6.28078 61.2676 6.16766 61.4625 5.95947 61.8163C6.08703 62.2183 6.1809 62.2977 6.26754 62.3254L6.32169 61.1473L6.3614 61.2279L6.35418 61.2351ZM6.33493 59.9162C6.62254 60.1039 6.73566 60.6791 7.05696 60.3314C7.04493 59.6286 6.82351 59.8368 6.70317 59.4156C6.76334 60.5456 6.54191 59.0871 6.37464 59.903C6.33527 59.7021 6.31113 59.4985 6.30244 59.294C6.2693 59.4907 6.22429 59.6852 6.16766 59.8765C6.17488 59.8693 6.1809 59.856 6.18812 59.85C6.22061 59.8019 6.24829 59.7826 6.22783 59.8428V59.8693C6.26766 59.8776 6.30459 59.8963 6.33493 59.9234C6.27476 60.2507 6.26152 59.9764 6.22783 59.8693C6.21459 59.8693 6.20135 59.8572 6.18812 59.8572L6.33493 60.9932C6.37464 60.7526 6.37464 60.4517 6.34817 59.9222L6.33493 59.9162ZM7.82593 54.2458C7.79946 54.2795 7.77779 54.2795 7.75854 54.2795C7.79224 54.3529 7.81871 54.3794 7.82593 54.2458Z" fill="#FFBF00"/>
<path d="M7.65261 54.7055C7.6117 54.6261 7.49858 54.5527 7.53227 54.2843C7.61892 54.0509 7.67187 54.2843 7.76573 54.2783C7.69353 54.1183 7.56597 53.7103 7.41795 54.2182L7.45887 54.2988C7.35778 54.7537 6.99677 55.3349 6.95705 55.2615C7.2299 55.1348 7.46994 54.947 7.65863 54.7127L7.65261 54.7055ZM7.07017 57.3482L7.20375 58.2916L7.45887 57.8103L7.31085 57.8295C7.37102 57.2952 7.19051 57.4083 7.07739 57.341L7.07017 57.3482ZM6.1207 62.4939L5.81263 62.3663L6.24104 62.9151L6.1207 62.4939ZM6.13995 63.7189L5.8728 63.6708L6.03285 63.9993L6.13995 63.7189ZM45.8109 90.8517L46.0793 90.7519C45.986 90.7737 45.8958 90.8073 45.8109 90.8517ZM43.8109 91.0058L43.7712 91.1394C43.8578 91.0587 43.8915 91.0058 43.8109 91.0058ZM5.43115 95.4006C5.37099 95.5955 5.3048 95.8025 5.24463 96.0023C5.55751 96.2165 5.92695 96.3982 6.04007 96.1635C6.04007 96.0696 6.06053 95.9698 6.07376 95.8759C5.83651 95.9083 5.59647 95.9151 5.35775 95.8964C5.37821 95.7219 5.40588 95.5618 5.43115 95.4078V95.4006ZM27.5182 93.575C27.4781 93.5481 27.438 93.5212 27.3978 93.4944C27.304 93.5955 27.2173 93.6954 27.1367 93.7832C27.251 93.723 27.3846 93.6484 27.5182 93.575ZM27.7516 92.3644L28.2932 92.5317C28.1728 92.4715 27.9995 92.4186 27.7516 92.3644ZM56.6607 89.4594L56.9483 89.1321C56.4465 89.1923 56.6871 89.3126 56.6607 89.4606V89.4594ZM6.03405 76.2787C5.93302 76.5569 5.86791 76.8468 5.84031 77.1415C6.0136 76.7263 6.27473 76.3918 6.03405 76.2787ZM45.2971 93.9902C45.4643 93.9228 45.5317 93.8554 45.5173 93.7952C45.35 93.8626 45.2573 93.9228 45.2971 93.9902ZM5.81865 78.1512C5.85234 78.091 5.86558 78.0308 5.89205 77.9707C5.84265 77.6993 5.82489 77.423 5.8391 77.1475C5.71154 77.4556 5.6249 77.8094 5.81865 78.1512ZM57.6848 55.3758C57.6848 55.3758 57.6968 55.3096 57.7112 55.2819C57.6703 55.2819 57.6703 55.3156 57.6848 55.3758ZM59.7774 43.5898C59.8039 43.7029 59.8099 43.8907 59.8304 44.064C59.8436 43.9773 59.8304 43.8365 59.7774 43.5898ZM5.94019 68.6528C5.90649 68.6119 5.92695 68.3917 5.94019 68.6528V68.6528ZM7.11109 67.4037C7.14478 67.4566 7.18449 67.5036 7.25188 67.5108C7.19263 67.4944 7.14211 67.4568 7.11109 67.4037ZM7.56597 80.7866V80.8058C7.62614 80.7336 7.6129 80.7457 7.56597 80.7866ZM6.07978 68.2653C6.03885 68.3739 6.00744 68.4858 5.98592 68.5999C6.00637 68.5469 6.04007 68.447 6.07978 68.2653ZM5.93899 68.3123C5.95343 68.2244 5.95944 68.151 5.97268 68.0836C5.92575 68.0511 5.89326 68.0836 5.93899 68.3123Z" fill="#FFBF00"/>
<path d="M5.95318 69.0138C5.95318 68.867 5.96642 68.7262 5.98687 68.5927C5.96642 68.6456 5.94716 68.6661 5.93994 68.6528C5.93994 68.7262 5.93994 68.8405 5.95318 69.0138ZM59.7579 76.5447C59.7579 76.5447 59.77 76.5049 59.7844 76.4917C59.6569 76.2306 59.6773 76.3509 59.7579 76.5447ZM13.6248 92.6965C13.6248 92.6965 13.6055 92.711 13.5983 92.711C13.6116 92.711 13.6248 92.7182 13.638 92.7182V92.6905L13.626 92.6978L13.6248 92.6965ZM14.555 92.4655C14.1675 92.8337 13.9401 92.7928 13.6392 92.7266L13.9666 93.5558L14.5622 92.4655H14.555Z" fill="#FFBF00"/>
<path d="M50.5799 90.3174L49.9048 90.1249C50.6473 89.6219 51.2285 89.7085 50.5871 89.4077C50.5871 90.3247 48.0648 89.7422 48.0588 90.652L47.6099 90.5052C47.7375 90.5052 47.7507 90.445 47.871 90.445C46.995 90.09 47.3091 91.155 46.2188 91.1273C45.8385 91.0936 45.5641 90.9865 45.8108 90.8529L44.9949 91.1538C44.7482 91.1538 44.7952 90.9937 45.0431 90.9937L43.7711 91.1803V91.1538C43.611 91.3138 43.2163 91.569 43.0226 91.6761C42.688 91.575 43.1754 91.5678 43.0828 91.4619L42.3932 91.7423C42.0851 91.5353 42.6544 91.2537 43.1429 91.2477C42.4065 90.3981 42.5737 91.528 41.102 91.1201L41.7578 90.9468C41.2825 90.4655 40.7747 90.7061 39.9985 90.4378C40.1862 90.599 41.5701 91.1201 40.8216 91.4149C40.6014 91.3668 40.3138 91.3548 39.919 91.569C39.8914 91.2477 39.4906 91.3548 38.9888 91.4149V90.9865C38.4593 91.155 38.5135 91.368 38.2066 91.5822C37.5977 91.5822 37.4437 91.2609 37.2836 90.9865C36.3065 90.9865 37.9924 91.4751 36.842 91.6291C36.0189 91.5148 35.4641 91.729 34.5074 92.0371C33.9322 91.9228 34.594 91.7687 34.3798 91.6628L33.8985 92.0299C33.7721 92.0299 33.8118 91.9228 33.8251 91.8698C33.4099 92.0238 33.8118 92.297 33.15 92.451C32.9959 92.9324 31.7444 91.8361 30.9418 92.4053C30.7348 92.291 31.0296 92.137 30.9562 91.9769C29.8382 92.3849 29.9935 92.2778 29.0825 92.7928L28.2738 92.5449C28.8683 92.8397 28.1391 93.2549 27.4977 93.5955C27.7119 93.7423 27.8924 93.8698 28.0187 93.93L26.9826 94.2044C26.855 94.137 26.9561 93.9902 27.1162 93.8025C27.0488 93.8434 26.9826 93.8759 26.9284 93.9108C26.5482 93.7627 26.7359 93.5088 26.9886 93.2609L27.3773 93.5088C27.624 93.2405 27.8514 92.9396 27.7913 92.6929C27.6906 92.7587 27.5769 92.8018 27.4579 92.8193C27.5241 92.7459 27.5638 92.6785 27.5301 92.6388C27.4904 92.5918 27.3906 92.6917 27.2233 92.8121L26.9694 92.3439L26.9152 92.5389L25.5373 92.291C24.5806 92.806 23.7515 93.5425 22.2063 93.7892C22.5818 93.4282 22.2737 93.214 22.2798 92.7988C22.7154 93.2272 23.4771 92.5714 24.2798 92.6388C23.8586 92.6051 23.9452 92.4041 24.0463 92.3307L22.6275 92.7796C22.648 92.4378 22.3147 92.5317 21.9392 92.4041C22.24 93.066 20.8826 92.8855 20.3074 93.1069C20.2665 92.8867 20.4013 92.652 21.1101 92.6857C20.3074 92.2044 20.1197 93.5016 19.3302 93.0937C19.5047 93.0804 19.5986 93.1141 19.6648 92.9998C19.2641 93.214 18.2664 93.0804 18.4939 92.8795H18.6684C17.5107 92.8193 15.1569 92.9529 14.9956 93.5221C14.9836 93.4487 15.1304 92.8325 15.1966 92.7194L13.1773 94.6725C13.3506 94.1767 12.6286 93.0335 13.5853 92.7326C13.3109 92.6652 12.9691 92.5918 12.3939 92.7796C12.5816 92.8458 12.8753 93.4751 12.6226 93.5281C11.9065 92.9998 12.1268 93.2477 11.2507 92.7988C11.5311 92.8999 11.2374 93.6689 10.7886 93.6556C10.856 93.5413 10.7417 92.8999 10.9029 92.8193L9.81264 93.5895C10.1002 93.4487 9.77894 92.9529 9.71877 92.7387C9.75247 92.8867 9.27713 92.7326 9.10986 92.806C9.1561 92.8707 9.21027 92.9293 9.27111 92.9805C9.04247 92.9396 8.82225 93.0732 8.5214 93.2609C8.22657 93.4414 7.86555 93.6893 7.47084 93.8361C7.35772 93.7832 7.29033 93.6147 7.31079 93.2946C7.46482 93.3608 8.28072 92.7928 8.39384 92.4041C8.2013 92.4523 7.73197 92.5184 7.29033 92.2308C7.03533 92.057 6.8247 91.8258 6.6754 91.5557C6.50091 91.2669 6.36131 91.0202 6.29392 90.7326L6.52257 90.5316L6.29392 89.682C6.57552 89.9504 7.00994 90.4642 7.43113 91.013C7.8463 91.6556 8.26147 91.936 8.49492 92.0359C8.67543 91.7555 8.76208 91.8963 8.74884 91.6087C8.95582 91.522 9.05691 91.7158 9.07014 91.7555C9.09662 91.6616 9.11708 91.6231 9.14355 91.5088L9.23741 90.6929C8.78253 90.7531 8.82225 89.4281 8.44799 89.4823L8.86316 91.2681C8.4143 91.3283 7.61886 90.2043 7.73197 89.0467C7.9197 88.759 8.52862 89.2873 8.67543 89.2681C8.52862 89.114 8.4143 88.1634 8.5214 88.0575L8.74884 88.5509C8.93657 87.9095 8.18686 87.4823 8.63572 86.7265C8.66821 86.4582 9.23741 85.9443 8.96906 85.8902C8.44799 86.3114 6.85591 86.3511 6.48165 86.0502C6.52136 85.9564 7.00994 84.6663 7.27108 84.3655C7.68504 83.9371 8.21333 85.0466 8.56833 84.6856C8.44799 84.6663 8.30118 84.4184 8.25425 84.3173C8.36736 84.0369 8.6285 84.4449 8.58879 83.836C8.13391 83.7229 8.65497 82.5989 8.20731 83.5351C8.09299 82.9334 8.31441 82.907 8.31441 82.2042C8.01357 82.4184 7.33125 81.5483 7.21091 80.9527C7.32403 80.9936 7.47806 80.86 7.55147 80.7998C7.61886 79.582 7.84028 78.9273 7.87277 77.7901C7.98589 77.6891 8.13391 77.1403 8.32043 77.381C8.24101 77.2149 8.09299 77.0609 8.08697 76.7131C8.49492 76.044 8.13391 77.4953 8.61526 76.9875C8.35413 76.9394 8.26628 76.0705 8.11345 75.5687C7.69828 75.7167 8.01357 76.7264 8.1664 77.2282C7.60562 77.2209 7.0304 76.3316 6.79574 75.1415C6.6754 74.1908 7.16999 74.7396 7.09057 74.5723C7.22294 72.7997 6.13387 73.0404 6.5683 71.5758C6.93653 71.0006 7.28431 71.5626 7.54545 71.435C7.66579 72.2112 7.29755 72.6132 7.29755 73.1342L7.47806 72.4916C7.59118 72.7395 7.6718 73.2546 7.5647 73.5362C7.89925 73.0548 7.67902 70.5397 8.00033 69.1679C7.88601 68.92 7.76567 68.4988 7.61886 68.6997L7.66579 69.1342C7.37096 69.5289 7.27709 68.3123 7.13028 68.8598C6.93653 68.2786 6.62245 67.6167 6.80296 66.7996L7.21692 66.6528C7.09658 66.666 6.96301 67.1823 7.08335 67.4157C6.91006 67.074 7.65857 66.1714 7.12306 65.7839L6.82943 66.3519C6.62847 65.7623 6.20728 65.0402 6.34808 64.3122C5.93892 64.6395 6.39501 64.4795 5.91245 64.9873C6.50813 64.5456 5.8595 66.8405 6.48767 66.1305C5.93291 66.6528 6.24097 67.0415 5.75841 67.731C5.89319 67.7094 6.01955 67.4891 5.94614 68.098C5.98586 68.1245 6.03279 68.1919 6.06648 68.2304C6.06648 68.2521 6.06648 68.2581 6.05445 68.2713L6.06648 68.2388C6.06648 68.2388 6.09296 68.2653 6.06648 68.2244C6.12665 68.0776 6.20006 67.9645 6.27347 67.9175C6.58153 68.2244 6.55506 69.1943 6.70909 69.5229C6.63569 69.8839 6.55506 69.3688 6.40824 69.5626L6.6417 70.0572C6.34086 70.0981 6.12665 71.0078 5.9666 70.1582L5.94013 70.92C5.76563 71.3689 5.68501 71.9838 5.80535 72.3725C5.73314 72.7335 6.12063 73.2883 5.89319 72.9742L6.05325 74.1776H5.98104C5.92087 75.3689 6.4287 76.6397 5.8607 77.9767C5.92689 78.3786 6.00752 78.7926 5.90763 79.4556L5.6465 79.582C5.72713 80.0971 5.35167 81.1139 5.62002 81.3414C4.90401 81.8769 5.40582 83.8227 5.25901 84.7193L5.59957 84.759C5.56587 85.3811 5.6465 85.9768 5.75962 86.7458L6.06047 86.7061C6.28911 87.3752 5.80053 88.4053 5.80053 89.4546C5.68621 89.3824 5.72713 89.1141 5.80053 88.9263C5.44553 89.5413 5.54662 90.2103 5.67297 90.859C5.70667 91.0202 5.73314 91.1875 5.76684 91.3403C5.79331 91.5148 5.81377 91.8096 5.82099 92.0299C5.83302 92.5052 5.80053 92.9468 5.65974 93.4547C5.7536 93.8494 5.70667 94.1707 5.62002 94.5377C5.62002 94.498 5.62002 94.4655 5.60679 94.4378C5.60679 94.486 5.60679 94.5522 5.59355 94.6256C5.53338 94.8663 5.46599 95.1202 5.40582 95.3945C5.47578 95.1737 5.53839 94.9505 5.59355 94.7255C5.59355 94.9661 5.59355 95.2814 5.62604 95.6015C5.78008 95.5895 5.95457 95.5678 6.12184 95.5414C6.09298 95.647 6.07047 95.7543 6.05445 95.8627C6.10138 95.8627 6.13508 95.8627 6.18803 95.8494C6.62967 95.9625 6.71752 95.6894 6.65013 95.4475C6.93774 95.3945 7.20489 95.3272 7.41909 95.2477C7.43955 95.5077 7.80658 95.4619 8.15436 95.415C8.51538 95.3669 8.84992 95.3344 9.07736 95.6075C9.69952 95.3271 10.9703 95.3741 11.158 94.8061C11.1713 94.8795 11.2651 94.9132 11.0906 94.9192C11.4517 94.9794 11.8199 95.0395 12.1412 94.8735L12.3024 95.2802L13.0847 94.7122C13.572 94.9529 13.773 95.0937 13.2989 95.415C14.4421 94.906 14.2351 95.214 15.205 94.7122L15.1641 94.9794C15.5131 94.9601 16.0667 94.5919 16.2821 94.8061C17.0775 95.2947 20.1678 94.7796 22.1943 95.1803C21.7791 94.4102 23.145 95.5016 23.2052 94.8927C23.3255 95.0732 23.6119 95.1671 23.2918 95.3416C24.3147 95.1274 24.8502 95.5823 25.5385 95.0468C25.6661 95.2273 25.3316 95.3272 25.4387 95.4282C25.5193 95.3873 25.76 95.2537 25.8731 95.3608C25.9814 95.4692 25.7263 95.5221 25.5662 95.6087C26.6156 95.5414 26.7022 94.9661 26.7564 94.4318C27.2979 94.6653 27.565 94.6184 27.9333 94.2513C28.127 94.4174 28.4423 94.5859 27.7925 94.6785C28.1607 94.6857 30.0464 94.8398 30.0669 94.4114C30.1872 94.5113 30.5819 94.4174 30.6758 94.3644C31.4989 94.3512 31.5783 94.3849 32.381 94.3043L32.1536 94.2441C32.4484 93.7146 32.8227 94.0973 33.4713 93.9962L33.4592 94.0504C34.9767 94.338 34.0934 93.8362 35.5917 94.1767L35.4918 93.8638C35.5856 93.1671 36.8227 94.1839 37.6651 93.8638L37.345 93.7026C37.7927 93.4414 38.7157 94.5522 39.1982 94.5991C39.3041 94.6521 39.043 94.705 38.9034 94.7592C40.1669 95.0732 39.0297 94.3307 39.9467 94.1575C40.1332 94.3717 39.7722 94.7459 40.3944 94.7459C40.7229 94.906 42.12 93.8626 42.9961 94.2236C42.7963 94.0636 42.5954 93.9108 43.0093 93.7423C43.652 93.6219 44.8289 94.2441 45.3644 93.6484C45.451 93.6893 45.4847 93.729 45.4919 93.776C45.9733 93.5883 47.0828 93.3945 47.3572 93.066C47.9192 94.131 50.3946 92.2441 50.4812 93.2537L52.0059 93.0467L51.9794 93.1538C52.9626 93.1201 53.2839 92.8458 53.604 92.5642C53.8387 92.6123 53.6846 92.7254 53.6714 92.7796C55.1227 92.8325 55.2575 92.7796 56.4007 92.137L56.5619 92.451C56.7148 92.3379 57.243 92.4113 57.9061 92.439C58.0734 92.445 58.2467 92.451 58.4212 92.451H58.6883L58.8351 92.439L59.0433 92.4186C59.5772 92.3717 60.1043 92.266 60.6149 92.1033C60.6149 92.1442 60.6149 92.2116 60.4669 92.2717C61.0024 92.0973 61.6318 92.0311 62.3201 91.9709C62.3803 91.0467 62.5271 90.0695 62.5488 89.161C62.5488 88.9323 62.5488 88.7193 62.5343 88.5184C62.5254 88.3947 62.4982 88.2731 62.4537 88.1574C62.4146 88.0523 62.3548 87.9561 62.2779 87.8745C62.201 87.7928 62.1086 87.7274 62.0061 87.682L61.6848 86.6459C61.6174 87.9973 61.1565 86.4582 60.9687 87.0141C60.8893 86.4846 61.3033 85.6351 61.3779 86.2849L61.3177 86.3848C61.9519 86.6122 61.5042 84.706 61.9314 84.7325C61.8388 82.0766 62.1192 79.4821 62.059 76.9875L61.5777 77.2883V76.4183C61.686 76.1848 61.9519 76.097 61.9519 76.7191C62.2203 76.3846 61.6848 75.689 61.5789 75.6758C61.7317 74.4592 62.1661 76.1307 62.1661 75.7564L62.1132 75.2546L62.059 75.3689C61.8448 74.967 61.6318 74.9405 61.6318 74.1908C61.7112 73.7167 61.9254 73.9381 61.9387 73.7492C61.9724 73.7492 61.9868 73.689 61.9387 73.4628V72.3653L61.5716 72.8201C61.3635 72.3448 61.5512 71.79 61.136 72.3123C61.7858 71.5421 61.2034 68.2244 61.3839 67.7563C61.0626 67.0944 61.0421 66.4193 61.0229 65.5902C60.9555 65.8032 60.5283 65.9512 60.5415 65.2292C61.4513 65.4362 60.8544 63.897 61.4573 63.2676C61.0698 63.8164 61.2094 61.2351 60.6619 62.0907C60.6884 61.489 60.9964 62.0306 61.1697 61.5564C60.7088 60.1448 61.1168 58.3915 60.8484 56.667C60.7281 56.6466 60.574 56.9607 60.367 56.5997L60.8761 55.6297C60.7882 55.2892 60.1733 55.3686 60.5271 54.7067C60.4344 54.8078 60.3009 54.9474 60.2395 54.72C60.5283 51.2554 59.2298 47.7571 60.0927 44.2059C59.8929 44.6933 59.852 44.3792 59.8183 44.0182C59.7786 44.2529 59.5307 44.0315 59.3706 44.0856L59.7244 42.6006C59.2708 42.3599 59.6041 41.0422 59.1769 40.9147L59.2768 41.3696C58.7425 40.7799 58.2202 42.2926 57.5716 42.2384C58.1805 42.8942 56.8423 44.1121 57.7256 45.1891C57.6113 45.4502 57.5042 44.9881 57.3646 45.1289C57.6582 45.3961 57.7376 45.7367 57.6522 46.3925L57.5776 46.3263C57.7653 48.1254 57.5511 48.9136 57.5174 50.9546L57.8255 50.7801C57.8183 51.2217 57.7256 51.3156 57.6582 51.5298C58.1733 51.9919 57.5908 50.3059 58.1528 50.7199C57.5511 51.3493 58.3815 53.7837 57.6787 54.2386C57.7316 54.9077 58.0265 54.0112 58.0794 54.6802L57.8989 54.874L58.166 55.0208C58.166 55.4625 57.9326 55.7031 57.7653 55.7368C57.7785 55.6297 57.6919 55.436 57.6715 55.3217C57.4837 55.9113 57.8857 56.921 57.8315 57.1219L57.8989 56.4661C58.0734 57.3686 58.1396 58.3855 58.2479 59.3951C58.3405 60.3988 58.4681 61.3627 58.7292 62.2255L58.8688 62.0775C59.2371 63.3952 58.7882 63.1605 59.0024 64.6203L58.9627 64.5661C59.13 64.8537 59.2298 65.2412 59.2371 65.6431C59.0433 65.2821 58.9362 66.3591 58.7148 65.8838C59.0902 67.3219 58.9892 66.5866 59.5909 67.5228L59.3574 67.7563C59.5981 68.0704 59.7184 68.098 59.8183 68.8273C59.5776 68.2316 59.4645 69.3147 59.1492 68.6528C58.6751 70.2244 59.8051 70.9272 59.0361 71.6697C59.7521 72.352 59.3634 70.3111 59.5247 70.707C59.7317 70.3652 60.0662 71.2678 60.012 71.7636C60.012 72.2582 59.1697 72.6396 59.2298 73.8839C59.2298 73.7564 59.1769 73.7564 59.1769 73.6288C59.0229 74.0982 59.444 74.5314 59.1769 75.1138C59.6041 75.4219 59.1769 75.8563 59.7112 75.9297L59.5511 74.7937C59.7112 75.4351 60.3538 76.0236 60.0867 77.1006C59.9783 77.0212 59.8255 76.7059 59.7377 76.4917C59.5909 76.807 59.858 77.0874 59.7112 77.4147C59.1769 77.3425 59.5511 76.0308 59.1227 75.3545C58.9085 75.6963 59.5511 76.6529 58.9687 76.3244C59.7184 76.7998 58.9158 77.5555 59.4982 78.3786L59.1769 78.3305C59.2298 78.4653 59.3911 78.7324 59.3911 78.9803L58.9627 78.5459C59.3369 79.215 58.6943 79.8696 58.9025 80.5194C58.8544 79.1476 59.2768 80.1981 59.491 79.6169C59.9663 81.2944 58.6883 80.6121 58.8893 82.499C58.8351 82.2439 59.0566 81.5363 59.2106 81.9298C59.1564 82.2908 59.0421 82.7722 58.8821 82.9936C58.9831 84.2451 59.2034 82.7926 59.4116 83.3209C59.0361 83.7566 59.5848 83.9298 59.7184 84.4786L59.3971 84.4918C59.2238 85.9239 60.0794 84.8528 59.8592 86.1513L59.3971 85.6158L59.5247 86.2849L59.1564 86.1573C59.4452 86.8794 59.3779 87.108 59.29 87.8228C59.5114 87.6423 59.8797 87.9227 59.8989 88.5184C59.7112 88.759 59.5909 88.3848 59.645 88.8529C59.5439 88.7723 59.4236 88.7061 59.3767 88.6519C59.3502 88.6255 59.3369 88.599 59.3574 88.5653C59.3694 88.5388 59.4104 88.5124 59.4838 88.392C59.3767 88.3511 59.2768 88.1971 59.1709 88.1574C59.1212 88.2747 59.0892 88.3988 59.0758 88.5256C59.0624 88.5646 59.0624 88.6069 59.0758 88.6459C59.0963 88.7254 59.136 88.8192 59.1432 88.8661C59.1564 88.8325 59.1697 88.7927 59.2166 88.7795C59.3706 88.966 59.5247 89.2344 59.6787 89.5689C59.5584 89.5689 59.4573 89.4005 59.3574 89.2741C59.3779 89.3343 59.4104 89.4017 59.4573 89.4883C59.4573 89.5485 59.4308 89.5954 59.3502 89.6291C59.1829 89.4077 58.9892 89.1875 58.9495 89.0467C58.9362 89.0346 58.929 89.013 58.9158 88.9865L58.9495 89.0406C58.9615 89.1345 58.9218 89.2211 58.8556 89.321C58.7425 89.2211 58.5283 89.0467 58.5343 88.9468C58.7352 88.7663 57.4777 89.5882 56.6209 89.4751C56.5812 89.528 56.4945 89.5882 56.308 89.6496C55.4512 89.682 54.669 89.4486 53.6979 89.9095L53.0769 89.5015C52.3007 89.6893 53.9121 90.0106 52.6148 90.3247C51.699 90.5653 52.2273 89.9636 51.8856 89.8626C51.4511 90.1442 50.6882 90.7049 49.7989 90.4041C50.0732 90.291 50.3007 90.3379 50.5618 90.2777L50.5811 90.3174H50.5799ZM40.8481 91.4005C41.0286 91.3211 41.3896 91.0804 41.5436 91.2537C41.3571 91.6424 41.1766 91.4811 40.8481 91.4005ZM26.0536 93.0082C26.1944 92.8939 26.4086 92.9408 26.6625 93.0552C26.482 93.0876 26.281 93.0828 26.0536 93.0082ZM6.16155 71.5024L6.17479 71.5229C6.04121 71.9441 6.09416 71.7961 6.16155 71.5024ZM6.31558 70.6264C6.27467 70.5397 6.22894 70.5397 6.18201 70.5782C6.26143 70.6384 6.26143 70.8406 6.23496 71.068C6.3216 71.0078 6.38177 70.8935 6.31558 70.6324V70.6264ZM61.8316 73.6902L61.7521 73.8635C61.6438 73.482 61.7317 73.5843 61.8316 73.6902Z" fill="#FFBF00"/>
<path d="M27.7179 92.5052C27.7637 92.5533 27.7939 92.6141 27.8046 92.6797C27.878 92.6195 27.878 92.5593 27.7179 92.5052ZM56.6065 89.522H56.633C56.633 89.522 56.6534 89.4823 56.6534 89.4618L56.5993 89.522H56.6065ZM8.75611 84.3306C8.72524 84.4586 8.66556 84.578 8.58162 84.6795C8.66225 84.6916 8.72964 84.6121 8.75611 84.3306ZM5.8403 65.9572L5.9125 66.5192C5.90047 66.2448 5.97267 66.1509 6.02682 66.0113C5.95462 66.0234 5.8403 66.1317 5.8403 65.9512V65.9572ZM7.89208 61.0883C7.85237 61.0077 7.89208 60.9138 7.85237 60.8344L7.70555 60.8536C7.70555 61.2086 7.82589 61.4493 7.8993 61.0883H7.89208ZM6.91613 65.447C7.1905 65.4072 7.10386 65.0522 7.05692 64.6575V64.7249C6.67545 64.6046 6.80301 65.0258 6.91613 65.447ZM7.0497 64.5649C7.03307 64.4431 7.03307 64.3196 7.0497 64.1978C6.89687 64.1497 7.01721 64.3447 7.0497 64.5649ZM6.15318 69.5096C6.22659 69.3219 5.8054 69.3893 5.91972 69.281C5.57796 69.068 6.31443 70.5397 6.15318 69.5096ZM7.81867 65.1389L7.47811 65.2809L7.74526 65.5011L7.81867 65.1389ZM7.52504 68.2581L7.62613 67.6287C7.57198 67.6359 7.53828 67.5565 7.51181 67.4554C7.49135 67.8429 7.42516 68.2713 7.51903 68.2581H7.52504ZM7.51181 67.4554C7.51903 67.2557 7.51181 67.0607 7.46487 66.9476C7.46487 67.0547 7.47209 67.2954 7.51181 67.4554ZM7.90652 66.0089L7.83311 66.1894L7.79942 66.6383L7.90652 66.0089ZM7.33852 75.0476L7.41915 75.7371C7.53226 75.8093 7.60567 75.6228 7.56596 75.3629C7.49255 75.1944 7.45164 74.9417 7.33732 75.0416L7.33852 75.0476ZM8.29401 72.9814C8.2206 73.1679 8.1472 73.1739 8.03287 73.2822L8.44804 73.3087L8.29401 72.9814ZM8.35538 74.9947C8.4685 75.0669 8.66225 76.0043 8.65623 75.127C8.54191 75.0548 8.46248 74.3653 8.35538 74.9947ZM7.58642 85.3631V85.1886L6.90409 85.1958L7.58642 85.3631ZM9.12315 92.3162C9.10389 92.2753 9.0702 92.2826 9.02928 92.303C8.95708 92.303 8.62855 92.6773 8.80184 92.315C8.64179 92.356 8.62133 92.717 8.48174 92.7639C8.50099 92.7711 8.51423 92.7844 8.52867 92.7916C8.81628 92.6905 8.84877 92.711 9.12315 92.3162ZM8.47452 92.7663C8.47452 92.7663 8.41435 92.7398 8.37464 92.7266C8.41435 92.7663 8.44684 92.7735 8.47452 92.7663ZM60.0253 41.6571L60.1385 41.1277L59.9315 41.4766L60.0253 41.6571ZM59.4706 40.6812L59.8978 40.5344L59.4898 40.2408C59.5163 40.3539 59.5632 40.5813 59.4694 40.674L59.4706 40.6812ZM39.3367 90.6459L39.303 90.7542C39.3896 90.8601 39.5172 90.8601 39.7578 90.8601L39.3367 90.6459ZM46.427 90.3644L46.3067 90.3704L46.5678 90.7386L46.427 90.3644ZM52.3068 89.3018C52.0661 89.3078 51.7917 89.4293 51.5438 89.4353C52.0661 89.309 52.4199 89.7843 52.3068 89.3018ZM56.8412 91.1333C56.8279 91.2139 57.1023 91.1333 57.1492 91.1333C57.0686 91.0274 56.7678 91.1538 56.8412 91.1333ZM56.0048 89.9889L56.1179 89.9961L55.8171 89.8421L56.0048 89.9889ZM55.864 88.7735C55.4031 88.9395 55.9916 89.2067 55.8508 89.4413L55.7497 89.4883L56.1456 89.5352C56.0517 89.2813 55.7569 88.966 55.8712 88.765L55.864 88.7735ZM56.8279 88.025C56.6474 88.0779 56.6546 87.8974 56.781 88.179C56.8015 88.1658 56.8147 88.1585 56.8291 88.1453C56.8291 88.1188 56.8219 88.0851 56.8291 88.0177L56.8279 88.025ZM56.8279 88.1501C56.8556 88.2777 56.9759 88.0502 56.8279 88.1501V88.1501ZM56.6751 87.5689L56.8556 87.7217C56.9615 87.676 56.9759 87.5292 57.0554 87.5749C56.9483 87.4148 56.8412 87.4546 56.6751 87.5689ZM56.3129 87.4353L56.3935 87.5159C56.4392 87.4955 56.4537 87.4762 56.3129 87.4353ZM56.5536 87.6964L56.3923 87.5232C56.3201 87.5556 56.1649 87.5689 56.4525 87.6026C56.3129 87.6026 56.4525 87.623 56.5536 87.6964ZM56.4874 87.8023C56.3935 87.9022 56.3406 88.0358 56.16 87.8757C56.2539 88.197 56.5812 88.1164 56.4874 87.8023ZM55.3634 88.7662L55.2431 88.9058L55.4164 88.9997C55.3297 88.9528 55.5174 88.7386 55.3694 88.7662H55.3634ZM56.8412 86.4979C56.7413 86.4979 56.574 86.5713 56.4464 86.5917L56.574 86.7121C56.6414 86.6447 56.6944 86.5183 56.8484 86.4979H56.8412ZM56.4464 86.5917L56.2587 86.4112C56.2467 86.5785 56.3333 86.6038 56.4464 86.5917ZM55.7774 87.4497L56.1733 87.7301L55.7714 87.3884L55.7786 87.4485L55.7774 87.4497ZM56.8147 85.7818L57.0554 85.8745L56.6871 85.7012L56.8147 85.7818ZM56.7401 85.3077C56.941 85.3739 57.0686 85.1801 57.1889 85.2596C57.1492 85.1332 56.9747 85.0333 56.8207 84.9395C56.9086 85.0393 56.8941 85.1537 56.7401 85.3077ZM56.5993 84.7794C56.6474 84.8336 56.7341 84.8805 56.8279 84.9407C56.7641 84.8712 56.6861 84.8163 56.5993 84.7794ZM56.2924 86.0899C56.3526 86.0695 56.5138 86.0358 56.574 85.9214L56.2924 86.0153V86.0899ZM56.2804 86.0237H56.2864V85.8553C56.2864 85.8757 56.2864 85.9226 56.2744 86.0237H56.2804ZM56.2948 86.1116V86.0911C56.2948 86.0911 56.2587 86.1056 56.2948 86.1116ZM55.9976 86.9323C55.8303 86.8336 55.6438 86.6122 55.4164 86.8529C55.6173 86.9203 55.7437 86.7782 55.9976 86.9323ZM55.9386 86.2223L55.8857 86.4305C55.9579 86.4232 56.0662 86.3763 56.1528 86.4305L55.9386 86.2295V86.2223Z" fill="#FFBF00"/>
<path d="M55.8447 86.1308L55.9386 86.2247L55.9578 86.1513L55.8447 86.1308ZM56.3465 85.1332C56.2202 85.0526 56.2057 84.9599 56.1793 84.8528C56.1263 84.9732 56.1059 85.0935 56.1059 85.2066C56.1997 85.2199 56.3598 85.2608 56.3465 85.1404V85.1332ZM56.2864 85.5676L56.2671 85.5484C56.2671 85.5484 56.2334 85.5676 56.2864 85.5676ZM56.1384 83.7902L56.0854 83.8107H56.1323V83.7902H56.1384Z" fill="#FFBF00"/>
<path d="M56.059 85.2271C56.0048 85.3137 56.0782 85.3679 56.1721 85.4076C56.1382 85.3434 56.1178 85.273 56.1119 85.2006C56.0722 85.2006 56.0457 85.2006 56.059 85.2199V85.2271ZM56.4525 84.4894C56.3923 84.5375 56.3466 84.5905 56.2996 84.6446C56.3863 84.5965 56.5271 84.4954 56.4525 84.4894ZM56.3466 85.5147C56.3466 85.5147 56.3598 85.5207 56.3598 85.5279C56.42 85.4942 56.3863 85.5015 56.3466 85.5147Z" fill="#FFBF00"/>
<path d="M56.3465 85.5147C56.2907 85.4717 56.2301 85.4354 56.166 85.4064C56.1924 85.4605 56.2261 85.5075 56.2671 85.5472C56.2912 85.5313 56.3181 85.5202 56.3465 85.5147ZM54.2935 83.5267C54.5607 83.5339 54.8086 83.7553 54.5342 83.9695C54.7412 84.1561 55.6052 83.996 56.0865 83.8083C55.9722 83.8083 55.8651 83.8083 55.6979 83.6145C55.551 83.6879 55.3766 84.0694 55.1287 83.9094C54.9818 83.6482 55.2165 83.6879 55.3501 83.5544C55.0215 83.6747 54.8615 83.2258 54.3801 83.3005L54.5534 83.5279C54.4812 83.5339 54.3537 83.4545 54.2863 83.5207L54.2935 83.5267ZM56.0721 84.191L56.1058 84.2704C56.1455 84.1765 56.2526 84.1031 56.4536 83.9768C56.32 83.8432 56.2189 83.8227 56.1323 83.8155L56.1118 84.2247L56.0721 84.197V84.191ZM56.1263 84.6446C55.8374 84.5905 55.7051 84.3967 55.397 84.5303C55.4235 84.771 55.6437 84.6916 55.7773 84.8312C55.6906 84.4437 55.9458 84.9395 56.0926 84.6507C56.1455 84.7253 56.1588 84.7915 56.1792 84.8588C56.2129 84.7854 56.2526 84.718 56.2996 84.6519H56.2791V84.6639C56.2466 84.6844 56.2261 84.6916 56.2466 84.6639V84.6579C56.2057 84.6579 56.172 84.6579 56.1383 84.6446C56.1924 84.5303 56.2129 84.6242 56.2466 84.6579H56.2863L56.1118 84.2764C56.0793 84.3642 56.0865 84.4641 56.1263 84.6446ZM54.7881 86.6856C54.7881 86.6856 54.835 86.6736 54.8543 86.6663C54.8146 86.6459 54.7941 86.6326 54.7881 86.6856ZM54.9542 86.5111C54.9951 86.5376 55.1154 86.5508 55.0889 86.6519C55.0083 86.7385 54.9481 86.6579 54.8543 86.6712C54.9349 86.7253 55.0745 86.8517 55.2021 86.6712L55.1623 86.6447C55.249 86.4774 55.5968 86.2572 55.6365 86.2837C55.3838 86.3438 55.2021 86.398 54.9542 86.5183V86.5111ZM55.4572 85.5688L55.3031 85.2475L55.0625 85.428L55.2093 85.4148C55.1623 85.6013 55.3429 85.5556 55.4572 85.5688ZM56.2791 83.7493L56.5872 83.783L56.1455 83.6085L56.2791 83.7493ZM56.2322 83.3293L56.4933 83.3354L56.3332 83.2283L56.2322 83.3293ZM44.5605 72.6661L44.5472 72.7467C44.5472 72.7467 44.5605 72.6926 44.5605 72.6661ZM45.1357 72.5518L45.1237 72.4194C45.1092 72.4916 45.1092 72.5518 45.1357 72.5518ZM56.2057 72.9008C56.332 72.8334 56.4861 72.76 56.5787 72.713C56.6738 72.6264 56.6931 72.553 56.5462 72.5722L56.2526 72.6468C56.2983 72.7864 56.2647 72.8334 56.2045 72.9068L56.2057 72.9008ZM50.4872 70.2052C50.4872 70.2052 50.5209 70.2593 50.5353 70.293C50.5606 70.1931 50.581 70.0993 50.6015 70.0042C50.5631 70.0726 50.523 70.14 50.4812 70.2064L50.4872 70.2052ZM50.5064 71.4086L50.3067 71.2413C50.3548 71.3015 50.421 71.3616 50.5076 71.4098L50.5064 71.4086ZM44.1465 73.8298C44.2464 73.8563 44.3391 73.8623 44.4401 73.896C44.4401 73.8298 44.2933 73.849 44.1465 73.8298ZM56.0589 78.9863C56.172 78.866 56.2189 78.7721 56.2322 78.6855C56.0649 78.8323 55.8182 78.9454 56.0589 78.9863ZM44.0527 69.6215C44.0311 69.6486 44.0157 69.6801 44.0076 69.7138C43.9995 69.7475 43.9988 69.7825 44.0057 69.8165C44.0587 69.7563 44.0791 69.6889 44.0527 69.6215Z" fill="#FFBF00"/>
<path d="M56.2262 78.3377C56.2262 78.3377 56.1793 78.3774 56.16 78.4039C56.207 78.4905 56.2467 78.5784 56.2262 78.6927C56.3538 78.5844 56.4272 78.464 56.2262 78.3437V78.3377ZM43.2428 87.5954C43.2428 87.5954 43.2224 87.6158 43.2092 87.6219C43.2501 87.6219 43.2501 87.6158 43.2428 87.5954ZM40.179 91.5413C40.1586 91.5016 40.167 91.4354 40.1586 91.3752C40.1393 91.4017 40.1393 91.4534 40.179 91.5413ZM56.3129 81.623C56.3321 81.7096 56.3454 81.6362 56.3129 81.623V81.623ZM55.1757 82.0838C55.1757 82.0838 55.1011 82.0514 55.0349 82.0514C55.0837 82.051 55.1319 82.0622 55.1757 82.0838ZM54.4272 77.4352C54.367 77.4544 54.3802 77.4472 54.4272 77.4352V77.4352ZM56.1865 81.7625C56.221 81.7295 56.2502 81.6913 56.2732 81.6494C56.2408 81.6844 56.2118 81.7222 56.1865 81.7625ZM56.3189 81.7433C56.3189 81.7433 56.2996 81.7962 56.2924 81.8227C56.3405 81.8372 56.3718 81.8227 56.3189 81.7433Z" fill="#FFBF00"/>
<path d="M56.2994 81.5014C56.3009 81.5516 56.2919 81.6017 56.2729 81.6482C56.2933 81.6278 56.3066 81.6217 56.321 81.6278C56.318 81.585 56.3107 81.5427 56.2994 81.5014ZM42.7877 80.138C42.7877 80.138 42.7745 80.15 42.7612 80.1572C42.8743 80.2583 42.8611 80.2114 42.7877 80.138ZM53.2295 71.5891L53.2416 71.5819L53.256 71.5686L53.2295 71.5879V71.5891ZM53.0093 71.636C53.3763 71.3544 53.3294 71.4555 53.25 71.5686C53.5364 71.3207 53.824 71.0668 54.1116 70.7997C53.7434 71.0476 53.3775 71.3291 53.0093 71.636Z" fill="#FFBF00"/>
<path d="M44.02 72.908C44.1259 72.9682 44.2198 73.0283 44.3136 73.0945C44.6145 73.4628 44.5074 73.3352 44.8491 73.624C44.4279 73.269 44.4472 73.2353 44.4737 73.2028C44.5013 73.1691 44.5218 73.1427 44.2739 72.7335C44.3269 72.7877 44.381 72.8346 44.4267 72.8875C44.4075 72.8875 44.434 72.9345 44.4207 72.9273C44.7143 73.3027 44.1596 72.3135 44.4207 72.3857C44.5146 72.4339 44.5748 72.5542 44.5748 72.6673C44.5794 72.6258 44.5904 72.5852 44.6072 72.547L44.7216 72.4062C44.8022 72.4062 44.8214 72.5602 44.7348 72.5662L45.1367 72.4062V72.4327C45.1692 72.2786 45.2571 72.0379 45.31 71.9308C45.4436 72.0391 45.2763 72.0391 45.3233 72.145L45.517 71.8839C45.6578 72.0981 45.505 72.3593 45.3437 72.3593C45.7384 73.2016 45.4905 72.0981 46.0658 72.5265L45.8648 72.6806C46.1055 73.1619 46.233 72.9417 46.5411 73.2161C46.4544 73.0548 45.8985 72.5133 46.1127 72.2389C46.1993 72.2919 46.3004 72.3063 46.4075 72.1053C46.4677 72.4266 46.588 72.3195 46.7553 72.2726L46.8155 72.6938C46.9755 72.5398 46.9226 72.3256 47.002 72.1186C47.2162 72.1246 47.3101 72.4459 47.3967 72.7142C47.7312 72.7335 47.0898 72.2257 47.4641 72.0849C47.7649 72.2052 47.925 71.9982 48.2198 71.7034C48.434 71.8237 48.2198 71.9645 48.3065 72.0789L48.434 71.7178C48.4737 71.7178 48.481 71.8237 48.481 71.8779C48.6073 71.7311 48.4328 71.4495 48.6482 71.3087C48.6482 70.8346 49.203 71.9308 49.4172 71.3689C49.5038 71.4832 49.4172 71.6372 49.4569 71.7973C49.8059 71.4026 49.7578 71.5097 50.0261 71.0018L50.327 71.2485C50.0923 70.9477 50.3065 70.5469 50.5075 70.2124C50.4208 70.0656 50.3462 69.938 50.2933 69.8779L50.6338 69.6167C50.688 69.6841 50.6615 69.8309 50.6218 70.0187C50.641 69.9777 50.6615 69.944 50.6747 69.9104C50.8215 70.0584 50.7746 70.3063 50.7084 70.553C50.6547 70.4723 50.6033 70.39 50.5544 70.3063C50.487 70.5734 50.4341 70.8682 50.481 71.1149C50.5013 71.0619 50.5391 71.0173 50.5881 70.9886C50.5736 71.0608 50.5604 71.121 50.5809 71.1691C50.5941 71.216 50.6278 71.1149 50.6747 71.0006L50.8011 71.4699V71.2822L51.2969 71.5361C51.6182 71.0211 51.7313 70.3063 52.333 70.0584C52.1465 70.4266 52.2199 70.6396 52.1393 71.062C52.0923 70.6264 51.8384 71.269 51.6916 71.1944C51.7855 71.2353 51.7638 71.4362 51.7518 71.5036C51.8381 71.3523 51.941 71.211 52.0586 71.0825C52.0117 71.423 52.0923 71.3352 52.1332 71.4699C52.1994 70.7936 52.4666 70.9946 52.6868 70.7744C52.6074 71.0078 52.487 71.2485 52.3607 71.2016C52.3607 71.4567 52.4666 71.2497 52.6074 71.0283C52.741 70.8141 52.9154 70.5794 52.9022 70.7997C52.8613 70.8069 52.8541 70.7744 52.7819 70.8947C52.9744 70.6805 53.1297 70.8346 52.9419 71.0415H52.9022C53.0346 71.1089 53.3439 71.0415 53.765 70.7876C53.8959 70.737 54.0145 70.6591 54.1128 70.559C54.0394 70.6264 53.41 71.2088 53.2897 71.3231C53.9455 70.7876 54.587 70.4266 55.2356 70.2389C54.9889 70.3857 54.5617 70.7539 54.1658 71.0415C53.7711 71.3364 53.4028 71.577 53.2632 71.6107C53.1898 71.7166 53.102 71.8177 53.2753 71.7973C53.3499 71.7311 53.9985 71.216 54.0454 71.2557C53.4834 71.7768 53.7446 71.5831 53.2692 71.9982C53.3775 71.8899 54.1525 71.5638 54.1261 71.7166C54.0117 71.7503 53.3559 72.0452 53.2837 72.0512C53.5326 72.0033 53.7872 71.992 54.0394 72.0175C53.9046 71.985 53.3968 72.2124 53.1826 72.2991C53.3294 72.2461 53.1621 72.4591 53.2368 72.4928C53.2969 72.4591 53.3571 72.4266 53.4173 72.3857C53.3571 72.5061 53.617 72.5398 53.8914 72.6264C54.1658 72.7143 54.4401 72.8478 54.4209 73.062C54.2669 73.0079 53.4702 72.908 53.3703 73.1282C53.7518 73.2425 55.2091 73.6168 55.5039 74.0043L55.2825 74.0717L55.5304 74.3725C54.9552 74.1788 53.7446 73.6433 53.2765 73.3496C53.096 73.5097 53.0153 73.3894 53.0286 73.6373C52.8216 73.7167 52.7217 73.4965 52.7073 73.423L52.5604 73.991C53.0093 73.979 53.0021 74.4399 53.3763 74.4255L52.9215 73.7973C53.3703 73.7841 54.1922 74.1848 54.1056 74.5867C53.9251 74.6866 53.3102 74.4929 53.1549 74.5001C53.3102 74.553 53.4437 74.8876 53.3366 74.9273L53.102 74.754C52.9287 74.9742 53.6916 75.1355 53.256 75.3966C53.2295 75.4893 52.6748 75.6698 52.9419 75.6902C53.457 75.5434 55.0418 75.5362 55.4305 75.6433C55.3968 75.677 54.9347 76.1247 54.6808 76.2257C54.2801 76.3726 53.7241 75.9851 53.3763 76.1114C53.4967 76.1186 53.6507 76.2053 53.6977 76.239C53.5906 76.3389 53.3162 76.1908 53.3703 76.4062C53.8252 76.446 53.3222 76.8407 53.7518 76.5134C53.8782 76.7203 53.6579 76.7336 53.6712 76.9815C53.9648 76.9081 54.6748 77.2089 54.8024 77.4159C54.688 77.4027 54.534 77.4496 54.4666 77.4688C54.4269 77.8972 54.2139 78.1247 54.2139 78.5194C54.1056 78.5531 53.972 78.748 53.7711 78.6674C53.8517 78.7276 54.0057 78.7733 54.019 78.9009C53.6242 79.1416 53.9588 78.6265 53.4834 78.807C53.7518 78.8202 53.8517 79.1283 54.019 79.3028C54.4269 79.2487 54.0996 78.9009 53.9323 78.7204C54.4931 78.7204 55.0888 79.0212 55.3499 79.4364C55.4907 79.7637 54.9889 79.5832 55.0695 79.6361C54.9684 80.2583 56.0587 80.1512 55.658 80.6662C55.303 80.8744 54.942 80.6867 54.6808 80.7336C54.54 80.4665 54.9022 80.3185 54.8878 80.138L54.7205 80.3666C54.6002 80.2788 54.5075 80.1043 54.6146 80.0056C54.2933 80.1789 54.5665 81.0549 54.2729 81.5363C54.3932 81.6169 54.5208 81.7637 54.6676 81.6903L54.6146 81.5423C54.9022 81.4027 55.0226 81.8167 55.1489 81.6302C55.3571 81.8299 55.6784 82.0513 55.5232 82.3317L55.1152 82.3919C55.2356 82.3859 55.3559 82.1994 55.2296 82.1248C55.4173 82.2391 54.688 82.5736 55.2296 82.6928L55.51 82.4858C55.7242 82.6867 56.1658 82.9202 56.0394 83.1753C56.4402 83.0478 55.9913 83.1212 56.4606 82.9274C55.871 83.0947 56.4667 82.2848 55.8589 82.5532C56.4005 82.3594 56.0852 82.2319 56.5473 81.984C56.4137 81.9912 56.2934 82.0718 56.3535 81.8636C56.3126 81.8576 56.2669 81.8299 56.2332 81.8167C56.2332 81.8167 56.2332 81.8107 56.2392 81.8047L56.2272 81.8167C56.1683 81.8715 56.0968 81.9107 56.019 81.931C55.7049 81.8299 55.7109 81.4966 55.5497 81.3823C55.6098 81.2547 55.7049 81.4292 55.8505 81.3618L55.6098 81.1945C55.9107 81.1753 56.1056 80.854 56.2861 81.1488V80.8805C56.4606 80.7204 56.5268 80.5062 56.4005 80.3786C56.4606 80.2523 56.0659 80.0658 56.2994 80.1717L56.1129 79.7565H56.1851C56.22 79.3425 55.6844 78.9069 56.226 78.44C56.1526 78.2992 56.0587 78.1584 56.1453 77.9237L56.4065 77.878C56.3198 77.6975 56.6676 77.3485 56.4005 77.2691C57.102 77.0813 56.5605 76.4123 56.6881 76.0982L56.3463 76.0849C56.3668 75.8707 56.2729 75.6638 56.1393 75.3966L55.8385 75.4086C55.5906 75.1752 56.0587 74.8202 56.0382 74.4531C56.1526 74.4796 56.1189 74.5735 56.0527 74.6337C56.741 74.2125 55.5773 73.7034 56.0792 73.322C55.9709 73.2221 56.0118 73.1487 56.0852 73.0813C56.0852 73.0885 56.0852 73.1017 56.0984 73.109V73.068C56.1526 73.0283 56.2127 72.9814 56.2597 72.9345C56.2003 72.9633 56.1462 73.002 56.0996 73.0488C56.0886 72.938 56.0493 72.8319 55.9853 72.7407C56.0924 72.7335 56.1995 72.6998 56.3066 72.6806C56.3066 72.6673 56.3066 72.6541 56.2994 72.6324C56.4197 72.4399 56.1526 72.4928 55.9047 72.5867C55.8571 72.5038 55.7937 72.431 55.7181 72.3725C56.2464 72.186 55.5569 71.9778 56.1189 71.6841C55.8517 71.63 55.9456 70.8538 55.3631 71.0548C55.4365 71.0151 55.4775 70.9549 55.4775 71.0343C55.5497 70.8418 55.6243 70.6204 55.4642 70.5662L55.8854 70.2389C55.703 70.2189 55.519 70.2189 55.3367 70.2389C55.6038 69.8442 55.7579 69.5963 56.0719 69.6035C55.8313 69.4831 55.7915 69.423 55.7506 69.3556C55.7109 69.2954 55.664 69.2352 55.4233 69.2557L55.6977 69.0078C55.6977 68.9609 55.664 68.9356 55.6243 68.9212C55.4173 69.0018 55.1357 69.1691 55.2151 69.0018C55.2693 68.7479 54.7939 68.7611 54.2464 68.7804C53.6772 68.8008 53.1032 68.8345 52.6411 68.6336C52.6615 69.021 52.5677 68.9416 52.4473 68.8405C52.3198 68.7407 52.1465 68.6203 52.1128 68.9284C52.0731 68.7479 51.9251 68.654 52.0995 68.4795C51.8312 68.5938 51.6182 68.5337 51.4497 68.5132C51.3234 68.4928 51.2163 68.5132 51.1164 68.7804C51.0562 68.5999 51.1693 68.5072 51.1164 68.4001C51.0887 68.4398 51.0153 68.5734 50.9684 68.4663C50.9214 68.3592 51.0093 68.3062 51.0562 68.2184C50.6807 68.2858 50.7012 68.855 50.7277 69.3893C50.5135 69.1558 50.4268 69.2028 50.327 69.5638C50.2463 69.3953 50.1188 69.222 50.339 69.1426C50.2066 69.1221 49.5243 68.9741 49.5568 69.4025C49.5038 69.3026 49.3763 69.3905 49.3438 69.4434C49.049 69.4495 49.0225 69.4097 48.7421 69.4892L48.8287 69.5493C48.7806 70.0788 48.6073 69.6974 48.3871 69.784V69.731C47.8119 69.4302 48.1861 69.9308 47.6109 69.5902L47.6843 69.9043C47.7385 70.5939 47.1693 69.5698 46.9081 69.8779L47.0429 70.0451C46.9153 70.299 46.434 69.1883 46.2535 69.1354C46.2053 69.0824 46.2932 69.0283 46.3401 68.9753C45.8323 68.6468 46.3534 69.3965 46.0453 69.5493C45.9454 69.3363 46.026 68.9681 45.7986 68.9681C45.6506 68.8008 45.2968 69.8105 44.9153 69.4434C45.0164 69.6035 45.1163 69.7563 44.9887 69.9176C44.7745 70.0319 44.227 69.4025 44.1331 69.991C44.0992 69.9574 44.074 69.9161 44.0597 69.8706C43.8792 70.0584 43.3232 70.2918 43.3497 70.5999C42.9959 70.1185 42.6481 70.3664 42.4267 70.5939C42.2005 70.8273 42.0657 71.0355 41.6385 70.654C41.5302 70.707 41.3978 70.7479 41.3172 70.8213V71.2088L41.2161 71.1222C41.109 71.5698 41.3244 71.8779 41.5446 72.139C41.4712 72.2052 41.3834 72.0909 41.3364 72.0584C41.0897 72.6396 41.109 72.8009 41.5711 73.4158H41.2365C41.4038 73.6565 40.6613 74.198 41.0223 74.7131C40.9689 74.7066 40.9182 74.6858 40.8755 74.6529C41.2293 75.2281 39.8791 75.9249 41.0765 76.192L41.3509 76.5735C41.4712 76.1042 41.8719 76.6734 42.0789 76.4869C42.1391 76.6734 41.6914 76.9478 41.6385 76.7131L41.6987 76.6806C41.0765 76.5603 41.4435 77.2558 41.0163 77.2149C40.9959 78.1451 40.6072 79.0284 40.535 79.8985L41.0284 79.8239L40.9887 80.1247C40.8683 80.1981 40.6012 80.2114 40.6349 79.9984C40.3533 80.0982 40.8491 80.3714 40.9562 80.3859C40.7347 80.7998 40.3942 80.1921 40.3737 80.3257L40.4002 80.5062L40.4604 80.4665C40.6541 80.6193 40.8623 80.6398 40.8286 80.8997C40.7215 81.061 40.5205 80.9671 40.5013 81.0345C40.4676 81.0345 40.4471 81.0549 40.4808 81.1356L40.4207 81.5158L40.8154 81.3835C40.9959 81.564 40.7757 81.7373 41.2233 81.5832C40.535 81.8107 40.9152 82.9948 40.701 83.1416C40.9694 83.3895 40.9562 83.623 40.9092 83.9118C40.9886 83.8444 41.4303 83.8167 41.3641 84.0646C40.4736 83.9371 40.955 84.5063 40.3003 84.6795C40.7347 84.5195 40.3737 85.3956 40.9959 85.1344C40.9152 85.3426 40.6613 85.1344 40.4411 85.2825C40.7684 85.7903 40.1728 86.3655 40.2666 86.9877C40.387 87.0009 40.5675 86.907 40.7359 87.0406L40.133 87.3415C40.186 87.4618 40.8081 87.4762 40.3942 87.6832C40.4941 87.6567 40.6481 87.6158 40.6818 87.6965C40.0657 88.8806 41.0633 90.1646 39.9453 91.3548C40.18 91.1947 40.2004 91.309 40.2004 91.4354C40.2606 91.3548 40.488 91.4486 40.6481 91.4354L40.186 91.9312C40.6276 92.0371 40.2004 92.4787 40.6216 92.5449L40.5482 92.3788C41.0416 92.6063 41.665 92.1117 42.3064 92.1574C41.7456 91.9047 43.1632 91.5497 42.3665 91.1345C42.5013 91.0539 42.5675 91.2152 42.7215 91.1742C42.4472 91.0683 42.3942 90.9408 42.5278 90.7266L42.594 90.7531C42.547 90.1249 42.8286 89.8638 43.0296 89.161L42.7083 89.2019C42.7552 89.0539 42.8551 89.0214 42.9357 88.954C42.4604 88.7602 42.8948 89.3752 42.3665 89.2019C43.0164 89.0214 42.4147 88.1309 43.1487 88.0238C43.1632 87.7903 42.7817 88.0779 42.7949 87.8433L42.9959 87.7903L42.742 87.7229C42.7889 87.5689 43.0428 87.5027 43.2101 87.5027C43.1897 87.5364 43.2498 87.6098 43.2631 87.6495C43.5037 87.463 43.2029 87.0875 43.2835 87.0214L43.1499 87.2416C42.9887 86.599 43.2763 85.83 42.902 85.2018L42.748 85.2415C42.4941 84.7602 42.9285 84.8745 42.8214 84.3522L42.8551 84.3727C42.7083 84.2644 42.6409 84.1248 42.6614 83.984C42.8286 84.1248 43.0091 83.7566 43.1969 83.931C42.9225 83.4088 42.9754 83.6699 42.4339 83.3089L42.6878 83.2415C42.4676 83.1151 42.3533 83.1019 42.3003 82.8408C42.5013 83.061 42.6878 82.6928 42.9562 82.9407C43.5242 82.4256 42.4472 82.1115 43.2498 81.9045C42.5747 81.6229 42.8491 82.3522 42.7083 82.2054C42.4797 82.3125 42.2065 81.9767 42.2799 81.8107C42.3003 81.6362 43.1704 81.5568 43.1764 81.1211C43.1764 81.162 43.2233 81.1693 43.2161 81.215C43.3966 81.061 42.9959 80.8877 43.2907 80.6999C42.8816 80.5664 43.3232 80.446 42.8022 80.3859L42.902 80.7866C42.7745 80.5531 42.1668 80.3125 42.4809 79.9575C42.588 79.9911 42.7215 80.1115 42.7949 80.1921C42.9562 80.091 42.7011 79.9779 42.8683 79.8708C43.3978 79.931 42.9622 80.3594 43.3497 80.6205C43.5783 80.5122 42.9887 80.1452 43.5579 80.292C42.8359 80.085 43.671 79.8708 43.1295 79.5495L43.4436 79.5832C43.3966 79.5363 43.251 79.4292 43.2631 79.3425L43.665 79.5158C43.3232 79.2631 43.9923 79.0742 43.8118 78.8335C43.7986 79.3088 43.4243 78.9213 43.1836 79.1151C42.7889 78.5062 44.032 78.8202 43.9117 78.1524C43.9526 78.245 43.7047 78.4797 43.5639 78.3329C43.6385 78.2125 43.7649 78.0513 43.9394 77.9839C43.8984 77.5435 43.6108 78.032 43.4243 77.8371C43.819 77.7107 43.2763 77.6169 43.1632 77.4159L43.4845 77.4291C43.7179 76.9406 42.8226 77.2619 43.0958 76.8274L43.5314 77.0416L43.4303 76.801L43.7913 76.8671C43.5314 76.6 43.6108 76.5266 43.7252 76.2787C43.4965 76.3268 43.1427 76.2125 43.1427 75.9911C43.3437 75.8503 43.4436 76.091 43.4171 75.7769C43.6181 75.8575 43.866 75.9514 43.5579 76.0717C43.665 76.091 43.7576 76.1511 43.8587 76.1716C44.0862 76.0248 43.9321 75.7709 43.9321 75.6565C43.9189 75.6975 43.8984 75.7504 43.8515 75.7769L43.4303 75.3027C43.5579 75.2354 43.6518 75.3027 43.7384 75.3629C43.7119 75.269 43.5639 75.1944 43.5447 75.0621C43.8046 75.1078 44.0729 75.115 44.1861 75.3148L43.9189 74.8671C44.032 74.8479 44.2462 74.6673 44.3401 74.7275C44.4267 74.6132 44.3064 74.4592 44.1933 74.2919C44.1386 74.2156 44.0938 74.1327 44.0597 74.0452C44.0455 74.0068 44.0409 73.9654 44.0465 73.9249C44.0465 73.8912 44.0585 73.8912 44.0862 73.8707C44.032 73.8587 43.9851 73.8442 43.9526 73.8105C44.0188 73.6697 44.3401 73.7107 43.9995 73.423C44.1524 73.4628 44.3064 73.5169 44.4604 73.5771C44.4135 73.5097 44.2667 73.4495 44.1127 73.3821C43.9586 73.3159 43.7986 73.2558 43.7179 73.0813C43.5844 72.8214 44.1066 73.269 44.2402 73.3027C44.1019 73.1772 43.9765 73.0381 43.866 72.8875C43.7986 72.7744 43.866 72.7407 44.0657 72.8743C44.1066 72.9549 44.0188 72.908 44.0188 72.9477V72.908H44.02ZM46.0922 72.2185C46.0393 72.2991 45.9599 72.5265 45.872 72.346C45.872 71.9718 45.9659 72.1318 46.0922 72.2185ZM51.049 70.7744C51.0093 70.8875 50.9287 70.8406 50.8348 70.7262C50.895 70.6938 50.9623 70.701 51.049 70.7744ZM56.0394 80.647H56.025C56.1453 80.493 56.0996 80.5459 56.0394 80.647ZM55.9047 80.9539C55.9246 80.9657 55.9469 80.973 55.97 80.9753C55.9931 80.9776 56.0164 80.9748 56.0382 80.9671C55.9588 80.9478 55.9516 80.8804 55.9721 80.7998C55.8854 80.8203 55.8313 80.86 55.9047 80.9539ZM40.5735 81.008L40.6613 80.9539C40.748 81.0947 40.6601 81.0549 40.5735 81.008Z" fill="#FFBF00"/>
<path d="M50.5064 71.2678C50.48 71.2136 50.4727 71.1535 50.4595 71.0933C50.4478 71.1236 50.446 71.1568 50.4544 71.1882C50.4629 71.2196 50.4811 71.2475 50.5064 71.2678ZM53.1623 76.1896C53.2054 76.1338 53.264 76.092 53.3308 76.0693C53.249 76.0693 53.1828 76.0958 53.1623 76.1896ZM56.4801 82.552L56.3934 82.3594C56.4139 82.4521 56.3405 82.4858 56.2935 82.5399C56.3657 82.5399 56.4741 82.4918 56.4801 82.552ZM54.5402 84.3101C54.5799 84.3378 54.5462 84.3703 54.5871 84.398L54.734 84.3847C54.7207 84.2644 54.5932 84.1838 54.533 84.3101H54.5402ZM55.4163 82.759C55.1419 82.7782 55.243 82.8985 55.2959 83.0393V83.0129C55.6774 83.0394 55.5498 82.8998 55.4163 82.759ZM55.302 83.0658C55.3164 83.1067 55.3209 83.1504 55.3152 83.1934C55.4692 83.2066 55.3477 83.1404 55.302 83.0658ZM56.0854 81.3341C56.018 81.4003 56.4331 81.3678 56.326 81.4063C56.675 81.4737 55.9048 80.9791 56.0854 81.3341ZM54.5258 82.8925L54.8543 82.8324L54.5871 82.765L54.5258 82.8925ZM54.7424 81.7962L54.6545 82.0177C54.7075 82.0177 54.7412 82.0381 54.7676 82.0706C54.7749 81.9382 54.8423 81.783 54.7412 81.7902V81.7962H54.7424ZM54.7676 82.0766C54.7676 82.15 54.7676 82.2174 54.8278 82.2511C54.8278 82.2102 54.8086 82.1308 54.7676 82.0766ZM54.4126 82.5917L54.48 82.5243L54.5065 82.3703L54.4126 82.5917ZM54.7821 79.4352L54.6882 79.1945C54.5739 79.1668 54.5005 79.2342 54.5474 79.3269C54.6281 79.3871 54.675 79.4749 54.7821 79.4352ZM53.8639 80.1644C53.9313 80.0983 54.0047 80.0922 54.1178 80.0573H53.7038L53.8639 80.1644ZM53.764 79.4605C53.6509 79.44 53.4295 79.1115 53.456 79.4208C53.5703 79.4472 53.6702 79.6879 53.764 79.4605ZM54.3055 75.8298L54.3128 75.896L54.9951 75.89L54.3055 75.8298ZM52.7411 72.606C52.5739 72.8731 53.1623 72.6794 52.9481 72.9273C53.1094 72.9995 53.1226 72.7191 53.2562 72.7925C53.1756 72.7058 53.1563 72.6324 53.1022 72.612C53.0492 72.5999 52.9614 72.5999 52.7339 72.612L52.7411 72.606ZM53.2562 72.7925C53.2562 72.7925 53.3164 72.8527 53.3561 72.8863C53.3164 72.8334 53.2827 72.8129 53.2562 72.7925ZM39.7915 92.2044L39.6446 92.3849L39.8781 92.2718L39.7915 92.2044ZM40.2861 92.5714L39.8528 92.6051L40.2403 92.7254C40.2199 92.6845 40.1862 92.5979 40.2861 92.5714ZM46.7206 72.9946V72.8876C46.6676 72.7804 46.6279 72.7804 46.5473 72.7744L46.7206 72.9886V72.9946ZM44.6339 73.0789H44.6471C44.5942 72.9658 44.54 72.8454 44.4799 72.7251L44.6339 73.0789ZM44.7747 73.6493C44.7747 73.6493 44.7073 73.5759 44.7266 73.5687C44.7939 73.6433 44.3054 73.3617 44.7747 73.6493ZM18.6286 21.0226C18.6082 21.0624 18.8826 21.0226 18.9367 21.0226C18.8693 20.9625 18.5552 21.0226 18.6286 21.0226ZM17.9596 20.4137L18.0739 20.4197L17.7851 20.3475L17.9596 20.4137ZM17.9319 19.8036C17.4577 19.8975 18.0197 20.0178 17.8597 20.1454L17.7514 20.1719L18.1401 20.1911C18.0727 20.0647 17.8115 19.9107 17.9391 19.8108L17.9319 19.8036ZM18.9427 19.3981C18.7562 19.4306 18.7827 19.3379 18.8898 19.4775C18.906 19.472 18.9217 19.4652 18.9367 19.457C18.9367 19.445 18.9367 19.4245 18.9427 19.3969V19.3981ZM18.9367 19.457C18.956 19.5172 19.0895 19.4029 18.9367 19.457V19.457ZM18.8152 19.1694L18.9824 19.2428C19.0895 19.2164 19.11 19.143 19.1894 19.1622C19.0956 19.0828 18.9897 19.1093 18.8079 19.1694H18.8152ZM18.4602 19.1153L18.5348 19.155C18.5817 19.1417 18.5937 19.1285 18.4602 19.1153ZM18.6888 19.2356L18.5348 19.155C18.4614 19.1754 18.3061 19.1887 18.5877 19.1947C18.4469 19.1947 18.5889 19.2079 18.6888 19.2356ZM18.6154 19.2958C18.5155 19.3499 18.4542 19.4161 18.2809 19.3439C18.3543 19.504 18.6888 19.4498 18.6154 19.2958ZM17.4373 19.8108L17.3037 19.8854L17.4638 19.9252C17.3831 19.9047 17.5841 19.7916 17.4373 19.8048V19.812V19.8108ZM19.0294 18.6219C18.9295 18.6219 18.7622 18.6688 18.6347 18.6881L18.755 18.7422C18.8224 18.7013 18.8826 18.6411 19.0366 18.6219H19.0294ZM18.6347 18.6881L18.4542 18.6074C18.4421 18.6941 18.5215 18.7013 18.6347 18.6881ZM17.9331 19.1417L18.3073 19.2681L17.9271 19.1081L17.9331 19.1417ZM19.0234 18.2609L19.264 18.3006L18.903 18.2332L19.0234 18.2609ZM18.9692 18.0262C19.1629 18.0527 19.2965 17.9456 19.4169 17.9781C19.3772 17.9179 19.2099 17.8722 19.0558 17.8385C19.1425 17.8866 19.1232 17.9468 18.9692 18.0262ZM18.8356 17.7711C18.8826 17.7903 18.9692 17.8168 19.0571 17.8373C18.9873 17.8035 18.9125 17.7811 18.8356 17.7711ZM18.4951 18.4402C18.5552 18.4269 18.7153 18.4005 18.7827 18.3463L18.5011 18.4065V18.4474L18.4951 18.4402ZM18.4878 18.4077H18.4951C18.4951 18.368 18.5011 18.3343 18.5083 18.3271C18.5083 18.3415 18.5011 18.3607 18.4878 18.4077ZM18.1738 18.8734C18.0137 18.8337 17.8332 18.7266 17.5985 18.8614C17.7923 18.8878 17.9331 18.8132 18.1738 18.8734ZM18.1401 18.5268L18.0799 18.6351C18.1521 18.6279 18.2664 18.6014 18.3471 18.6207L18.1401 18.5268Z" fill="#FFBF00"/>
<path d="M18.0464 18.4799L18.1403 18.528L18.1667 18.4871L18.0464 18.4799ZM18.5747 17.966C18.4471 17.9323 18.4339 17.8854 18.4146 17.8312C18.3605 17.8914 18.334 17.9516 18.34 18.0117C18.4279 18.0117 18.5951 18.025 18.5807 17.966H18.5747ZM18.3881 17.3029C18.3881 17.3029 18.3545 17.309 18.334 17.3162H18.3821V17.3029H18.3881ZM18.2871 18.0262C18.2341 18.0731 18.3075 18.0924 18.3942 18.1128C18.3782 18.1014 18.3651 18.0865 18.3559 18.0691C18.3467 18.0518 18.3417 18.0326 18.3412 18.0129C18.3003 18.0129 18.2738 18.0142 18.2871 18.0262ZM18.6962 17.6387C18.642 17.662 18.5903 17.6911 18.5422 17.7253C18.6288 17.6989 18.7696 17.6459 18.6962 17.6387ZM18.5687 18.1525H18.5807C18.6409 18.1381 18.6156 18.1453 18.5687 18.1525Z" fill="#FFBF00"/>
<path d="M18.5684 18.1537C18.5275 18.1333 18.4541 18.12 18.394 18.1056C18.4222 18.1348 18.4562 18.1577 18.4938 18.173C18.5143 18.173 18.548 18.161 18.5745 18.1537H18.5684ZM16.5552 17.2765C16.8223 17.2644 17.0702 17.3643 16.7886 17.4774C16.9896 17.5581 17.8597 17.4305 18.341 17.3174C18.2267 17.3174 18.1196 17.3294 17.9595 17.244C17.8187 17.2897 17.6322 17.4847 17.3903 17.4173C17.2507 17.2969 17.4782 17.3041 17.619 17.2307C17.2904 17.3102 17.1304 17.096 16.6478 17.1633L16.8223 17.2632C16.7489 17.2705 16.6214 17.2368 16.5552 17.2765ZM18.3218 17.5111L18.3542 17.5508C18.4024 17.5039 18.5023 17.457 18.7092 17.3836C18.5757 17.3234 18.4746 17.3174 18.3879 17.3234L18.3615 17.5244L18.3218 17.5111Z" fill="#FFBF00"/>
<path d="M18.3677 17.7326C18.0801 17.7193 17.9537 17.6315 17.6456 17.7121C17.6721 17.8324 17.8935 17.7795 18.0199 17.8397C17.9405 17.6519 18.1812 17.8866 18.3412 17.7314C18.3796 17.7539 18.4084 17.7899 18.4218 17.8324C18.4582 17.79 18.5013 17.7538 18.5494 17.7253H18.5289C18.4952 17.7386 18.4688 17.7386 18.4952 17.7253H18.3881C18.4423 17.6652 18.4615 17.7121 18.4952 17.7253H18.535L18.3677 17.5448C18.328 17.5918 18.3412 17.6387 18.3809 17.7253L18.3689 17.7326H18.3677ZM16.9766 18.8C16.9766 18.8 17.0247 18.7939 17.044 18.7879C17.0103 18.7807 16.9838 18.7735 16.9766 18.8Z" fill="#FFBF00"/>
<path d="M17.1436 18.7085C17.1845 18.7217 17.2976 18.7217 17.2712 18.7687C17.1845 18.8156 17.1304 18.7819 17.0365 18.7891C17.1171 18.8084 17.2507 18.8686 17.3855 18.7747L17.3446 18.7627C17.4384 18.6748 17.7922 18.5485 17.8331 18.5617C17.6 18.5939 17.3696 18.643 17.1436 18.7085ZM17.6851 18.2211L17.5371 18.0743L17.2904 18.1742L17.4372 18.161C17.3831 18.2548 17.5648 18.2211 17.6851 18.2272V18.2211ZM18.5347 17.2765H18.8356L18.4011 17.2163L18.5335 17.2765H18.5347ZM18.4878 17.0695L18.7489 17.0635L18.5889 17.0153L18.4878 17.0695ZM19.1701 5.60479L19.2712 5.51815C19.2332 5.54157 19.1991 5.57081 19.1701 5.60479ZM18.6418 5.64451L18.6021 5.77929C18.6418 5.69866 18.6623 5.64451 18.6418 5.64451ZM18.1869 11.9587C18.4276 11.8781 18.8091 11.7782 18.5143 11.8047L18.2266 11.8456C18.2808 11.8925 18.2531 11.925 18.193 11.9659L18.1869 11.9587ZM16.2663 8.54107C16.2663 8.54107 16.2062 8.5531 16.1797 8.56754C16.2796 8.58078 16.3734 8.59402 16.4601 8.60124C16.3962 8.58024 16.3308 8.56018 16.2663 8.54107ZM15.0629 8.53986L15.2434 8.43998C15.1768 8.45984 15.1152 8.49392 15.0629 8.53986ZM22.187 5.27025L22.4806 5.05485C22.4806 4.8948 22.3338 5.12946 22.187 5.27025ZM18.2676 14.9479C18.3747 14.8817 18.4216 14.8348 18.4348 14.7879C18.2736 14.8685 18.0257 14.9419 18.2664 14.9479H18.2676ZM18.1472 8.87561C18.1737 8.81544 18.1942 8.75527 18.2146 8.68186C18.1821 8.7425 18.1594 8.80789 18.1472 8.87561ZM18.4204 14.6206C18.4204 14.6206 18.3807 14.6471 18.353 14.6543C18.4072 14.694 18.4469 14.7349 18.4276 14.7879C18.548 14.7277 18.6202 14.6603 18.4204 14.6146V14.6206ZM22.4602 13.8925L22.4277 13.913C22.4674 13.913 22.4674 13.8998 22.4602 13.8925ZM19.8127 16.2319C19.8127 16.2319 19.7862 16.1838 19.779 16.1513C19.7598 16.1706 19.767 16.191 19.8127 16.2319ZM18.5684 16.2259C18.5889 16.268 18.6033 16.2259 18.5684 16.2259V16.2259ZM17.4312 16.5195C17.4312 16.5195 17.3578 16.5063 17.2904 16.5123C17.3578 16.5123 17.4035 16.5123 17.4312 16.5195ZM16.5949 14.2945C16.5419 14.3077 16.5479 14.3005 16.5949 14.2945V14.2945ZM18.4409 16.3005C18.4701 16.2838 18.4971 16.2636 18.5215 16.2404C18.501 16.2536 18.4745 16.2668 18.4409 16.3005ZM18.5756 16.2873C18.5756 16.2873 18.5552 16.3138 18.548 16.3282C18.5961 16.3282 18.6286 16.3282 18.5756 16.2873ZM18.548 16.1657C18.548 16.1657 18.548 16.2127 18.5215 16.2379C18.5407 16.2319 18.554 16.2259 18.5684 16.2259C18.5684 16.2127 18.554 16.1922 18.548 16.1657ZM21.3434 10.4003C21.3434 10.4003 21.3302 10.4003 21.317 10.4123C21.4373 10.446 21.4168 10.4328 21.3434 10.4003ZM14.8896 10.8227C15.2507 10.8696 15.2098 10.9166 15.1363 10.9695L15.9727 10.8768L14.8896 10.8287V10.8227Z" fill="#FFBF00"/>
<path d="M20.4865 5.42431C20.479 5.33728 20.4682 5.25057 20.454 5.16438C20.9221 4.70228 21.022 4.84909 21.0485 4.48206C20.7608 4.95619 20.5671 4.98989 20.3661 5.02358C20.1736 5.05728 19.9714 5.08977 19.7644 5.56511L19.7307 5.37136C19.7307 5.37136 19.7909 5.32323 19.8174 5.33165C19.7572 4.89602 19.3769 6.02721 19.1688 5.92011C19.1026 5.85994 19.0689 5.72516 19.1688 5.60482L18.8884 5.85994C18.8282 5.8455 18.8884 5.68545 18.9413 5.69146L18.5875 5.8118V5.78533C18.5075 5.95615 18.4204 6.12356 18.3264 6.28714C18.2662 6.1668 18.3805 6.18004 18.3733 6.06692L18.1796 6.32084C18.1254 6.09339 18.2927 5.83226 18.4263 5.8455C18.3541 4.94295 18.259 6.10062 17.9052 5.62528L18.0989 5.47846C17.9918 4.96943 17.8246 5.18965 17.5695 4.90926C17.6573 5.06329 18.0388 5.64573 17.8246 5.91289C17.7716 5.85272 17.6838 5.83948 17.5911 6.04045C17.5707 5.71914 17.4636 5.8118 17.33 5.86595L17.2891 5.43755C17.1423 5.5988 17.1892 5.813 17.1362 6.01999C16.9678 6.01999 16.8619 5.69868 16.7475 5.43755C16.4732 5.43755 17.0364 5.91289 16.7752 6.0597C16.5743 5.94658 16.5069 6.14033 16.3937 6.4484C16.2397 6.34009 16.3336 6.19448 16.2529 6.08738V6.44117C16.2529 6.44117 16.206 6.34129 16.1928 6.28714C16.1531 6.44117 16.3203 6.69629 16.2397 6.84912C16.3396 7.21014 15.9786 6.6626 15.8185 6.69509L15.2168 6.82265L15.0556 7.89367C15.0556 7.92616 15.0893 7.95985 15.2024 7.98031C15.082 8.02002 14.9425 7.98031 14.7752 7.99234C15.1362 8.17285 15.0351 8.14758 15.5177 8.28717L15.2433 8.43519C15.5562 8.32087 15.9449 8.43519 16.2662 8.52785C16.4202 8.48814 16.555 8.44843 16.6152 8.42797L16.8558 8.59524C16.7885 8.62172 16.6404 8.60848 16.4599 8.58802C16.4936 8.59524 16.5333 8.60848 16.5682 8.6157C16.413 8.6879 16.1663 8.66263 15.9256 8.62773C16.005 8.60246 16.0989 8.57478 16.1856 8.55553C15.92 8.5154 15.6511 8.50169 15.3829 8.51462C15.4276 8.52009 15.4695 8.53897 15.5032 8.56877C15.4459 8.55834 15.3872 8.55834 15.3299 8.56877C15.283 8.57478 15.3829 8.58802 15.49 8.6157L15.0159 8.67587H15.2024L14.9148 8.92256C15.4034 9.07058 16.1182 9.1837 16.3264 9.43762C15.9726 9.39068 15.7584 9.45085 15.3432 9.46529C15.7776 9.37143 15.1494 9.27034 15.2289 9.12353C15.1892 9.19694 14.9882 9.19092 14.922 9.17768L15.3372 9.40392C14.9954 9.41836 15.082 9.47131 14.9485 9.5387C15.6176 9.45807 15.4034 9.69875 15.6176 9.79141C15.3889 9.81307 15.1627 9.79141 15.2084 9.67107C14.715 9.83233 16.005 9.80585 15.5839 9.95989C15.5778 9.93341 15.6103 9.91175 15.4972 9.90573C15.6982 9.9659 15.5502 10.1404 15.3564 10.1139V10.0862C15.283 10.2872 15.3769 10.6879 15.9461 10.6879C15.8715 10.6879 15.2565 10.6952 15.1422 10.6879L17.0761 10.9431C16.5875 10.9431 15.4298 11.1163 15.1494 10.9695C15.082 11.0237 15.0026 11.0839 15.1831 11.1705C15.2493 11.1368 15.8847 11.0562 15.9316 11.0971C15.3961 11.2439 15.644 11.197 15.1892 11.3715C15.2902 11.3173 16.0592 11.3305 16.0387 11.404C15.9256 11.404 15.283 11.4521 15.2024 11.4244L15.9653 11.5712C15.8245 11.5315 15.3299 11.5989 15.1157 11.6519C15.2626 11.6254 15.1157 11.8191 15.1892 11.8661L15.3576 11.7794C15.2565 11.9996 16.4262 11.9334 16.3925 12.1464C16.2397 12.1272 15.437 12.1344 15.3432 12.2475C15.7307 12.274 17.2024 12.3606 17.5093 12.5279L17.2891 12.5761L17.5502 12.7024C16.969 12.6483 15.7379 12.4678 15.2565 12.3534C15.0881 12.4413 14.9954 12.3943 15.0219 12.5087C14.8209 12.5616 14.7078 12.4605 14.6946 12.428L14.5742 12.7156C15.0219 12.6747 15.0351 12.9022 15.4106 12.8697L14.9292 12.5953C15.3769 12.5544 16.2132 12.6952 16.1458 12.8962C15.9726 12.9563 15.3432 12.9022 15.1952 12.9166C15.3504 12.9359 15.5032 13.0839 15.3901 13.1092L15.1422 13.043C14.9822 13.1633 15.7439 13.1898 15.3227 13.3438C15.2963 13.392 14.7547 13.5183 15.0159 13.5051C15.5237 13.3968 17.1098 13.2909 17.4973 13.3173C17.4636 13.3378 17.0219 13.5845 16.768 13.6519C16.3733 13.7518 15.8053 13.5977 15.4635 13.6784C15.5839 13.6784 15.7379 13.7048 15.7908 13.7193C15.691 13.7722 15.4106 13.7193 15.4707 13.8252C15.9256 13.8131 15.4431 14.0394 15.8582 13.8529C15.9918 13.9455 15.7716 13.966 15.7981 14.0863C16.0929 14.0334 16.8017 14.1344 16.9413 14.2271C16.8282 14.2271 16.6741 14.2608 16.6079 14.274C16.5803 14.481 16.3793 14.6086 16.3793 14.8023C16.2734 14.8288 16.1386 14.9299 15.9461 14.9022C16.0255 14.9227 16.1868 14.9431 16.1988 15.0033C15.8113 15.1441 16.1326 14.8757 15.6645 14.9901C15.9316 14.9828 16.0387 15.1224 16.206 15.197C16.6152 15.1441 16.2734 14.9961 16.1061 14.9227C16.6681 14.889 17.2698 14.9961 17.5382 15.1838C17.6838 15.3378 17.1759 15.2777 17.2566 15.2969C17.1759 15.605 18.253 15.4919 17.8583 15.7662C17.5033 15.8866 17.1423 15.8192 16.8883 15.8589C16.7475 15.7386 17.1025 15.6447 17.0893 15.552L16.9208 15.6724C16.8005 15.6387 16.7078 15.5581 16.8077 15.5039C16.4864 15.6122 16.7752 16.0202 16.4864 16.2741C16.6067 16.3078 16.7343 16.3679 16.8811 16.327L16.8282 16.2548C17.1158 16.167 17.2361 16.3679 17.3637 16.2608C17.5707 16.3475 17.898 16.4341 17.7367 16.5821L17.33 16.6351C17.4503 16.6219 17.5707 16.528 17.4431 16.4943C17.6308 16.5424 16.9016 16.7482 17.4431 16.7759L17.7247 16.6555C17.9389 16.7422 18.3733 16.8288 18.253 16.9624C18.6537 16.8758 18.206 16.9359 18.6742 16.8156C18.0917 16.9359 18.6814 16.5015 18.0725 16.6616C18.614 16.5352 18.2999 16.4883 18.7608 16.3403C18.6284 16.3535 18.5081 16.4004 18.5683 16.2933C18.5279 16.2933 18.4875 16.2893 18.4479 16.2813H18.4539H18.4395C18.413 16.2813 18.4203 16.2813 18.4395 16.2813C18.3758 16.3112 18.3087 16.3334 18.2397 16.3475C17.9257 16.321 17.9257 16.1537 17.7644 16.1068C17.8246 16.0394 17.9184 16.12 18.0653 16.0803L17.8186 16.0129C18.1194 15.9865 18.3059 15.8192 18.4937 15.9455V15.8132C18.6669 15.7253 18.7271 15.6122 18.5935 15.5581C18.6537 15.4907 18.253 15.4245 18.4937 15.4642L18.2999 15.2716H18.3721C18.3998 15.0635 17.8583 14.883 18.3866 14.6146C18.3059 14.5544 18.2121 14.4882 18.2927 14.3679L18.5538 14.327C18.46 14.2476 18.8017 14.0526 18.5274 14.0334C19.2229 13.8998 18.6537 13.605 18.774 13.4437L18.4335 13.4581C18.4467 13.3498 18.3468 13.2572 18.206 13.1368L17.9052 13.1633C17.6513 13.0634 18.1062 12.8625 18.0653 12.682C18.1796 12.682 18.1519 12.7361 18.0857 12.7686C18.7476 12.5159 17.5707 12.3474 18.052 12.1272C17.9389 12.0863 17.9786 12.0466 18.052 12.0129C18.052 12.0129 18.052 12.0201 18.0653 12.0261V12.0069C18.1194 11.9792 18.1736 11.9527 18.2193 11.9334C18.1459 11.9599 18.0857 11.9792 18.0592 11.9996C18.052 11.9659 18.0111 11.9058 17.9317 11.8588L18.253 11.8191C18.253 11.8191 18.253 11.8119 18.2458 11.8059C18.3601 11.7457 18.0917 11.7722 17.851 11.8119C17.7878 11.7822 17.7205 11.7619 17.6513 11.7517C18.1663 11.6795 17.4708 11.6194 18.0183 11.5243C17.7439 11.505 17.7981 11.2571 17.2301 11.2571C17.3023 11.2571 17.336 11.2307 17.3432 11.2571C17.4034 11.191 17.4636 11.1308 17.3035 11.0839L17.7115 11.0357L17.1555 10.9298C17.4034 10.836 17.5442 10.7962 17.8655 10.8564C17.3697 10.6819 17.6705 10.7084 17.1832 10.5616H17.4503C17.4371 10.4942 17.0761 10.4208 17.2963 10.3739C17.7909 10.2138 17.33 9.71199 17.7776 9.34375C17.0027 9.44484 18.1194 9.17046 17.5177 9.1837C17.6982 9.15723 17.8053 9.10307 17.9654 9.15001C17.7776 8.98273 18.2458 8.87563 17.7307 8.77575C17.9184 8.74928 18.0051 8.80223 18.1122 8.77575C18.0725 8.76251 17.9521 8.72882 18.0592 8.70234C18.1663 8.68189 18.2121 8.7228 18.2999 8.74206C18.259 8.56877 17.691 8.57478 17.1567 8.58201C17.4034 8.48092 17.3637 8.43519 17.0159 8.38826C17.1892 8.34734 17.3697 8.28717 17.4371 8.39428C17.4563 8.32809 17.6705 7.99956 17.2433 8.0128C17.3492 7.98633 17.2698 7.92616 17.2229 7.91292L17.2494 7.75889L16.6946 8.63495C16.6946 8.63495 16.7548 8.62292 16.7945 8.58201L16.7415 8.52785C16.6007 8.03326 16.7945 8.38826 16.8619 8.29439L16.8739 8.34734C17.2096 8.62894 16.9148 8.14758 17.2566 8.48092L17.1555 8.18007C16.9822 7.51099 17.484 8.5086 17.5045 8.23423L17.4238 8.06575C17.4503 7.81906 17.7644 8.95024 17.7849 9.03689C17.7969 9.09706 17.7849 9.13677 17.7849 9.1837C17.898 9.57841 17.7367 8.76251 17.8053 8.64819C17.8318 8.87684 17.8378 9.23063 17.8715 9.27034C17.8847 9.36421 17.892 9.17046 17.9317 9.01041C17.9654 8.84916 18.0328 8.70956 18.0328 8.9358C18.0388 8.75529 18.0328 8.57479 18.0929 8.43519C18.1856 8.35456 18.1122 9.10909 18.2927 8.51462C18.2905 8.56491 18.2815 8.61468 18.2662 8.66263C18.3468 8.50138 18.4864 8.38826 18.6477 8.05372C18.4467 8.65541 18.5538 8.50138 18.7079 8.33411C18.8547 8.16684 19.0352 7.98031 18.7139 8.55553L18.8884 8.48092L18.8077 8.60126C18.8342 8.66865 19.0556 8.39428 19.2963 8.11389C19.2626 8.19331 19.1688 8.30041 19.1218 8.36058C19.1098 8.4749 19.1026 8.51462 19.176 8.46167C19.2157 8.43519 19.2759 8.37502 19.3637 8.29319C19.4359 8.23302 19.531 8.14758 19.6513 8.04048L19.336 8.41353H19.3433C19.4167 8.34133 19.2963 8.53387 19.1964 8.69512C19.0954 8.85638 19.028 8.97672 19.2085 8.86962C19.176 8.90331 19.1086 8.95024 19.0689 8.98273C19.2566 8.88285 19.0424 9.16324 18.9148 9.29802C18.7945 9.44484 18.768 9.47853 19.3565 9.16324C19.4564 9.14399 19.5502 9.12353 19.6513 9.11631C19.738 8.89609 20.1592 8.86962 20.3529 8.68911C20.4263 8.74928 20.0051 9.08382 19.9449 9.01643L20.0051 8.9695C19.3902 9.25109 19.7981 9.28358 19.3769 9.45085C19.3962 9.57841 19.3288 9.73245 19.2494 9.86001C19.2289 9.8925 19.2097 9.91295 19.1892 9.95267L19.1423 10.1211C19.1137 10.23 19.0979 10.3419 19.0954 10.4545L19.5767 10.3739L19.5575 10.5279C19.4431 10.576 19.176 10.6085 19.1892 10.5014C18.9148 10.5748 19.4299 10.6615 19.5382 10.6615C19.3565 10.8829 18.9618 10.6218 18.9546 10.6891L18.9955 10.7758L19.0484 10.7493C19.2566 10.8023 19.4636 10.7962 19.4504 10.9226C19.3565 11.0092 19.1555 10.99 19.1363 11.0237C19.1026 11.0237 19.0881 11.0357 19.123 11.0766L19.0954 11.2704L19.4768 11.1633C19.6706 11.2307 19.4768 11.3438 19.898 11.2174C19.2362 11.3979 19.7175 11.9395 19.5165 12.0333C19.8054 12.1272 19.8114 12.2403 19.7909 12.3871C19.8643 12.3474 20.2999 12.2812 20.2602 12.4076C19.3637 12.4485 19.892 12.6687 19.2626 12.836C19.6778 12.7024 19.4034 13.1765 19.9919 12.9768C19.9317 13.0827 19.6573 13.0165 19.4564 13.1164C19.8318 13.3246 19.2891 13.6784 19.4443 13.9732C19.5647 13.966 19.7307 13.8926 19.9185 13.9395L19.3493 14.1669C19.4167 14.2199 20.0316 14.1405 19.6381 14.3005C19.7307 14.274 19.8788 14.2331 19.9185 14.2668C19.4239 14.9287 20.5334 15.404 19.5502 16.1537C19.7644 16.0394 19.7981 16.0936 19.8114 16.1537C19.8583 16.1056 20.099 16.1128 20.253 16.0803L19.8511 16.3932C20.2927 16.374 19.9185 16.6616 20.3469 16.6219L20.259 16.5545C20.7681 16.5821 21.3361 16.2404 21.9715 16.167C21.3902 16.1333 22.7609 15.7458 21.9317 15.6724C22.0521 15.6122 22.1387 15.6784 22.2855 15.6387C22.0051 15.6315 21.945 15.5785 22.0521 15.4582H22.1195C22.0112 15.1694 22.2663 15.0033 22.3999 14.6423L22.0918 14.7085C22.1255 14.6278 22.2194 14.6014 22.3 14.5616C21.8114 14.5412 22.3 14.7686 21.7645 14.7626C22.3926 14.5821 21.7115 14.2476 22.4263 14.0935C22.4203 13.9792 22.0653 14.1669 22.0593 14.0598L22.2518 14.0069H21.9991C22.0316 13.9323 22.2723 13.8661 22.4396 13.8384C22.4203 13.8589 22.4937 13.8865 22.507 13.8986C22.7272 13.7782 22.3999 13.6459 22.4673 13.5977L22.3589 13.7181C22.1387 13.4377 22.3589 13.037 21.9257 12.7818L21.7777 12.8228C21.4769 12.6218 21.9245 12.6218 21.7705 12.3871H21.8042C21.6501 12.3606 21.5707 12.3005 21.5767 12.2271C21.7573 12.274 21.9053 12.0803 22.1062 12.1404C21.7849 11.9262 21.8656 12.0393 21.2964 11.9334L21.537 11.8733C21.3096 11.8396 21.1893 11.8456 21.1158 11.7253C21.3361 11.8059 21.4829 11.6121 21.7777 11.6988C22.2928 11.3907 21.1953 11.357 21.9787 11.1765C21.2831 11.1163 21.6177 11.4316 21.4636 11.3775C21.2422 11.4509 20.9414 11.3245 21.0087 11.2307C21.0148 11.144 21.8716 11.0165 21.8451 10.8095C21.8451 10.8287 21.898 10.8287 21.892 10.8492C22.0593 10.7553 21.6441 10.7156 21.9185 10.5953C21.4973 10.5748 21.9305 10.4677 21.4035 10.4942L21.543 10.6747C21.3962 10.5748 20.7681 10.5219 21.0617 10.3137C21.17 10.3137 21.3168 10.3678 21.3962 10.3943C21.5503 10.3341 21.2891 10.3004 21.4444 10.2343C21.9715 10.2138 21.5707 10.4617 21.9859 10.5471C22.2061 10.4749 21.584 10.3546 22.1664 10.3739C21.4299 10.3414 22.2458 10.1669 21.6778 10.061L21.9907 10.0465C21.9378 10.0261 21.7909 9.99358 21.7909 9.95267L22.2061 10.0008C22.0256 9.95267 22.0978 9.8925 22.1929 9.83233C22.2398 9.79863 22.2928 9.77938 22.3192 9.73846C22.3469 9.68551 22.3469 9.63858 22.3 9.59165C22.3192 9.81307 22.2194 9.79262 22.099 9.80585C21.9715 9.80585 21.8174 9.80585 21.7043 9.85278C21.2554 9.52546 22.513 9.5387 22.3397 8.99597C22.3866 9.07058 22.1592 9.31728 22.0124 9.23063C22.0939 9.07651 22.2105 8.94375 22.3529 8.84314C22.2723 8.49416 22.0316 8.98995 21.8319 8.88887C22.2049 8.65541 21.6706 8.76853 21.537 8.68189L21.8583 8.56155C22.0449 8.09343 21.1893 8.73604 21.4227 8.32087C21.5707 8.29439 21.7236 8.26792 21.8716 8.25348L21.7512 8.12712L22.1123 7.98633C21.8379 7.91292 21.9053 7.82628 22.0051 7.56514C21.7849 7.74565 21.4299 7.88645 21.4155 7.74565C21.6044 7.51099 21.7175 7.61207 21.6706 7.41111C21.8716 7.32446 22.1195 7.22458 21.8319 7.52543C21.9378 7.47128 22.0316 7.45082 22.1327 7.39787C22.3469 7.1235 22.1724 7.01639 22.1724 6.92855C22.1592 6.97668 22.1459 7.02963 22.099 7.08378C21.9502 7.06494 21.8002 7.0561 21.6501 7.05731C21.7251 6.95251 21.8339 6.87683 21.9582 6.84311C21.9245 6.79497 21.7777 6.86236 21.744 6.78895C22.0052 6.60243 22.2663 6.36055 22.3938 6.43516C22.2994 6.3842 22.2008 6.34152 22.099 6.3076C22.2121 6.18726 22.4071 5.83828 22.4997 5.79977C22.6478 5.41829 21.9919 5.77209 22.1869 5.31119C22.1387 5.3509 22.0858 5.37738 22.0521 5.36414V5.35211C21.9787 5.21733 21.9787 4.92972 21.4227 5.31119C21.4901 5.14994 21.5575 4.98989 21.6177 4.82984C21.3168 4.95017 21.383 5.43153 20.9077 5.63851C20.5671 5.80699 21.0954 5.22455 21.0954 5.09699C20.7945 5.3509 20.3132 5.86716 20.306 5.47846C20.4335 5.3846 20.454 5.45199 20.5406 5.41107L20.4865 5.42431ZM17.8318 5.92011C17.8787 5.83948 17.9918 5.61204 18.0183 5.79977C17.9461 6.18726 17.9184 6.01277 17.8318 5.92011ZM15.6561 8.81546C15.549 8.79621 15.5959 8.75529 15.7162 8.70836C15.7439 8.73604 15.7367 8.77455 15.6561 8.81546ZM18.2722 15.765H18.2578C18.3781 15.6856 18.3324 15.7121 18.2722 15.765ZM18.1375 15.9263C18.1818 15.9364 18.2279 15.9364 18.2722 15.9263C18.1916 15.9263 18.1844 15.8854 18.2048 15.8457C18.1182 15.8589 18.064 15.8854 18.1375 15.9263ZM19.2085 11.0429L19.2879 11.0092C19.389 11.0694 19.3023 11.0574 19.2085 11.0429Z" fill="#FFBF00"/>
<path d="M15.2037 8.54109C15.2609 8.52766 15.3195 8.52119 15.3782 8.52184C15.3196 8.50812 15.258 8.51492 15.2037 8.54109ZM22.1329 5.30879V5.32202L22.193 5.26907L22.1401 5.30879H22.1329ZM15.2964 13.771C15.3451 13.7382 15.4 13.7156 15.4577 13.7048C15.377 13.7048 15.3096 13.7241 15.2964 13.771ZM18.7357 16.6748L18.6491 16.5882C18.6683 16.6363 18.5949 16.6555 18.548 16.682C18.6226 16.6748 18.7285 16.6483 18.7357 16.682V16.6748ZM16.7874 17.6447C16.8283 17.658 16.7874 17.6724 16.8355 17.6856L16.9824 17.6724C16.9691 17.6122 16.8488 17.5785 16.7886 17.6447H16.7874ZM17.6719 16.8349C17.4047 16.8613 17.4986 16.9155 17.5516 16.9829V16.9672C17.933 16.9612 17.7995 16.901 17.6719 16.8349ZM17.5576 16.9949C17.5576 16.9949 17.578 17.0346 17.5708 17.0551C17.7249 17.0551 17.6033 17.0286 17.5576 16.9949ZM18.3338 16.1008C18.2676 16.1333 18.6827 16.1008 18.5744 16.12C18.9234 16.1333 18.146 15.9407 18.3338 16.1008ZM16.7826 16.9552L17.1171 16.9095L16.8428 16.889L16.7826 16.9552ZM16.9956 16.4064L16.909 16.5208C16.9619 16.5208 16.9956 16.5208 17.0221 16.54C17.0293 16.4738 17.0955 16.3932 16.9956 16.4064ZM17.0305 16.5412C17.0305 16.5749 17.0305 16.6086 17.0907 16.6219C17.0907 16.6014 17.0702 16.5617 17.0305 16.5412ZM16.6755 16.8144L16.7417 16.7747L16.7621 16.7013L16.6755 16.8144ZM17.0028 15.2428L16.9017 15.1284C16.7886 15.1284 16.7212 15.1621 16.7694 15.2019C16.8488 15.2223 16.8957 15.2692 17.01 15.2428H17.0028ZM16.1063 15.6591C16.1873 15.6246 16.2728 15.6019 16.3602 15.5918L15.9462 15.6182L16.1063 15.6664V15.6591ZM15.9932 15.3234C15.8789 15.3234 15.6526 15.1766 15.6851 15.3234C15.7994 15.3234 15.8993 15.4377 15.9932 15.3234ZM16.4216 13.5183L16.4276 13.552L17.1099 13.5039L16.4216 13.5183ZM14.7092 12.0454C14.5551 12.1922 15.1303 12.0514 14.9366 12.1922C15.0966 12.2186 15.0966 12.0779 15.2374 12.1055C15.063 12.0321 15.158 11.978 14.7092 12.0454Z" fill="#FFBF00"/>
<path d="M15.2363 12.1055C15.2363 12.1055 15.2965 12.1332 15.3446 12.1464C15.2965 12.126 15.27 12.1127 15.2363 12.1055ZM19.4987 16.6218L19.3712 16.7349L19.5926 16.6411L19.4987 16.6218ZM20.027 16.7217L19.5986 16.8096H19.9933C19.9933 16.8096 19.9259 16.7494 20.0198 16.7229H20.027V16.7217ZM17.3651 5.11622V5.22332C17.3976 5.33042 17.4373 5.33042 17.5119 5.33644L17.3651 5.11622ZM19.4987 5.14149L19.465 5.13547L19.3916 5.5362L19.4987 5.14149ZM21.5589 4.52054C21.4915 4.5073 21.3447 4.60117 21.2773 4.58793C21.4915 4.5073 21.2376 5.02837 21.5589 4.52054Z" fill="#FFBF00"/>
</g>
</g>
</g>
</g>
</g>
<defs>
<clipPath id="clip0_1_542">
<rect width="71" height="96" fill="white"/>
</clipPath>
<clipPath id="clip1_1_542">
<rect width="71" height="96.26" fill="white"/>
</clipPath>
<clipPath id="clip2_1_542">
<rect width="71" height="96.26" fill="white"/>
</clipPath>
<clipPath id="clip3_1_542">
<rect width="71" height="96.2712" fill="white" transform="translate(0 -0.000579834)"/>
</clipPath>
</defs>
</svg>
