<svg width="73" height="73" viewBox="0 0 73 73" fill="none" xmlns="http://www.w3.org/2000/svg">
<rect x="0.340088" y="0.200195" width="72" height="72" rx="24" fill="#FFBF00"/>
<path d="M55.09 36.2002C55.0901 37.9309 54.577 39.6227 53.6156 41.0618C52.6541 42.5008 51.2875 43.6224 49.6886 44.2848C48.0896 44.9471 46.3302 45.1204 44.6328 44.7827C42.9354 44.445 41.3762 43.6116 40.1525 42.3877L40.1009 42.333L30.7337 31.7549C29.8568 30.8882 28.743 30.3002 27.5327 30.065C26.3223 29.8298 25.0694 29.9578 23.9316 30.433C22.7939 30.9082 21.8221 31.7093 21.1386 32.7355C20.4551 33.7618 20.0904 34.9672 20.0904 36.2002C20.0904 37.4332 20.4551 38.6387 21.1386 39.6649C21.8221 40.6911 22.7939 41.4922 23.9316 41.9674C25.0694 42.4426 26.3223 42.5707 27.5327 42.3354C28.743 42.1002 29.8568 41.5123 30.7337 40.6455L32.065 39.1424C32.1738 39.0193 32.3059 38.9188 32.4536 38.8467C32.6012 38.7747 32.7617 38.7324 32.9257 38.7223C33.0897 38.7122 33.2541 38.7345 33.4095 38.788C33.5649 38.8414 33.7083 38.925 33.8314 39.0338C33.9545 39.1427 34.055 39.2747 34.1271 39.4224C34.1992 39.5701 34.2414 39.7305 34.2515 39.8945C34.2616 40.0586 34.2393 40.223 34.1858 40.3784C34.1324 40.5338 34.0488 40.6771 33.94 40.8002L32.5822 42.333L32.5306 42.3877C31.3069 43.6113 29.7478 44.4446 28.0505 44.7822C26.3532 45.1197 24.5939 44.9464 22.9951 44.2841C21.3963 43.6218 20.0298 42.5003 19.0683 41.0614C18.1069 39.6225 17.5938 37.9308 17.5938 36.2002C17.5938 34.4697 18.1069 32.778 19.0683 31.3391C20.0298 29.9002 21.3963 28.7787 22.9951 28.1164C24.5939 27.4541 26.3532 27.2807 28.0505 27.6183C29.7478 27.9558 31.3069 28.7891 32.5306 30.0127L32.5822 30.0674L41.9494 40.6455C42.8263 41.5123 43.9401 42.1002 45.1505 42.3354C46.3608 42.5707 47.6137 42.4426 48.7515 41.9674C49.8892 41.4922 50.861 40.6911 51.5445 39.6649C52.228 38.6387 52.5927 37.4332 52.5927 36.2002C52.5927 34.9672 52.228 33.7618 51.5445 32.7355C50.861 31.7093 49.8892 30.9082 48.7515 30.433C47.6137 29.9578 46.3608 29.8298 45.1505 30.065C43.9401 30.3002 42.8263 30.8882 41.9494 31.7549L40.6181 33.258C40.3983 33.5067 40.0887 33.6578 39.7574 33.6782C39.4261 33.6985 39.1004 33.5865 38.8517 33.3666C38.6031 33.1468 38.4519 32.8372 38.4316 32.5059C38.4112 32.1746 38.5233 31.8489 38.7431 31.6002L40.1009 30.0674L40.1525 30.0127C41.3762 28.7889 42.9354 27.9554 44.6328 27.6178C46.3302 27.2801 48.0896 27.4534 49.6886 28.1157C51.2875 28.778 52.6541 29.8996 53.6156 31.3387C54.577 32.7777 55.0901 34.4695 55.09 36.2002Z" fill="#1A1528"/>
</svg>
