<svg width="72" height="73" viewBox="0 0 72 73" fill="none" xmlns="http://www.w3.org/2000/svg">
<rect y="0.200195" width="72" height="72" rx="24" fill="#FFBF00"/>
<path d="M52.25 48.7002C52.25 49.0317 52.1183 49.3497 51.8839 49.5841C51.6495 49.8185 51.3315 49.9502 51 49.9502H21C20.6685 49.9502 20.3505 49.8185 20.1161 49.5841C19.8817 49.3497 19.75 49.0317 19.75 48.7002V23.7002C19.75 23.3687 19.8817 23.0507 20.1161 22.8163C20.3505 22.5819 20.6685 22.4502 21 22.4502C21.3315 22.4502 21.6495 22.5819 21.8839 22.8163C22.1183 23.0507 22.25 23.3687 22.25 23.7002V47.4502H51C51.3315 47.4502 51.6495 47.5819 51.8839 47.8163C52.1183 48.0507 52.25 48.3687 52.25 48.7002ZM36.625 41.2002C36.9958 41.2002 37.3584 41.0902 37.6667 40.8842C37.975 40.6782 38.2154 40.3853 38.3573 40.0427C38.4992 39.7001 38.5363 39.3231 38.464 38.9594C38.3916 38.5957 38.213 38.2616 37.9508 37.9994C37.6886 37.7371 37.3545 37.5586 36.9908 37.4862C36.6271 37.4139 36.2501 37.451 35.9075 37.5929C35.5649 37.7348 35.272 37.9752 35.066 38.2835C34.86 38.5918 34.75 38.9544 34.75 39.3252C34.75 39.8225 34.9475 40.2994 35.2992 40.651C35.6508 41.0027 36.1277 41.2002 36.625 41.2002ZM32.875 32.4502C33.2458 32.4502 33.6084 32.3402 33.9167 32.1342C34.225 31.9282 34.4654 31.6353 34.6073 31.2927C34.7492 30.9501 34.7863 30.5731 34.714 30.2094C34.6416 29.8457 34.463 29.5116 34.2008 29.2494C33.9386 28.9871 33.6045 28.8086 33.2408 28.7362C32.8771 28.6639 32.5001 28.701 32.1575 28.8429C31.8149 28.9848 31.522 29.2252 31.316 29.5335C31.11 29.8418 31 30.2044 31 30.5752C31 31.0725 31.1975 31.5494 31.5492 31.901C31.9008 32.2527 32.3777 32.4502 32.875 32.4502ZM27.875 43.7002C28.2458 43.7002 28.6084 43.5902 28.9167 43.3842C29.225 43.1782 29.4654 42.8853 29.6073 42.5427C29.7492 42.2001 29.7863 41.8231 29.714 41.4594C29.6416 41.0957 29.463 40.7616 29.2008 40.4994C28.9386 40.2371 28.6045 40.0586 28.2408 39.9862C27.8771 39.9139 27.5001 39.951 27.1575 40.0929C26.8149 40.2348 26.522 40.4752 26.316 40.7835C26.11 41.0918 26 41.4544 26 41.8252C26 42.3225 26.1975 42.7994 26.5492 43.151C26.9008 43.5027 27.3777 43.7002 27.875 43.7002ZM42.875 36.2002C43.2458 36.2002 43.6084 36.0902 43.9167 35.8842C44.225 35.6782 44.4654 35.3853 44.6073 35.0427C44.7492 34.7001 44.7863 34.3231 44.714 33.9594C44.6416 33.5957 44.463 33.2616 44.2008 32.9994C43.9386 32.7371 43.6045 32.5586 43.2408 32.4862C42.8771 32.4139 42.5001 32.451 42.1575 32.5929C41.8149 32.7348 41.522 32.9752 41.316 33.2835C41.11 33.5918 41 33.9544 41 34.3252C41 34.8225 41.1975 35.2994 41.5492 35.651C41.9008 36.0027 42.3777 36.2002 42.875 36.2002ZM46.625 29.9502C46.9958 29.9502 47.3584 29.8402 47.6667 29.6342C47.975 29.4282 48.2154 29.1353 48.3573 28.7927C48.4992 28.4501 48.5363 28.0731 48.464 27.7094C48.3916 27.3457 48.213 27.0116 47.9508 26.7494C47.6886 26.4871 47.3545 26.3086 46.9908 26.2362C46.6271 26.1639 46.2501 26.201 45.9075 26.3429C45.5649 26.4848 45.272 26.7252 45.066 27.0335C44.86 27.3418 44.75 27.7044 44.75 28.0752C44.75 28.5725 44.9475 29.0494 45.2992 29.401C45.6508 29.7527 46.1277 29.9502 46.625 29.9502ZM43.5 41.8252C43.5 42.196 43.61 42.5585 43.816 42.8669C44.022 43.1752 44.3149 43.4156 44.6575 43.5575C45.0001 43.6994 45.3771 43.7365 45.7408 43.6642C46.1045 43.5918 46.4386 43.4132 46.7008 43.151C46.963 42.8888 47.1416 42.5547 47.214 42.191C47.2863 41.8273 47.2492 41.4503 47.1073 41.1077C46.9654 40.7651 46.725 40.4722 46.4167 40.2662C46.1084 40.0602 45.7458 39.9502 45.375 39.9502C44.8777 39.9502 44.4008 40.1477 44.0492 40.4994C43.6975 40.851 43.5 41.3279 43.5 41.8252Z" fill="#1A1528"/>
</svg>
