<svg width="73" height="73" viewBox="0 0 73 73" fill="none" xmlns="http://www.w3.org/2000/svg">
<rect x="0.669922" y="0.200195" width="72" height="72" rx="24" fill="#FFBF00"/>
<path d="M51.4028 35.4283L37.6528 17.9283C37.5359 17.7795 37.3866 17.6591 37.2164 17.5764C37.0461 17.4937 36.8593 17.4507 36.67 17.4507C36.4807 17.4507 36.2939 17.4937 36.1236 17.5764C35.9534 17.6591 35.8042 17.7795 35.6872 17.9283L21.9372 35.4283C21.7644 35.6485 21.6704 35.9203 21.6704 36.2002C21.6704 36.4801 21.7644 36.7519 21.9372 36.972L35.6872 54.472C35.8042 54.6209 35.9534 54.7412 36.1236 54.8239C36.2939 54.9067 36.4807 54.9497 36.67 54.9497C36.8593 54.9497 37.0461 54.9067 37.2164 54.8239C37.3866 54.7412 37.5359 54.6209 37.6528 54.472L51.4028 36.972C51.5757 36.7519 51.6696 36.4801 51.6696 36.2002C51.6696 35.9203 51.5757 35.6485 51.4028 35.4283ZM37.92 22.3142L48.4544 35.7205L37.92 40.5095V22.3142ZM35.42 40.5095L24.8856 35.7205L35.42 22.3142V40.5095ZM35.42 43.2549V50.0861L27.0716 39.4611L35.42 43.2549ZM37.92 43.2549L46.2684 39.4595L37.92 50.0845V43.2549Z" fill="#1A1528"/>
</svg>
