<svg width="89" height="26" viewBox="0 0 89 26" fill="none" xmlns="http://www.w3.org/2000/svg">
<path d="M85.2681 25.9514H3.99319C2.20595 25.9514 0.742188 24.5017 0.742188 22.7316V3.41293C0.742188 1.64285 2.20595 0.193144 3.99319 0.193144H85.2681C87.0554 0.193144 88.5191 1.64285 88.5191 3.41293V22.7316C88.5191 24.5017 87.0554 25.9514 85.2681 25.9514Z" fill="white"/>
<path d="M85.2681 0.709112C86.7733 0.709112 87.9982 1.92217 87.9982 3.41293V22.7316C87.9982 24.2224 86.7733 25.4354 85.2681 25.4354H3.99319C2.48797 25.4354 1.26316 24.2224 1.26316 22.7316V3.41293C1.26316 1.92217 2.48797 0.709112 3.99319 0.709112H85.2681ZM85.2681 0.193144H3.99319C2.20595 0.193144 0.742188 1.64285 0.742188 3.41293V22.7316C0.742188 24.5017 2.20595 25.9514 3.99319 25.9514H85.2681C87.0554 25.9514 88.5191 24.5017 88.5191 22.7316V3.41293C88.5191 1.64285 87.0554 0.193144 85.2681 0.193144Z" fill="#A6A6A6"/>
<path d="M7.03981 5.04785C6.84881 5.24587 6.73828 5.55416 6.73828 5.95341V20.1945C6.73828 20.5938 6.84881 20.9021 7.03981 21.1001L7.08695 21.1436L15.1445 13.1665V12.9782L7.08695 5.00117L7.03981 5.04785Z" fill="black"/>
<path d="M18.802 15.8267L16.1191 13.1663V12.978L18.8053 10.3176L18.8654 10.3522L22.0465 12.1448C22.9544 12.6536 22.9544 13.4907 22.0465 14.0027L18.8654 15.792L18.802 15.8267Z" fill="black"/>
<path d="M18.3784 16.2876L15.6321 13.5676L7.52734 21.5954C7.82887 21.9093 8.32059 21.9471 8.87976 21.6332L18.3784 16.2876Z" fill="black"/>
<path d="M18.3784 9.85699L8.87976 4.51135C8.32059 4.20064 7.82887 4.23847 7.52734 4.5524L15.6321 12.5769L18.3784 9.85699Z" fill="black"/>
<path d="M31.5743 6.78954C31.5743 7.32724 31.4118 7.75789 31.0915 8.07906C30.7234 8.4598 30.2438 8.65138 29.6562 8.65138C29.0946 8.65138 28.6151 8.45658 28.2217 8.07262C27.8275 7.68303 27.6309 7.20489 27.6309 6.63257C27.6309 6.06026 27.8275 5.58212 28.2217 5.19575C28.6151 4.80857 29.0946 4.61377 29.6562 4.61377C29.9358 4.61377 30.2024 4.67092 30.4568 4.77717C30.7104 4.88423 30.9168 5.02912 31.0663 5.20782L30.7266 5.54751C30.4657 5.24243 30.1106 5.09191 29.6562 5.09191C29.2466 5.09191 28.8914 5.23358 28.5899 5.51933C28.2916 5.80589 28.1421 6.17697 28.1421 6.63257C28.1421 7.08817 28.2916 7.46247 28.5899 7.74903C28.8914 8.03157 29.2466 8.17646 29.6562 8.17646C30.0911 8.17646 30.4568 8.03157 30.7453 7.74581C30.9355 7.55665 31.0436 7.29585 31.072 6.9626H29.6562V6.49734H31.5451C31.5678 6.59796 31.5743 6.69536 31.5743 6.78954Z" fill="black" stroke="black" stroke-width="0.0780246" stroke-miterlimit="10"/>
<path d="M34.5714 5.17651H32.7972V6.40002H34.3967V6.86528H32.7972V8.0888H34.5714V8.56291H32.2949V4.70239H34.5714V5.17651Z" fill="black" stroke="black" stroke-width="0.0780246" stroke-miterlimit="10"/>
<path d="M36.6843 8.56291H36.182V5.17651H35.0938V4.70239H37.7734V5.17651H36.6843V8.56291Z" fill="black" stroke="black" stroke-width="0.0780246" stroke-miterlimit="10"/>
<path d="M39.7148 8.56291V4.70239H40.2163V8.56291H39.7148Z" fill="black" stroke="black" stroke-width="0.0780246" stroke-miterlimit="10"/>
<path d="M42.4382 8.56291H41.94V5.17651H40.8477V4.70239H43.5305V5.17651H42.4382V8.56291Z" fill="black" stroke="black" stroke-width="0.0780246" stroke-miterlimit="10"/>
<path d="M48.6035 8.06618C48.219 8.45658 47.7428 8.65138 47.1746 8.65138C46.6033 8.65138 46.127 8.45658 45.7426 8.06618C45.359 7.67659 45.168 7.19845 45.168 6.63257C45.168 6.0667 45.359 5.58856 45.7426 5.19897C46.127 4.80857 46.6033 4.61377 47.1746 4.61377C47.7395 4.61377 48.2158 4.80857 48.6002 5.20218C48.9871 5.595 49.1781 6.06992 49.1781 6.63257C49.1781 7.19845 48.9871 7.67659 48.6035 8.06618ZM46.114 7.74259C46.4033 8.03157 46.7553 8.17646 47.1746 8.17646C47.5908 8.17646 47.9459 8.03157 48.232 7.74259C48.5206 7.45362 48.6669 7.08254 48.6669 6.63257C48.6669 6.18261 48.5206 5.81153 48.232 5.52255C47.9459 5.23358 47.5908 5.08869 47.1746 5.08869C46.7553 5.08869 46.4033 5.23358 46.114 5.52255C45.8255 5.81153 45.6792 6.18261 45.6792 6.63257C45.6792 7.08254 45.8255 7.45362 46.114 7.74259Z" fill="black" stroke="black" stroke-width="0.0780246" stroke-miterlimit="10"/>
<path d="M49.8828 8.56291V4.70239H50.4924L52.3877 7.70484H52.4097L52.3877 6.96268V4.70239H52.8892V8.56291H52.3658L50.381 5.41235H50.3591L50.381 6.15773V8.56291H49.8828Z" fill="black" stroke="black" stroke-width="0.0780246" stroke-miterlimit="10"/>
<path d="M45.0449 14.2007C43.5177 14.2007 42.2702 15.3518 42.2702 16.9399C42.2702 18.5152 43.5177 19.6783 45.0449 19.6783C46.5753 19.6783 47.8229 18.5152 47.8229 16.9399C47.8229 15.3518 46.5753 14.2007 45.0449 14.2007ZM45.0449 18.5997C44.2069 18.5997 43.486 17.9147 43.486 16.9399C43.486 15.9522 44.2069 15.2793 45.0449 15.2793C45.8828 15.2793 46.607 15.9522 46.607 16.9399C46.607 17.9147 45.8828 18.5997 45.0449 18.5997ZM38.9907 14.2007C37.4603 14.2007 36.216 15.3518 36.216 16.9399C36.216 18.5152 37.4603 19.6783 38.9907 19.6783C40.5203 19.6783 41.7654 18.5152 41.7654 16.9399C41.7654 15.3518 40.5203 14.2007 38.9907 14.2007ZM38.9907 18.5997C38.152 18.5997 37.4286 17.9147 37.4286 16.9399C37.4286 15.9522 38.152 15.2793 38.9907 15.2793C39.8287 15.2793 40.5496 15.9522 40.5496 16.9399C40.5496 17.9147 39.8287 18.5997 38.9907 18.5997ZM31.7865 15.0402V16.2042H34.5929C34.5108 16.8546 34.2914 17.3327 33.9549 17.666C33.5453 18.0685 32.9073 18.5152 31.7865 18.5152C30.0594 18.5152 28.707 17.1347 28.707 15.4242C28.707 13.7137 30.0594 12.3332 31.7865 12.3332C32.7204 12.3332 33.3998 12.6946 33.9013 13.1631L34.7295 12.3429C34.0281 11.6796 33.095 11.1701 31.7865 11.1701C29.4182 11.1701 27.4277 13.0786 27.4277 15.4242C27.4277 17.7698 29.4182 19.6783 31.7865 19.6783C33.0666 19.6783 34.0281 19.263 34.7839 18.4838C35.5585 17.7167 35.7999 16.6381 35.7999 15.7671C35.7999 15.4966 35.7771 15.2479 35.7365 15.0402H31.7865ZM61.2454 15.9426C61.017 15.33 60.3124 14.2007 58.8771 14.2007C57.4548 14.2007 56.2706 15.3107 56.2706 16.9399C56.2706 18.4741 57.4426 19.6783 59.0136 19.6783C60.2839 19.6783 61.017 18.9112 61.3186 18.4645L60.3758 17.8423C60.0612 18.2979 59.6329 18.5997 59.0136 18.5997C58.3984 18.5997 57.957 18.3204 57.6742 17.7698L61.373 16.2541L61.2454 15.9426ZM57.4743 16.8546C57.4426 15.7985 58.3025 15.2576 58.9185 15.2576C59.4013 15.2576 59.8109 15.4966 59.9475 15.8388L57.4743 16.8546ZM54.4679 19.5117H55.6838V11.4623H54.4679V19.5117ZM52.4767 14.8108H52.436C52.1629 14.4905 51.642 14.2007 50.982 14.2007C49.5971 14.2007 48.3308 15.4049 48.3308 16.9488C48.3308 18.4838 49.5971 19.6783 50.982 19.6783C51.642 19.6783 52.1629 19.3861 52.436 19.0561H52.4767V19.4489C52.4767 20.4962 51.9118 21.0588 51.0007 21.0588C50.2579 21.0588 49.797 20.5276 49.6068 20.0808L48.5495 20.5179C48.8542 21.244 49.6613 22.1375 51.0007 22.1375C52.4263 22.1375 53.6291 21.3067 53.6291 19.2855V14.3673H52.4767V14.8108ZM51.0861 18.5997C50.2481 18.5997 49.5467 17.905 49.5467 16.9488C49.5467 15.9836 50.2481 15.2793 51.0861 15.2793C51.9118 15.2793 52.5628 15.9836 52.5628 16.9488C52.5628 17.905 51.9118 18.5997 51.0861 18.5997ZM66.9379 11.4623H64.0299V19.5117H65.2425V16.4618H66.9379C68.2846 16.4618 69.6053 15.4966 69.6053 13.9616C69.6053 12.4274 68.2814 11.4623 66.9379 11.4623ZM66.9696 15.3421H65.2425V12.5819H66.9696C67.875 12.5819 68.3919 13.3265 68.3919 13.9616C68.3919 14.5846 67.875 15.3421 66.9696 15.3421ZM74.4656 14.1854C73.5895 14.1854 72.6784 14.5685 72.3037 15.4178L73.3798 15.8645C73.6114 15.4178 74.0373 15.2729 74.4875 15.2729C75.1166 15.2729 75.7546 15.6472 75.7644 16.308V16.3926C75.5449 16.267 75.0752 16.081 74.4973 16.081C73.3383 16.081 72.1574 16.7129 72.1574 17.8922C72.1574 18.9708 73.1067 19.6655 74.1738 19.6655C74.9898 19.6655 75.4401 19.3008 75.7229 18.8766H75.7644V19.4988H76.9355V16.4111C76.9355 14.9839 75.8595 14.1854 74.4656 14.1854ZM74.3193 18.5965C73.9227 18.5965 73.37 18.4017 73.37 17.9147C73.37 17.2917 74.0592 17.0526 74.6558 17.0526C75.1898 17.0526 75.4401 17.1693 75.7644 17.3231C75.6693 18.0685 75.0215 18.5965 74.3193 18.5965ZM81.2025 14.3617L79.8086 17.8511H79.7672L78.3262 14.3617H77.0184L79.1836 19.238L77.9482 21.9515H79.2153L82.5516 14.3617H81.2025ZM70.2718 19.5117H71.4877V11.4623H70.2718V19.5117Z" fill="black"/>
</svg>
