<svg width="126" height="37" viewBox="0 0 126 37" fill="none" xmlns="http://www.w3.org/2000/svg">
<path d="M121.333 36.3999H4.66667C2.10117 36.3999 0 34.3513 0 31.8499V4.5499C0 2.04854 2.10117 -9.57325e-05 4.66667 -9.57325e-05H121.333C123.899 -9.57325e-05 126 2.04854 126 4.5499V31.8499C126 34.3513 123.899 36.3999 121.333 36.3999Z" fill="black"/>
<path d="M121.333 0.729039C123.494 0.729039 125.252 2.44325 125.252 4.5499V31.8499C125.252 33.9566 123.494 35.6708 121.333 35.6708H4.66667C2.506 35.6708 0.747833 33.9566 0.747833 31.8499V4.5499C0.747833 2.44325 2.506 0.729039 4.66667 0.729039H121.333ZM121.333 -9.57325e-05H4.66667C2.10117 -9.57325e-05 0 2.04854 0 4.5499V31.8499C0 34.3513 2.10117 36.3999 4.66667 36.3999H121.333C123.899 36.3999 126 34.3513 126 31.8499V4.5499C126 2.04854 123.899 -9.57325e-05 121.333 -9.57325e-05Z" fill="#A6A6A6"/>
<path d="M9.03928 6.86026C8.76511 7.14009 8.60645 7.57575 8.60645 8.13995V28.2646C8.60645 28.8288 8.76511 29.2645 9.03928 29.5443L9.10694 29.6057L20.6733 18.3331V18.0669L9.10694 6.79429L9.03928 6.86026Z" fill="white"/>
<path d="M25.9244 22.0925L22.0732 18.3331V18.0669L25.9291 14.3075L26.0154 14.3564L30.5817 16.8896C31.8849 17.6085 31.8849 18.7915 30.5817 19.515L26.0154 22.0436L25.9244 22.0925Z" fill="white"/>
<path d="M25.3154 22.7437L21.3733 18.9L9.73926 30.2443C10.1721 30.6879 10.8779 30.7414 11.6806 30.2978L25.3154 22.7437Z" fill="white"/>
<path d="M25.3154 13.6564L11.6806 6.10225C10.8779 5.66318 10.1721 5.71664 9.73926 6.16026L21.3733 17.5L25.3154 13.6564Z" fill="white"/>
<path d="M44.2564 9.32173C44.2564 10.0816 44.023 10.6901 43.5634 11.144C43.0349 11.682 42.3465 11.9528 41.503 11.9528C40.6969 11.9528 40.0085 11.6775 39.4439 11.1349C38.878 10.5844 38.5957 9.90868 38.5957 9.09992C38.5957 8.29116 38.878 7.61548 39.4439 7.06948C40.0085 6.52235 40.6969 6.24707 41.503 6.24707C41.9044 6.24707 42.287 6.32783 42.6522 6.47798C43.0162 6.62927 43.3125 6.83402 43.5272 7.08655L43.0395 7.56657C42.665 7.13546 42.1552 6.92275 41.503 6.92275C40.915 6.92275 40.4052 7.12295 39.9724 7.52676C39.5442 7.93171 39.3295 8.4561 39.3295 9.09992C39.3295 9.74374 39.5442 10.2727 39.9724 10.6776C40.4052 11.0769 40.915 11.2816 41.503 11.2816C42.1272 11.2816 42.6522 11.0769 43.0664 10.6731C43.3394 10.4058 43.4945 10.0372 43.5354 9.56629H41.503V8.90882H44.2144C44.247 9.05101 44.2564 9.18864 44.2564 9.32173Z" fill="white" stroke="white" stroke-width="0.112" stroke-miterlimit="10"/>
<path d="M48.5579 7.0423H46.011V8.7713H48.307V9.42877H46.011V11.1578H48.5579V11.8278H45.29V6.37231H48.5579V7.0423Z" fill="white" stroke="white" stroke-width="0.112" stroke-miterlimit="10"/>
<path d="M51.5937 11.8278H50.8727V7.0423H49.3105V6.37231H53.157V7.0423H51.5937V11.8278Z" fill="white" stroke="white" stroke-width="0.112" stroke-miterlimit="10"/>
<path d="M55.9404 11.8278V6.37231H56.6603V11.8278H55.9404Z" fill="white" stroke="white" stroke-width="0.112" stroke-miterlimit="10"/>
<path d="M59.851 11.8278H59.1359V7.0423H57.5679V6.37231H61.419V7.0423H59.851V11.8278Z" fill="white" stroke="white" stroke-width="0.112" stroke-miterlimit="10"/>
<path d="M68.7015 11.1258C68.1497 11.6775 67.466 11.9528 66.6505 11.9528C65.8304 11.9528 65.1467 11.6775 64.5949 11.1258C64.0442 10.5753 63.77 9.89958 63.77 9.09992C63.77 8.30026 64.0442 7.62458 64.5949 7.07403C65.1467 6.52235 65.8304 6.24707 66.6505 6.24707C67.4614 6.24707 68.145 6.52235 68.6969 7.07858C69.2522 7.63368 69.5264 8.30481 69.5264 9.09992C69.5264 9.89958 69.2522 10.5753 68.7015 11.1258ZM65.128 10.6685C65.5434 11.0769 66.0485 11.2816 66.6505 11.2816C67.2479 11.2816 67.7577 11.0769 68.1684 10.6685C68.5825 10.2602 68.7925 9.73578 68.7925 9.09992C68.7925 8.46406 68.5825 7.93967 68.1684 7.53131C67.7577 7.12295 67.2479 6.9182 66.6505 6.9182C66.0485 6.9182 65.5434 7.12295 65.128 7.53131C64.7139 7.93967 64.5039 8.46406 64.5039 9.09992C64.5039 9.73578 64.7139 10.2602 65.128 10.6685Z" fill="white" stroke="white" stroke-width="0.112" stroke-miterlimit="10"/>
<path d="M70.5376 11.8278V6.37231H71.4126L74.1333 10.6152H74.1648L74.1333 9.56641V6.37231H74.8531V11.8278H74.1018L71.2528 7.37559H71.2213L71.2528 8.42891V11.8278H70.5376Z" fill="white" stroke="white" stroke-width="0.112" stroke-miterlimit="10"/>
<path d="M63.5929 19.7948C61.4007 19.7948 59.6099 21.4214 59.6099 23.6657C59.6099 25.8917 61.4007 27.5354 63.5929 27.5354C65.7897 27.5354 67.5805 25.8917 67.5805 23.6657C67.5805 21.4214 65.7897 19.7948 63.5929 19.7948ZM63.5929 26.0112C62.39 26.0112 61.3552 25.0432 61.3552 23.6657C61.3552 22.27 62.39 21.319 63.5929 21.319C64.7957 21.319 65.8352 22.27 65.8352 23.6657C65.8352 25.0432 64.7957 26.0112 63.5929 26.0112ZM54.9024 19.7948C52.7055 19.7948 50.9194 21.4214 50.9194 23.6657C50.9194 25.8917 52.7055 27.5354 54.9024 27.5354C57.098 27.5354 58.8854 25.8917 58.8854 23.6657C58.8854 21.4214 57.098 19.7948 54.9024 19.7948ZM54.9024 26.0112C53.6984 26.0112 52.66 25.0432 52.66 23.6657C52.66 22.27 53.6984 21.319 54.9024 21.319C56.1052 21.319 57.14 22.27 57.14 23.6657C57.14 25.0432 56.1052 26.0112 54.9024 26.0112ZM44.561 20.9812V22.626H48.5895C48.4717 23.5451 48.1567 24.2208 47.6737 24.6917C47.0857 25.2604 46.1699 25.8917 44.561 25.8917C42.0819 25.8917 40.1405 23.9409 40.1405 21.5238C40.1405 19.1066 42.0819 17.1558 44.561 17.1558C45.9015 17.1558 46.8769 17.6665 47.5967 18.3285L48.7855 17.1694C47.7787 16.2321 46.4394 15.5121 44.561 15.5121C41.1614 15.5121 38.3042 18.2091 38.3042 21.5238C38.3042 24.8384 41.1614 27.5354 44.561 27.5354C46.3985 27.5354 47.7787 26.9485 48.8637 25.8474C49.9755 24.7633 50.322 23.2391 50.322 22.0083C50.322 21.6261 50.2894 21.2746 50.231 20.9812H44.561ZM86.848 22.2563C86.5202 21.3907 85.5087 19.7948 83.4483 19.7948C81.4067 19.7948 79.7068 21.3634 79.7068 23.6657C79.7068 25.8337 81.3892 27.5354 83.6443 27.5354C85.4678 27.5354 86.5202 26.4514 86.953 25.8201L85.5997 24.9408C85.1482 25.5846 84.5333 26.0112 83.6443 26.0112C82.7612 26.0112 82.1277 25.6165 81.7217 24.8384L87.0312 22.6965L86.848 22.2563ZM81.4347 23.5451C81.3892 22.0527 82.6235 21.2883 83.5078 21.2883C84.2009 21.2883 84.7888 21.6261 84.9848 22.1096L81.4347 23.5451ZM77.1192 27.3H78.8645V15.925H77.1192V27.3ZM74.2609 20.657H74.2025C73.8105 20.2043 73.0627 19.7948 72.1154 19.7948C70.1274 19.7948 68.3097 21.4965 68.3097 23.6782C68.3097 25.8474 70.1274 27.5354 72.1154 27.5354C73.0627 27.5354 73.8105 27.1225 74.2025 26.6561H74.2609V27.2112C74.2609 28.6911 73.45 29.4862 72.1422 29.4862C71.0759 29.4862 70.4144 28.7355 70.1414 28.1042L68.6235 28.7218C69.061 29.7479 70.2195 31.0105 72.1422 31.0105C74.1885 31.0105 75.9152 29.8366 75.9152 26.9803V20.0302H74.2609V20.657ZM72.2647 26.0112C71.0619 26.0112 70.055 25.0295 70.055 23.6782C70.055 22.3143 71.0619 21.319 72.2647 21.319C73.45 21.319 74.3845 22.3143 74.3845 23.6782C74.3845 25.0295 73.45 26.0112 72.2647 26.0112ZM95.0193 15.925H90.845V27.3H92.5857V22.99H95.0193C96.9525 22.99 98.8483 21.6261 98.8483 19.4569C98.8483 17.2888 96.9478 15.925 95.0193 15.925ZM95.0648 21.4077H92.5857V17.5072H95.0648C96.3645 17.5072 97.1065 18.5594 97.1065 19.4569C97.1065 20.3373 96.3645 21.4077 95.0648 21.4077ZM105.825 19.7731C104.567 19.7731 103.26 20.3146 102.722 21.5146L104.266 22.146C104.599 21.5146 105.21 21.3099 105.857 21.3099C106.76 21.3099 107.675 21.8388 107.689 22.7727V22.8922C107.374 22.7147 106.7 22.452 105.871 22.452C104.207 22.452 102.512 23.3449 102.512 25.0113C102.512 26.5356 103.874 27.5172 105.406 27.5172C106.578 27.5172 107.224 27.0019 107.63 26.4025H107.689V27.2818H109.371V22.9183C109.371 20.9015 107.826 19.7731 105.825 19.7731ZM105.615 26.0066C105.046 26.0066 104.252 25.7314 104.252 25.0432C104.252 24.1628 105.242 23.8249 106.098 23.8249C106.865 23.8249 107.224 23.9898 107.689 24.2071C107.553 25.2604 106.623 26.0066 105.615 26.0066ZM115.496 20.0222L113.495 24.9533H113.435L111.367 20.0222H109.49L112.598 26.9132L110.824 30.7477H112.643L117.432 20.0222H115.496ZM99.805 27.3H101.55V15.925H99.805V27.3Z" fill="white"/>
</svg>
