<svg width="147" height="33" viewBox="0 0 147 33" fill="none" xmlns="http://www.w3.org/2000/svg">
<mask id="mask0_42_284" style="mask-type:luminance" maskUnits="userSpaceOnUse" x="0" y="1" width="147" height="32">
<path d="M0.5 1.30005H146.5V32.3H0.5V1.30005Z" fill="white"/>
</mask>
<g mask="url(#mask0_42_284)">
<mask id="mask1_42_284" style="mask-type:luminance" maskUnits="userSpaceOnUse" x="0" y="1" width="147" height="32">
<path d="M0.5 1.30005H146.5V32.3H0.5V1.30005Z" fill="white"/>
</mask>
<g mask="url(#mask1_42_284)">
<path d="M101.22 9.13403C98.962 9.13403 96.726 11.245 96.487 14.267V9.37803H93.23V24.133H96.53V17C96.53 15 97.92 12.178 101.242 12.178V9.13403H101.22ZM135.81 21.777V11.667H137.721C140.261 11.667 142.346 13.289 142.346 16.644C142.346 19.977 140.283 21.777 137.721 21.777H135.81ZM132.531 24.133H138.111C141.542 24.133 145.755 21.844 145.755 16.644C145.755 11.511 141.542 9.40003 138.111 9.40003H132.531V24.133ZM120.046 16.8C120.046 14.111 121.392 11.911 123.629 11.911C125.778 11.911 126.972 14.111 126.972 16.8C126.972 19.488 125.778 21.688 123.629 21.688C121.414 21.688 120.046 19.488 120.046 16.8ZM116.702 16.955C116.702 21.355 118.938 24.444 122.434 24.444C124.975 24.444 126.495 22.733 127.298 19.955V24.133H130.555V9.37803H127.298V13.289C126.582 10.689 125.062 9.13403 122.673 9.13403C119.09 9.15603 116.702 12.489 116.702 16.955ZM42.377 24.466C38.316 24.466 35.928 21.133 35.928 16.978C35.928 12.667 38.555 9.15603 43.571 9.15603C48.739 9.15603 50.498 12.733 50.585 14.778H46.85C46.763 13.644 45.808 11.933 43.506 11.933C41.031 11.933 39.446 14.133 39.446 16.822C39.446 19.511 41.031 21.711 43.506 21.711C45.742 21.711 46.698 19.911 47.089 18.133H43.506V16.666H51.019V24.133H47.718V19.4C47.479 21.111 46.437 24.466 42.377 24.466ZM57.707 24.466C54.602 24.466 52.691 22.355 52.691 18.111V9.40003H56.035V18.111C56.035 20.311 57.077 21.377 58.814 21.377C62.245 21.377 63.504 17.066 63.504 14.044V9.40003H66.848V24.133H63.591V18.666C62.961 21.688 61.202 24.466 57.707 24.466ZM86.846 9.13403C84.002 9.13403 82.199 11.956 81.613 14.555C81.504 11.067 79.833 9.13403 77.14 9.13403C74.817 9.13403 72.667 11.245 72.103 14.6V9.37803H68.846V24.133H72.146V18.844C72.146 17.533 72.689 12.156 76.011 12.156C78.161 12.156 78.378 14.133 78.378 16.866V24.133H81.678V18.844C81.678 17.533 82.243 12.156 85.565 12.156C87.715 12.156 87.932 14.133 87.932 16.866V24.133H91.232V15.4C91.254 11.222 89.799 9.13403 86.846 9.13403ZM108.299 9.13403C104.021 9.13403 101.133 12.556 101.133 16.8C101.133 21.466 103.891 24.466 108.299 24.466C112.576 24.466 115.529 21.044 115.529 16.8C115.508 12.133 112.707 9.13403 108.299 9.13403ZM108.299 21.844C105.802 21.844 104.195 19.688 104.195 16.8C104.195 13.911 105.802 11.756 108.299 11.756C110.774 11.756 112.338 13.911 112.338 16.8C112.338 19.688 110.774 21.844 108.299 21.844Z" fill="#A3A3A3"/>
<path d="M1.40991 16.8001C1.40991 9.20009 7.42291 3.03809 14.8379 3.03809C22.2539 3.03809 28.2659 9.20009 28.2659 16.8001C28.2659 24.4001 22.2539 30.5621 14.8379 30.5621C7.42291 30.5621 1.40991 24.4001 1.40991 16.8001Z" stroke="#A3A3A3" stroke-width="1.57" stroke-miterlimit="10"/>
<path d="M13.6699 23.7182C9.72993 23.7182 7.42993 20.5022 7.42993 16.4632C7.42993 12.2752 9.98593 8.90918 14.8379 8.90918C19.8369 8.90918 21.5519 12.3872 21.6249 14.3322H18.0129C17.9399 13.2102 17.0279 11.5642 14.7649 11.5642C12.3939 11.5642 10.8249 13.6962 10.8249 16.2762C10.8249 18.8942 12.3569 20.9882 14.7649 20.9882C16.9179 20.9882 17.8669 19.2682 18.2319 17.5102H14.7289V16.0902H22.0259V23.3442H18.8149V18.7822C18.5949 20.5022 17.6099 23.7182 13.6699 23.7182Z" fill="#A3A3A3"/>
</g>
</g>
</svg>
