<svg width="430" height="283" viewBox="0 0 430 283" fill="none" xmlns="http://www.w3.org/2000/svg">
<g filter="url(#filter0_f_403_17080)">
<mask id="mask0_403_17080" style="mask-type:alpha" maskUnits="userSpaceOnUse" x="-58" y="-80" width="545" height="363">
<ellipse cx="215" cy="101.5" rx="272" ry="181.5" fill="url(#paint0_linear_403_17080)"/>
</mask>
<g mask="url(#mask0_403_17080)">
<path d="M379.311 281.81L304.678 318.083L205.809 324.904L-33.9362 389.144C-35.3198 389.515 -36.7725 388.856 -37.4047 387.57L-47.9379 366.152L-63.2709 328.669L-70.9564 299.986L-83.012 254.994L-105.164 172.321L-72.3673 95.4189L-63.6329 62.3367L-77.7617 9.60758C-78.1958 7.98743 -77.2172 6.32609 -75.5897 5.92026L18.7203 -17.5968L71.3768 -31.706L138.302 -51.447L249.844 -81.3344L320.052 -100.147L377.241 -115.47C378.205 -115.729 379.208 -115.217 379.564 -114.285L431.12 -86.5069L449.203 -19.0187L477.232 85.5881L498.362 175.769L455.109 256.678L379.311 281.81Z" fill="url(#paint1_linear_403_17080)"/>
<path d="M18.7203 -17.5968L35.6797 40.5482M18.7203 -17.5968L71.3768 -31.706M18.7203 -17.5968L-75.5897 5.92026C-77.2172 6.32609 -78.1958 7.98743 -77.7617 9.60758L-63.6329 62.3367M35.6797 40.5482L48.5624 84.716L61.0862 137.117M35.6797 40.5482L85.3872 29.6402M35.6797 40.5482L-43.5725 57.9356M85.3872 29.6402L71.3768 -31.706M85.3872 29.6402L152.993 7.90861M85.3872 29.6402L106.032 106.689M71.3768 -31.706L138.302 -51.447M152.993 7.90861L138.302 -51.447M152.993 7.90861L263.744 -27.1921M152.993 7.90861L174.542 88.3321M138.302 -51.447L249.844 -81.3344M263.744 -27.1921L249.844 -81.3344M263.744 -27.1921L339.807 -53.6007M263.744 -27.1921L283.599 44.6437M249.844 -81.3344L320.052 -100.147M339.807 -53.6007L320.052 -100.147M339.807 -53.6007L361.255 1.53304M339.807 -53.6007L395.148 -73.5439M320.052 -100.147L377.241 -115.47C378.205 -115.729 379.208 -115.217 379.564 -114.285V-114.285M283.599 44.6437L174.542 88.3321M283.599 44.6437L317.185 131.487M283.599 44.6437L352.415 18.3684M174.542 88.3321L106.032 106.689M174.542 88.3321L189.384 148.25L200.992 182.512M106.032 106.689L154.559 203.996M106.032 106.689L61.0862 137.117M200.992 182.512L188.574 188.258M200.992 182.512L259.088 156.999M317.185 131.487L383.755 103.621M317.185 131.487L259.088 156.999M317.185 131.487L355.073 220.794M352.415 18.3684L356.802 4.17793C357.107 3.1928 357.896 2.4331 358.892 2.16622L361.255 1.53304M352.415 18.3684L355.716 32.9155C355.75 33.0666 355.796 33.2149 355.853 33.359L383.755 103.621M379.556 8.68484L366.291 1.08581C365.604 0.69204 364.789 0.586112 364.024 0.791137L361.255 1.53304M379.556 8.68484L449.203 -19.0187M379.556 8.68484L413.22 91.2874M449.203 -19.0187L477.232 85.5881M449.203 -19.0187L431.12 -86.5069M413.22 91.2874L383.755 103.621M413.22 91.2874L477.232 85.5881M413.22 91.2874L439.441 189.145M431.12 -86.5069L395.148 -73.5439M431.12 -86.5069L379.564 -114.285M395.148 -73.5439L379.564 -114.285M477.232 85.5881L498.362 175.769M154.559 203.996L28.7765 260.002M154.559 203.996L159.95 217.319L165.34 230.643M154.559 203.996L188.574 188.258M-63.6329 62.3367L-43.5725 57.9356M-63.6329 62.3367L-72.3673 95.4189M-43.5725 57.9356L-37.3507 84.2279L-34.5352 96.1259C-34.4457 96.5039 -34.2837 96.861 -34.0581 97.1772L16.14 167.546M-72.3673 95.4189L-53.7484 180.244M-72.3673 95.4189L-105.164 172.321M-44.1813 266.29L-40.0821 258.483C-39.871 258.081 -39.754 257.636 -39.7397 257.183L-39.3899 246.087C-39.3821 245.839 -39.405 245.591 -39.4581 245.349L-53.7484 180.244M-44.1813 266.29L-34.528 284.198M-44.1813 266.29L-61.9878 263.995C-62.2674 263.959 -62.5406 263.883 -62.7992 263.771L-83.012 254.994M-34.528 284.198L-70.9564 299.986M-34.528 284.198L-30.6747 282.725M-70.9564 299.986L-63.2709 328.669M-70.9564 299.986L-83.012 254.994M-83.012 254.994L-105.164 172.321M-53.7484 180.244L-76.0647 184.487C-76.659 184.6 -77.2737 184.53 -77.828 184.288L-105.164 172.321M-53.7484 180.244L16.14 167.546M16.14 167.546L15.7387 224.368C15.7362 224.732 15.7998 225.093 15.9267 225.434L28.7765 260.002M16.14 167.546L61.0862 137.117M28.7765 260.002L-30.6747 282.725M-30.6747 282.725L-24.8706 296.459L-19.0665 310.194M-19.0665 310.194L-63.2709 328.669M-19.0665 310.194L138.765 240.175L165.34 230.643M-19.0665 310.194L-3.04746 354.124M-63.2709 328.669L-47.9379 366.152M165.34 230.643L201.618 214.292M165.34 230.643L175.971 256.728M188.574 188.258L195.586 200.839L201.618 214.292M201.618 214.292L214.477 237.369M259.088 156.999L297.051 246.588M297.051 246.588L249.902 267.66M297.051 246.588L355.073 220.794M249.902 267.66L214.477 237.369M249.902 267.66L304.678 318.083M214.477 237.369L175.971 256.728M175.971 256.728L196.821 300.569M196.821 300.569L-3.04746 354.124M196.821 300.569L205.809 324.904M355.073 220.794L439.441 189.145M355.073 220.794L379.311 281.81M439.441 189.145L498.362 175.769M439.441 189.145L455.109 256.678M498.362 175.769L455.109 256.678M379.311 281.81L304.678 318.083M379.311 281.81L455.109 256.678M304.678 318.083L205.809 324.904M-3.04746 354.124L-47.9379 366.152M-47.9379 366.152L-37.4047 387.57C-36.7725 388.856 -35.3198 389.515 -33.9362 389.144L205.809 324.904" stroke="url(#paint2_linear_403_17080)" stroke-width="8" stroke-linecap="round" stroke-linejoin="round"/>
</g>
</g>
<defs>
<filter id="filter0_f_403_17080" x="-59.0002" y="-81.9999" width="548" height="367" filterUnits="userSpaceOnUse" color-interpolation-filters="sRGB">
<feFlood flood-opacity="0" result="BackgroundImageFix"/>
<feBlend mode="normal" in="SourceGraphic" in2="BackgroundImageFix" result="shape"/>
<feGaussianBlur stdDeviation="1" result="effect1_foregroundBlur_403_17080"/>
</filter>
<linearGradient id="paint0_linear_403_17080" x1="215" y1="154.211" x2="215" y2="283" gradientUnits="userSpaceOnUse">
<stop stop-color="#F8F8F8"/>
<stop offset="1" stop-color="#F8F8F8" stop-opacity="0"/>
</linearGradient>
<linearGradient id="paint1_linear_403_17080" x1="137.736" y1="-51.2953" x2="241.264" y2="335.075" gradientUnits="userSpaceOnUse">
<stop stop-color="#FFF7E2"/>
<stop offset="1" stop-color="white"/>
</linearGradient>
<linearGradient id="paint2_linear_403_17080" x1="185.135" y1="123.368" x2="206.209" y2="204.243" gradientUnits="userSpaceOnUse">
<stop stop-color="white"/>
<stop offset="1" stop-color="white"/>
</linearGradient>
</defs>
</svg>
