<svg width="46" height="32" viewBox="0 0 46 32" fill="none" xmlns="http://www.w3.org/2000/svg">
<path d="M27.2337 7.61377H17.9004V24.386H27.2337V7.61377Z" fill="#FF5F00"/>
<path d="M18.4929 15.9999C18.4914 14.3846 18.8575 12.7902 19.5633 11.3373C20.2692 9.88435 21.2963 8.61106 22.567 7.61379C20.9934 6.37694 19.1036 5.60776 17.1136 5.39417C15.1235 5.18058 13.1136 5.53118 11.3134 6.40593C9.51319 7.28067 7.99542 8.64425 6.93356 10.3408C5.8717 12.0374 5.30859 13.9985 5.30859 15.9999C5.30859 18.0014 5.8717 19.9625 6.93356 21.659C7.99542 23.3556 9.51319 24.7192 11.3134 25.5939C13.1136 26.4687 15.1235 26.8193 17.1136 26.6057C19.1036 26.3921 20.9934 25.6229 22.567 24.386C21.2963 23.3888 20.2692 22.1155 19.5633 20.6626C18.8575 19.2097 18.4915 17.6152 18.4929 15.9999Z" fill="#EB001B"/>
<path d="M39.8242 15.9999C39.8243 18.0014 39.2613 19.9624 38.1995 21.659C37.1377 23.3556 35.6199 24.7191 33.8198 25.5939C32.0196 26.4686 30.0097 26.8193 28.0197 26.6057C26.0297 26.3921 24.1399 25.6229 22.5664 24.3861C23.836 23.3878 24.8623 22.1143 25.568 20.6616C26.2737 19.2089 26.6404 17.615 26.6404 15.9999C26.6404 14.3849 26.2737 12.7909 25.568 11.3382C24.8623 9.88556 23.836 8.61207 22.5664 7.61379C24.1399 6.37694 26.0297 5.60776 28.0197 5.39417C30.0097 5.18058 32.0196 5.5312 33.8198 6.40595C35.6199 7.2807 37.1377 8.64429 38.1995 10.3408C39.2613 12.0374 39.8243 13.9985 39.8242 15.9999Z" fill="#F79E1B"/>
<path d="M38.8069 22.6097V22.2663H38.9454V22.1964H38.5928V22.2663H38.7313V22.6097H38.8069ZM39.4915 22.6097V22.1957H39.3834L39.2591 22.4804L39.1348 22.1957H39.0266V22.6097H39.1029V22.2974L39.2195 22.5666H39.2987L39.4153 22.2967V22.6097H39.4915Z" fill="#F79E1B"/>
</svg>
