<svg width="225" height="101" viewBox="0 0 225 101" fill="none" xmlns="http://www.w3.org/2000/svg">
<g filter="url(#filter0_b_10_688)">
<rect x="0.078125" y="0.078125" width="224.078" height="100.894" rx="14.0782" fill="#1A1528"/>
<g filter="url(#filter1_b_10_688)">
<rect x="11.8101" y="27.0615" width="9.38548" height="9.38548" rx="4.69274" fill="white"/>
<rect x="14.7432" y="29.9944" width="3.51955" height="3.51955" rx="1.75978" fill="#1A1528"/>
<path d="M16.5029 40.2598V60.7905" stroke="url(#paint0_linear_10_688)" stroke-width="1.17318" stroke-dasharray="3.52 3.52"/>
<path fill-rule="evenodd" clip-rule="evenodd" d="M16.5028 64.3101C13.9111 64.3101 11.8101 66.4111 11.8101 69.0028C11.8101 71.5945 13.9111 73.6955 16.5028 73.6955C19.0945 73.6955 21.1955 71.5945 21.1955 69.0028C21.1955 66.4111 19.0945 64.3101 16.5028 64.3101ZM16.5026 65.8116C14.7402 65.8116 13.3116 67.2403 13.3116 69.0026C13.3116 70.765 14.7402 72.1937 16.5026 72.1937C18.265 72.1937 19.6937 70.765 19.6937 69.0026C19.6937 67.2403 18.265 65.8116 16.5026 65.8116Z" fill="url(#paint1_linear_10_688)"/>
<rect x="14.814" y="67.3135" width="3.37877" height="3.37877" rx="1.68939" fill="url(#paint2_linear_10_688)"/>
</g>
<rect x="28.5277" y="14.4495" width="181.257" height="32.2626" rx="9.09218" stroke="#2A2537" stroke-width="0.586592"/>
<path d="M36.4463 30.5809H38.7927M43.4854 30.5809H45.8318M41.139 28.2346V25.8882M41.139 35.2737V32.9273M44.6586 30.5809C44.6586 32.5247 43.0828 34.1005 41.139 34.1005C39.1952 34.1005 37.6195 32.5247 37.6195 30.5809C37.6195 28.6371 39.1952 27.0614 41.139 27.0614C43.0828 27.0614 44.6586 28.6371 44.6586 30.5809ZM42.3122 30.5809C42.3122 31.2289 41.787 31.7541 41.139 31.7541C40.4911 31.7541 39.9658 31.2289 39.9658 30.5809C39.9658 29.933 40.4911 29.4077 41.139 29.4077C41.787 29.4077 42.3122 29.933 42.3122 30.5809Z" stroke="white" stroke-width="0.586592" stroke-linecap="round" stroke-linejoin="round"/>
<path d="M53.0665 27.6082H54.0901L55.6503 30.3233H55.7145L57.2747 27.6082H58.2983L56.1315 31.2361V33.5808H55.2333V31.2361L53.0665 27.6082ZM60.3924 33.6712C59.9725 33.6712 59.606 33.575 59.293 33.3825C58.98 33.19 58.7369 32.9208 58.5639 32.5747C58.3909 32.2286 58.3044 31.8242 58.3044 31.3615C58.3044 30.8968 58.3909 30.4905 58.5639 30.1425C58.7369 29.7945 58.98 29.5242 59.293 29.3318C59.606 29.1393 59.9725 29.0431 60.3924 29.0431C60.8124 29.0431 61.1789 29.1393 61.4919 29.3318C61.8049 29.5242 62.0479 29.7945 62.2209 30.1425C62.394 30.4905 62.4805 30.8968 62.4805 31.3615C62.4805 31.8242 62.394 32.2286 62.2209 32.5747C62.0479 32.9208 61.8049 33.19 61.4919 33.3825C61.1789 33.575 60.8124 33.6712 60.3924 33.6712ZM60.3953 32.9392C60.6675 32.9392 60.8931 32.8673 61.0719 32.7234C61.2508 32.5795 61.383 32.388 61.4685 32.1489C61.556 31.9098 61.5998 31.6463 61.5998 31.3586C61.5998 31.0728 61.556 30.8103 61.4685 30.5712C61.383 30.3301 61.2508 30.1367 61.0719 29.9908C60.8931 29.845 60.6675 29.7721 60.3953 29.7721C60.1212 29.7721 59.8937 29.845 59.7129 29.9908C59.5341 30.1367 59.4009 30.3301 59.3134 30.5712C59.2279 30.8103 59.1851 31.0728 59.1851 31.3586C59.1851 31.6463 59.2279 31.9098 59.3134 32.1489C59.4009 32.388 59.5341 32.5795 59.7129 32.7234C59.8937 32.8673 60.1212 32.9392 60.3953 32.9392ZM66.4556 31.7231V29.1014H67.3305V33.5808H66.4731V32.8051H66.4264C66.3234 33.0442 66.1581 33.2435 65.9307 33.4029C65.7051 33.5604 65.4242 33.6391 65.0879 33.6391C64.8001 33.6391 64.5454 33.576 64.3238 33.4496C64.1041 33.3213 63.9311 33.1317 63.8047 32.8809C63.6803 32.6301 63.6181 32.32 63.6181 31.9506V29.1014H64.49V31.8456C64.49 32.1509 64.5746 32.3939 64.7437 32.5747C64.9129 32.7555 65.1326 32.8459 65.4028 32.8459C65.5661 32.8459 65.7285 32.8051 65.8898 32.7234C66.0532 32.6418 66.1883 32.5183 66.2952 32.353C66.4041 32.1878 66.4576 31.9778 66.4556 31.7231ZM68.6664 33.5808V29.1014H69.5092V29.813H69.5558C69.6375 29.5719 69.7814 29.3823 69.9874 29.2443C70.1955 29.1043 70.4307 29.0343 70.6932 29.0343C70.7476 29.0343 70.8118 29.0362 70.8857 29.0401C70.9615 29.044 71.0208 29.0489 71.0636 29.0547V29.8888C71.0286 29.8791 70.9664 29.8684 70.8769 29.8567C70.7875 29.8431 70.6981 29.8363 70.6086 29.8363C70.4025 29.8363 70.2188 29.88 70.0574 29.9675C69.898 30.0531 69.7716 30.1726 69.6783 30.3262C69.585 30.4779 69.5383 30.6509 69.5383 30.8453V33.5808H68.6664ZM74.39 33.5808V27.6082H75.2911V32.8051H77.9975V33.5808H74.39ZM81.0066 33.6712C80.5866 33.6712 80.2201 33.575 79.9071 33.3825C79.5941 33.19 79.3511 32.9208 79.178 32.5747C79.005 32.2286 78.9185 31.8242 78.9185 31.3615C78.9185 30.8968 79.005 30.4905 79.178 30.1425C79.3511 29.7945 79.5941 29.5242 79.9071 29.3318C80.2201 29.1393 80.5866 29.0431 81.0066 29.0431C81.4265 29.0431 81.793 29.1393 82.106 29.3318C82.419 29.5242 82.662 29.7945 82.8351 30.1425C83.0081 30.4905 83.0946 30.8968 83.0946 31.3615C83.0946 31.8242 83.0081 32.2286 82.8351 32.5747C82.662 32.9208 82.419 33.19 82.106 33.3825C81.793 33.575 81.4265 33.6712 81.0066 33.6712ZM81.0095 32.9392C81.2817 32.9392 81.5072 32.8673 81.6861 32.7234C81.8649 32.5795 81.9971 32.388 82.0827 32.1489C82.1702 31.9098 82.2139 31.6463 82.2139 31.3586C82.2139 31.0728 82.1702 30.8103 82.0827 30.5712C81.9971 30.3301 81.8649 30.1367 81.6861 29.9908C81.5072 29.845 81.2817 29.7721 81.0095 29.7721C80.7353 29.7721 80.5079 29.845 80.3271 29.9908C80.1482 30.1367 80.015 30.3301 79.9275 30.5712C79.842 30.8103 79.7992 31.0728 79.7992 31.3586C79.7992 31.6463 79.842 31.9098 79.9275 32.1489C80.015 32.388 80.1482 32.5795 80.3271 32.7234C80.5079 32.8673 80.7353 32.9392 81.0095 32.9392ZM86.119 33.6712C85.6855 33.6712 85.3122 33.573 84.9992 33.3767C84.6881 33.1784 84.449 32.9052 84.2818 32.5572C84.1146 32.2092 84.031 31.8106 84.031 31.3615C84.031 30.9066 84.1165 30.5051 84.2876 30.1571C84.4587 29.8071 84.6998 29.534 85.0108 29.3376C85.3219 29.1412 85.6884 29.0431 86.1103 29.0431C86.4505 29.0431 86.7538 29.1062 87.0202 29.2326C87.2865 29.357 87.5014 29.532 87.6647 29.7575C87.8299 29.9831 87.9281 30.2465 87.9592 30.5479H87.1106C87.0639 30.3379 86.957 30.1571 86.7898 30.0054C86.6245 29.8538 86.4029 29.778 86.1249 29.778C85.8818 29.778 85.6689 29.8421 85.4862 29.9704C85.3054 30.0968 85.1644 30.2776 85.0633 30.5129C84.9622 30.7462 84.9117 31.0222 84.9117 31.3411C84.9117 31.6677 84.9613 31.9496 85.0604 32.1868C85.1596 32.424 85.2995 32.6077 85.4804 32.738C85.6631 32.8683 85.8779 32.9334 86.1249 32.9334C86.2901 32.9334 86.4398 32.9033 86.574 32.843C86.7101 32.7808 86.8238 32.6923 86.9152 32.5776C87.0085 32.4629 87.0736 32.3249 87.1106 32.1635H87.9592C87.9281 32.4532 87.8338 32.7118 87.6763 32.9392C87.5189 33.1667 87.3079 33.3456 87.0435 33.4758C86.781 33.6061 86.4729 33.6712 86.119 33.6712ZM90.3595 33.68C90.0757 33.68 89.819 33.6275 89.5896 33.5225C89.3602 33.4156 89.1784 33.261 89.0443 33.0588C88.9121 32.8566 88.846 32.6087 88.846 32.3151C88.846 32.0624 88.8946 31.8544 88.9918 31.6911C89.089 31.5277 89.2202 31.3984 89.3855 31.3032C89.5507 31.2079 89.7354 31.136 89.9396 31.0874C90.1437 31.0388 90.3518 31.0018 90.5637 30.9766C90.832 30.9455 91.0497 30.9202 91.2169 30.9007C91.3841 30.8793 91.5056 30.8453 91.5815 30.7987C91.6573 30.752 91.6952 30.6762 91.6952 30.5712V30.5508C91.6952 30.2961 91.6233 30.0988 91.4794 29.9588C91.3375 29.8188 91.1255 29.7488 90.8436 29.7488C90.5501 29.7488 90.3187 29.8139 90.1496 29.9442C89.9824 30.0725 89.8667 30.2154 89.8025 30.3729L88.983 30.1862C89.0802 29.9141 89.2222 29.6944 89.4088 29.5272C89.5974 29.358 89.8142 29.2355 90.0591 29.1597C90.3041 29.0819 90.5617 29.0431 90.832 29.0431C91.0108 29.0431 91.2004 29.0644 91.4006 29.1072C91.6028 29.148 91.7914 29.2239 91.9664 29.3347C92.1433 29.4455 92.2882 29.604 92.4009 29.81C92.5137 30.0142 92.5701 30.2796 92.5701 30.6062V33.5808H91.7185V32.9684H91.6835C91.6271 33.0812 91.5426 33.192 91.4298 33.3008C91.317 33.4097 91.1722 33.5001 90.9953 33.5721C90.8184 33.644 90.6064 33.68 90.3595 33.68ZM90.5491 32.9801C90.7902 32.9801 90.9963 32.9324 91.1673 32.8372C91.3404 32.7419 91.4716 32.6175 91.561 32.4639C91.6524 32.3083 91.6981 32.1421 91.6981 31.9652V31.3878C91.667 31.4189 91.6067 31.448 91.5173 31.4752C91.4298 31.5005 91.3297 31.5229 91.2169 31.5423C91.1042 31.5598 90.9943 31.5763 90.8874 31.5919C90.7804 31.6055 90.691 31.6172 90.6191 31.6269C90.4499 31.6483 90.2954 31.6842 90.1554 31.7348C90.0173 31.7853 89.9065 31.8583 89.8229 31.9535C89.7413 32.0468 89.7004 32.1713 89.7004 32.3268C89.7004 32.5426 89.7802 32.7059 89.9396 32.8167C90.099 32.9256 90.3022 32.9801 90.5491 32.9801ZM95.9867 29.1014V29.8013H93.54V29.1014H95.9867ZM94.1961 28.0282H95.0681V32.2656C95.0681 32.4347 95.0934 32.5621 95.1439 32.6476C95.1945 32.7312 95.2596 32.7886 95.3393 32.8197C95.421 32.8488 95.5094 32.8634 95.6047 32.8634C95.6747 32.8634 95.7359 32.8585 95.7884 32.8488C95.8409 32.8391 95.8817 32.8313 95.9109 32.8255L96.0684 33.5458C96.0178 33.5653 95.9459 33.5847 95.8526 33.6041C95.7593 33.6255 95.6426 33.6372 95.5026 33.6391C95.2732 33.643 95.0593 33.6022 94.861 33.5167C94.6627 33.4311 94.5023 33.2989 94.3798 33.12C94.2574 32.9412 94.1961 32.7166 94.1961 32.4464V28.0282ZM97.1155 33.5808V29.1014H97.9875V33.5808H97.1155ZM97.5559 28.4102C97.4042 28.4102 97.274 28.3597 97.1651 28.2586C97.0582 28.1555 97.0047 28.033 97.0047 27.8911C97.0047 27.7472 97.0582 27.6248 97.1651 27.5237C97.274 27.4206 97.4042 27.3691 97.5559 27.3691C97.7075 27.3691 97.8368 27.4206 97.9438 27.5237C98.0526 27.6248 98.1071 27.7472 98.1071 27.8911C98.1071 28.033 98.0526 28.1555 97.9438 28.2586C97.8368 28.3597 97.7075 28.4102 97.5559 28.4102ZM101.212 33.6712C100.792 33.6712 100.425 33.575 100.112 33.3825C99.7992 33.19 99.5562 32.9208 99.3832 32.5747C99.2101 32.2286 99.1236 31.8242 99.1236 31.3615C99.1236 30.8968 99.2101 30.4905 99.3832 30.1425C99.5562 29.7945 99.7992 29.5242 100.112 29.3318C100.425 29.1393 100.792 29.0431 101.212 29.0431C101.632 29.0431 101.998 29.1393 102.311 29.3318C102.624 29.5242 102.867 29.7945 103.04 30.1425C103.213 30.4905 103.3 30.8968 103.3 31.3615C103.3 31.8242 103.213 32.2286 103.04 32.5747C102.867 32.9208 102.624 33.19 102.311 33.3825C101.998 33.575 101.632 33.6712 101.212 33.6712ZM101.215 32.9392C101.487 32.9392 101.712 32.8673 101.891 32.7234C102.07 32.5795 102.202 32.388 102.288 32.1489C102.375 31.9098 102.419 31.6463 102.419 31.3586C102.419 31.0728 102.375 30.8103 102.288 30.5712C102.202 30.3301 102.07 30.1367 101.891 29.9908C101.712 29.845 101.487 29.7721 101.215 29.7721C100.94 29.7721 100.713 29.845 100.532 29.9908C100.353 30.1367 100.22 30.3301 100.133 30.5712C100.047 30.8103 100.004 31.0728 100.004 31.3586C100.004 31.6463 100.047 31.9098 100.133 32.1489C100.22 32.388 100.353 32.5795 100.532 32.7234C100.713 32.8673 100.94 32.9392 101.215 32.9392ZM105.309 30.9211V33.5808H104.437V29.1014H105.274V29.8305H105.33C105.433 29.5933 105.594 29.4027 105.814 29.2589C106.035 29.115 106.314 29.0431 106.651 29.0431C106.956 29.0431 107.223 29.1072 107.453 29.2355C107.682 29.3619 107.86 29.5505 107.986 29.8013C108.113 30.0521 108.176 30.3622 108.176 30.7316V33.5808H107.304V30.8366C107.304 30.5119 107.219 30.2582 107.05 30.0754C106.881 29.8907 106.649 29.7984 106.353 29.7984C106.151 29.7984 105.971 29.8421 105.814 29.9296C105.658 30.0171 105.535 30.1454 105.443 30.3146C105.354 30.4818 105.309 30.684 105.309 30.9211Z" fill="#9D9D9D"/>
<path d="M201.279 27.6477L198.346 30.5807M198.346 30.5807L195.413 33.5136M198.346 30.5807L195.413 27.6477M198.346 30.5807L201.279 33.5136" stroke="#9D9D9D" stroke-width="0.586592" stroke-linecap="round" stroke-linejoin="round"/>
<rect x="28.5277" y="54.3377" width="181.257" height="32.2626" rx="9.09218" stroke="#2A2537" stroke-width="0.586592"/>
<path d="M39.2292 74.2231C40.3644 74.8132 41.8098 74.8132 42.945 74.2231M40.97 73.1287L39.0187 70.2992C38.8684 70.0813 38.7317 69.8529 38.6386 69.6052C38.3172 68.7493 38.2924 67.934 38.7064 67.148C38.9837 66.6214 39.4952 66.2552 40.0644 66.0814C40.6523 65.9018 41.1881 65.8753 41.8022 65.9866C42.5507 66.1224 43.2504 66.5545 43.5853 67.2375C44.0291 68.1423 43.9036 69.0323 43.4133 69.9717L41.1655 73.1287C41.1215 73.1931 41.0139 73.1931 40.97 73.1287ZM41.1398 69.2958V69.2958C41.6257 69.2958 42.0197 68.9019 42.0197 68.4159V68.4159C42.0197 67.93 41.6257 67.536 41.1398 67.536V67.536C40.6538 67.536 40.2599 67.93 40.2599 68.4159V68.4159C40.2599 68.9019 40.6538 69.2958 41.1398 69.2958Z" stroke="white" stroke-width="0.586592" stroke-linecap="round" stroke-linejoin="round"/>
<path d="M55.2836 73.469L53.6272 67.4964H54.5749L55.7386 72.1217H55.794L57.0042 67.4964H57.9433L59.1535 72.1246H59.2089L60.3696 67.4964H61.3203L59.661 73.469H58.754L57.4971 68.9954H57.4504L56.1935 73.469H55.2836ZM63.1082 70.8093V73.469H62.2363V67.4964H63.0966V69.7186H63.152C63.257 69.4776 63.4174 69.2861 63.6332 69.1441C63.849 69.0022 64.1309 68.9312 64.4789 68.9312C64.7861 68.9312 65.0544 68.9944 65.2838 69.1208C65.5152 69.2472 65.694 69.4358 65.8204 69.6866C65.9487 69.9354 66.0129 70.2465 66.0129 70.6198V73.469H65.1409V70.7248C65.1409 70.3962 65.0563 70.1415 64.8872 69.9607C64.718 69.7779 64.4828 69.6866 64.1814 69.6866C63.9753 69.6866 63.7906 69.7303 63.6273 69.8178C63.466 69.9053 63.3386 70.0336 63.2453 70.2027C63.1539 70.3699 63.1082 70.5721 63.1082 70.8093ZM69.2713 73.5594C68.83 73.5594 68.4499 73.4651 68.131 73.2765C67.8141 73.086 67.5692 72.8187 67.3961 72.4745C67.225 72.1285 67.1395 71.7231 67.1395 71.2584C67.1395 70.7996 67.225 70.3952 67.3961 70.0453C67.5692 69.6953 67.8102 69.4221 68.1194 69.2258C68.4304 69.0294 68.794 68.9312 69.2101 68.9312C69.4628 68.9312 69.7078 68.973 69.945 69.0566C70.1822 69.1402 70.395 69.2715 70.5836 69.4503C70.7722 69.6292 70.921 69.8615 71.0298 70.1473C71.1387 70.4312 71.1931 70.7763 71.1931 71.1826V71.4917H67.6323V70.8385H70.3387C70.3387 70.6091 70.292 70.4059 70.1987 70.229C70.1054 70.0501 69.9741 69.9092 69.805 69.8061C69.6378 69.7031 69.4414 69.6516 69.2159 69.6516C68.9709 69.6516 68.7571 69.7118 68.5743 69.8324C68.3935 69.951 68.2535 70.1065 68.1544 70.299C68.0572 70.4895 68.0085 70.6966 68.0085 70.9202V71.4305C68.0085 71.7299 68.061 71.9846 68.166 72.1946C68.273 72.4045 68.4217 72.5649 68.6122 72.6758C68.8028 72.7846 69.0254 72.8391 69.2801 72.8391C69.4453 72.8391 69.596 72.8157 69.7321 72.7691C69.8682 72.7205 69.9858 72.6485 70.0849 72.5533C70.1841 72.458 70.2599 72.3404 70.3124 72.2004L71.1377 72.3491C71.0716 72.5922 70.953 72.8051 70.7819 72.9878C70.6128 73.1686 70.3999 73.3096 70.1433 73.4107C69.8886 73.5098 69.5979 73.5594 69.2713 73.5594ZM72.3249 73.469V68.9896H73.1677V69.7011H73.2143C73.296 69.4601 73.4399 69.2705 73.646 69.1325C73.854 68.9925 74.0892 68.9225 74.3517 68.9225C74.4061 68.9225 74.4703 68.9244 74.5442 68.9283C74.62 68.9322 74.6793 68.9371 74.7221 68.9429V69.777C74.6871 69.7672 74.6249 69.7565 74.5354 69.7449C74.446 69.7313 74.3566 69.7245 74.2671 69.7245C74.061 69.7245 73.8773 69.7682 73.7159 69.8557C73.5565 69.9412 73.4301 70.0608 73.3368 70.2144C73.2435 70.3661 73.1968 70.5391 73.1968 70.7335V73.469H72.3249ZM77.4111 73.5594C76.9698 73.5594 76.5897 73.4651 76.2708 73.2765C75.9539 73.086 75.7089 72.8187 75.5359 72.4745C75.3648 72.1285 75.2793 71.7231 75.2793 71.2584C75.2793 70.7996 75.3648 70.3952 75.5359 70.0453C75.7089 69.6953 75.95 69.4221 76.2592 69.2258C76.5702 69.0294 76.9338 68.9312 77.3499 68.9312C77.6026 68.9312 77.8476 68.973 78.0848 69.0566C78.3219 69.1402 78.5348 69.2715 78.7234 69.4503C78.912 69.6292 79.0607 69.8615 79.1696 70.1473C79.2785 70.4312 79.3329 70.7763 79.3329 71.1826V71.4917H75.7721V70.8385H78.4785C78.4785 70.6091 78.4318 70.4059 78.3385 70.229C78.2452 70.0501 78.1139 69.9092 77.9448 69.8061C77.7776 69.7031 77.5812 69.6516 77.3557 69.6516C77.1107 69.6516 76.8969 69.7118 76.7141 69.8324C76.5333 69.951 76.3933 70.1065 76.2942 70.299C76.1969 70.4895 76.1483 70.6966 76.1483 70.9202V71.4305C76.1483 71.7299 76.2008 71.9846 76.3058 72.1946C76.4127 72.4045 76.5615 72.5649 76.752 72.6758C76.9425 72.7846 77.1652 72.8391 77.4198 72.8391C77.5851 72.8391 77.7358 72.8157 77.8719 72.7691C78.008 72.7205 78.1256 72.6485 78.2247 72.5533C78.3239 72.458 78.3997 72.3404 78.4522 72.2004L79.2775 72.3491C79.2114 72.5922 79.0928 72.8051 78.9217 72.9878C78.7526 73.1686 78.5397 73.3096 78.2831 73.4107C78.0284 73.5098 77.7377 73.5594 77.4111 73.5594ZM84.1059 73.5681C83.822 73.5681 83.5654 73.5157 83.336 73.4107C83.1065 73.3037 82.9248 73.1492 82.7906 72.947C82.6584 72.7448 82.5923 72.4969 82.5923 72.2033C82.5923 71.9506 82.6409 71.7425 82.7381 71.5792C82.8353 71.4159 82.9666 71.2866 83.1318 71.1914C83.2971 71.0961 83.4818 71.0242 83.6859 70.9756C83.8901 70.927 84.0981 70.89 84.31 70.8647C84.5783 70.8336 84.796 70.8084 84.9632 70.7889C85.1305 70.7675 85.252 70.7335 85.3278 70.6868C85.4036 70.6402 85.4415 70.5644 85.4415 70.4594V70.439C85.4415 70.1843 85.3696 69.9869 85.2257 69.847C85.0838 69.707 84.8719 69.637 84.59 69.637C84.2964 69.637 84.065 69.7021 83.8959 69.8324C83.7287 69.9607 83.613 70.1036 83.5488 70.2611L82.7294 70.0744C82.8266 69.8022 82.9685 69.5825 83.1551 69.4153C83.3437 69.2462 83.5605 69.1237 83.8055 69.0479C84.0504 68.9701 84.3081 68.9312 84.5783 68.9312C84.7572 68.9312 84.9467 68.9526 85.147 68.9954C85.3492 69.0362 85.5378 69.112 85.7127 69.2229C85.8897 69.3337 86.0345 69.4921 86.1473 69.6982C86.26 69.9024 86.3164 70.1677 86.3164 70.4944V73.469H85.4649V72.8566H85.4299C85.3735 72.9693 85.2889 73.0802 85.1761 73.189C85.0634 73.2979 84.9185 73.3883 84.7416 73.4602C84.5647 73.5322 84.3528 73.5681 84.1059 73.5681ZM84.2954 72.8682C84.5365 72.8682 84.7426 72.8206 84.9137 72.7253C85.0867 72.6301 85.2179 72.5056 85.3074 72.3521C85.3988 72.1965 85.4444 72.0303 85.4444 71.8534V71.2759C85.4133 71.307 85.3531 71.3362 85.2636 71.3634C85.1761 71.3887 85.076 71.4111 84.9632 71.4305C84.8505 71.448 84.7406 71.4645 84.6337 71.4801C84.5268 71.4937 84.4373 71.5054 84.3654 71.5151C84.1963 71.5365 84.0417 71.5724 83.9017 71.623C83.7637 71.6735 83.6529 71.7464 83.5693 71.8417C83.4876 71.935 83.4468 72.0595 83.4468 72.215C83.4468 72.4308 83.5265 72.5941 83.6859 72.7049C83.8453 72.8138 84.0485 72.8682 84.2954 72.8682ZM87.6421 73.469V68.9896H88.4849V69.7011H88.5315C88.6132 69.4601 88.7571 69.2705 88.9632 69.1325C89.1712 68.9925 89.4064 68.9225 89.6689 68.9225C89.7233 68.9225 89.7875 68.9244 89.8614 68.9283C89.9372 68.9322 89.9965 68.9371 90.0393 68.9429V69.777C90.0043 69.7672 89.9421 69.7565 89.8526 69.7449C89.7632 69.7313 89.6738 69.7245 89.5843 69.7245C89.3782 69.7245 89.1945 69.7682 89.0331 69.8557C88.8737 69.9412 88.7473 70.0608 88.654 70.2144C88.5607 70.3661 88.514 70.5391 88.514 70.7335V73.469H87.6421ZM92.7283 73.5594C92.287 73.5594 91.9069 73.4651 91.588 73.2765C91.2711 73.086 91.0262 72.8187 90.8531 72.4745C90.682 72.1285 90.5965 71.7231 90.5965 71.2584C90.5965 70.7996 90.682 70.3952 90.8531 70.0453C91.0262 69.6953 91.2672 69.4221 91.5764 69.2258C91.8874 69.0294 92.251 68.9312 92.6671 68.9312C92.9198 68.9312 93.1648 68.973 93.402 69.0566C93.6392 69.1402 93.852 69.2715 94.0406 69.4503C94.2292 69.6292 94.3779 69.8615 94.4868 70.1473C94.5957 70.4312 94.6501 70.7763 94.6501 71.1826V71.4917H91.0893V70.8385H93.7957C93.7957 70.6091 93.749 70.4059 93.6557 70.229C93.5624 70.0501 93.4311 69.9092 93.262 69.8061C93.0948 69.7031 92.8984 69.6516 92.6729 69.6516C92.4279 69.6516 92.2141 69.7118 92.0313 69.8324C91.8505 69.951 91.7105 70.1065 91.6114 70.299C91.5141 70.4895 91.4655 70.6966 91.4655 70.9202V71.4305C91.4655 71.7299 91.518 71.9846 91.623 72.1946C91.73 72.4045 91.8787 72.5649 92.0692 72.6758C92.2597 72.7846 92.4824 72.8391 92.737 72.8391C92.9023 72.8391 93.053 72.8157 93.1891 72.7691C93.3252 72.7205 93.4428 72.6485 93.5419 72.5533C93.6411 72.458 93.7169 72.3404 93.7694 72.2004L94.5947 72.3491C94.5286 72.5922 94.41 72.8051 94.2389 72.9878C94.0698 73.1686 93.8569 73.3096 93.6003 73.4107C93.3456 73.5098 93.0549 73.5594 92.7283 73.5594ZM98.6707 75.1488C98.5404 75.1488 98.4218 75.1381 98.3149 75.1167C98.2079 75.0973 98.1282 75.0759 98.0757 75.0525L98.2857 74.3381C98.4451 74.3808 98.5871 74.3993 98.7115 74.3935C98.8359 74.3876 98.9458 74.341 99.041 74.2535C99.1382 74.166 99.2238 74.0231 99.2977 73.8248L99.4056 73.5273L97.7666 68.9896H98.6998L99.8343 72.4658H99.8809L101.015 68.9896H101.951L100.105 74.0668C100.02 74.3001 99.9111 74.4975 99.7789 74.6588C99.6466 74.8222 99.4892 74.9446 99.3064 75.0263C99.1237 75.108 98.9117 75.1488 98.6707 75.1488ZM104.67 73.5594C104.25 73.5594 103.883 73.4632 103.57 73.2707C103.257 73.0782 103.014 72.8089 102.841 72.4629C102.668 72.1168 102.582 71.7124 102.582 71.2497C102.582 70.785 102.668 70.3787 102.841 70.0307C103.014 69.6827 103.257 69.4124 103.57 69.22C103.883 69.0275 104.25 68.9312 104.67 68.9312C105.09 68.9312 105.456 69.0275 105.769 69.22C106.082 69.4124 106.325 69.6827 106.498 70.0307C106.671 70.3787 106.758 70.785 106.758 71.2497C106.758 71.7124 106.671 72.1168 106.498 72.4629C106.325 72.8089 106.082 73.0782 105.769 73.2707C105.456 73.4632 105.09 73.5594 104.67 73.5594ZM104.673 72.8274C104.945 72.8274 105.17 72.7555 105.349 72.6116C105.528 72.4677 105.66 72.2762 105.746 72.0371C105.833 71.798 105.877 71.5345 105.877 71.2468C105.877 70.961 105.833 70.6985 105.746 70.4594C105.66 70.2183 105.528 70.0248 105.349 69.879C105.17 69.7332 104.945 69.6603 104.673 69.6603C104.398 69.6603 104.171 69.7332 103.99 69.879C103.811 70.0248 103.678 70.2183 103.591 70.4594C103.505 70.6985 103.462 70.961 103.462 71.2468C103.462 71.5345 103.505 71.798 103.591 72.0371C103.678 72.2762 103.811 72.4677 103.99 72.6116C104.171 72.7555 104.398 72.8274 104.673 72.8274ZM110.733 71.6113V68.9896H111.608V73.469H110.75V72.6933H110.704C110.601 72.9324 110.435 73.1317 110.208 73.2911C109.982 73.4486 109.701 73.5273 109.365 73.5273C109.077 73.5273 108.823 73.4641 108.601 73.3378C108.381 73.2094 108.208 73.0199 108.082 72.7691C107.958 72.5183 107.895 72.2082 107.895 71.8388V68.9896H108.767V71.7338C108.767 72.039 108.852 72.2821 109.021 72.4629C109.19 72.6437 109.41 72.7341 109.68 72.7341C109.843 72.7341 110.006 72.6933 110.167 72.6116C110.33 72.5299 110.466 72.4065 110.572 72.2412C110.681 72.076 110.735 71.866 110.733 71.6113ZM117.159 75.2421C116.804 75.2421 116.497 75.1954 116.241 75.1021C115.986 75.0088 115.778 74.8853 115.617 74.7318C115.455 74.5782 115.335 74.41 115.255 74.2272L116.004 73.9181C116.057 74.0036 116.127 74.0941 116.214 74.1893C116.304 74.2865 116.424 74.3692 116.576 74.4372C116.73 74.5053 116.927 74.5393 117.168 74.5393C117.499 74.5393 117.772 74.4586 117.988 74.2972C118.203 74.1378 118.311 73.8831 118.311 73.5332V72.6524H118.256C118.203 72.7477 118.128 72.8537 118.028 72.9703C117.931 73.087 117.797 73.1881 117.626 73.2736C117.455 73.3591 117.232 73.4019 116.958 73.4019C116.604 73.4019 116.285 73.3193 116.002 73.154C115.72 72.9868 115.496 72.7409 115.331 72.4162C115.168 72.0896 115.086 71.6881 115.086 71.2118C115.086 70.7355 115.167 70.3272 115.328 69.9869C115.491 69.6467 115.715 69.3862 115.999 69.2054C116.283 69.0226 116.604 68.9312 116.964 68.9312C117.242 68.9312 117.467 68.9779 117.638 69.0712C117.809 69.1626 117.942 69.2695 118.037 69.392C118.134 69.5145 118.209 69.6224 118.262 69.7157H118.326V68.9896H119.18V73.5681C119.18 73.9531 119.091 74.269 118.912 74.5159C118.733 74.7629 118.491 74.9456 118.186 75.0642C117.883 75.1828 117.54 75.2421 117.159 75.2421ZM117.151 72.6787C117.401 72.6787 117.613 72.6204 117.786 72.5037C117.961 72.3851 118.094 72.216 118.183 71.9963C118.274 71.7746 118.32 71.5092 118.32 71.2001C118.32 70.8988 118.275 70.6334 118.186 70.404C118.096 70.1746 117.965 69.9957 117.792 69.8674C117.619 69.7371 117.405 69.672 117.151 69.672C116.888 69.672 116.669 69.74 116.494 69.8761C116.319 70.0103 116.187 70.193 116.098 70.4244C116.01 70.6557 115.967 70.9143 115.967 71.2001C115.967 71.4937 116.011 71.7513 116.101 71.9729C116.19 72.1946 116.322 72.3676 116.497 72.492C116.674 72.6165 116.892 72.6787 117.151 72.6787ZM122.401 73.5594C121.981 73.5594 121.614 73.4632 121.301 73.2707C120.988 73.0782 120.745 72.8089 120.572 72.4629C120.399 72.1168 120.313 71.7124 120.313 71.2497C120.313 70.785 120.399 70.3787 120.572 70.0307C120.745 69.6827 120.988 69.4124 121.301 69.22C121.614 69.0275 121.981 68.9312 122.401 68.9312C122.821 68.9312 123.187 69.0275 123.5 69.22C123.813 69.4124 124.056 69.6827 124.229 70.0307C124.402 70.3787 124.489 70.785 124.489 71.2497C124.489 71.7124 124.402 72.1168 124.229 72.4629C124.056 72.8089 123.813 73.0782 123.5 73.2707C123.187 73.4632 122.821 73.5594 122.401 73.5594ZM122.404 72.8274C122.676 72.8274 122.901 72.7555 123.08 72.6116C123.259 72.4677 123.391 72.2762 123.477 72.0371C123.564 71.798 123.608 71.5345 123.608 71.2468C123.608 70.961 123.564 70.6985 123.477 70.4594C123.391 70.2183 123.259 70.0248 123.08 69.879C122.901 69.7332 122.676 69.6603 122.404 69.6603C122.13 69.6603 121.902 69.7332 121.721 69.879C121.542 70.0248 121.409 70.2183 121.322 70.4594C121.236 70.6985 121.194 70.961 121.194 71.2468C121.194 71.5345 121.236 71.798 121.322 72.0371C121.409 72.2762 121.542 72.4677 121.721 72.6116C121.902 72.7555 122.13 72.8274 122.404 72.8274ZM125.626 73.469V68.9896H126.498V73.469H125.626ZM126.067 68.2984C125.915 68.2984 125.785 68.2479 125.676 68.1468C125.569 68.0437 125.516 67.9212 125.516 67.7793C125.516 67.6354 125.569 67.5129 125.676 67.4118C125.785 67.3088 125.915 67.2573 126.067 67.2573C126.218 67.2573 126.348 67.3088 126.455 67.4118C126.564 67.5129 126.618 67.6354 126.618 67.7793C126.618 67.9212 126.564 68.0437 126.455 68.1468C126.348 68.2479 126.218 68.2984 126.067 68.2984ZM128.708 70.8093V73.469H127.836V68.9896H128.673V69.7186H128.728C128.831 69.4814 128.993 69.2909 129.212 69.147C129.434 69.0032 129.713 68.9312 130.049 68.9312C130.354 68.9312 130.622 68.9954 130.851 69.1237C131.081 69.2501 131.259 69.4387 131.385 69.6895C131.511 69.9403 131.574 70.2504 131.574 70.6198V73.469H130.702V70.7248C130.702 70.4001 130.618 70.1464 130.449 69.9636C130.28 69.7789 130.047 69.6866 129.752 69.6866C129.55 69.6866 129.37 69.7303 129.212 69.8178C129.057 69.9053 128.933 70.0336 128.842 70.2027C128.752 70.3699 128.708 70.5721 128.708 70.8093ZM134.786 75.2421C134.43 75.2421 134.124 75.1954 133.868 75.1021C133.613 75.0088 133.405 74.8853 133.244 74.7318C133.082 74.5782 132.962 74.41 132.882 74.2272L133.631 73.9181C133.684 74.0036 133.754 74.0941 133.841 74.1893C133.931 74.2865 134.051 74.3692 134.203 74.4372C134.357 74.5053 134.554 74.5393 134.795 74.5393C135.126 74.5393 135.399 74.4586 135.614 74.2972C135.83 74.1378 135.938 73.8831 135.938 73.5332V72.6524H135.883C135.83 72.7477 135.754 72.8537 135.655 72.9703C135.558 73.087 135.424 73.1881 135.253 73.2736C135.082 73.3591 134.859 73.4019 134.585 73.4019C134.231 73.4019 133.912 73.3193 133.628 73.154C133.347 72.9868 133.123 72.7409 132.958 72.4162C132.794 72.0896 132.713 71.6881 132.713 71.2118C132.713 70.7355 132.793 70.3272 132.955 69.9869C133.118 69.6467 133.342 69.3862 133.626 69.2054C133.909 69.0226 134.231 68.9312 134.591 68.9312C134.869 68.9312 135.093 68.9779 135.265 69.0712C135.436 69.1626 135.569 69.2695 135.664 69.392C135.761 69.5145 135.836 69.6224 135.889 69.7157H135.953V68.9896H136.807V73.5681C136.807 73.9531 136.718 74.269 136.539 74.5159C136.36 74.7629 136.118 74.9456 135.813 75.0642C135.509 75.1828 135.167 75.2421 134.786 75.2421ZM134.777 72.6787C135.028 72.6787 135.24 72.6204 135.413 72.5037C135.588 72.3851 135.72 72.216 135.81 71.9963C135.901 71.7746 135.947 71.5092 135.947 71.2001C135.947 70.8988 135.902 70.6334 135.813 70.404C135.723 70.1746 135.592 69.9957 135.419 69.8674C135.246 69.7371 135.032 69.672 134.777 69.672C134.515 69.672 134.296 69.74 134.121 69.8761C133.946 70.0103 133.814 70.193 133.725 70.4244C133.637 70.6557 133.593 70.9143 133.593 71.2001C133.593 71.4937 133.638 71.7513 133.728 71.9729C133.817 72.1946 133.949 72.3676 134.124 72.492C134.301 72.6165 134.519 72.6787 134.777 72.6787ZM139.095 71.7513V71.6959C139.098 71.3343 139.134 71.0465 139.202 70.8327C139.272 70.6188 139.372 70.4458 139.5 70.3136C139.628 70.1814 139.783 70.0608 139.964 69.9519C140.08 69.8781 140.185 69.7954 140.279 69.7041C140.372 69.6127 140.446 69.5077 140.5 69.3891C140.555 69.2705 140.582 69.1393 140.582 68.9954C140.582 68.8224 140.541 68.6727 140.459 68.5463C140.378 68.4199 140.269 68.3227 140.133 68.2547C139.999 68.1847 139.849 68.1497 139.684 68.1497C139.534 68.1497 139.391 68.1808 139.255 68.243C139.119 68.3052 139.006 68.4024 138.917 68.5346C138.827 68.6649 138.776 68.8331 138.762 69.0391H137.876C137.889 68.6892 137.978 68.3937 138.141 68.1526C138.304 67.9096 138.52 67.7258 138.788 67.6014C139.059 67.477 139.357 67.4148 139.684 67.4148C140.041 67.4148 140.354 67.4818 140.623 67.616C140.891 67.7482 141.099 67.9339 141.247 68.173C141.396 68.4102 141.471 68.6872 141.471 69.0041C141.471 69.2219 141.437 69.4183 141.369 69.5932C141.301 69.7663 141.204 69.9208 141.078 70.0569C140.953 70.193 140.803 70.3136 140.629 70.4185C140.463 70.5216 140.329 70.6285 140.226 70.7393C140.125 70.8502 140.051 70.9814 140.004 71.133C139.958 71.2847 139.932 71.4723 139.929 71.6959V71.7513H139.095ZM139.535 73.5244C139.375 73.5244 139.238 73.468 139.124 73.3553C139.009 73.2406 138.952 73.1025 138.952 72.9411C138.952 72.7817 139.009 72.6456 139.124 72.5329C139.238 72.4182 139.375 72.3608 139.535 72.3608C139.692 72.3608 139.828 72.4182 139.943 72.5329C140.06 72.6456 140.118 72.7817 140.118 72.9411C140.118 73.0481 140.091 73.1463 140.037 73.2357C139.984 73.3232 139.914 73.3932 139.827 73.4457C139.739 73.4982 139.642 73.5244 139.535 73.5244Z" fill="white"/>
<path d="M196.299 71.5994V66.5583M196.299 66.5583L194.924 67.9332M196.299 66.5583L197.674 67.9332M199.965 68.8497V73.8908M199.965 73.8908L198.591 72.5159M199.965 73.8908L201.34 72.5159" stroke="#9D9D9D" stroke-width="0.586592" stroke-linecap="round" stroke-linejoin="round"/>
</g>
<defs>
<filter id="filter0_b_10_688" x="-5.2012" y="-5.2012" width="234.637" height="111.452" filterUnits="userSpaceOnUse" color-interpolation-filters="sRGB">
<feFlood flood-opacity="0" result="BackgroundImageFix"/>
<feGaussianBlur in="BackgroundImageFix" stdDeviation="2.63966"/>
<feComposite in2="SourceAlpha" operator="in" result="effect1_backgroundBlur_10_688"/>
<feBlend mode="normal" in="SourceGraphic" in2="effect1_backgroundBlur_10_688" result="shape"/>
</filter>
<filter id="filter1_b_10_688" x="3.59777" y="18.8492" width="25.8098" height="63.0586" filterUnits="userSpaceOnUse" color-interpolation-filters="sRGB">
<feFlood flood-opacity="0" result="BackgroundImageFix"/>
<feGaussianBlur in="BackgroundImageFix" stdDeviation="4.10614"/>
<feComposite in2="SourceAlpha" operator="in" result="effect1_backgroundBlur_10_688"/>
<feBlend mode="normal" in="SourceGraphic" in2="effect1_backgroundBlur_10_688" result="shape"/>
</filter>
<linearGradient id="paint0_linear_10_688" x1="17.0029" y1="40.2598" x2="17.0029" y2="60.7905" gradientUnits="userSpaceOnUse">
<stop stop-color="#DEDEDE"/>
<stop offset="1" stop-color="#C7C7C7"/>
</linearGradient>
<linearGradient id="paint1_linear_10_688" x1="16.5028" y1="64.3101" x2="16.5028" y2="73.6955" gradientUnits="userSpaceOnUse">
<stop offset="0.0001" stop-color="#FF9F40"/>
<stop offset="0.510417" stop-color="#FFA851"/>
<stop offset="1" stop-color="#FFC286"/>
</linearGradient>
<linearGradient id="paint2_linear_10_688" x1="16.5034" y1="67.3135" x2="16.5034" y2="70.6922" gradientUnits="userSpaceOnUse">
<stop offset="0.0001" stop-color="#FF9F40"/>
<stop offset="0.510417" stop-color="#FFA851"/>
<stop offset="1" stop-color="#FFC286"/>
</linearGradient>
</defs>
</svg>
