<svg width="371" height="11" viewBox="0 0 371 11" fill="none" xmlns="http://www.w3.org/2000/svg">
<path d="M7.63086 5.33057H74.0138" stroke="#FF8811" stroke-width="5.22466"/>
<path d="M79.7852 5.33057H146.168" stroke="#FF8811" stroke-width="5.22466"/>
<path d="M151.939 5.33057H218.322" stroke="#1A1528" stroke-width="5.22466"/>
<path d="M224.092 5.33057H290.475" stroke="#1A1528" stroke-width="5.22466"/>
<path d="M296.246 5.33057H362.629" stroke="#1A1528" stroke-width="5.22466"/>
<rect width="9.30353" height="10.4489" rx="4.65176" transform="matrix(0.999735 0.0230348 -0.0182599 0.999833 0.191406 -0.00012207)" fill="#FF8811"/>
<rect width="5.58212" height="6.26932" rx="2.79106" transform="matrix(0.999735 0.0230348 -0.0182599 0.999833 2.01367 2.1322)" fill="white"/>
<rect width="9.30353" height="10.4489" rx="4.65176" transform="matrix(0.999735 0.0230348 -0.0182599 0.999833 144.498 0)" fill="#1A1528"/>
<rect width="5.58212" height="6.26932" rx="2.79106" transform="matrix(0.999735 0.0230348 -0.0182599 0.999833 146.32 2.13232)" fill="white"/>
<rect width="9.30353" height="10.4489" rx="4.65176" transform="matrix(0.999735 0.0230348 -0.0182599 0.999833 216.652 0)" fill="#1A1528"/>
<rect width="5.58212" height="6.26932" rx="2.79106" transform="matrix(0.999735 0.0230348 -0.0182599 0.999833 218.475 2.13232)" fill="white"/>
<rect width="9.30353" height="10.4489" rx="4.65176" transform="matrix(0.999735 0.0230348 -0.0182599 0.999833 288.805 0)" fill="#1A1528"/>
<rect width="5.58212" height="6.26932" rx="2.79106" transform="matrix(0.999735 0.0230348 -0.0182599 0.999833 290.627 2.13232)" fill="white"/>
<rect width="9.30353" height="10.4489" rx="4.65176" transform="matrix(0.999735 0.0230348 -0.0182599 0.999833 72.3457 0)" fill="#FF8811"/>
<rect width="5.58212" height="6.26932" rx="2.79106" transform="matrix(0.999735 0.0230348 -0.0182599 0.999833 74.168 2.13232)" fill="white"/>
<rect width="9.30353" height="10.4489" rx="4.65176" transform="matrix(0.999735 0.0230348 -0.0182599 0.999833 360.959 0)" fill="#1A1528"/>
<rect width="5.58212" height="6.26932" rx="2.79106" transform="matrix(0.999735 0.0230348 -0.0182599 0.999833 362.781 2.13232)" fill="white"/>
</svg>
