<svg width="430" height="104" viewBox="0 0 430 104" fill="none" xmlns="http://www.w3.org/2000/svg">
<g clip-path="url(#clip0_283_9698)">
<path d="M0 0H430V104H24C10.7452 104 0 93.2548 0 80V0Z" fill="#FFCE48"/>
<rect width="195" height="150" fill="url(#paint0_linear_283_9698)"/>
<g clip-path="url(#clip1_283_9698)">
<path d="M373.702 89V112.013C386.624 112.013 397.149 122.292 397.149 135.025L420.596 135.025C420.596 109.609 399.598 89 373.702 89Z" fill="#FFD565"/>
<path d="M373.702 89V112.013C360.78 112.013 350.255 122.292 350.255 135.025L326.808 135.025C326.808 109.609 347.806 89 373.702 89Z" fill="#FFD565"/>
<path d="M444.043 181.051L444.043 158.038C431.121 158.038 420.596 147.759 420.596 135.025L397.149 135.025C397.149 160.442 418.147 181.051 444.043 181.051Z" fill="#FFD565"/>
<path d="M303.362 181.059V158.042C316.283 158.042 326.808 147.761 326.808 135.025L350.255 135.025C350.255 160.446 329.257 181.059 303.362 181.059Z" fill="#FFD565"/>
<path d="M312.997 22.1812L334.096 12.9924C339.256 24.8395 352.882 30.3848 364.557 25.3003L373.919 46.797C350.617 56.9455 323.337 45.923 312.997 22.1812Z" fill="#FFD565"/>
<path d="M312.997 22.1812L334.096 12.9924C328.936 1.14535 334.158 -12.6086 345.832 -17.693L336.47 -39.1897C313.168 -29.0412 302.657 -1.56072 312.997 22.1812Z" fill="#FFD565"/>
<path d="M465.499 82.6117L456.324 61.545C444.532 66.6806 430.829 61.4538 425.752 49.7969L404.355 59.1155C414.488 82.3826 441.867 92.9036 465.499 82.6117Z" fill="#FFD565"/>
<path d="M425.478 49.9161L404.38 59.1049C399.22 47.2579 385.593 41.7125 373.919 46.797L364.557 25.3003C387.859 15.1518 415.138 26.1743 425.478 49.9161Z" fill="#FFD565"/>
<path d="M307 97L307 74.83C294.567 74.83 284.44 64.9274 284.44 52.6599L261.88 52.6599C261.88 77.1455 282.084 97 307 97Z" fill="#FFD565"/>
<path d="M284.1 52.8862L261.88 52.8862C261.88 40.481 251.955 30.3768 239.66 30.3768L239.66 7.86743C264.201 7.86744 284.1 28.0258 284.1 52.8862Z" fill="#FFD565"/>
<path d="M195.22 -15.2075L217.44 -15.2075C217.44 -2.80234 227.365 7.30187 239.66 7.30187L239.66 29.8112C215.119 29.8112 195.22 9.65284 195.22 -15.2075Z" fill="#FFD565"/>
<path d="M217.44 -14.9813L195.22 -14.9813C195.22 -27.3864 185.295 -37.4906 173 -37.4906L173 -60C197.541 -60 217.44 -39.8416 217.44 -14.9813Z" fill="#FFD565"/>
</g>
</g>
<defs>
<linearGradient id="paint0_linear_283_9698" x1="0" y1="75" x2="195" y2="75" gradientUnits="userSpaceOnUse">
<stop offset="0.562794" stop-color="#FFCE48"/>
<stop offset="0.739583" stop-color="#FFCE48" stop-opacity="0.5"/>
<stop offset="0.928892" stop-color="#FFCE48" stop-opacity="0"/>
</linearGradient>
<clipPath id="clip0_283_9698">
<path d="M0 0H430V104H24C10.7452 104 0 93.2548 0 80V0Z" fill="white"/>
</clipPath>
<clipPath id="clip1_283_9698">
<rect width="235" height="150" fill="white" transform="translate(195)"/>
</clipPath>
</defs>
</svg>
