<svg width="56" height="18" viewBox="0 0 56 18" fill="none" xmlns="http://www.w3.org/2000/svg">
<g clip-path="url(#clip0_403_16921)">
<path d="M21.199 0.363601L13.9405 17.6817H9.20482L5.63286 3.86106C5.416 3.0098 5.22744 2.69794 4.56791 2.3393C3.49112 1.75513 1.71294 1.20707 0.148438 0.866909L0.254701 0.363601H7.87768C8.84935 0.363601 9.72285 1.01042 9.94346 2.12937L11.8299 12.1505L16.4923 0.363312H21.199V0.363601ZM39.7542 12.0275C39.7732 7.4567 33.4338 7.2049 33.4774 5.16308C33.491 4.54167 34.0826 3.88099 35.3777 3.71235C36.0196 3.62832 37.7883 3.56422 39.7943 4.48738L40.5812 0.814931C39.5032 0.423661 38.1163 0.0471191 36.3907 0.0471191C31.9626 0.0471191 28.8463 2.40109 28.82 5.77179C28.7914 8.26494 31.0443 9.65618 32.7416 10.4846C34.4878 11.333 35.0737 11.8782 35.067 12.6371C35.0546 13.7987 33.6743 14.3116 32.3844 14.3318C30.1327 14.3664 28.8261 13.7225 27.7845 13.2383L26.9725 17.0323C28.0193 17.5125 29.9514 17.9315 31.9545 17.9525C36.661 17.9525 39.7397 15.6277 39.7542 12.0275ZM51.4472 17.6817H55.5906L51.9739 0.363601H48.1496C47.2897 0.363601 46.5643 0.864311 46.2432 1.63414L39.5206 17.6817H44.2248L45.1586 15.095H50.9064L51.4472 17.6817ZM46.4485 11.5455L48.8065 5.04324L50.1637 11.5455H46.4485ZM27.6 0.363601L23.8955 17.6817H19.4157L23.1216 0.363601H27.6Z" fill="#1434CB"/>
</g>
<defs>
<clipPath id="clip0_403_16921">
<rect width="55.5" height="18" fill="white" transform="translate(0.00390625)"/>
</clipPath>
</defs>
</svg>
