<svg width="17" height="17" viewBox="0 0 17 17" fill="none" xmlns="http://www.w3.org/2000/svg">
<path d="M4.87009 9.68619V11.3449C4.87009 11.6013 5.19357 12.098 5.42314 12.2121M4.87009 9.68619H9.13563M4.87009 9.68619V5.74345V4.85M13.4012 9.68619V11.3449C13.4012 11.6013 13.0777 12.098 12.8481 12.2121M13.4012 9.68619H9.13563M13.4012 9.68619V5.74345V4.85M5.42314 12.2121V13.4663C5.42314 13.569 5.45827 13.6686 5.52268 13.7486L5.62555 13.8763C5.71097 13.9824 5.83983 14.044 5.97602 14.044H6.251C6.39171 14.044 6.52432 13.9782 6.6094 13.8662L6.7009 13.7456C6.76033 13.6674 6.7925 13.5718 6.7925 13.4735V12.2121M5.42314 12.2121H6.7925M6.7925 12.2121H11.4788M12.8481 12.2121H11.4788M12.8481 12.2121V13.4663C12.8481 13.569 12.813 13.6686 12.7486 13.7486L12.6457 13.8763C12.5603 13.9824 12.4315 14.044 12.2953 14.044H12.0202C11.8795 14.044 11.7469 13.9782 11.6618 13.8661L11.5703 13.7456C11.5109 13.6674 11.4788 13.5718 11.4788 13.4735V12.2121M9.13563 3.5H12.5106C13.1856 3.5 13.4012 3.5 13.4012 4.175V4.85M9.13563 3.5H5.76063C5.08563 3.5 4.87009 3.5 4.87009 4.175V4.85M9.13563 3.5V9.68619M6.43579 10.925H7.78579M10.4858 10.925H11.8358M4.87009 4.85L3.39844 5.74345V6.75595M13.4012 4.85L14.8731 5.74345V6.75595" stroke="white" stroke-width="0.9" stroke-linecap="round" stroke-linejoin="round"/>
</svg>
