<svg width="21" height="21" viewBox="0 0 21 21" fill="none" xmlns="http://www.w3.org/2000/svg">
<path d="M5.97669 11.5552V13.6181C5.97669 13.9369 6.37898 14.5547 6.66449 14.6965M5.97669 11.5552H11.2815M5.97669 11.5552V6.65185V5.54073M16.5862 11.5552V13.6181C16.5862 13.9369 16.184 14.5547 15.8985 14.6965M16.5862 11.5552H11.2815M16.5862 11.5552V6.65185V5.54073M6.66449 14.6965V16.2563C6.66449 16.384 6.70817 16.5079 6.78827 16.6073L6.91621 16.7662C7.02244 16.8981 7.18269 16.9748 7.35206 16.9748H7.69403C7.86903 16.9748 8.03394 16.8929 8.13976 16.7536L8.25355 16.6037C8.32745 16.5063 8.36746 16.3875 8.36746 16.2653V14.6965M6.66449 14.6965H8.36746M8.36746 14.6965H14.1955M15.8985 14.6965H14.1955M15.8985 14.6965V16.2563C15.8985 16.384 15.8548 16.5079 15.7747 16.6073L15.6468 16.7662C15.5405 16.8981 15.3803 16.9748 15.2109 16.9748H14.8689C14.6939 16.9748 14.5289 16.8929 14.4231 16.7535L14.3094 16.6037C14.2355 16.5063 14.1955 16.3875 14.1955 16.2653V14.6965M11.2815 3.86182H15.4787C16.3182 3.86182 16.5862 3.86182 16.5862 4.70127V5.54073M11.2815 3.86182H7.08419C6.24474 3.86182 5.97669 3.86182 5.97669 4.70127V5.54073M11.2815 3.86182V11.5552M7.92384 13.0959H9.60275M12.9606 13.0959H14.6395M5.97669 5.54073L4.14648 6.65185V7.91104M16.5862 5.54073L18.4169 6.65185V7.91104" stroke="#1A1528" stroke-width="1.11927" stroke-linecap="round" stroke-linejoin="round"/>
</svg>
