<svg width="76" height="42" viewBox="0 0 76 42" fill="none" xmlns="http://www.w3.org/2000/svg">
<g clip-path="url(#clip0_283_12177)">
<path d="M5 16.8946L5.77031 15.5188C6.54063 14.1431 8.08125 11.3916 9.62188 9.37865C11.1625 7.36569 12.7031 6.09126 14.2438 7.46768C15.7844 8.84411 17.325 12.8714 18.8656 15.6019C20.4063 18.3324 21.9469 19.7662 23.4875 19.8455C25.0281 19.9247 26.5688 18.6494 28.1094 16.0185C29.65 13.3876 31.1906 9.40109 32.7313 8.52444C34.2719 7.64779 35.8125 9.88097 37.3531 9.89034C38.8938 9.89971 40.4344 7.68527 41.975 6.63198C43.5156 5.57868 45.0563 5.68654 46.5969 8.15418C48.1375 10.6218 49.6782 15.4492 51.2188 18.1036C52.7594 20.758 54.3 21.2394 55.8407 21.5412C57.3813 21.843 58.9219 21.9652 60.4625 20.3402C62.0032 18.7152 63.5438 15.343 65.0844 16.0475C66.625 16.7519 68.1657 21.5331 69.7063 24.3763C71.2469 27.2196 72.7875 28.1248 74.3282 29.7391C75.8688 31.3534 77.4094 33.6767 78.1797 34.8384L78.95 36" stroke="#1A2131" stroke-width="2"/>
</g>
<defs>
<clipPath id="clip0_283_12177">
<rect width="76" height="42" fill="white"/>
</clipPath>
</defs>
</svg>
