<svg width="28" height="29" viewBox="0 0 28 29" fill="none" xmlns="http://www.w3.org/2000/svg">
<rect y="0.280029" width="28" height="28" rx="14" fill="#FFBF00"/>
<path d="M22.9798 10.1971L11.9798 21.1971C11.884 21.2932 11.7702 21.3695 11.6448 21.4216C11.5195 21.4736 11.3851 21.5004 11.2493 21.5004C11.1136 21.5004 10.9792 21.4736 10.8539 21.4216C10.7285 21.3695 10.6147 21.2932 10.5189 21.1971L5.70638 16.3846C5.61045 16.2887 5.53436 16.1748 5.48244 16.0494C5.43053 15.9241 5.40381 15.7898 5.40381 15.6541C5.40381 15.5185 5.43053 15.3841 5.48244 15.2588C5.53436 15.1335 5.61045 15.0196 5.70638 14.9237C5.80231 14.8277 5.91619 14.7516 6.04152 14.6997C6.16685 14.6478 6.30119 14.6211 6.43685 14.6211C6.57251 14.6211 6.70684 14.6478 6.83217 14.6997C6.95751 14.7516 7.07139 14.8277 7.16732 14.9237L11.2502 19.0065L21.5206 8.73787C21.7143 8.54414 21.9771 8.4353 22.2511 8.4353C22.525 8.4353 22.7878 8.54414 22.9815 8.73787C23.1753 8.9316 23.2841 9.19436 23.2841 9.46834C23.2841 9.74232 23.1753 10.0051 22.9815 10.1988L22.9798 10.1971Z" fill="#1A1528"/>
</svg>
