<svg width="231" height="121" viewBox="0 0 231 121" fill="none" xmlns="http://www.w3.org/2000/svg">
<mask id="mask0_1_418" style="mask-type:luminance" maskUnits="userSpaceOnUse" x="0" y="0" width="231" height="121">
<path d="M230.239 31.1406L15.6914 0.612793L0.784074 90.0898L215.331 120.618L230.239 31.1406Z" fill="white"/>
</mask>
<g mask="url(#mask0_1_418)">
<path d="M90.5092 27.6653C89.8482 27.8217 90.1372 28.1537 90.0449 28.2556C91.1297 27.8484 90.4668 27.5646 90.5092 27.6653Z" fill="#FFBF00"/>
<path d="M101.329 23.8891L101.148 24.1003C101.674 23.8232 102.207 23.6012 102.744 23.3529C102.273 23.5294 101.799 23.6854 101.335 23.8832L101.329 23.8891Z" fill="#FFBF00"/>
<path d="M111.625 22.0893C111.132 21.8098 110.195 21.9736 109.157 22.2113C108.636 22.333 108.093 22.4584 107.561 22.5786C107.032 22.7129 106.514 22.8148 106.052 22.837L105.741 22.7319L104.941 23.456C106.053 23.2156 107.325 22.7951 108.521 22.5668C109.718 22.3112 110.836 22.0987 111.625 22.0827L111.625 22.0893Z" fill="#FFBF00"/>
<path d="M117.104 22.9642C116.768 22.72 118.285 22.6044 115.831 23.0063C115.952 23.0235 115.988 23.0354 116.06 23.0524C116.281 23.023 116.588 22.9922 117.104 22.9642Z" fill="#FFBF00"/>
<path d="M116.065 23.0576C114.987 23.1889 116.771 23.2192 116.065 23.0576V23.0576Z" fill="#FFBF00"/>
<path d="M121.045 22.4354C120.568 22.5503 120.093 22.6518 119.62 22.7739C119.911 22.9033 121.172 22.8729 120.701 23.0157C122.161 22.7904 121.867 22.6471 121.046 22.4288L121.045 22.4354Z" fill="#FFBF00"/>
<path d="M122.41 21.8417L121.669 21.9934C121.799 22.0525 121.99 22.0662 122.41 21.8417Z" fill="#FFBF00"/>
<path d="M120.103 22.3033L121.67 21.9849C121.467 21.8815 121.45 21.6559 120.95 22.1057C121.082 21.8878 120.766 22.1066 120.099 22.2958L120.103 22.3033Z" fill="#FFBF00"/>
<path d="M119.218 22.2709C118.423 22.1982 117.392 22.2072 118.826 21.8158C116.095 22.1985 116.493 22.6544 119.218 22.2709Z" fill="#FFBF00"/>
<path d="M112.141 21.2824L111.062 21.2302L110.137 21.6061C110.599 21.4215 112.214 21.4956 112.141 21.2824Z" fill="#FFBF00"/>
<path d="M129.866 22.4346C129.968 22.2799 129.415 22.0389 129.323 21.8499L128.261 22.0439C128.794 22.1401 129.806 22.2163 129.861 22.4339L129.866 22.4346Z" fill="#FFBF00"/>
<path d="M129.323 21.8524L130.912 21.5643C129.512 21.5612 129.248 21.6861 129.323 21.8524Z" fill="#FFBF00"/>
<path d="M122.69 21.0343L120.084 21.7317L123.192 20.9974L122.69 21.0343Z" fill="#FFBF00"/>
<path d="M135.826 22.5005L134.915 22.8309L136.538 22.3379L135.826 22.5005Z" fill="#FFBF00"/>
<path d="M139.781 22.5944C139.1 22.8424 140.617 23.1397 139.91 23.2759C140.98 23.2928 141.923 23.1021 142.77 22.9317C141.88 23.0013 140.958 22.9107 139.777 22.5938L139.781 22.5944Z" fill="#FFBF00"/>
<path d="M144.195 22.696C143.751 22.7412 143.283 22.8303 142.771 22.9332C143.24 22.8985 143.709 22.8299 144.195 22.696Z" fill="#FFBF00"/>
<path d="M133.576 21.6447C133.689 21.7419 133.903 21.982 134.771 22.1056L134.192 21.6647C134.005 21.6583 133.791 21.6481 133.576 21.6447Z" fill="#FFBF00"/>
<path d="M134.167 21.6553L134.186 21.6715C134.855 21.699 135.316 21.7172 135.513 21.7251C135.343 21.7143 134.936 21.697 134.167 21.6553Z" fill="#FFBF00"/>
<path d="M133.42 21.6437C133.478 21.6519 133.517 21.6439 133.575 21.6521C133.517 21.6098 133.483 21.5913 133.42 21.6437Z" fill="#FFBF00"/>
<path d="M126.812 21.2034C127.748 20.9513 129.699 20.6543 127.846 20.3297C127.165 20.6318 128.222 20.8227 126.812 21.2034Z" fill="#FFBF00"/>
<path d="M132.699 21.0874C132.148 21.0293 131.589 21.0242 131.038 20.9999C131.062 21.1116 131.354 21.2682 130.886 21.3977C131.49 21.2943 132.099 21.1644 132.699 21.0874Z" fill="#FFBF00"/>
<path d="M133.526 20.9734L132.699 21.0857L133.309 21.1389L133.526 20.9734Z" fill="#FFBF00"/>
<path d="M141.408 22.1193C142.142 21.9803 142.929 22.0176 143.819 22.0428C142.884 21.8962 141.905 21.7908 140.977 21.7332C140.831 21.8613 140.392 22.0695 141.408 22.1193Z" fill="#FFBF00"/>
<path d="M137.901 21.7852C137.951 21.7788 138.017 21.7681 138.06 21.7676C137.965 21.7272 137.886 21.7159 137.901 21.7852Z" fill="#FFBF00"/>
<path d="M152.466 23.0197C152.423 22.9868 152.385 22.9546 152.342 22.9216C152.327 22.9463 152.319 22.9653 152.298 22.9892L152.467 23.0132L152.466 23.0197Z" fill="#FFBF00"/>
<path d="M140.825 21.6345C140.119 21.5069 139.687 21.5806 139.264 21.6897C139.799 21.678 140.369 21.6913 140.977 21.7238C141.047 21.6659 141.058 21.627 140.825 21.6345Z" fill="#FFBF00"/>
<path d="M146.633 22.7449C146.276 22.6197 145.871 22.4945 145.438 22.3787C145.782 22.5493 146.488 22.8392 146.633 22.7449Z" fill="#FFBF00"/>
<path d="M138.293 21.8889C138.256 21.8902 138.221 21.8989 138.184 21.9002C138.41 21.9994 138.384 21.9621 138.293 21.8889Z" fill="#FFBF00"/>
<path d="M138.294 21.8894C138.666 21.8544 138.966 21.7686 139.264 21.6892C138.827 21.7013 138.422 21.7046 138.067 21.7624C138.153 21.795 138.238 21.8408 138.294 21.8894Z" fill="#FFBF00"/>
<path d="M155.552 20.6972C155.356 21.068 153.429 21.1519 151.884 20.4929C150.247 20.5506 151.09 21.9949 152.341 22.923C152.418 22.7581 152.444 22.5997 154.107 22.6134C153.58 22.3154 150.588 21.5788 152.015 21.4238C154.205 21.5394 153.758 21.8272 154.771 22.1874C153.962 21.5724 157.641 21.8729 157.306 21.1088C156.658 21.0776 156.01 21.0868 155.361 21.0687C155.343 20.9513 156.066 20.8786 155.558 20.698L155.552 20.6972Z" fill="#FFBF00"/>
<path d="M149.253 22.4747L148.578 22.4531C149.328 22.6072 149.856 22.8041 150.807 23.2438C151.942 23.216 152.198 23.1036 152.293 22.9885L150.657 22.7152L149.01 22.5079L149.248 22.474L149.253 22.4747Z" fill="#FFBF00"/>
<path d="M145.571 22.1353C146.149 21.7647 147.79 21.7546 146.866 21.1838C144.885 21.01 145.437 21.386 144.233 21.4649C147.431 21.6765 143.289 21.601 145.552 22.0853C144.921 22.0901 144.358 22.0438 143.819 22.0416C144.387 22.1225 144.931 22.2539 145.437 22.3868C145.407 22.3756 145.392 22.3668 145.368 22.3499L145.352 22.3476C145.223 22.2819 145.181 22.2422 145.329 22.2903C145.34 22.2918 145.378 22.2904 145.395 22.2861C145.426 22.2296 145.487 22.1843 145.559 22.1404C146.466 22.3236 145.688 22.2671 145.395 22.2861C145.381 22.3044 145.356 22.3212 145.347 22.3468L145.357 22.3484L148.568 22.4536C147.905 22.3254 147.062 22.2393 145.56 22.1338L145.571 22.1353Z" fill="#FFBF00"/>
<path d="M129.633 19.3744C129.73 19.4085 129.724 19.4416 129.731 19.4696C129.945 19.412 130.026 19.3761 129.633 19.3744Z" fill="#FFBF00"/>
<path d="M130.953 19.6006C130.71 19.6676 130.503 19.8411 129.743 19.8141C129.088 19.7006 129.76 19.6069 129.735 19.468C129.263 19.5901 128.099 19.8104 129.536 19.9876L129.767 19.9258C131.061 20.0491 132.696 20.5524 132.463 20.6275C132.115 20.2261 131.802 19.9717 130.958 19.6014L130.953 19.6006Z" fill="#FFBF00"/>
<path d="M138.418 20.5636L141.112 20.5276L139.788 20.0685L139.831 20.2979C138.315 20.1093 138.616 20.4092 138.411 20.5695L138.418 20.5636Z" fill="#FFBF00"/>
<path d="M152.73 23.2766L152.308 23.6767L153.928 23.2644L152.73 23.2766Z" fill="#FFBF00"/>
<path d="M156.151 23.7291L155.955 24.1003C156.268 24.0637 156.587 24.0279 156.897 24.011C156.65 23.9082 156.402 23.812 156.153 23.7224L156.151 23.7291Z" fill="#FFBF00"/>
<path d="M114.8 103.781L113.989 103.862C114.369 103.842 114.616 103.816 114.8 103.781Z" fill="#FFBF00"/>
<path d="M120.561 104.034L120.722 103.847C120.447 103.943 120.326 104.021 120.561 104.034Z" fill="#FFBF00"/>
<path d="M219.329 71.6505C219.069 72.2419 218.709 72.8191 218.508 73.2434C218.304 73.6669 218.148 73.9219 218.347 73.9232L218.795 73.6895C218.939 72.8248 219.151 72.1996 219.329 71.6505Z" fill="#FFBF00"/>
<path d="M168.044 98.9323C168.153 98.9547 168.272 98.985 168.387 99.0083C168.667 98.8182 168.93 98.6323 169.162 98.469C168.825 98.6107 168.443 98.7663 168.044 98.9323Z" fill="#FFBF00"/>
<path d="M167.257 100.84C166.74 100.841 166.225 100.795 165.711 100.769C166.059 100.818 166.559 100.862 167.257 100.84Z" fill="#FFBF00"/>
<path d="M83.4996 100.921L82.5049 101.198C83.9352 101.443 83.3432 101.115 83.4996 100.921Z" fill="#FFBF00"/>
<path d="M190.007 33.6999C190.845 34.2653 191.526 34.6733 192.143 34.9841C191.155 34.2486 190.416 33.4807 190.007 33.6999Z" fill="#FFBF00"/>
<path d="M117.532 99.2822C117.042 99.3419 116.825 99.4188 116.829 99.5208C117.334 99.4646 117.619 99.3963 117.532 99.2822Z" fill="#FFBF00"/>
<path d="M194.688 36.2601C194.553 36.1392 194.408 36.0374 194.264 35.929C193.59 35.6774 192.926 35.3934 192.147 34.985C192.869 35.541 193.72 36.0951 194.688 36.2601Z" fill="#FFBF00"/>
<path d="M22.7178 30.7914C22.8076 30.7702 22.9101 30.7373 22.9924 30.7287C23.0034 30.6625 22.887 30.7138 22.7178 30.7914Z" fill="#FFBF00"/>
<path d="M55.899 32.7758C55.5747 32.75 55.0588 32.6766 54.564 32.6062C54.7953 32.6731 55.2007 32.7307 55.899 32.7758Z" fill="#FFBF00"/>
<path d="M169.661 26.8692C168.951 26.7 169.539 26.886 169.661 26.8692V26.8692Z" fill="#FFBF00"/>
<path d="M166.598 24.323C166.762 24.3124 166.892 24.2766 166.935 24.181C166.85 24.2707 166.736 24.3087 166.598 24.323Z" fill="#FFBF00"/>
<path d="M202.182 37.536C202.182 37.536 202.216 37.5611 202.236 37.5708C202.085 37.373 202.107 37.4033 202.182 37.536Z" fill="#FFBF00"/>
<path d="M168.649 26.3794C168.902 26.5035 169.193 26.6329 169.518 26.7601C169.378 26.6863 169.118 26.568 168.649 26.3794Z" fill="#FFBF00"/>
<path d="M168.744 26.6143C168.506 26.5196 168.315 26.4721 168.136 26.4196C168.03 26.4722 168.102 26.523 168.744 26.6143Z" fill="#FFBF00"/>
<path d="M170.647 27.1212C170.245 27.0166 169.873 26.8892 169.518 26.7574C169.647 26.8231 169.699 26.8644 169.66 26.8724C169.866 26.9288 170.161 27.0045 170.646 27.1279L170.647 27.1212Z" fill="#FFBF00"/>
<path d="M33.0367 85.2547C32.9939 85.2215 32.9457 85.1876 32.9039 85.1479C32.157 84.9806 32.4633 85.1122 33.0367 85.2547Z" fill="#FFBF00"/>
<path d="M208.073 90.7587C208.11 90.7362 208.124 90.718 208.155 90.6956C208.119 90.7111 208.074 90.7249 208.041 90.7336L208.075 90.7517L208.073 90.7587Z" fill="#FFBF00"/>
<path d="M205.458 92.2928C206.503 91.2928 207.156 91.0612 208.044 90.7422L206.884 90.0162C206.428 90.7751 205.949 91.5452 205.463 92.3005L205.458 92.2928Z" fill="#FFBF00"/>
<path d="M101.03 102.887L102.846 103.471C100.499 103.873 98.8897 103.475 100.578 104.209C100.809 103.539 102.625 103.729 104.455 103.834C106.287 103.933 108.119 104.032 108.327 103.365L109.532 103.739C109.176 103.702 109.111 103.774 108.761 103.738C111.095 104.542 110.66 102.92 113.741 103.277C114.81 103.429 115.549 103.649 114.795 103.778L117.243 103.539C117.946 103.592 117.747 103.82 117.049 103.768L120.744 103.808L120.711 103.843C120.986 103.747 121.427 103.628 121.875 103.522C122.321 103.403 122.776 103.286 123.074 103.22C123.994 103.419 122.592 103.361 122.817 103.528L124.89 103.215C125.692 103.573 123.972 103.902 122.56 103.843C124.353 105.206 124.285 103.514 128.347 104.329L126.402 104.49C127.588 105.261 129.122 105.013 131.281 105.476C130.774 105.254 126.987 104.249 129.232 103.934C129.852 104.029 130.672 104.119 131.889 103.799C131.868 104.282 133.052 104.133 134.518 104.064L134.379 104.707C135.979 104.482 135.87 104.162 136.823 103.845C138.588 103.86 138.928 104.347 139.329 104.749C142.16 104.739 137.409 104.051 140.769 103.771C143.117 103.876 144.788 103.519 147.617 102.968C149.262 103.088 147.318 103.372 147.902 103.523C148.393 103.323 148.888 103.136 149.377 102.915C149.737 102.892 149.616 103.064 149.554 103.143C150.792 102.833 149.673 102.497 151.612 102.146C152.141 101.396 155.577 102.797 157.983 101.782C158.575 101.886 157.697 102.207 157.875 102.428C161.173 101.492 160.702 101.695 163.398 100.653L165.705 100.779C164.853 100.651 164.97 100.37 165.531 100.045C166.091 99.7187 167.098 99.335 168.032 98.9409C167.43 98.8008 166.914 98.6937 166.574 98.6384L169.565 97.8216C169.928 97.8726 169.632 98.1345 169.149 98.4785C169.352 98.392 169.543 98.3117 169.695 98.2382C170.774 98.297 170.229 98.7533 169.47 99.2339C169.1 99.1604 168.735 99.0887 168.375 99.0169C167.639 99.5199 166.952 100.058 167.114 100.405C167.31 100.298 167.686 100.176 168.102 100.072C167.907 100.207 167.786 100.319 167.879 100.372C167.985 100.421 168.296 100.229 168.785 99.9875L169.489 100.58L169.648 100.272L173.614 100.073C174.315 99.7809 174.992 99.4715 175.68 99.1578C176.366 98.8224 177.071 98.4767 177.823 98.131C179.327 97.4465 181.034 96.7776 183.259 96.195C182.183 96.9271 183.074 97.0809 183.051 97.6997C181.793 97.2979 179.6 98.6548 177.273 98.9789C178.487 98.8069 178.235 99.1492 177.933 99.316L182.046 97.915C181.981 98.4327 182.949 98.1172 184.045 98.1111C183.168 97.3246 187.081 96.7663 188.738 96.0697C188.871 96.3722 188.492 96.8043 186.433 97.201C188.752 97.4093 189.265 95.367 191.531 95.4803C191.031 95.6047 190.759 95.6203 190.573 95.8303C191.143 95.5468 192.149 95.2979 192.93 95.1726C193.712 95.0403 194.269 95.0256 193.945 95.2564L193.449 95.3886C195.114 95.0308 197.651 94.3576 199.817 93.5512C201.981 92.7578 203.753 91.8209 203.923 91.3239C203.976 91.4198 203.669 92.457 203.493 92.7024C205.315 91.0491 207.062 89.298 208.639 87.4346C208.492 87.8936 209.001 88.2695 209.251 88.744C209.496 89.2116 209.47 89.8166 208.154 90.7034C208.957 90.4052 209.977 90.0102 211.521 88.763C210.961 89.0214 209.903 88.6144 210.591 88.1381C211.676 87.9005 212.046 87.7501 212.469 87.5738C212.675 87.4683 212.898 87.3577 213.226 87.1952C213.559 87.0396 214.001 86.8193 214.647 86.4649C214.238 86.7173 214.136 86.4259 214.265 85.9714C214.331 85.7442 214.457 85.4716 214.637 85.1998C214.809 84.9134 215.029 84.6272 215.307 84.3764C215.21 84.6732 215.922 85.1529 215.556 85.6347L216.134 84.7507L216.663 83.8057C217.001 83.1713 217.366 82.6014 217.629 81.9227C217.163 82.8496 218.042 82.7113 218.784 82.1345C218.69 82.1885 218.775 82.0317 218.967 81.755C219.064 81.6202 219.185 81.4481 219.318 81.2577C219.445 81.0526 219.58 80.8219 219.727 80.5861C220.011 80.1063 220.336 79.5848 220.599 79.1086C220.833 78.6081 221.024 78.1692 221.124 77.8928L220.655 78.6708L220.418 79.056L220.154 79.417C220.228 79.2924 220.303 79.1679 220.377 79.0434C220.436 78.9167 220.495 78.7899 220.547 78.6689C220.658 78.4279 220.751 78.1912 220.836 77.9735C221.006 77.5315 221.148 77.1393 221.231 76.7661C221.374 76.0027 221.419 75.3806 221.45 74.7768C221.45 73.547 221.424 72.4016 221.724 70.1873C221.775 70.4581 222.012 70.8162 222.29 70.8288C222.548 70.8383 222.943 70.4689 223.05 69.2475C222.949 68.9765 222.784 68.5409 222.576 67.984C222.342 67.4441 222.039 66.8064 221.751 66.1099C221.452 65.4186 221.066 64.6881 220.769 63.9161C220.589 63.5391 220.411 63.1556 220.252 62.7545C220.091 62.3601 219.96 61.9495 219.79 61.5469L219.871 60.7679C219.571 59.921 219.157 59.1391 218.781 58.3558C219.077 58.648 219.477 59.0901 219.943 59.6565C220.351 60.2483 220.861 60.9425 221.298 61.7413C221.713 62.5504 222.179 63.4073 222.478 64.3012C222.637 64.7425 222.8 65.1781 222.93 65.5952C223.037 66.0226 223.137 66.4287 223.214 66.8046C223.362 64.9743 223.575 66.2275 223.279 63.5704C223.411 62.5486 223.835 64.9199 223.87 65.7425C223.887 65.1908 223.81 64.6799 223.781 64.1419C223.73 63.6143 223.719 63.0654 223.631 62.5596C223.462 61.529 223.336 60.4771 223.075 59.4873C222.963 59.6131 222.802 59.4146 222.615 59.0501C222.521 58.8678 222.423 58.6445 222.323 58.4072C222.211 58.175 222.09 57.9281 221.971 57.6746C221.731 57.1743 221.495 56.6812 221.293 56.3416C221.085 56.0079 220.902 55.8467 220.822 55.9638C221.079 56.3924 221.275 56.8728 221.487 57.3423C221.694 57.8176 221.93 58.2703 222.112 58.769C222.474 59.7665 222.864 60.7546 223.128 61.8258C223.005 61.9436 222.809 61.8007 222.574 61.4633C222.45 61.2971 222.336 61.0781 222.183 60.8333C222.03 60.5885 221.866 60.3085 221.704 59.9881C221.54 59.6743 221.372 59.3261 221.202 58.9572C221.008 58.5986 220.818 58.2201 220.632 57.8153C220.284 56.9954 219.847 56.1628 219.491 55.2542C219.291 54.1919 220.639 55.289 220.772 55.1052C220.441 54.7 218.844 51.9592 218.726 51.5979C219.1 51.9753 219.433 52.4011 219.77 52.8343C219.374 51.7575 218.728 51.1657 218.136 50.4801C217.845 50.1278 217.521 49.8113 217.222 49.404C216.917 49.0024 216.645 48.4976 216.357 47.9025C215.859 47.2032 215.273 45.2549 214.925 45.4688C215.403 47.0976 214.094 49.0603 213.227 48.8017C213.151 48.6761 212.567 47.7484 211.943 46.7406C211.279 45.7745 210.588 44.6829 210.339 44.2354C210.018 43.5476 210.561 43.5844 211.13 43.6587C211.694 43.7388 212.269 43.8814 212.001 43.2554C211.87 43.3586 211.208 43.0345 210.942 42.8885C210.396 42.1824 211.502 42.6641 210.084 41.4691C209.506 41.8328 207.246 39.0043 209.127 41.3871C207.666 40.3886 207.728 40.0528 206.056 38.8013C206.223 39.1833 205.671 39.2396 204.892 39.095C204.504 39.0264 204.061 38.9026 203.618 38.7517C203.173 38.6073 202.728 38.4358 202.345 38.2395C202.507 38.1409 202.275 37.7227 202.162 37.5309C199.191 35.5675 197.644 34.3744 194.721 32.864C194.511 32.5772 193.163 31.6759 193.868 31.7088C193.401 31.6083 192.925 31.6488 192.003 31.2272C190.429 29.841 194.082 32.1042 192.974 30.8044C192.845 30.9618 192.203 30.8095 191.423 30.5702C190.635 30.35 189.705 30.0422 189.006 29.875C189.216 30.6211 192.002 31.3284 193.389 31.7353C193.09 32.5305 190.541 32.2421 187.301 31.3148C184.75 30.4856 186.393 30.3613 185.924 30.2946C181.237 28.3777 181.495 30.0969 177.711 28.2273C176.284 27.1864 177.936 27.1714 177.689 26.6835C179.825 27.1835 180.792 28.044 182.179 28.5793C181.63 28.2849 181.091 27.9649 180.537 27.6969C181.251 27.7445 182.653 28.1602 183.358 28.5849C182.775 28.1033 180.789 27.2867 178.457 26.536C177.294 26.1408 176.061 25.7154 174.889 25.312C173.706 24.941 172.582 24.565 171.675 24.1926C170.961 24.1788 169.767 24.0359 170.26 24.4035L171.467 24.663C172.451 25.3908 169.093 24.6158 170.541 25.2408C168.891 25.0533 166.98 25.1395 164.787 24.3612L164.495 23.6574C164.506 23.8483 165.886 24.3622 166.565 24.3304C165.564 24.3906 163.292 22.6619 162.079 23.2799C162.584 23.514 163.081 23.7671 163.575 24.0334C161.901 23.9574 159.771 24.2623 157.805 23.6719C158.603 24.4476 158.281 23.6923 159.569 24.666C159.036 24.1105 160.319 24.3673 161.503 24.6034C162.696 24.8138 163.775 25.1023 162.888 24.4086C164.163 25.5562 165.324 25.343 167.053 26.481C167.039 26.2696 166.474 25.9459 168.111 26.4356C168.199 26.394 168.393 26.3608 168.52 26.3451C168.57 26.3658 168.584 26.3747 168.626 26.3872C168.597 26.3696 168.571 26.3592 168.541 26.3415C168.619 26.3321 168.63 26.327 168.512 26.3237C168.138 26.1422 167.839 25.9645 167.734 25.8211C168.678 25.523 171.297 26.3348 172.25 26.3353C173.206 26.7079 171.779 26.4441 172.264 26.8035L173.682 26.8296C173.702 27.2919 176.08 28.3129 173.716 27.8885C174.407 28.0747 175.087 28.3269 175.765 28.5585C176.903 29.2002 178.531 29.844 179.603 30.0034C180.537 30.4133 182.155 30.4341 181.228 30.4439L184.481 31.3866L184.478 31.5077C187.574 32.7457 191.111 33.4449 194.241 35.9377C195.28 36.3627 196.378 36.7621 197.967 37.8327L198.131 38.3696C198.787 38.6657 199.672 39.3389 200.483 39.907C201.278 40.5066 202 41.0216 202.352 41.0109C202.766 41.9212 204.174 42.9797 205.673 44.1051C207.159 45.249 208.749 46.4687 209.602 47.4617L209.945 47.1252C210.257 47.4467 210.566 47.761 210.891 48.0708C211.204 48.3923 211.518 48.7138 211.845 49.0443C212.52 49.6809 213.167 50.4217 213.937 51.234L214.128 50.8016C214.817 51.4809 215.542 52.5638 216.169 53.8761C216.833 55.1664 217.403 56.6935 218.026 58.1607C217.815 58.0427 217.53 57.2861 217.381 56.6972C217.813 58.6979 218.57 60.4883 219.203 62.3824C219.799 64.2713 220.173 66.2976 219.876 68.1472C219.938 69.0345 219.896 69.7043 219.719 70.3209C219.732 70.2416 219.735 70.161 219.734 70.1001C219.719 70.1925 219.696 70.3244 219.673 70.4631C219.555 70.8517 219.425 71.2387 219.306 71.661C219.446 71.3092 219.568 70.9618 219.647 70.6553C219.6 71 219.556 71.4262 219.503 71.9051C219.415 72.3723 219.324 72.8798 219.249 73.3961C219.086 73.5013 218.951 73.6036 218.774 73.6934C218.75 73.7711 218.734 73.8364 218.71 73.9141C218.264 74.7764 218.622 74.7393 219.066 74.3363C218.954 74.8473 218.882 75.3439 218.832 75.7356C218.378 75.9683 218.158 76.5855 217.904 77.2657C217.594 77.8973 217.248 78.5846 216.719 78.8135C216.688 79.0048 216.493 79.3624 216.228 79.818C216.095 80.0421 215.945 80.2911 215.788 80.5527C215.608 80.7906 215.416 81.0403 215.229 81.2907C214.506 82.3297 213.665 83.2709 213.643 83.7948C213.567 83.7299 213.322 83.8775 213.73 83.5236C213.279 83.8443 212.841 84.174 212.411 84.4912C211.971 84.8003 211.577 85.1631 211.202 85.5355L210.611 85.2623C210.049 85.9526 209.443 86.5824 208.823 87.2307C207.439 87.5816 206.885 87.6446 208.01 86.5539C206.599 87.6784 205.966 88.0137 205.407 88.3326C204.848 88.6515 204.343 88.9316 203.05 89.801L203.12 89.3793C202.156 89.7621 200.666 90.814 200.026 90.6817C198.882 90.6878 196.159 91.476 192.964 92.2513C189.763 92.9652 186.118 93.8519 183.231 94.1034C184.418 95.0291 180.528 94.1173 180.352 95.0455C180.004 94.8398 179.195 94.8467 180.111 94.4232C177.191 95.2573 175.696 94.8891 173.694 95.9427C173.347 95.724 174.305 95.4414 174 95.3307C173.769 95.4258 173.079 95.7197 172.765 95.6004C172.46 95.4898 173.186 95.3022 173.644 95.1112C170.651 95.6376 170.373 96.5304 170.177 97.354C168.641 97.2235 167.89 97.4007 166.798 98.0965C166.26 97.8985 165.372 97.7654 167.238 97.4024C166.186 97.5295 160.816 97.8467 160.712 98.5009C160.382 98.3791 159.244 98.6435 158.968 98.7455C156.609 98.9979 156.403 98.908 154.086 99.2001L154.725 99.2434C153.802 100.092 152.798 99.5908 150.926 99.8587L150.984 99.7723C148.85 99.7049 148.385 99.7809 147.929 99.8648C147.474 99.9486 147.025 100.019 144.923 99.8285L145.137 100.292C144.706 101.325 141.417 99.9443 138.953 100.412L139.821 100.663C138.464 101.051 136.157 99.3652 134.831 99.271C134.543 99.1898 135.3 99.1146 135.711 99.0385C132.245 98.5251 135.222 99.6781 132.6 99.8924C132.142 99.5709 133.274 99.0161 131.524 99.0031C130.674 98.7403 126.356 100.072 124.014 99.4145C124.52 99.6755 125.02 99.9426 123.794 100.127C123.326 100.147 122.787 100.091 122.206 100.015C121.631 99.9132 121.019 99.7991 120.412 99.6928C119.196 99.4854 118.002 99.3765 117.119 99.7576C116.89 99.6781 116.81 99.6055 116.805 99.5441C116.085 99.6245 114.926 99.6617 113.836 99.7369C112.745 99.8112 111.724 99.8613 111.27 100.061C110.166 98.316 102.387 100.242 102.624 98.6548L98.2949 98.2823L98.4315 98.1397C97.0576 97.9435 96.1149 97.9106 95.3855 97.9556C94.6588 97.9806 94.1444 98.0965 93.6347 98.2131C93.0138 98.0239 93.5013 97.9443 93.5674 97.8726C89.6014 96.9979 89.1943 97.0481 85.7014 97.2806L85.4376 96.7291C84.9576 96.7966 83.5497 96.3532 81.7583 95.8813C79.9681 95.4042 77.7973 94.9461 75.8025 94.7906C75.8533 94.7439 75.953 94.6635 76.2713 94.6618C74.0257 94.4907 71.4774 93.6151 69.249 92.9531C67.0369 92.2262 65.1435 91.7206 64.1398 92.4086L61.1709 92.1484C64.8509 93.1856 60.4352 92.7802 61.8933 93.4405C60.3953 93.2132 58.2545 91.9289 60.0568 92.3343L60.316 92.4924C61.1851 91.7716 55.819 90.8935 56.0738 90.3015C54.267 89.7941 52.4631 89.3006 50.7021 88.7129C48.9388 88.1373 47.2055 87.5124 45.4976 86.8642C42.0807 85.5736 38.7805 84.1648 35.5987 82.6918C35.7629 83.0327 35.9206 83.3795 36.0911 83.7146C35.3453 83.372 34.6092 83.0037 33.8708 82.6486C33.3522 82.2032 33.2869 81.7547 34.8634 82.5128C34.17 81.7587 32.108 81.5532 31.9955 81.679C30.5223 80.7532 30.9095 80.6934 31.5324 80.8361C32.1564 80.9722 33.0387 81.2396 32.5724 80.9976C32.1406 80.8078 31.711 80.6047 31.2878 80.3959L31.5401 80.6277C30.4188 80.3398 30.1818 80.6304 28.3802 79.5091C27.2867 78.6981 27.9712 78.7617 27.5382 78.4501C27.5617 78.4061 27.4255 78.2854 26.8701 77.9969C25.9993 77.4338 25.1712 76.8092 24.3303 76.1963L25.091 77.4195C23.8165 76.8867 22.7187 75.6494 23.5821 77.0966C22.9606 76.0082 20.6582 74.1737 18.6471 72.1105C16.6219 70.0992 14.9477 67.7934 14.6848 67.1073C13.3016 65.6739 12.285 63.8197 11.3927 61.3481C11.461 61.6821 11.4207 62.021 11.2617 62.0052C11.1016 61.9958 10.8134 61.6238 10.4745 60.4877C11.1145 60.5922 10.87 59.5371 10.6245 58.1643C10.3674 56.7966 10.1846 55.0476 10.5319 54.0632C10.3329 54.9335 10.1459 53.3392 10.1775 51.8235C10.1849 51.0677 10.2405 50.3459 10.2284 49.9658C10.2057 49.5841 10.1018 49.5288 9.82642 50.1788C10.0061 49.1976 10.1463 49.1972 10.2513 49.246C10.3669 49.2962 10.4842 49.4008 10.7523 48.7294C11.0387 46.4931 12.134 44.1555 13.7501 42.2503C14.5241 41.259 15.4679 40.4135 16.4181 39.5622C17.4131 38.7645 18.4293 37.9699 19.5133 37.2525C19.5305 37.0522 18.6973 37.2985 19.5652 36.4558C19.9972 36.3213 20.4424 36.236 20.8783 36.1426C21.3141 36.0492 21.7448 35.9551 22.1899 35.9036C22.6321 35.6421 22.7799 35.3051 23.0465 34.9983C23.3163 34.7057 23.7132 34.4581 24.621 34.3778C24.3578 34.3403 23.9525 34.2826 24.5659 33.9645C29.3129 32.5115 34.2235 31.4669 39.2023 31.209C44.1782 30.9373 49.1815 31.406 53.9059 32.9026C52.646 32.3787 53.5253 32.47 54.5381 32.6006C53.8986 32.4285 54.6254 32.1738 54.5387 31.9183C55.8635 32.3432 57.1872 32.7749 58.5024 33.2255C59.367 32.6931 62.879 33.9631 63.4276 33.4195L62.1123 33.2932C63.9773 32.8693 60.0223 31.2187 60.4468 30.3196C58.3653 30.814 55.553 28.1908 52.1268 28.9939C51.447 28.708 52.7797 28.7624 52.4359 28.4973C51.556 28.7978 50.5604 28.7575 48.7493 28.4051L48.9733 28.3222C46.3781 28.1151 44.5213 27.9725 42.5855 27.8187C40.64 27.6905 38.6083 27.5298 35.61 27.7045L36.0507 28.1322C34.7689 28.193 34.4987 28.1005 33.8899 28.068C33.1606 28.5317 34.0604 28.403 34.9768 28.3037C35.8952 28.2249 36.8219 28.1608 36.1516 28.6263C35.3146 28.2166 33.045 28.4815 30.8573 28.9338C28.6646 29.3515 26.5587 30.0249 25.8981 29.6876C23.9269 30.3937 26.5536 29.9904 24.5959 30.7119L24.0222 30.6302L23.6052 31.1925C22.3258 31.6592 21.6061 31.6446 21.4948 31.4396C21.8129 31.3092 22.3592 30.9409 22.6923 30.7856C22.2575 30.8724 21.747 31.0903 21.2204 31.3397C20.9572 31.4644 20.6865 31.6016 20.4199 31.7461C20.1564 31.9046 19.8982 32.0638 19.6463 32.2171C18.6305 32.8159 17.8027 33.5157 17.5036 33.6285C18.135 33.2995 18.753 32.9212 19.3904 32.6537C18.7449 33.0348 18.0976 33.5239 17.4264 33.9622C16.7748 34.4776 16.092 34.921 15.4388 35.5105C14.1055 36.5911 12.8117 37.9206 11.6516 39.4178C10.478 40.8995 9.48357 42.6635 8.77118 44.4811C8.05246 46.3046 7.65985 48.2083 7.53711 49.9477L7.78826 49.4429C7.66001 50.7625 7.64425 51.6656 7.61606 52.3846C7.59315 53.1044 7.56943 53.6348 7.55822 54.1874C7.55524 54.4639 7.55226 54.7406 7.54905 55.051C7.55747 55.3562 7.57728 55.6901 7.59992 56.0717C7.67261 56.8321 7.79544 57.8091 8.14052 59.1014L8.05638 58.9274C8.45842 59.9102 8.92568 61.2133 9.39491 62.5369C9.0837 61.9791 9.18035 62.628 9.29217 63.2182C9.4051 63.8018 9.50134 64.3561 9.0733 63.6263C9.63124 64.7733 10.0334 65.4319 10.3076 65.8561C10.5754 66.2861 10.7438 66.4722 10.883 66.6069C11.1615 66.8762 11.3685 66.9598 12.4601 68.0407L12.6027 68.899C13.4201 69.5558 13.5455 69.5467 15.035 71.3127C13.6592 70.029 15.6244 72.9169 14.0325 71.5079C15.3234 73.7863 16.7549 74.9292 17.8903 75.7799C18.4509 76.2313 18.9679 76.5887 19.4119 76.9965C19.8517 77.397 20.2024 77.8793 20.4893 78.4539C21.5964 78.6655 20.8352 77.9626 20.0018 77.175C19.5809 76.7908 19.1231 76.4013 18.8361 76.151C18.5565 75.8883 18.4437 75.7573 18.6954 75.9283C18.1225 74.9683 20.4049 76.5026 21.5016 77.456C22.0844 77.9038 22.4093 78.6055 23.0097 79.4004C23.3094 79.8012 23.6667 80.2439 24.1418 80.7237C24.6266 81.1778 25.2366 81.6565 26.0161 82.1526C25.7056 81.9462 25.6524 82.0063 25.3473 81.8007C25.8728 82.3011 26.4958 82.5722 27.1366 82.8661C27.7804 83.174 28.4473 83.5053 29.1092 84.0928C30.1669 83.9866 31.0251 85.1425 31.553 84.5284C30.5349 84.1064 29.5393 83.6134 28.5299 83.1387C30.2858 83.8547 32.1616 83.8514 34.814 85.5262C34.5417 85.5753 33.6358 85.3856 33.0203 85.2304C33.7623 85.8225 34.6496 85.8339 35.4306 86.418C34.9107 87.0803 31.7032 84.9214 29.6869 84.5061C30.4339 85.2948 33.3301 85.7002 32.1074 86.0532C32.9633 85.8642 33.7592 86.2613 34.6631 86.7544C35.5737 87.209 36.5876 87.7855 37.8519 87.8305L37.5551 88.2203C37.9373 88.2885 38.7511 88.3836 39.4069 88.6524L38.0203 88.7596C40.0166 89.0033 41.4485 90.5651 43.3186 90.9186C39.5825 89.6031 42.6447 90.0793 41.1736 89.1744C43.5536 89.7025 44.1254 90.2159 44.7589 90.8131C45.387 91.4095 46.083 92.0827 48.7095 92.7802C47.9856 92.6307 46.1471 91.6662 47.3031 91.8105C48.2634 92.2236 49.5208 92.7949 50.0637 93.2236C53.5456 94.1242 49.6549 92.6039 51.2052 92.7439C52.237 93.6341 52.9633 92.9937 54.5233 93.2366L54.4126 93.7067C58.2745 95.1077 55.702 93.0188 59.15 94.3809L57.495 94.6117L59.382 94.9617L58.869 95.3886C60.9873 95.514 61.5948 95.7491 63.5514 96.3929C63.1678 95.9461 64.007 95.5995 65.7702 96.0127C66.9032 96.5857 64.9947 96.3005 67.5033 96.8329C66.873 96.9936 66.174 97.2114 65.1851 96.5165C65.0397 96.6444 64.56 96.6782 64.4148 96.8061C65.636 97.4327 67.647 97.6851 68.5593 97.8683C68.2122 97.7853 67.8021 97.6591 67.6017 97.5364C68.8574 97.6003 70.1218 97.6116 71.3808 97.6548C71.9183 97.9547 71.4311 98.0005 70.9492 98.0463C71.6966 98.1526 72.255 98.0359 73.3454 98.2183C72.9838 98.5459 72.9694 98.9556 71.397 98.8199L74.9589 99.1103C75.1544 99.3272 76.6477 99.9382 76.1699 99.9918C78.0625 100.599 81.0706 100.075 83.5797 100.83C83.7287 100.777 84.0081 100.749 84.561 100.794C85.7552 101.065 86.8829 101.348 88.0731 101.578C89.2634 101.808 90.5247 101.967 92.0069 101.901L93.5281 102.827C95.81 102.976 91.4554 101.654 95.247 101.889C97.948 101.949 96.1551 102.586 97.0642 102.884C98.4464 102.675 100.854 102.2 103.227 103.025C102.396 103.069 101.777 102.899 101.011 102.872L101.03 102.887ZM129.181 103.92C128.625 104.017 127.512 104.324 127.135 104.034C127.803 103.488 128.259 103.755 129.181 103.92ZM172.222 99.1794C171.818 99.405 171.19 99.424 170.473 99.3626C170.989 99.2399 171.573 99.1612 172.222 99.1794ZM177.443 28.804C177.443 28.804 177.48 28.8093 177.503 28.7991C178.585 29.3583 178.204 29.1489 177.443 28.804ZM175.144 27.8215C174.888 27.8053 174.887 27.8795 174.972 27.9795C175.167 27.9126 175.699 28.0828 176.295 28.3164C176.163 28.1421 175.882 27.9535 175.15 27.8222L175.144 27.8215ZM27.2632 78.4515L27.6209 78.8268C26.6379 78.3557 26.9474 78.4066 27.2632 78.4515Z" fill="#FFBF00"/>
<path d="M167.364 100.619C167.207 100.562 167.161 100.482 167.126 100.396C166.913 100.514 166.909 100.602 167.364 100.619Z" fill="#FFBF00"/>
<path d="M83.6801 100.872L83.5958 100.86C83.5452 100.873 83.5145 100.895 83.4995 100.92L83.6801 100.872Z" fill="#FFBF00"/>
<path d="M211.36 42.3129C211.735 42.7452 211.914 43.0278 212.01 43.258C212.093 43.1885 211.977 42.9148 211.36 42.3129Z" fill="#FFBF00"/>
<path d="M162.265 25.3016C162.794 25.3633 163.313 25.4506 163.833 25.5314C163.083 25.3773 162.841 25.2076 162.478 25.0546C162.491 25.1714 162.751 25.391 162.265 25.3016Z" fill="#FFBF00"/>
<path d="M149.146 20.1432C148.903 20.1764 148.652 20.1 148.41 20.1332L148.441 20.361C149.434 20.4548 150.158 20.3481 149.146 20.1432Z" fill="#FFBF00"/>
<path d="M161.145 23.4464C161.103 23.0209 160.093 22.9719 158.979 22.8337C159.048 22.8434 159.11 22.8524 159.173 22.8681C158.739 23.368 159.946 23.4043 161.145 23.4464Z" fill="#FFBF00"/>
<path d="M158.726 22.796C158.385 22.7474 158.037 22.6979 157.713 22.6111C157.544 22.8105 158.112 22.7355 158.726 22.796Z" fill="#FFBF00"/>
<path d="M172.057 27.2008C171.575 26.9563 171.611 27.6177 171.366 27.3731C170.668 27.7135 174.902 27.7206 172.057 27.2008Z" fill="#FFBF00"/>
<path d="M160.526 21.96L160.819 22.5294L161.518 22.2499L160.526 21.96Z" fill="#FFBF00"/>
<path d="M169.088 24.2552L167.375 23.7068C167.382 23.7957 167.151 23.7899 166.87 23.7635C167.939 24.0375 169.095 24.4117 169.088 24.2552Z" fill="#FFBF00"/>
<path d="M166.87 23.7592C166.312 23.6195 165.776 23.5031 165.451 23.5105C165.753 23.5736 166.409 23.7137 166.87 23.7592Z" fill="#FFBF00"/>
<path d="M162.963 22.2722C163.13 22.3366 163.295 22.4142 163.46 22.4918L164.683 22.8213C164.109 22.6383 163.539 22.442 162.962 22.2789L162.963 22.2722Z" fill="#FFBF00"/>
<path d="M187.35 30.4713C187.967 30.6809 188.591 30.8781 189.205 31.1075C189.445 31.0266 188.992 30.705 188.29 30.49C187.815 30.4226 187.12 30.2018 187.349 30.4779L187.35 30.4713Z" fill="#FFBF00"/>
<path d="M182.213 27.0167C182.682 27.3068 182.684 27.4287 182.915 27.6916L183.155 27.1171L182.213 27.0167Z" fill="#FFBF00"/>
<path d="M187.635 28.9518C187.871 28.8635 190.454 29.5964 188.115 28.6614C187.874 28.7423 185.996 28.1163 187.635 28.9518Z" fill="#FFBF00"/>
<path d="M212.748 45.9785C212.631 45.8466 212.501 45.7199 212.375 45.6006L211.861 46.4544L212.742 45.9843L212.748 45.9785Z" fill="#FFBF00"/>
<path d="M222.834 74.8383C223.322 73.232 223.241 73.0044 223.168 72.8318C223.09 72.6517 223.014 72.5261 223.341 71.0794C223.299 70.6882 223.168 71.2844 223.033 71.8665C222.919 72.4518 222.722 73.0184 222.735 72.6215C222.611 73.5904 222.451 74.3244 222.422 74.7257C222.368 75.1166 222.458 75.1902 222.845 74.8332L222.834 74.8383Z" fill="#FFBF00"/>
<path d="M222.723 72.629C222.764 72.3168 222.754 71.984 222.759 71.6328C222.726 72.1896 222.735 72.4615 222.723 72.629Z" fill="#FFBF00"/>
<path d="M61.1582 34.2331L62.5817 34.7131L61.7033 34.1957L61.1582 34.2331Z" fill="#FFBF00"/>
<path d="M64.111 34.006L64.3324 34.7142L65.3228 34.3002C64.9837 34.2655 64.3319 34.1998 64.1099 34.0125L64.111 34.006Z" fill="#FFBF00"/>
<path d="M133.304 105.171L133.427 105.013C133.201 104.852 132.846 104.848 132.136 104.842L133.298 105.177L133.304 105.171Z" fill="#FFBF00"/>
<path d="M112.83 104.341L113.181 104.37L112.59 103.751L112.83 104.341Z" fill="#FFBF00"/>
<path d="M95.6381 103.586C96.333 103.685 97.17 103.642 97.8649 103.74C96.333 103.685 95.5568 102.844 95.6381 103.586Z" fill="#FFBF00"/>
</g>
</svg>
