<svg width="28" height="29" viewBox="0 0 28 29" fill="none" xmlns="http://www.w3.org/2000/svg">
<rect x="0.128906" y="0.875977" width="27.8339" height="27.8339" rx="11.888" fill="url(#paint0_linear_218_24132)"/>
<mask id="mask0_218_24132" style="mask-type:alpha" maskUnits="userSpaceOnUse" x="3" y="4" width="22" height="22">
<rect x="3.94922" y="4.27246" width="20.6221" height="20.6221" transform="rotate(1.17516 3.94922 4.27246)" fill="#D9D9D9"/>
</mask>
<g mask="url(#mask0_218_24132)">
<path d="M11.3043 22.7294L11.5132 12.5494C10.4622 12.1125 9.60988 11.4146 8.95632 10.4558C8.30277 9.49703 7.98847 8.40913 8.01344 7.19211L9.55977 7.22383C9.53637 8.36468 9.91732 9.34538 10.7026 10.1659C11.4879 10.9865 12.4533 11.4085 13.5987 11.432L15.7894 11.4769C16.09 11.4831 16.3859 11.55 16.6769 11.6777C16.9679 11.8055 17.2186 11.9789 17.429 12.1981L20.7948 15.7049L19.677 16.7777L16.6478 13.6216L16.4588 22.8352L14.9124 22.8035L15.0182 17.649L12.9564 17.6067L12.8507 22.7612L11.3043 22.7294ZM14.1352 10.1538C13.6377 10.1436 13.2172 9.95773 12.8736 9.59617C12.5301 9.2346 12.3635 8.80505 12.3737 8.3075C12.3839 7.80996 12.5698 7.38942 12.9313 7.04591C13.2929 6.70239 13.7224 6.53573 14.22 6.54594C14.7175 6.55614 15.1381 6.74203 15.4816 7.10359C15.8251 7.46515 15.9918 7.89471 15.9816 8.39226C15.9714 8.8898 15.7855 9.31034 15.4239 9.65385C15.0623 9.99737 14.6328 10.164 14.1352 10.1538Z" fill="#1C1B1F"/>
</g>
<defs>
<linearGradient id="paint0_linear_218_24132" x1="14.0458" y1="0.875977" x2="14.0458" y2="28.7098" gradientUnits="userSpaceOnUse">
<stop offset="0.0001" stop-color="#FF9F40"/>
<stop offset="0.510417" stop-color="#FFA851"/>
<stop offset="1" stop-color="#FFC286"/>
</linearGradient>
</defs>
</svg>
