<svg width="17" height="11" viewBox="0 0 17 11" fill="none" xmlns="http://www.w3.org/2000/svg">
<path d="M16.9984 5.11724C16.9984 5.26518 16.927 5.40706 16.7999 5.51167C16.6728 5.61628 16.5004 5.67505 16.3207 5.67505H1.41204C1.23231 5.67505 1.05995 5.61628 0.932859 5.51167C0.805772 5.40706 0.734375 5.26518 0.734375 5.11724C0.734375 4.9693 0.805772 4.82741 0.932859 4.7228C1.05995 4.61819 1.23231 4.55942 1.41204 4.55942H16.3207C16.5004 4.55942 16.6728 4.61819 16.7999 4.7228C16.927 4.82741 16.9984 4.9693 16.9984 5.11724ZM1.41204 1.21255H16.3207C16.5004 1.21255 16.6728 1.15378 16.7999 1.04917C16.927 0.944559 16.9984 0.802677 16.9984 0.654736C16.9984 0.506795 16.927 0.364914 16.7999 0.260303C16.6728 0.155693 16.5004 0.0969238 16.3207 0.0969238H1.41204C1.23231 0.0969238 1.05995 0.155693 0.932859 0.260303C0.805772 0.364914 0.734375 0.506795 0.734375 0.654736C0.734375 0.802677 0.805772 0.944559 0.932859 1.04917C1.05995 1.15378 1.23231 1.21255 1.41204 1.21255ZM16.3207 9.02192H1.41204C1.23231 9.02192 1.05995 9.08069 0.932859 9.1853C0.805772 9.28991 0.734375 9.4318 0.734375 9.57974C0.734375 9.72768 0.805772 9.86956 0.932859 9.97417C1.05995 10.0788 1.23231 10.1375 1.41204 10.1375H16.3207C16.5004 10.1375 16.6728 10.0788 16.7999 9.97417C16.927 9.86956 16.9984 9.72768 16.9984 9.57974C16.9984 9.4318 16.927 9.28991 16.7999 9.1853C16.6728 9.08069 16.5004 9.02192 16.3207 9.02192Z" fill="#0E1728"/>
</svg>
