<svg width="23" height="23" viewBox="0 0 23 23" fill="none" xmlns="http://www.w3.org/2000/svg">
<path d="M8.38262 17.4466C10.1156 18.3475 12.3221 18.3475 14.055 17.4466M11.04 15.776L8.17604 11.623C7.87019 11.1795 7.58728 10.716 7.41249 10.2064C7.03949 9.11896 6.99059 8.07422 7.39248 7.06205C7.83953 5.93615 8.91856 5.16546 10.1005 4.89993C10.6445 4.77771 11.1707 4.744 11.7267 4.7933C13.2691 4.93007 14.7711 5.85688 15.2558 7.32749C15.6498 8.52308 15.4198 9.71136 14.7699 10.9566L11.3385 15.776C11.2714 15.8743 11.1071 15.8743 11.04 15.776ZM11.2992 9.92468V9.92468C12.0411 9.92468 12.6425 9.3233 12.6425 8.58145V8.58145C12.6425 7.83961 12.0411 7.23822 11.2992 7.23822V7.23822C10.5574 7.23822 9.95601 7.83961 9.95601 8.58145V8.58145C9.95601 9.3233 10.5574 9.92468 11.2992 9.92468Z" stroke="white" stroke-width="1.19398" stroke-linecap="round" stroke-linejoin="round"/>
</svg>
