<svg width="28" height="28" viewBox="0 0 28 28" fill="none" xmlns="http://www.w3.org/2000/svg">
<path d="M10.1111 10.8888H9.1244C8.56097 10.8888 8.02062 11.1127 7.62222 11.5111C7.22382 11.9095 7 12.4498 7 13.0132V21.2089C7 21.7723 7.22382 22.3127 7.62222 22.7111C8.02062 23.1095 8.56097 23.3333 9.1244 23.3333H18.5645C19.1279 23.3333 19.6683 23.1095 20.0667 22.7111C20.4651 22.3127 20.6889 21.7723 20.6889 21.2089V13.0132C20.6889 12.4498 20.4651 11.9095 20.0667 11.5111C19.6683 11.1127 19.1279 10.8888 18.5645 10.8888H17.5778M10.1111 10.8888V6.79103C10.1111 6.2276 10.3349 5.68725 10.7333 5.28885C11.1317 4.89045 11.6721 4.66663 12.2355 4.66663H15.4534C16.0168 4.66663 16.5572 4.89045 16.9556 5.28885C17.354 5.68725 17.5778 6.2276 17.5778 6.79103V10.8888M10.1111 10.8888H17.5778M15.7111 16.4888C15.7111 17.5198 14.8754 18.3555 13.8444 18.3555C12.8135 18.3555 11.9778 17.5198 11.9778 16.4888C11.9778 15.4579 12.8135 14.6222 13.8444 14.6222C14.8754 14.6222 15.7111 15.4579 15.7111 16.4888Z" stroke="#404040" stroke-width="1.5"/>
</svg>
