<svg width="24" height="24" viewBox="0 0 24 24" fill="none" xmlns="http://www.w3.org/2000/svg">
<path d="M10.8777 16.0429C10.6967 15.8344 10.3809 15.812 10.1723 15.993C9.96377 16.174 9.94143 16.4898 10.1224 16.6984L10.8777 16.0429ZM13.8777 16.6984C14.0587 16.4898 14.0364 16.174 13.8278 15.993C13.6192 15.812 13.3034 15.8344 13.1225 16.0429L13.8777 16.6984ZM6.74183 10.0613L7.23998 10.1043L6.74183 10.0613ZM12.0001 19L11.9935 19.5001L12.0066 19.5L12.0001 19ZM17.2583 10.0613L17.7547 10.0013L17.2583 10.0613ZM6.43143 12.1031C6.67116 12.2402 6.9766 12.1569 7.11366 11.9172C7.25071 11.6775 7.16748 11.372 6.92774 11.235L6.43143 12.1031ZM5.48908 11.6377L5.18759 11.2388L5.18759 11.2388L5.48908 11.6377ZM5.48908 13.7412L5.79056 13.3423L5.48908 13.7412ZM7.04932 14.2019C7.30378 14.0947 7.42311 13.8014 7.31584 13.547C7.20858 13.2925 6.91535 13.1732 6.66089 13.2804L7.04932 14.2019ZM18.5344 11.6377L18.8599 11.2582V11.2582L18.5344 11.6377ZM18.5344 13.7412L18.8599 14.1208L18.5344 13.7412ZM17.3493 13.7413L16.8518 13.6915L17.3493 13.7413ZM12.5001 14.4325C12.5001 14.1564 12.2762 13.9325 12.0001 13.9325C11.7239 13.9325 11.5001 14.1564 11.5001 14.4325H12.5001ZM11.5001 14.52C11.5001 14.7961 11.7239 15.02 12.0001 15.02C12.2762 15.02 12.5001 14.7961 12.5001 14.52H11.5001ZM10.4999 12.1636C10.4999 11.8874 10.2761 11.6636 9.99992 11.6636C9.72378 11.6636 9.49992 11.8874 9.49992 12.1636H10.4999ZM9.49992 12.6894C9.49992 12.9656 9.72378 13.1894 9.99992 13.1894C10.2761 13.1894 10.4999 12.9656 10.4999 12.6894H9.49992ZM14.5 12.1636C14.5 11.8874 14.2761 11.6636 14 11.6636C13.7238 11.6636 13.5 11.8874 13.5 12.1636H14.5ZM13.5 12.6894C13.5 12.9656 13.7238 13.1894 14 13.1894C14.2761 13.1894 14.5 12.9656 14.5 12.6894H13.5ZM8.06307 9.57898C7.79667 9.6517 7.63966 9.9266 7.71237 10.193C7.78508 10.4594 8.05999 10.6164 8.32638 10.5437L8.06307 9.57898ZM11.9219 6.68L11.5066 6.40158C11.493 6.42191 11.4809 6.44322 11.4703 6.46533L11.9219 6.68ZM10.9027 8.06276L10.497 7.77051V7.77051L10.9027 8.06276ZM15.752 10.5293C16.0222 10.4725 16.1952 10.2073 16.1384 9.93709C16.0815 9.66686 15.8164 9.49388 15.5462 9.55072L15.752 10.5293ZM10.5 16.3707C10.1224 16.6984 10.1226 16.6986 10.1228 16.6988C10.1229 16.6989 10.123 16.6991 10.1232 16.6992C10.1234 16.6995 10.1237 16.6998 10.124 16.7002C10.1245 16.7008 10.1251 16.7014 10.1257 16.7021C10.1269 16.7035 10.1283 16.705 10.1297 16.7066C10.1326 16.7099 10.1361 16.7136 10.14 16.7179C10.1479 16.7263 10.1578 16.7366 10.1698 16.7485C10.1938 16.7723 10.2262 16.8025 10.2674 16.8368C10.3496 16.9053 10.467 16.9907 10.6219 17.074C10.9345 17.242 11.3903 17.3965 12.0001 17.3965V16.3965C11.5662 16.3965 11.272 16.2881 11.0954 16.1932C11.0059 16.145 10.9439 16.0989 10.908 16.0689C10.89 16.0539 10.8786 16.043 10.8736 16.038C10.871 16.0355 10.8701 16.0345 10.8708 16.0353C10.8712 16.0356 10.8719 16.0365 10.8731 16.0377C10.8736 16.0384 10.8743 16.0391 10.8751 16.04C10.8755 16.0404 10.8759 16.0409 10.8763 16.0414C10.8765 16.0416 10.8767 16.0419 10.877 16.0421C10.8771 16.0423 10.8773 16.0425 10.8773 16.0425C10.8775 16.0427 10.8777 16.0429 10.5 16.3707ZM12.0001 17.3965C12.6098 17.3965 13.0657 17.242 13.3782 17.074C13.5332 16.9907 13.6506 16.9053 13.7328 16.8368C13.7739 16.8025 13.8063 16.7723 13.8303 16.7485C13.8423 16.7366 13.8522 16.7263 13.8601 16.7179C13.864 16.7136 13.8675 16.7099 13.8704 16.7066C13.8719 16.705 13.8732 16.7035 13.8744 16.7021C13.875 16.7014 13.8756 16.7008 13.8762 16.7002C13.8764 16.6998 13.8767 16.6995 13.877 16.6992C13.8771 16.6991 13.8773 16.6989 13.8773 16.6988C13.8775 16.6986 13.8777 16.6984 13.5001 16.3707C13.1225 16.0429 13.1226 16.0427 13.1228 16.0425C13.1229 16.0425 13.123 16.0423 13.1232 16.0421C13.1234 16.0419 13.1236 16.0416 13.1238 16.0414C13.1243 16.0409 13.1247 16.0404 13.1251 16.04C13.1258 16.0391 13.1265 16.0384 13.1271 16.0377C13.1282 16.0365 13.1289 16.0356 13.1293 16.0353C13.13 16.0345 13.1291 16.0355 13.1266 16.038C13.1215 16.043 13.1101 16.0539 13.0921 16.0689C13.0562 16.0989 12.9943 16.145 12.9047 16.1932C12.7281 16.2881 12.434 16.3965 12.0001 16.3965V17.3965ZM12.0001 4.5C11.1183 4.5 9.78587 4.64519 8.61125 5.42633C7.41082 6.22463 6.44888 7.63771 6.24368 10.0184L7.23998 10.1043C7.42277 7.98363 8.25218 6.86605 9.165 6.25901C10.1036 5.63481 11.2063 5.5 12.0001 5.5V4.5ZM6.24368 10.0184C6.04763 12.2928 6.27933 14.6152 7.15642 16.3988C8.04953 18.215 9.61732 19.4687 11.9935 19.5L12.0066 18.5C10.0575 18.4744 8.80437 17.4839 8.05379 15.9575C7.2872 14.3986 7.05244 12.2801 7.23998 10.1043L6.24368 10.0184ZM6.67959 11.669C6.92774 11.235 6.92759 11.2349 6.92744 11.2348C6.92739 11.2348 6.92723 11.2347 6.92712 11.2346C6.9269 11.2345 6.92667 11.2343 6.92643 11.2342C6.92594 11.2339 6.92541 11.2336 6.92483 11.2333C6.92368 11.2327 6.92235 11.2319 6.92084 11.2311C6.91783 11.2294 6.9141 11.2273 6.90969 11.225C6.90088 11.2202 6.88931 11.2141 6.8752 11.2069C6.84707 11.1926 6.80844 11.1739 6.76121 11.1534C6.66795 11.113 6.53508 11.0629 6.37913 11.0273C6.08207 10.9594 5.60436 10.9238 5.18759 11.2388L5.79056 12.0366C5.86287 11.9819 5.98042 11.962 6.15635 12.0022C6.23688 12.0206 6.30994 12.0477 6.36348 12.0709C6.38966 12.0823 6.40965 12.092 6.42178 12.0982C6.42781 12.1012 6.43179 12.1034 6.43349 12.1043C6.43434 12.1047 6.43461 12.1049 6.43428 12.1047C6.43411 12.1046 6.43379 12.1044 6.43332 12.1042C6.43308 12.104 6.43281 12.1039 6.43249 12.1037C6.43234 12.1036 6.43217 12.1035 6.43199 12.1034C6.4319 12.1034 6.43176 12.1033 6.43172 12.1033C6.43157 12.1032 6.43143 12.1031 6.67959 11.669ZM5.18759 11.2388C4.71355 11.5971 4.5 12.1613 4.5 12.6894C4.5 13.2176 4.71355 13.7818 5.18759 14.1401L5.79056 13.3423C5.6125 13.2077 5.5 12.9666 5.5 12.6894C5.5 12.4123 5.6125 12.1712 5.79056 12.0366L5.18759 11.2388ZM5.18759 14.1401C5.60412 14.4549 6.126 14.4244 6.4368 14.3731C6.60767 14.345 6.75725 14.3033 6.86343 14.2692C6.91706 14.2519 6.96099 14.2362 6.99261 14.2243C7.00846 14.2183 7.02131 14.2133 7.03085 14.2095C7.03562 14.2076 7.03957 14.206 7.04266 14.2047C7.0442 14.2041 7.04553 14.2035 7.04665 14.203C7.0472 14.2028 7.0477 14.2026 7.04815 14.2024C7.04837 14.2023 7.04858 14.2022 7.04878 14.2021C7.04887 14.2021 7.04901 14.202 7.04906 14.202C7.04919 14.202 7.04932 14.2019 6.8551 13.7412C6.66089 13.2804 6.66101 13.2804 6.66113 13.2803C6.66117 13.2803 6.66128 13.2803 6.66135 13.2802C6.66149 13.2802 6.66162 13.2801 6.66174 13.2801C6.66197 13.28 6.66215 13.2799 6.66229 13.2799C6.66255 13.2797 6.66262 13.2797 6.66249 13.2798C6.66223 13.2799 6.66119 13.2803 6.65942 13.281C6.65588 13.2824 6.64941 13.285 6.64032 13.2884C6.62208 13.2953 6.59368 13.3055 6.55745 13.3171C6.48392 13.3408 6.38369 13.3684 6.27419 13.3865C6.02425 13.4276 5.86312 13.3971 5.79056 13.3423L5.18759 14.1401ZM16.7619 10.1214C16.7746 10.2264 16.7907 10.5335 16.8072 10.876C16.8225 11.1966 16.838 11.5442 16.8506 11.6828L17.8465 11.5928C17.8365 11.4819 17.8224 11.1693 17.806 10.8281C17.7907 10.5088 17.773 10.1524 17.7547 10.0013L16.7619 10.1214ZM17.3486 11.6378C17.6323 12.0494 17.6322 12.0496 17.632 12.0497C17.632 12.0497 17.6318 12.0498 17.6317 12.0499C17.6315 12.05 17.6313 12.0502 17.6311 12.0503C17.6307 12.0506 17.6304 12.0508 17.6301 12.051C17.6295 12.0514 17.629 12.0517 17.6286 12.052C17.628 12.0524 17.6279 12.0525 17.6283 12.0522C17.6291 12.0517 17.632 12.0498 17.6368 12.0469C17.6464 12.0411 17.6632 12.0314 17.6855 12.0201C17.7316 11.9967 17.7941 11.9702 17.8628 11.9533C17.9983 11.92 18.1087 11.9312 18.2089 12.0172L18.8599 11.2582C18.4318 10.891 17.9493 10.9022 17.6239 10.9823C17.4622 11.022 17.3272 11.0806 17.2336 11.128C17.186 11.1521 17.1473 11.1743 17.1189 11.1915C17.1047 11.2001 17.0929 11.2075 17.0839 11.2134C17.0793 11.2163 17.0755 11.2189 17.0723 11.221C17.0707 11.2221 17.0692 11.2231 17.068 11.2239C17.0674 11.2243 17.0668 11.2247 17.0662 11.2251C17.066 11.2253 17.0657 11.2255 17.0655 11.2256C17.0653 11.2257 17.0652 11.2258 17.0651 11.2259C17.0649 11.226 17.0648 11.2261 17.3486 11.6378ZM18.2089 12.0172C18.5971 12.3502 18.597 13.0289 18.209 13.3616L18.8599 14.1208C19.7135 13.3888 19.7132 11.9901 18.8599 11.2582L18.2089 12.0172ZM16.8506 11.6828C16.9143 12.3876 16.9149 13.0614 16.8518 13.6915L17.8469 13.791C17.9169 13.0909 17.9153 12.3532 17.8465 11.5928L16.8506 11.6828ZM16.8518 13.6915C16.708 15.1297 16.2361 16.3175 15.4512 17.1459C14.6748 17.9653 13.5485 18.4796 11.9935 18.5L12.0066 19.5C13.7931 19.4764 15.19 18.8755 16.1771 17.8337C17.1558 16.8008 17.6878 15.3812 17.8469 13.791L16.8518 13.6915ZM18.209 13.3616C18.1087 13.4475 17.9984 13.4587 17.8631 13.4255C17.7945 13.4086 17.7322 13.3822 17.6862 13.3589C17.6638 13.3476 17.6471 13.3379 17.6375 13.3321C17.6327 13.3292 17.6299 13.3274 17.629 13.3268C17.6286 13.3266 17.6287 13.3266 17.6294 13.3271C17.6297 13.3273 17.6302 13.3276 17.6308 13.328C17.6311 13.3282 17.6315 13.3285 17.6319 13.3287C17.6321 13.3289 17.6323 13.329 17.6325 13.3292C17.6326 13.3292 17.6327 13.3293 17.6328 13.3294C17.6329 13.3295 17.6331 13.3296 17.3493 13.7413C17.0656 14.153 17.0658 14.1531 17.0659 14.1532C17.066 14.1532 17.0662 14.1534 17.0663 14.1534C17.0665 14.1536 17.0668 14.1538 17.0671 14.154C17.0676 14.1543 17.0682 14.1547 17.0688 14.1552C17.0701 14.156 17.0715 14.157 17.0731 14.158C17.0763 14.1602 17.0801 14.1627 17.0847 14.1657C17.0937 14.1716 17.1055 14.179 17.1197 14.1876C17.148 14.2048 17.1868 14.2269 17.2343 14.251C17.3279 14.2984 17.4628 14.3569 17.6245 14.3966C17.9497 14.4765 18.4319 14.4877 18.8599 14.1208L18.209 13.3616ZM11.5001 14.4325V14.52H12.5001V14.4325H11.5001ZM9.49992 12.1636V12.6894H10.4999V12.1636H9.49992ZM13.5 12.1636V12.6894H14.5V12.1636H13.5ZM8.32638 10.5437C9.012 10.3566 10.3455 9.69179 11.3084 8.355L10.497 7.77051C9.68563 8.89689 8.55909 9.4436 8.06307 9.57898L8.32638 10.5437ZM11.3084 8.355C11.3859 8.2474 11.5691 8.02114 11.7841 7.74485L10.9948 7.13077C10.8047 7.37512 10.5883 7.6438 10.497 7.77051L11.3084 8.355ZM11.7841 7.74485C11.8987 7.59751 12.0178 7.44156 12.119 7.30022C12.2137 7.16791 12.3145 7.01882 12.3735 6.89468L11.4703 6.46533C11.4539 6.50001 11.4018 6.5841 11.3058 6.71813C11.2164 6.84313 11.1069 6.98667 10.9948 7.13077L11.7841 7.74485ZM10.9432 7.66325C11.2357 8.24243 11.8112 9.06715 12.6115 9.69547C13.4171 10.3279 14.4965 10.7934 15.752 10.5293L15.5462 9.55072C14.6719 9.73462 13.8877 9.42604 13.229 8.90891C12.5651 8.38764 12.0756 7.68726 11.8357 7.21237L10.9432 7.66325ZM12.0001 5.5C12.2782 5.5 12.5933 5.51653 12.9259 5.56639L13.0741 4.57744C12.6829 4.51878 12.317 4.5 12.0001 4.5V5.5ZM12.9259 5.56639C13.6975 5.68206 14.5438 5.97375 15.2469 6.63645C15.945 7.2945 16.5493 8.36284 16.7619 10.1214L17.7547 10.0013C17.5197 8.05784 16.8328 6.7571 15.9327 5.90875C15.0376 5.06504 13.9786 4.71302 13.0741 4.57744L12.9259 5.56639ZM12.3372 6.95843L13.4153 5.35034L12.5847 4.79348L11.5066 6.40158L12.3372 6.95843Z" fill="#1F1F1F"/>
</svg>
