<svg width="15" height="15" viewBox="0 0 15 15" fill="none" xmlns="http://www.w3.org/2000/svg">
<path d="M6.83218 2.32309L6.83251 2.32244C7.10077 1.78308 7.39576 1.63038 7.59072 1.63038C7.78627 1.63038 8.08274 1.78379 8.35406 2.32343C8.35411 2.32353 8.35416 2.32364 8.35421 2.32374L9.44034 4.496C9.54567 4.71027 9.72459 4.89806 9.91301 5.03777C10.1019 5.1778 10.3325 5.29346 10.5644 5.33282L10.5656 5.33303L12.5357 5.66034C12.5357 5.66035 12.5358 5.66036 12.5358 5.66037C13.1054 5.75534 13.3364 5.98786 13.3967 6.17685C13.4572 6.36618 13.4034 6.69004 12.9956 7.09783L11.4639 8.62956C11.2821 8.81132 11.1572 9.05851 11.0876 9.30151C11.018 9.54467 10.9935 9.8198 11.0494 10.0691L11.0499 10.0714L11.0499 10.0714L11.4884 11.9676L11.4884 11.9676C11.6542 12.6838 11.5017 13.007 11.3581 13.1118C11.2142 13.2168 10.8589 13.2635 10.2254 12.8875L10.2251 12.8873L8.37838 11.7941L8.37612 11.7928L8.37612 11.7928C8.14097 11.656 7.85467 11.5974 7.58763 11.5974C7.32096 11.5974 7.03493 11.6559 6.80151 11.7941C6.8015 11.7941 6.80148 11.7941 6.80146 11.7942C6.80143 11.7942 6.8014 11.7942 6.80137 11.7942L4.95507 12.8872L6.83218 2.32309ZM6.83218 2.32309L5.74641 4.49461C5.74619 4.49506 5.74596 4.49552 5.74574 4.49597C5.64037 4.71036 5.46128 4.89832 5.27164 5.03825C5.08138 5.17863 4.84903 5.2939 4.61448 5.333L4.61431 5.33303M6.83218 2.32309L4.61431 5.33303M4.61431 5.33303L2.64423 5.66034C2.64417 5.66035 2.64411 5.66036 2.64405 5.66037C2.07411 5.7554 1.84148 5.98821 1.78065 6.17748C1.72006 6.36598 1.77291 6.68927 2.18342 7.09699L2.18426 7.09783M4.61431 5.33303L2.18426 7.09783M2.18426 7.09783L3.71599 8.62956C3.89776 8.81132 4.02274 9.05851 4.09231 9.30151C4.16191 9.54467 4.18639 9.8198 4.13051 10.0691L4.13052 10.0691M2.18426 7.09783L4.13052 10.0691M4.13052 10.0691L4.12998 10.0714M4.13052 10.0691L4.12998 10.0714M4.12998 10.0714L3.69152 11.9673M4.12998 10.0714L3.69152 11.9673M3.69152 11.9673C3.52534 12.6884 3.67741 13.0105 3.81936 13.114C3.9619 13.2179 4.3167 13.2642 4.95479 12.8873L3.69152 11.9673Z" fill="#E8E8E8" stroke="#E8E8E8" stroke-width="0.694838" stroke-linecap="round" stroke-linejoin="round"/>
<g clip-path="url(#clip0_283_9729)">
<path d="M6.83218 2.3226L6.83251 2.32195C7.10077 1.78259 7.39576 1.62989 7.59072 1.62989C7.78627 1.62989 8.08274 1.7833 8.35406 2.32294C8.35411 2.32304 8.35416 2.32315 8.35421 2.32325L9.44034 4.49551C9.54567 4.70978 9.72459 4.89758 9.91301 5.03728C10.1019 5.17731 10.3325 5.29297 10.5644 5.33233L10.5656 5.33254L12.5357 5.65985C12.5357 5.65986 12.5358 5.65987 12.5358 5.65988C13.1054 5.75485 13.3364 5.98738 13.3967 6.17636C13.4572 6.36569 13.4034 6.68955 12.9956 7.09734L11.4639 8.62907C11.2821 8.81084 11.1572 9.05802 11.0876 9.30102C11.018 9.54418 10.9935 9.81932 11.0494 10.0686L11.0499 10.0709L11.0499 10.0709L11.4884 11.9671L11.4884 11.9671C11.6542 12.6833 11.5017 13.0065 11.3581 13.1113C11.2142 13.2163 10.8589 13.263 10.2254 12.887L10.2251 12.8869L8.37838 11.7936L8.37612 11.7923L8.37612 11.7923C8.14097 11.6555 7.85467 11.597 7.58763 11.597C7.32096 11.597 7.03493 11.6554 6.80151 11.7936C6.8015 11.7936 6.80148 11.7937 6.80146 11.7937C6.80143 11.7937 6.8014 11.7937 6.80137 11.7937L4.95507 12.8867L6.83218 2.3226ZM6.83218 2.3226L5.74641 4.49412C5.74619 4.49457 5.74596 4.49503 5.74574 4.49548C5.64037 4.70987 5.46128 4.89783 5.27164 5.03776C5.08138 5.17815 4.84903 5.29342 4.61448 5.33251L4.61431 5.33254M6.83218 2.3226L4.61431 5.33254M4.61431 5.33254L2.64423 5.65985C2.64417 5.65986 2.64411 5.65987 2.64405 5.65988C2.07411 5.75491 1.84148 5.98772 1.78065 6.17699C1.72006 6.3655 1.77291 6.68878 2.18342 7.0965L2.18426 7.09734M4.61431 5.33254L2.18426 7.09734M2.18426 7.09734L3.71599 8.62907C3.89776 8.81084 4.02274 9.05802 4.09231 9.30102C4.16191 9.54418 4.18639 9.81931 4.13051 10.0686L4.13052 10.0686M2.18426 7.09734L4.13052 10.0686M4.13052 10.0686L4.12998 10.0709M4.13052 10.0686L4.12998 10.0709M4.12998 10.0709L3.69152 11.9668M4.12998 10.0709L3.69152 11.9668M3.69152 11.9668C3.52534 12.6879 3.67741 13.01 3.81936 13.1135C3.9619 13.2174 4.3167 13.2637 4.95479 12.8869L3.69152 11.9668Z" fill="#FABF35" stroke="#FABF35" stroke-width="0.694838" stroke-linecap="round" stroke-linejoin="round"/>
</g>
<defs>
<clipPath id="clip0_283_9729">
<rect width="4.63225" height="12.0439" fill="white" transform="matrix(-1 0 0 1 6.20117 1.3894)"/>
</clipPath>
</defs>
</svg>
