<svg width="16" height="80" viewBox="0 0 16 80" fill="none" xmlns="http://www.w3.org/2000/svg">
<g filter="url(#filter0_b_305_13216)">
<rect width="16" height="16" rx="8" fill="white"/>
<rect x="5" y="5" width="6" height="6" rx="3" fill="#1A1528"/>
<path d="M8 22.5V57.5" stroke="url(#paint0_linear_305_13216)" stroke-width="2" stroke-dasharray="6 6"/>
<path fill-rule="evenodd" clip-rule="evenodd" d="M8 63.5C3.58172 63.5 0 67.0817 0 71.5C0 75.9183 3.58172 79.5 8 79.5C12.4183 79.5 16 75.9183 16 71.5C16 67.0817 12.4183 63.5 8 63.5ZM7.99859 66.0601C4.99416 66.0601 2.55859 68.4956 2.55859 71.5001C2.55859 74.5045 4.99416 76.9401 7.99859 76.9401C11.003 76.9401 13.4386 74.5045 13.4386 71.5001C13.4386 68.4956 11.003 66.0601 7.99859 66.0601Z" fill="url(#paint1_linear_305_13216)"/>
<rect x="5.11914" y="68.62" width="5.76" height="5.76" rx="2.88" fill="url(#paint2_linear_305_13216)"/>
</g>
<defs>
<filter id="filter0_b_305_13216" x="-14" y="-14" width="44" height="107.5" filterUnits="userSpaceOnUse" color-interpolation-filters="sRGB">
<feFlood flood-opacity="0" result="BackgroundImageFix"/>
<feGaussianBlur in="BackgroundImageFix" stdDeviation="7"/>
<feComposite in2="SourceAlpha" operator="in" result="effect1_backgroundBlur_305_13216"/>
<feBlend mode="normal" in="SourceGraphic" in2="effect1_backgroundBlur_305_13216" result="shape"/>
</filter>
<linearGradient id="paint0_linear_305_13216" x1="8.5" y1="22.5" x2="8.5" y2="57.5" gradientUnits="userSpaceOnUse">
<stop stop-color="#DEDEDE"/>
<stop offset="1" stop-color="#C7C7C7"/>
</linearGradient>
<linearGradient id="paint1_linear_305_13216" x1="8" y1="63.5" x2="8" y2="79.5" gradientUnits="userSpaceOnUse">
<stop offset="0.0001" stop-color="#FF9F40"/>
<stop offset="0.510417" stop-color="#FFA851"/>
<stop offset="1" stop-color="#FFC286"/>
</linearGradient>
<linearGradient id="paint2_linear_305_13216" x1="7.99914" y1="68.62" x2="7.99914" y2="74.38" gradientUnits="userSpaceOnUse">
<stop offset="0.0001" stop-color="#FF9F40"/>
<stop offset="0.510417" stop-color="#FFA851"/>
<stop offset="1" stop-color="#FFC286"/>
</linearGradient>
</defs>
</svg>
