<svg width="16" height="15" viewBox="0 0 16 15" fill="none" xmlns="http://www.w3.org/2000/svg">
<path d="M7.15445 2.32285L7.15477 2.32219C7.42304 1.78284 7.71802 1.63013 7.91298 1.63013C8.10854 1.63013 8.40501 1.78355 8.67632 2.32319C8.67638 2.32329 8.67643 2.32339 8.67648 2.3235L9.76261 4.49576C9.86793 4.71003 10.0469 4.89782 10.2353 5.03752C10.4241 5.17755 10.6548 5.29321 10.8866 5.33258L10.8879 5.33278L12.8579 5.6601C12.858 5.66011 12.858 5.66012 12.8581 5.66013C13.4277 5.7551 13.6586 5.98762 13.719 6.1766C13.7795 6.36593 13.7257 6.68979 13.3179 7.09758L11.7862 8.62931C11.6044 8.81108 11.4794 9.05826 11.4099 9.30126C11.3402 9.54442 11.3158 9.81956 11.3717 10.0689L11.3722 10.0712L11.3722 10.0712L11.8107 11.9673L11.8107 11.9674C11.9764 12.6835 11.824 13.0068 11.6804 13.1115C11.5365 13.2165 11.1812 13.2632 10.5477 12.8873L10.5474 12.8871L8.70065 11.7939L8.69839 11.7925L8.69838 11.7926C8.46324 11.6557 8.17694 11.5972 7.9099 11.5972C7.64322 11.5972 7.35719 11.6556 7.12378 11.7939C7.12376 11.7939 7.12374 11.7939 7.12373 11.7939C7.1237 11.7939 7.12367 11.7939 7.12364 11.794L5.27734 12.8869L7.15445 2.32285ZM7.15445 2.32285L6.06867 4.49436C6.06845 4.49482 6.06823 4.49527 6.068 4.49573C5.96263 4.71012 5.78355 4.89807 5.59391 5.038C5.40365 5.17839 5.1713 5.29366 4.93675 5.33275L4.93657 5.33278M7.15445 2.32285L4.93657 5.33278M4.93657 5.33278L2.96649 5.6601C2.96644 5.66011 2.96638 5.66012 2.96632 5.66013C2.39638 5.75516 2.16375 5.98796 2.10291 6.17723C2.04232 6.36574 2.09518 6.68903 2.50569 7.09674L2.50653 7.09758M4.93657 5.33278L2.50653 7.09758M2.50653 7.09758L4.03826 8.62931C4.22003 8.81108 4.34501 9.05826 4.41457 9.30126C4.48418 9.54442 4.50865 9.81956 4.45277 10.0689L4.45278 10.0689M2.50653 7.09758L4.45278 10.0689M4.45278 10.0689L4.45225 10.0712M4.45278 10.0689L4.45225 10.0712M4.45225 10.0712L4.01379 11.967M4.45225 10.0712L4.01379 11.967M4.01379 11.967C3.84761 12.6882 3.99968 13.0103 4.14163 13.1138C4.28416 13.2177 4.63897 13.2639 5.27705 12.8871L4.01379 11.967Z" fill="#FABF35" stroke="#FABF35" stroke-width="0.694838" stroke-linecap="round" stroke-linejoin="round"/>
</svg>
