<svg width="19" height="19" viewBox="0 0 19 19" fill="none" xmlns="http://www.w3.org/2000/svg">
<path d="M7.79844 5.3999H14.9484C15.197 5.3999 15.3984 5.60137 15.3984 5.8499V7.23642C15.3984 7.47022 15.218 7.66259 14.993 7.72616C14.2859 7.92595 13.3559 8.5268 13.3559 9.8999C13.3559 11.3594 14.2511 11.9313 14.9527 12.0955C15.1947 12.1521 15.3984 12.3514 15.3984 12.5999V13.9499C15.3984 14.1984 15.197 14.3999 14.9484 14.3999H7.79844M7.79844 5.3999H3.84844C3.59991 5.3999 3.39844 5.60137 3.39844 5.8499V7.23642C3.39844 7.47022 3.57889 7.66259 3.80388 7.72616C4.51102 7.92595 5.44099 8.5268 5.44099 9.8999C5.44099 11.3594 4.54578 11.9313 3.84413 12.0955C3.60214 12.1521 3.39844 12.3514 3.39844 12.5999V13.9499C3.39844 14.1984 3.59991 14.3999 3.84844 14.3999H7.79844M7.79844 5.3999V6.68562M7.79844 7.97133V9.25704M7.79844 10.5428V11.8285M7.79844 14.3999V13.1142" stroke="#1A1528" stroke-width="0.9" stroke-linecap="round" stroke-linejoin="round"/>
</svg>
