<svg width="30" height="30" viewBox="0 0 30 30" fill="none" xmlns="http://www.w3.org/2000/svg">
<rect x="0.388184" y="0.813538" width="28.6595" height="28.6595" rx="14.3297" fill="#FF8811"/>
<path d="M13.4442 11.5609H19.196C19.3609 11.5609 19.4946 11.6945 19.4946 11.8594V13.0778C19.4946 13.2329 19.3751 13.3606 19.2248 13.3986C18.6565 13.5421 17.8685 14.0155 17.8685 15.1433C17.8685 16.3461 18.6323 16.7917 19.1982 16.9038C19.3599 16.9358 19.4946 17.0682 19.4946 17.233V18.4272C19.4946 18.5921 19.3609 18.7257 19.196 18.7257H13.4442M13.4442 11.5609H10.2399C10.0751 11.5609 9.94141 11.6945 9.94141 11.8594V13.0778C9.94141 13.2329 10.0608 13.3606 10.2112 13.3986C10.7794 13.5421 11.5675 14.0155 11.5675 15.1433C11.5675 16.3461 10.8037 16.7917 10.2378 16.9038C10.076 16.9358 9.94141 17.0682 9.94141 17.233V18.4272C9.94141 18.5921 10.0751 18.7257 10.2399 18.7257H13.4442M13.4442 11.5609V12.5844M13.4442 13.608V14.6315M13.4442 15.6551V16.6786M13.4442 18.7257V17.7022" stroke="#1A1528" stroke-width="0.597072" stroke-linecap="round" stroke-linejoin="round"/>
</svg>
