<svg width="30" height="30" viewBox="0 0 30 30" fill="none" xmlns="http://www.w3.org/2000/svg">
<rect x="0.388184" y="0.388367" width="28.6595" height="28.6595" rx="14.3297" fill="#FFED46"/>
<path d="M13.4442 11.1357H19.196C19.3609 11.1357 19.4946 11.2693 19.4946 11.4342V12.6526C19.4946 12.8077 19.3751 12.9354 19.2248 12.9734C18.6565 13.1169 17.8685 13.5903 17.8685 14.7181C17.8685 15.9209 18.6323 16.3665 19.1982 16.4786C19.3599 16.5107 19.4946 16.643 19.4946 16.8079V18.002C19.4946 18.1669 19.3609 18.3005 19.196 18.3005H13.4442M13.4442 11.1357H10.2399C10.0751 11.1357 9.94141 11.2693 9.94141 11.4342V12.6526C9.94141 12.8077 10.0608 12.9354 10.2112 12.9734C10.7794 13.1169 11.5675 13.5903 11.5675 14.7181C11.5675 15.9209 10.8037 16.3665 10.2378 16.4786C10.076 16.5107 9.94141 16.643 9.94141 16.8079V18.002C9.94141 18.1669 10.0751 18.3005 10.2399 18.3005H13.4442M13.4442 11.1357V12.1592M13.4442 13.1828V14.2063M13.4442 15.2299V16.2534M13.4442 18.3005V17.277" stroke="#1A1528" stroke-width="0.597072" stroke-linecap="round" stroke-linejoin="round"/>
</svg>
