<svg width="289" height="16" viewBox="0 0 289 16" fill="none" xmlns="http://www.w3.org/2000/svg">
<g clip-path="url(#clip0_1_729)">
<mask id="mask0_1_729" style="mask-type:luminance" maskUnits="userSpaceOnUse" x="0" y="0" width="289" height="16">
<path d="M289 0H0V16H289V0Z" fill="white"/>
</mask>
<g mask="url(#mask0_1_729)">
<path d="M288.661 1.71751C289.085 1.76728 288.932 1.24473 289 1.1452C288.288 1.26132 288.679 1.85023 288.661 1.71751Z" fill="#FFBF00"/>
<path d="M281.61 2.89486L281.738 2.6875L280.695 3.21005L281.61 2.89486Z" fill="#FFBF00"/>
<path d="M275.017 2.88603C275.644 3.77354 277.407 2.74503 278.576 3.06022L278.771 3.25928L279.305 2.54596C277.881 2.66208 276.026 3.13486 275.017 2.88603Z" fill="#FFBF00"/>
<path d="M271.5 0.962332C271.72 1.3107 270.737 1.26094 272.322 1.07016C272.246 1.02869 272.221 1.0121 272.17 0.978925C272.025 0.978925 271.83 0.978925 271.5 0.954041V0.962332Z" fill="#FFBF00"/>
<path d="M272.169 0.987703C271.712 0.697393 272.865 0.962818 272.169 0.987703V0.987703Z" fill="#FFBF00"/>
<path d="M268.966 1.19495L269.881 0.879762C269.687 0.6724 268.873 0.630928 269.178 0.481628C268.237 0.655812 268.432 0.854878 268.966 1.18666V1.19495Z" fill="#FFBF00"/>
<path d="M268.102 1.84071L268.577 1.708C268.492 1.62506 268.364 1.59188 268.102 1.84071Z" fill="#FFBF00"/>
<path d="M269.577 1.43567L268.568 1.71768C268.703 1.85869 268.712 2.149 269.026 1.61814C268.94 1.88357 269.144 1.62645 269.568 1.43567H269.577Z" fill="#FFBF00"/>
<path d="M270.144 1.56781C270.661 1.75859 271.322 1.87471 270.406 2.18989C272.153 2.06548 271.898 1.4434 270.144 1.56781Z" fill="#FFBF00"/>
<path d="M274.687 3.80767L275.373 4.06479L275.966 3.7662C275.67 3.9155 274.644 3.52565 274.687 3.80767Z" fill="#FFBF00"/>
<path d="M263.263 0.755493C263.203 0.946266 263.577 1.26146 263.645 1.50199L264.322 1.28634C263.975 1.16192 263.313 1.0458 263.271 0.763788L263.263 0.755493Z" fill="#FFBF00"/>
<path d="M263.645 1.50183L262.636 1.83361C263.542 1.86679 263.704 1.70919 263.645 1.50183Z" fill="#FFBF00"/>
<path d="M267.94 2.82814L269.602 2.13971L267.619 2.83644L267.94 2.82814Z" fill="#FFBF00"/>
<path d="M259.407 0.746612L259.975 0.307007L258.958 0.970563L259.407 0.746612Z" fill="#FFBF00"/>
<path d="M256.847 0.837739C257.271 0.472784 256.263 0.22395 256.711 0C256.017 0.0663556 255.423 0.381544 254.889 0.663556C255.458 0.505961 256.06 0.53914 256.847 0.837739Z" fill="#FFBF00"/>
<path d="M253.992 1.0783C254.271 0.987058 254.568 0.829463 254.889 0.663574C254.585 0.746519 254.288 0.870935 253.992 1.0783Z" fill="#FFBF00"/>
<path d="M260.915 1.74135C260.839 1.62523 260.687 1.32663 260.119 1.20221L260.517 1.73306C260.636 1.73306 260.779 1.73306 260.915 1.73306V1.74135Z" fill="#FFBF00"/>
<path d="M260.526 1.751L260.509 1.73441C260.076 1.71783 259.779 1.70953 259.653 1.70953C259.763 1.70953 260.025 1.72612 260.526 1.751Z" fill="#FFBF00"/>
<path d="M261.017 1.74261C261.017 1.74261 260.949 1.74261 260.915 1.74261C260.957 1.79238 260.975 1.80898 261.017 1.74261Z" fill="#FFBF00"/>
<path d="M265.289 2.36395C264.695 2.66255 263.458 2.98603 264.661 3.43394C265.085 3.06898 264.399 2.81185 265.289 2.36395Z" fill="#FFBF00"/>
<path d="M261.509 2.4045L262.584 2.52062C262.559 2.37962 262.364 2.17226 262.661 2.03125L261.509 2.4045Z" fill="#FFBF00"/>
<path d="M260.983 2.5796L261.509 2.40542L261.109 2.36395L260.983 2.5796Z" fill="#FFBF00"/>
<path d="M255.831 1.5678C255.364 1.80005 254.864 1.82493 254.288 1.85811C254.907 1.95764 255.542 2.0157 256.144 2.00741C256.229 1.84151 256.491 1.54292 255.831 1.5595V1.5678Z" fill="#FFBF00"/>
<path d="M258.11 1.70038C258.11 1.70038 258.034 1.72526 258.009 1.73355C258.076 1.77503 258.127 1.79162 258.11 1.70038Z" fill="#FFBF00"/>
<path d="M248.644 1.89893L248.737 1.99016L248.763 1.89893H248.644Z" fill="#FFBF00"/>
<path d="M256.246 2.10715C256.713 2.20669 256.983 2.07397 257.246 1.90808C256.898 1.96614 256.534 1.99933 256.144 2.00762C256.111 2.08226 256.102 2.13203 256.246 2.10715Z" fill="#FFBF00"/>
<path d="M252.416 1.33453C252.652 1.44235 252.932 1.5336 253.22 1.62483C252.983 1.45894 252.5 1.20181 252.416 1.33453Z" fill="#FFBF00"/>
<path d="M257.856 1.58469C257.856 1.58469 257.898 1.5681 257.924 1.5598C257.771 1.44368 257.788 1.50174 257.856 1.58469Z" fill="#FFBF00"/>
<path d="M257.856 1.58367C257.619 1.65832 257.432 1.79103 257.245 1.90715C257.526 1.86568 257.788 1.80762 258.008 1.72468C257.949 1.68321 257.889 1.63344 257.856 1.57538V1.58367Z" fill="#FFBF00"/>
<path d="M246.966 5.32516C247.042 4.83578 248.254 4.363 249.305 4.88555C250.331 4.50401 249.644 2.89489 248.737 1.99078C248.704 2.20644 248.712 2.40551 247.653 2.70411C248.025 2.96953 250.009 3.30961 249.119 3.7658C247.712 4.03123 247.966 3.59991 247.28 3.34278C247.865 3.94828 245.5 4.25517 245.814 5.15097L247.042 4.8192C247.068 4.9602 246.619 5.18415 246.966 5.30857V5.32516Z" fill="#FFBF00"/>
<path d="M250.763 2.02307L251.195 1.95672C250.695 1.87377 250.339 1.683 249.678 1.30145C248.95 1.55029 248.805 1.73277 248.754 1.89866L250.907 1.94843L250.754 2.02307H250.763Z" fill="#FFBF00"/>
<path d="M253.161 1.94116C252.822 2.4803 251.779 2.71255 252.424 3.29316C253.704 3.24339 253.322 2.83696 254.085 2.60472C252.017 2.74572 254.678 2.30612 253.178 2.00751C253.585 1.91627 253.95 1.8831 254.297 1.85821C253.924 1.79186 253.568 1.71721 253.229 1.61768C253.246 1.63427 253.263 1.64256 253.28 1.65085H253.288C253.381 1.71721 253.407 1.75868 253.306 1.71721C253.306 1.71721 253.271 1.72551 253.263 1.72551C253.246 1.80015 253.212 1.86651 253.17 1.92457C252.568 1.81674 253.076 1.78357 253.263 1.72551C253.263 1.70062 253.288 1.67574 253.288 1.64256L251.22 1.94116C251.661 2.01581 252.212 1.99093 253.178 1.92457L253.161 1.94116Z" fill="#FFBF00"/>
<path d="M263.559 4.58767C263.491 4.5379 263.5 4.50473 263.491 4.46326C263.356 4.52961 263.305 4.57108 263.559 4.58767Z" fill="#FFBF00"/>
<path d="M262.703 4.27098C262.856 4.19633 262.975 3.98067 263.466 4.03043C263.89 4.18803 263.466 4.28756 263.492 4.46175C263.788 4.32074 264.525 4.07191 263.593 3.81478L263.449 3.88943C262.619 3.70695 261.542 3.04339 261.687 2.96875C261.933 3.44982 262.144 3.7899 262.703 4.26268V4.27098Z" fill="#FFBF00"/>
<path d="M257.873 3.24261L256.153 3.51634L257.034 3.98083L256.992 3.69881C257.975 3.80664 257.763 3.45828 257.882 3.24261H257.873Z" fill="#FFBF00"/>
<path d="M248.449 1.63481L248.669 1.0625L247.687 1.87536L248.449 1.63481Z" fill="#FFBF00"/>
<path d="M246.212 1.71734L246.288 1.22797L245.695 1.52656L246.212 1.71734Z" fill="#FFBF00"/>
<path d="M120.025 10.8069L119.525 10.9646C119.763 10.9148 119.915 10.8567 120.025 10.8069Z" fill="#FFBF00"/>
<path d="M123.686 10.6918L123.763 10.443C123.602 10.584 123.534 10.6836 123.686 10.6918Z" fill="#FFBF00"/>
<path d="M191.17 2.58777C190.423 2.14817 189.576 1.45143 189.678 1.99886L189.915 2.52971C190.432 2.42188 190.822 2.47165 191.161 2.57947L191.17 2.58777Z" fill="#FFBF00"/>
<path d="M153.593 6.80154C153.661 6.8513 153.738 6.90936 153.814 6.95913C153.983 6.76836 154.144 6.58587 154.296 6.42828C154.085 6.54441 153.848 6.66882 153.593 6.80154Z" fill="#FFBF00"/>
<path d="M153.144 9.04865L152.161 8.73346C152.381 8.84958 152.703 8.9574 153.144 9.04865Z" fill="#FFBF00"/>
<path d="M100.068 12.2096L99.5002 12.7818C100.424 12.7404 99.9998 12.4833 100.068 12.2096Z" fill="#FFBF00"/>
<path d="M223.254 2.16535C222.61 1.96629 222.11 1.88334 221.661 1.85846C222.432 2.15706 223.059 2.61325 223.254 2.16535Z" fill="#FFBF00"/>
<path d="M121.237 5.02576C120.932 5.13359 120.805 5.24971 120.813 5.37412C121.127 5.2663 121.305 5.15847 121.237 5.02576Z" fill="#FFBF00"/>
<path d="M219.822 1.89202C219.932 1.94179 220.042 1.96668 220.161 2.01645C220.627 1.91691 221.094 1.84226 221.661 1.86714C221.094 1.64319 220.441 1.51048 219.822 1.89202Z" fill="#FFBF00"/>
<path d="M27.6017 15.6095C27.5508 15.5847 27.483 15.5847 27.4321 15.5515C27.4237 15.6262 27.4914 15.6262 27.6017 15.6095Z" fill="#FFBF00"/>
<path d="M6.1272 11.546C6.33059 11.4963 6.66957 11.4796 6.9916 11.4465C6.83059 11.4216 6.56787 11.4465 6.1272 11.546Z" fill="#FFBF00"/>
<path d="M237.187 1.55962C237.262 1.50156 237.661 1.51814 237.187 1.55962V1.55962Z" fill="#FFBF00"/>
<path d="M239.525 3.67462C239.424 3.73268 239.347 3.81563 239.339 3.94004C239.373 3.80733 239.44 3.72438 239.525 3.67462Z" fill="#FFBF00"/>
<path d="M215.144 5.31616C215.144 5.31616 215.118 5.31616 215.102 5.31616C215.246 5.41569 215.221 5.39911 215.144 5.31616Z" fill="#FFBF00"/>
<path d="M237.907 1.79913C237.729 1.73278 237.525 1.68301 237.297 1.64154C237.398 1.68301 237.585 1.73278 237.907 1.79913Z" fill="#FFBF00"/>
<path d="M237.805 1.54285C237.966 1.55943 238.102 1.57602 238.22 1.59262C238.28 1.50137 238.22 1.44331 237.805 1.54285Z" fill="#FFBF00"/>
<path d="M236.525 1.60117C236.796 1.59287 237.051 1.61775 237.297 1.65093C237.204 1.61775 237.161 1.58458 237.187 1.56799C237.051 1.56799 236.848 1.58458 236.525 1.60117Z" fill="#FFBF00"/>
<path d="M66.3306 11.9432C66.3306 11.9432 66.2628 11.9183 66.2289 11.8934C65.7628 12.1422 65.9747 12.0924 66.3306 11.9432Z" fill="#FFBF00"/>
<path d="M178.949 8.47715C178.949 8.47715 178.983 8.46055 179 8.45226C178.974 8.45226 178.949 8.44396 178.932 8.43567L178.949 8.47715Z" fill="#FFBF00"/>
<path d="M177.255 8.91636C177.966 8.22793 178.381 8.29428 178.932 8.42698L178.33 6.88422L177.255 8.91636Z" fill="#FFBF00"/>
<path d="M111.271 11.3132L112.492 11.7528C111.085 12.6071 110.026 12.3749 111.178 13.0136C111.271 11.3215 115.814 12.6569 115.915 10.9649L116.721 11.2884C116.492 11.2884 116.458 11.3796 116.237 11.3713C117.805 12.1178 117.322 10.1022 119.314 10.2681C120.009 10.3677 120.5 10.5999 120.034 10.8156L121.551 10.3345C122 10.351 121.899 10.6497 121.458 10.6331L123.788 10.4091L123.772 10.4589C124.093 10.1769 124.839 9.7373 125.195 9.55481C125.796 9.77043 124.906 9.74558 125.068 9.95292L126.348 9.48845C126.89 9.90314 125.84 10.3677 124.941 10.3428C126.22 11.9768 126 9.87001 128.653 10.7658L127.441 11.0229C128.263 11.9519 129.212 11.5703 130.61 12.1178C130.271 11.8192 127.78 10.7077 129.17 10.2433C129.568 10.3593 130.093 10.4008 130.839 10.0358C130.873 10.6331 131.601 10.4589 132.534 10.3925L132.5 11.1888C133.491 10.9234 133.398 10.5253 133.975 10.1437C135.093 10.1852 135.348 10.7907 135.627 11.2966C137.423 11.363 134.356 10.351 136.466 10.1271C137.966 10.376 139.001 10.0193 140.763 9.48017C141.814 9.72074 140.601 9.96949 140.983 10.1852L141.882 9.52158C142.111 9.52158 142.043 9.72902 142.008 9.8285C142.78 9.55481 142.043 9.03226 143.263 8.77513C143.559 7.88762 145.822 9.96949 147.296 8.93272C147.678 9.14838 147.136 9.4221 147.254 9.72902C149.305 9.01566 149.017 9.19814 150.695 8.26916L152.161 8.75024C151.076 8.18622 152.415 7.43972 153.593 6.81764C153.204 6.54392 152.873 6.29509 152.652 6.18726L154.551 5.69789C154.788 5.8223 154.602 6.10431 154.296 6.44439C154.424 6.37803 154.542 6.30338 154.644 6.24532C155.34 6.51903 155 6.99181 154.525 7.44801C154.288 7.29871 154.051 7.14112 153.822 6.97523C153.364 7.4729 152.94 8.02033 153.059 8.48482C153.178 8.38528 153.415 8.30235 153.678 8.25258C153.56 8.38528 153.483 8.50971 153.542 8.58435C153.61 8.6673 153.806 8.48482 154.11 8.26916L154.577 9.14008L154.67 8.78342L157.178 9.2645C158.932 8.31893 160.45 6.95035 163.272 6.50245C162.585 7.1743 163.153 7.57244 163.136 8.34381C162.339 7.54755 160.949 8.75853 159.483 8.63412C160.254 8.69218 160.094 9.06543 159.907 9.20644L162.5 8.38528C162.457 9.01566 163.068 8.84148 163.763 9.08202C163.212 7.84615 165.686 8.20281 166.745 7.78809C166.822 8.20281 166.585 8.64241 165.279 8.57606C166.738 9.47189 167.094 7.06647 168.525 7.82126C168.212 7.83786 168.034 7.7798 167.916 7.99545C168.644 7.60561 170.466 7.85444 170.051 8.22769L169.738 8.24429C171.848 8.33552 176.152 8.08668 176.44 7.0167C176.466 7.14941 176.195 8.30235 176.077 8.518L179.746 4.86014C179.44 5.78083 180.763 7.90421 179.034 8.46823C179.543 8.58435 180.161 8.71707 181.212 8.37699C180.864 8.25258 180.322 7.08306 180.788 6.99182C182.102 7.97886 181.695 7.51437 183.297 8.34381C182.78 8.16134 183.313 6.72639 184.128 6.75128C184.009 6.96694 184.229 8.15304 183.932 8.31064L185.915 6.8674C185.416 7.13282 185.856 8.05351 186.313 8.44334C186.102 8.17792 188.06 8.42676 188.594 8.27746L187.729 7.97056C190.009 8.12816 189.932 5.95501 192.195 5.9799C191.924 6.2785 191.559 7.77149 192.712 7.92079C193.221 7.19088 194.966 4.42054 196.957 3.83164L197.348 4.22976L198.873 3.7321C197.941 4.82697 195.305 7.15771 193.856 8.0701C194.712 8.37699 194.102 8.55117 195.381 8.48482C195.839 8.85807 194.695 9.08202 194.322 9.1152L197.297 9.29768C197.144 8.45994 199.551 8.41017 199.424 7.72173L196.212 8.659C196.06 7.82956 198.025 6.23703 200.144 6.35315C200.687 6.67663 199.771 7.84615 199.823 8.12816C200.093 7.83786 201.814 7.53925 202.008 7.74662L201.127 8.2111C202.305 8.5014 203.017 7.06647 204.441 7.84615C204.933 7.88762 205.915 8.89954 205.992 8.40188C205.178 7.4646 204.966 4.51178 205.483 3.79016C205.652 3.84822 208.059 4.66108 208.619 5.11727C209.432 5.85548 207.449 6.92546 208.144 7.55584C208.17 7.3236 208.61 7.03329 208.788 6.94205C209.305 7.12453 208.593 7.65537 209.695 7.53096C209.865 6.67663 211.958 7.56413 210.204 6.80105C211.288 6.53563 211.364 6.95864 212.636 6.89228C212.221 6.35315 213.746 5.00944 214.83 4.74402C214.771 4.95968 215.017 5.2334 215.136 5.36611C217.364 5.39929 218.568 5.78083 220.644 5.75595C220.839 5.95501 221.848 6.19555 221.424 6.5688C221.721 6.41121 221.991 6.12091 222.627 6.09602C223.873 6.80934 221.204 6.22873 222.161 7.09964C222.237 6.60198 223.805 6.39462 224.712 6.07943C224.424 5.32463 222.602 5.96331 221.695 6.2785C221.678 5.2251 223.246 4.10535 225.415 3.59109C227.136 3.30909 226.169 4.26295 226.466 4.10535C229.712 4.24636 229.204 2.2391 231.907 2.96072C232.983 3.61597 231.974 4.28782 232.212 4.76891C230.814 5.04262 230.051 4.37077 229.093 4.41225L230.271 4.71084C229.831 4.94309 228.89 5.11727 228.373 4.9348C229.279 5.5237 233.848 4.96797 236.356 5.50711C236.796 5.28316 237.559 5.04262 237.195 4.7772L236.407 4.87674C235.67 4.34589 237.89 4.12194 236.882 3.8731C237.941 3.48327 239.128 2.87777 240.618 3.16808L240.906 3.93116C240.873 3.70721 239.924 3.48327 239.508 3.7238C240.128 3.38373 241.814 4.73573 242.484 3.7238L241.432 3.20125C242.491 2.81142 243.805 1.99026 245.135 2.21421C244.526 1.46771 244.831 2.30545 243.882 1.42624C244.704 2.51281 240.491 1.40965 241.814 2.55429C240.84 1.54237 240.136 2.13127 238.864 1.27694C238.906 1.52577 239.313 1.75802 238.203 1.64189C238.152 1.71655 238.034 1.80779 237.958 1.86585C237.924 1.86585 237.915 1.85756 237.882 1.84925C237.906 1.85756 237.924 1.86585 237.941 1.88244C237.89 1.92391 237.89 1.9322 237.966 1.89073C238.229 1.99856 238.449 2.13127 238.534 2.27228C237.992 2.85289 236.22 2.85289 235.627 3.15979C234.966 3.04366 235.899 2.86948 235.534 2.60405L234.644 3.06025C234.551 2.50452 232.881 2.15615 234.433 1.80779H233.034C232.204 1.50089 231.068 1.38477 230.373 1.6336C229.712 1.51748 228.712 2.27228 229.28 1.83267L227.093 2.20592L227.068 2.06492C224.899 2.02344 222.627 3.05196 220.136 2.06492C219.407 2.21421 218.661 2.39669 217.432 2.25568L217.186 1.77461C216.254 1.95709 214.364 1.33501 213.975 1.84925C212.94 0.563619 209.424 1.64189 207.78 1.44283L207.729 2.07321C206.593 2.05662 205.509 2.25568 204.111 2.52941L204.204 3.08513C203 3.56621 201.076 2.74506 199.161 2.83629C199.289 2.62064 199.771 2.67041 200.119 2.79483C197.805 1.56725 195.305 3.81504 193.203 2.93583C192.687 3.15149 192.313 3.08513 191.95 2.96072C192 2.96072 192.043 2.94413 192.076 2.92754C192.025 2.92754 191.941 2.92754 191.865 2.92754C191.636 2.83629 191.398 2.72847 191.135 2.64553C191.356 2.77823 191.568 2.88606 191.746 2.92754C191.348 2.94413 190.746 3.02707 190.153 3.18466L189.89 2.58747C189.839 2.58747 189.805 2.60405 189.754 2.60405C189.17 2.39669 189.288 2.89436 189.61 3.34226C189.313 3.45009 189.042 3.57451 188.831 3.7238C188.339 2.76994 187.28 4.08046 186.61 3.06854C186.22 3.5828 183.636 3.51645 183.348 4.57813C183.322 4.43713 183.144 4.37907 183.466 4.36248C182.805 4.25465 182.136 4.14683 181.55 4.46201L181.255 3.70721L179.839 4.76891C178.949 4.3293 178.576 4.07217 179.433 3.45838C177.348 4.41225 177.737 3.83993 175.967 4.7855L176.042 4.28782C175.407 4.32101 174.398 5.00944 174 4.61132C172.543 3.71551 166.916 4.66938 163.22 3.89799C163.975 5.32463 161.492 3.29249 161.382 4.42883C161.161 4.09706 160.635 3.91458 161.229 3.59939C159.364 3.99752 158.398 3.14319 157.127 4.13023C156.898 3.79016 157.509 3.61597 157.314 3.41691C157.169 3.49156 156.729 3.7321 156.525 3.53303C156.331 3.33397 156.788 3.23443 157.085 3.07684C155.169 3.19296 155.008 4.25465 154.907 5.24999C153.924 4.81037 153.441 4.89332 152.762 5.56517C152.415 5.24999 151.839 4.9265 153.026 4.7772C152.356 4.75231 148.924 4.42883 148.881 5.2251C148.661 5.02604 147.94 5.19193 147.771 5.29146C146.271 5.29146 146.136 5.2251 144.661 5.34123L145.076 5.45735C144.526 6.43609 143.856 5.71448 142.669 5.87207L142.704 5.77254C139.957 5.17533 141.542 6.14578 138.823 5.44905L138.992 6.03796C138.788 7.33189 136.585 5.36611 135.043 5.91354L135.619 6.23703C134.779 6.70981 133.17 4.57813 132.306 4.44542C132.11 4.33759 132.594 4.25465 132.847 4.16341C130.576 3.48327 132.585 4.95138 130.924 5.19193C130.602 4.7855 131.28 4.10535 130.153 4.06388C129.576 3.7404 126.941 5.54029 125.381 4.79379C125.729 5.10898 126.077 5.41587 125.313 5.68959C124.128 5.85548 122.051 4.58643 121.017 5.65642C120.864 5.57347 120.805 5.49053 120.788 5.40758C119.89 5.70618 117.856 5.96331 117.33 6.54392C116.407 4.52007 111.721 7.77149 111.661 5.87207L108.873 6.08772L108.941 5.88866C107.153 5.8306 106.534 6.31996 105.932 6.80934C105.517 6.70152 105.805 6.51074 105.839 6.40291C103.212 6.13749 102.958 6.22873 100.813 7.27383L100.56 6.66833C99.9836 7.04989 96.7376 5.87207 94.2119 6.70152C94.2374 6.62686 94.2798 6.51074 94.4831 6.41121C91.6357 7.25725 87.5001 5.01774 86.5594 7.31531L84.6865 7.96227C87.1526 8.02033 84.373 8.9576 85.3984 9.27279C84.4407 9.45523 82.8645 8.71707 84.051 8.54288L84.2458 8.64241C84.6273 7.44801 81.1696 8.37699 81.195 7.58073C76.3645 7.87103 71.6103 7.44801 67.0763 7.64708L67.6442 8.52629L66.0594 8.55947C65.6357 8.3687 65.4662 7.87932 66.5933 7.85444C65.9747 7.37337 64.7289 8.38528 64.7035 8.58435C62.4746 8.33552 65.5086 7.48119 64.8306 7.48949L63.9153 7.60561L64.1272 7.69685C63.3984 8.11157 63.356 8.5014 62.0001 8.53459C61.1357 8.40188 61.5255 7.99545 61.1865 7.97885C61.1865 7.9125 61.0679 7.88762 60.6695 7.97885L58.678 8.00374L59.5171 8.67559C58.6527 9.07372 57.6441 8.73365 58.6103 9.50502C57.1865 8.31893 51.1612 9.45523 50.3052 9.12349C49.1018 9.72074 47.8815 9.77871 46.3645 9.80365C46.7459 9.92808 47.0255 10.7243 45.712 10.6995C46.0848 9.00737 43.2798 10.1189 42.1527 8.98249C43.1442 9.72074 38.4577 9.38892 40.0085 10.4341C38.9153 10.3593 39.9069 9.81194 39.0509 9.47189C36.5 10.2598 33.3221 9.39721 30.1357 9.81194C30.1018 10.0358 30.6527 10.3345 29.9916 10.6995L28.2289 9.71236C27.6018 9.86172 27.7289 11.0063 26.5255 10.3262C26.7035 10.5004 26.9577 10.7658 26.5425 10.857C20.2035 10.1685 13.8052 12.5408 7.30518 10.9732C8.195 11.3381 7.62721 11.4211 6.96619 11.4791C7.3984 11.5538 6.99161 12.0182 7.10179 12.3086L4.38145 11.6616C3.95772 12.5159 1.53399 11.9104 1.30518 12.715L2.13569 12.5159C1.08484 13.5195 3.84755 14.4734 3.77127 15.6678C4.94925 14.5315 7.18653 17.0032 9.14416 15.3609C9.61874 15.5765 8.77975 15.7673 9.04246 16.0327C9.52551 15.4853 10.1526 15.3361 11.3306 15.4936L11.2035 15.6263C14.4747 15.2863 15.9153 15.6844 19.6187 15.784L19.3052 15.2117C20.1018 15.2448 20.2798 15.419 20.6611 15.5351C21.5086 14.5895 18.4323 15.6263 19.195 14.5895C20.3222 15.7176 24.7798 14.2578 25.5848 15.5765C26.8051 15.5102 25.1866 14.9213 26.3984 14.8467L26.7458 15.195L27.0255 14.7057C27.8306 14.7305 28.2628 15.1701 28.3137 15.4771C28.1188 15.4521 27.7713 15.6015 27.5594 15.6346C28.6272 15.9996 30.4662 15.3029 30.8306 15.4273L29.6441 15.2697C32.9493 14.714 37.034 14.9462 40.2035 14.0172L39.9408 13.7518C42.3645 13.0965 41.9239 13.9426 44.6018 13.5527L44.5086 13.6274C45.034 13.3205 45.7458 13.1381 46.4832 13.1297C45.8221 13.4947 47.8052 13.6854 46.9323 14.1001C49.5594 13.3951 48.2204 13.5942 49.9154 12.4579L50.3475 12.8975C50.9238 12.4496 50.9577 12.2256 52.2967 12.0265C51.212 12.4827 53.195 12.6818 51.9916 13.2708C54.873 14.1085 56.1272 12.0265 57.5085 13.4283C58.7289 12.0846 55.0255 12.8477 55.7374 12.5408C55.1018 12.1592 56.7544 11.5289 57.6441 11.6118C58.5509 11.5953 59.2712 13.1629 61.5425 13.0136C61.3137 13.0136 61.3051 13.1131 61.0849 13.1214C61.9493 13.4035 62.7204 12.5906 63.7967 13.0633C64.3391 12.2588 65.1527 13.0385 65.2628 12.0432L63.195 12.3832C64.3645 12.0597 65.4068 10.857 67.3814 11.3049C67.2374 11.5123 66.6781 11.8026 66.2882 11.9685C66.873 12.2256 67.373 11.7197 67.9746 11.9851C67.8645 12.9804 65.4577 12.3334 64.2289 13.1546C64.8645 13.5362 66.5848 12.3169 66.0086 13.4117C66.8475 12.01 68.2543 13.4615 69.7373 12.35L69.6696 12.9473C69.9069 12.8394 70.3984 12.5325 70.8475 12.5242L70.0764 13.3287C71.2882 12.6071 72.5086 13.7684 73.6781 13.362C71.178 13.5029 73.0763 12.6818 72.0001 12.3003C75.0425 11.3547 73.856 13.7518 77.2882 13.3039C76.8222 13.4117 75.5171 13.0385 76.2289 12.7233C76.8899 12.8145 77.7713 12.997 78.1866 13.2873C80.4662 13.055 77.8051 12.6984 78.7629 12.2919C79.5764 12.9721 79.873 11.9436 80.8645 11.6699L80.8984 12.2671C83.5255 12.5242 81.5255 10.9814 83.8984 11.3381L82.9492 12.2173L84.1611 11.9436L83.9407 12.6404C85.2458 12.068 85.6696 12.1842 86.9832 12.3086C86.6611 11.9021 87.1017 11.2137 88.2543 11.1391C89.0594 11.4542 87.8391 11.728 89.4747 11.5621C89.1272 11.9519 88.7459 12.4496 88.0001 11.927C87.9408 12.1261 87.6527 12.3252 87.5848 12.5159C88.4492 12.8809 89.7205 12.5077 90.3137 12.4744C90.0849 12.4661 89.8137 12.4413 89.6695 12.3667L92.0001 11.4293C92.3814 11.6367 92.0933 11.8357 91.8137 12.0182C92.2882 11.9353 92.6103 11.645 93.3136 11.5621C93.1527 12.0597 93.2204 12.5574 92.2373 12.8311L94.4747 12.1925C94.6356 12.3998 95.6611 12.7233 95.373 12.9141C96.6362 13.1463 98.3989 11.8357 100.076 12.1344C100.162 12.0348 100.331 11.9353 100.678 11.8524C102.246 11.8938 103.653 12.433 105.475 11.6782L106.56 12.5077C108 12.2422 105.094 11.4709 107.492 11.0312C109.187 10.6745 108.161 11.7528 108.771 11.9685C109.602 11.4957 111.042 10.5418 112.644 11.1888C112.136 11.3713 111.721 11.2634 111.237 11.3464L111.271 11.3132ZM129.128 10.2266C128.788 10.3677 128.11 10.7741 127.84 10.4341C128.203 9.72902 128.526 10.0525 129.128 10.2266ZM156.263 7.87103C156.008 8.07839 155.61 7.99545 155.153 7.7798C155.474 7.72174 155.848 7.73003 156.263 7.87103ZM231.983 2.10638C231.983 2.10638 231.958 2.12298 231.949 2.13956C231.169 1.91562 231.449 2.00685 231.983 2.10638ZM233.593 2.34693C233.754 2.26398 233.746 2.18104 233.67 2.09809C233.559 2.24739 233.195 2.26398 232.789 2.23081C232.907 2.3884 233.11 2.49623 233.593 2.35522V2.34693ZM61.0339 8.17792L61.3561 8.31893C60.6611 8.52629 60.8475 8.36041 61.0339 8.17792Z" fill="#FFBF00"/>
<path d="M153.203 8.78302C153.102 8.68349 153.068 8.57566 153.043 8.45953C152.907 8.56736 152.907 8.68349 153.203 8.78302Z" fill="#FFBF00"/>
<path d="M100.169 12.1011H100.118C100.118 12.1011 100.076 12.1674 100.068 12.2089L100.169 12.1011Z" fill="#FFBF00"/>
<path d="M208.78 7.79677C208.449 7.71382 208.263 7.60599 208.136 7.49817C208.118 7.64747 208.271 7.76359 208.78 7.79677Z" fill="#FFBF00"/>
<path d="M242.102 1.25183L241.077 1.41772C241.576 1.38454 241.754 1.51725 242.009 1.60849C241.983 1.46748 241.789 1.26841 242.11 1.25183H242.102Z" fill="#FFBF00"/>
<path d="M251.076 4.88516C251.229 4.81051 251.398 4.87687 251.542 4.80222L251.5 4.5202C250.856 4.54509 250.416 4.76904 251.076 4.88516Z" fill="#FFBF00"/>
<path d="M243.076 3.23444C243.161 3.7404 243.805 3.55792 244.525 3.45839C244.483 3.45839 244.44 3.45839 244.398 3.45839C244.602 2.75336 243.839 2.9939 243.076 3.22615V3.23444Z" fill="#FFBF00"/>
<path d="M244.695 3.44177C244.915 3.41689 245.144 3.40031 245.365 3.42519C245.449 3.14318 245.093 3.36713 244.695 3.44177Z" fill="#FFBF00"/>
<path d="M235.627 1.99104C235.974 2.11545 235.831 1.34408 236.034 1.55144C236.407 0.904469 233.763 2.3477 235.627 1.99104Z" fill="#FFBF00"/>
<path d="M243.678 4.89412L243.415 4.27203L243.016 4.778L243.678 4.89412Z" fill="#FFBF00"/>
<path d="M237.983 4.48747L239.136 4.65336C239.119 4.54553 239.262 4.48747 239.44 4.4377C238.728 4.42111 237.949 4.30499 237.983 4.48747Z" fill="#FFBF00"/>
<path d="M239.44 4.42954C239.814 4.43784 240.161 4.42954 240.365 4.32172C240.161 4.33001 239.737 4.35489 239.44 4.42954Z" fill="#FFBF00"/>
<path d="M242.102 5.09234L241.763 4.96792L240.949 4.92645L242.102 5.09234Z" fill="#FFBF00"/>
<path d="M225.593 4.51288L224.339 4.71195C224.212 4.9276 224.56 5.05202 225.026 4.96078C225.322 4.81148 225.788 4.72024 225.593 4.51288Z" fill="#FFBF00"/>
<path d="M229.415 6.17036C229.077 6.04595 229.051 5.90494 228.856 5.70587L228.831 6.47726L229.415 6.17036Z" fill="#FFBF00"/>
<path d="M225.754 6.3952C225.635 6.61086 223.941 7.03388 225.534 6.96752C225.661 6.75186 226.916 6.56109 225.754 6.3952Z" fill="#FFBF00"/>
<path d="M206.797 5.71581L207.118 5.69923L207.051 4.43018L206.797 5.71581Z" fill="#FFBF00"/>
<path d="M190.178 9.07347C191.669 9.34718 190.517 8.28549 191.864 8.63386C192.203 8.32696 190.754 8.35185 191.11 8.08643C190.22 8.4182 189.746 8.25231 190.178 9.08176V9.07347Z" fill="#FFBF00"/>
<path d="M191.11 8.07956C191.254 8.02979 191.407 7.96344 191.568 7.88049C191.313 7.96344 191.186 8.02979 191.11 8.07956Z" fill="#FFBF00"/>
<path d="M2.57613 11.098L1.60156 10.8989L2.24563 11.2805L2.57613 11.098Z" fill="#FFBF00"/>
<path d="M0.805085 12.1593L0.525424 11.3713L0 12.1427C0.211865 12.0929 0.627119 11.9934 0.805085 12.1676V12.1593Z" fill="#FFBF00"/>
<path d="M131.847 11.7531L131.915 11.554C131.763 11.3466 131.534 11.3383 131.084 11.3217L131.847 11.7448V11.7531Z" fill="#FFBF00"/>
<path d="M118.856 11.6462L119.077 11.6545L118.627 10.9412L118.856 11.6462Z" fill="#FFBF00"/>
<path d="M108.009 13.0053C108.457 13.0135 108.967 12.831 109.415 12.8477C108.449 13.0135 107.848 12.1012 108.009 13.0053Z" fill="#FFBF00"/>
</g>
</g>
<defs>
<clipPath id="clip0_1_729">
<rect width="289" height="16" fill="white"/>
</clipPath>
</defs>
</svg>
