<svg width="17" height="17" viewBox="0 0 17 17" fill="none" xmlns="http://www.w3.org/2000/svg">
<path d="M8.89961 7.88749L8.05594 9.71681L8.22469 10.25L9.17477 11.2001M9.17477 11.2001L10.9246 12.6125L11.9371 14.6375M9.17477 11.2001L10.5871 7.88749L9.23711 6.53749H8.22469L7.21211 6.87499L6.53711 8.89999M11.2621 8.56249L12.6121 9.57499M8.73086 12.2751L7.88719 13.2875L6.87461 14.3M10.9246 4.5125C10.9246 5.07169 10.4713 5.525 9.91211 5.525C9.35292 5.525 8.89961 5.07169 8.89961 4.5125C8.89961 3.95331 9.35292 3.5 9.91211 3.5C10.4713 3.5 10.9246 3.95331 10.9246 4.5125Z" stroke="#1F1F1F" stroke-width="0.9" stroke-linecap="round" stroke-linejoin="round"/>
</svg>
