<svg width="20" height="20" viewBox="0 0 20 20" fill="none" xmlns="http://www.w3.org/2000/svg">
<path d="M10.0007 8.74991L8.95908 11.0083L9.16742 11.6666L10.3403 12.8396M10.3403 12.8396L12.5007 14.5832L13.7507 17.0832M10.3403 12.8396L12.084 8.74991L10.4173 7.08324H9.16742L7.91732 7.49991L7.08398 9.99991M12.9173 9.58324L14.584 10.8332M9.79232 14.1667L8.75075 15.4166L7.50065 16.6666M12.5007 4.58325C12.5007 5.27361 11.941 5.83325 11.2507 5.83325C10.5603 5.83325 10.0007 5.27361 10.0007 4.58325C10.0007 3.8929 10.5603 3.33325 11.2507 3.33325C11.941 3.33325 12.5007 3.8929 12.5007 4.58325Z" stroke="white" stroke-linecap="round" stroke-linejoin="round"/>
</svg>
