<svg width="24" height="24" viewBox="0 0 24 24" fill="none" xmlns="http://www.w3.org/2000/svg">
<path d="M5 8.48123V18C5 18.5523 5.44772 19 6 19H18C18.5523 19 19 18.5523 19 18V15.5818M5 8.48123H16.9259M5 8.48123L15.5742 4.50792C16.228 4.26224 16.9259 4.74553 16.9259 5.44402L16.9259 8.48123M19 12.4524V9.48123C19 8.92894 18.5523 8.48123 18 8.48123H16.9259M19 12.4524H15.1605C14.6082 12.4524 14.1605 12.9001 14.1605 13.4524V14.5818C14.1605 15.1341 14.6082 15.5818 15.1605 15.5818H19M19 12.4524V15.5818" stroke="white" stroke-linejoin="round"/>
</svg>
