<svg width="25" height="24" viewBox="0 0 25 24" fill="none" xmlns="http://www.w3.org/2000/svg">
<path d="M15.1667 12C15.1667 12.5274 15.0103 13.043 14.7173 13.4815C14.4242 13.9201 14.0078 14.2618 13.5205 14.4637C13.0332 14.6655 12.497 14.7183 11.9798 14.6154C11.4625 14.5125 10.9873 14.2586 10.6144 13.8856C10.2414 13.5127 9.98747 13.0375 9.88457 12.5202C9.78168 12.003 9.83449 11.4668 10.0363 10.9795C10.2382 10.4922 10.5799 10.0758 11.0185 9.78275C11.457 9.48973 11.9726 9.33333 12.5 9.33333C13.2072 9.33333 13.8855 9.61428 14.3856 10.1144C14.8857 10.6145 15.1667 11.2928 15.1667 12ZM19.6111 10.2222H19.0867C18.9029 10.2215 18.7239 10.1638 18.5743 10.0572C18.4246 9.95053 18.3117 9.80012 18.2511 9.62667C18.172 9.46018 18.1466 9.27321 18.1785 9.09167C18.2103 8.91012 18.2979 8.74296 18.4289 8.61333L18.7933 8.24889C18.8766 8.16626 18.9428 8.06794 18.9879 7.95962C19.033 7.8513 19.0563 7.73512 19.0563 7.61778C19.0563 7.50043 19.033 7.38425 18.9879 7.27593C18.9428 7.16761 18.8766 7.0693 18.7933 6.98667L17.5311 5.71556C17.4485 5.63224 17.3502 5.56611 17.2418 5.52099C17.1335 5.47586 17.0173 5.45262 16.9 5.45262C16.7827 5.45262 16.6665 5.47586 16.5582 5.52099C16.4498 5.56611 16.3515 5.63224 16.2689 5.71556L15.9044 6.08C15.7748 6.21104 15.6077 6.29854 15.4261 6.33039C15.2446 6.36224 15.0576 6.33687 14.8911 6.25778C14.7129 6.19967 14.5576 6.08671 14.4475 5.93505C14.3373 5.78338 14.2779 5.60078 14.2778 5.41333V4.88889C14.2778 4.65314 14.1841 4.42705 14.0174 4.26035C13.8507 4.09365 13.6246 4 13.3889 4H11.6111C11.3754 4 11.1493 4.09365 10.9826 4.26035C10.8159 4.42705 10.7222 4.65314 10.7222 4.88889V5.41333C10.7215 5.59708 10.6638 5.77609 10.5572 5.92572C10.4505 6.07535 10.3001 6.18825 10.1267 6.24889V6.24889C9.96018 6.32798 9.77321 6.35335 9.59167 6.3215C9.41012 6.28965 9.24296 6.20215 9.11333 6.07111L8.74889 5.70667C8.66626 5.62335 8.56794 5.55722 8.45962 5.5121C8.3513 5.46697 8.23512 5.44373 8.11778 5.44373C8.00043 5.44373 7.88425 5.46697 7.77593 5.5121C7.66761 5.55722 7.5693 5.62335 7.48667 5.70667L6.21556 6.96889C6.13224 7.05152 6.06611 7.14983 6.02099 7.25815C5.97586 7.36647 5.95262 7.48266 5.95262 7.6C5.95262 7.71734 5.97586 7.83353 6.02099 7.94185C6.06611 8.05017 6.13224 8.14848 6.21556 8.23111L6.58 8.59556C6.71104 8.72518 6.79854 8.89234 6.83039 9.07389C6.86224 9.25544 6.83687 9.4424 6.75778 9.60889C6.69714 9.78235 6.58424 9.93275 6.43461 10.0394C6.28498 10.1461 6.10597 10.2037 5.92222 10.2044H5.38889C5.15314 10.2044 4.92705 10.2981 4.76035 10.4648C4.59365 10.6315 4.5 10.8576 4.5 11.0933V12.8711C4.5 13.1069 4.59365 13.333 4.76035 13.4997C4.92705 13.6663 5.15314 13.76 5.38889 13.76H5.91333C6.09708 13.7607 6.27609 13.8184 6.42572 13.925C6.57535 14.0317 6.68825 14.1821 6.74889 14.3556V14.3556C6.82798 14.522 6.85335 14.709 6.8215 14.8906C6.78965 15.0721 6.70215 15.2393 6.57111 15.3689L6.20667 15.7333C6.12335 15.816 6.05722 15.9143 6.0121 16.0226C5.96697 16.1309 5.94373 16.2471 5.94373 16.3644C5.94373 16.4818 5.96697 16.598 6.0121 16.7063C6.05722 16.8146 6.12335 16.9129 6.20667 16.9956L7.46 18.2489C7.54263 18.3322 7.64095 18.3983 7.74927 18.4435C7.85758 18.4886 7.97377 18.5118 8.09111 18.5118C8.20845 18.5118 8.32464 18.4886 8.43296 18.4435C8.54128 18.3983 8.63959 18.3322 8.72222 18.2489L9.08667 17.8844C9.21629 17.7534 9.38345 17.6659 9.565 17.6341C9.74655 17.6022 9.93351 17.6276 10.1 17.7067C10.2735 17.7673 10.4239 17.8802 10.5305 18.0298C10.6372 18.1795 10.6948 18.3585 10.6956 18.5422V19.1111C10.6956 19.3469 10.7892 19.573 10.9559 19.7397C11.1226 19.9064 11.3487 20 11.5844 20H13.3622C13.598 20 13.8241 19.9064 13.9908 19.7397C14.1575 19.573 14.2511 19.3469 14.2511 19.1111V18.5867C14.2518 18.4029 14.3095 18.2239 14.4162 18.0743C14.5228 17.9246 14.6732 17.8117 14.8467 17.7511C15.0132 17.672 15.2001 17.6466 15.3817 17.6785C15.5632 17.7103 15.7304 17.7979 15.86 17.9289L16.2244 18.2933C16.3071 18.3766 16.4054 18.4428 16.5137 18.4879C16.622 18.533 16.7382 18.5563 16.8556 18.5563C16.9729 18.5563 17.0891 18.533 17.1974 18.4879C17.3057 18.4428 17.404 18.3766 17.4867 18.2933L18.74 17.04C18.8233 16.9574 18.8894 16.8591 18.9346 16.7507C18.9797 16.6424 19.0029 16.5262 19.0029 16.4089C19.0029 16.2915 18.9797 16.1754 18.9346 16.067C18.8894 15.9587 18.8233 15.8604 18.74 15.7778L18.3756 15.4133C18.2445 15.2837 18.157 15.1165 18.1252 14.935C18.0933 14.7535 18.1187 14.5665 18.1978 14.4V14.4C18.2584 14.2265 18.3713 14.0761 18.5209 13.9695C18.6706 13.8628 18.8496 13.8052 19.0333 13.8044H19.6111C19.8469 13.8044 20.073 13.7108 20.2397 13.5441C20.4064 13.3774 20.5 13.1513 20.5 12.9156V11.1111C20.5 10.8754 20.4064 10.6493 20.2397 10.4826C20.073 10.3159 19.8469 10.2222 19.6111 10.2222Z" stroke="#404040" stroke-linecap="round" stroke-linejoin="round"/>
</svg>
