<svg width="44" height="44" viewBox="0 0 44 44" fill="none" xmlns="http://www.w3.org/2000/svg">
<rect width="44" height="44" rx="16" fill="#FFCE48"/>
<path d="M31.3333 21.3612V17.8949C31.3333 17.2506 30.811 16.7282 30.1667 16.7282H28.9136M31.3333 21.3612H26.8539C26.2096 21.3612 25.6872 21.8836 25.6872 22.5279V23.8456C25.6872 24.4899 26.2096 25.0123 26.8539 25.0123H31.3333M31.3333 21.3612V25.0123M31.3333 25.0123V27.8335C31.3333 28.4778 30.811 29.0001 30.1667 29.0001L23.75 29.0001M15 16.7282H28.9136M15 16.7282L27.3365 12.0927C28.0994 11.8061 28.9136 12.3699 28.9136 13.1848L28.9136 16.7282M15 16.7282V20.8335M14.1752 27.8335H17.9204M17.9204 27.8335L16.4936 29.389M17.9204 27.8335L16.4936 26.2779M21.1306 27.8335C21.1306 30.4108 18.9747 32.5001 16.3153 32.5001C13.6559 32.5001 11.5 30.4108 11.5 27.8335C11.5 25.2561 13.6559 23.1668 16.3153 23.1668C18.9747 23.1668 21.1306 25.2561 21.1306 27.8335Z" stroke="#1A1528" stroke-width="1.5" stroke-linecap="round" stroke-linejoin="round"/>
</svg>
